<?xml version="1.0" standalone="no"?>
<!DOCTYPE svg PUBLIC "-//W3C//DTD SVG 1.1//EN" "http://www.w3.org/Graphics/SVG/1.1/DTD/svg11.dtd" >
<svg xmlns="http://www.w3.org/2000/svg" xmlns:xlink="http://www.w3.org/1999/xlink" version="1.1">
<metadata>
Created by FontForge 20170731 at Tue Oct  1 14:13:34 2013
 By Aleksey,,,
2013 Iconian Fonts - www.iconian.com
</metadata>
<defs>
<font id="Mrs.Monster" horiz-adv-x="522" >
  <font-face 
    font-family="Mrs. Monster"
    font-weight="400"
    font-stretch="normal"
    units-per-em="1000"
    panose-1="0 0 0 0 0 0 0 0 0 0"
    ascent="800"
    descent="-200"
    x-height="658"
    cap-height="781"
    bbox="-71 -139 1000 926"
    underline-thickness="50"
    underline-position="-175"
    unicode-range="U+0020-2122"
  />
<missing-glyph horiz-adv-x="500" 
 />
    <glyph glyph-name=".notdef" horiz-adv-x="500" 
 />
    <glyph glyph-name=".null" horiz-adv-x="0" 
 />
    <glyph glyph-name="nonmarkingreturn" horiz-adv-x="500" 
 />
    <glyph glyph-name="space" unicode=" " horiz-adv-x="286" 
 />
    <glyph glyph-name="space" unicode="&#xa0;" horiz-adv-x="286" 
 />
    <glyph glyph-name="FL0021h" unicode="!" horiz-adv-x="266" 
d="M89 680q0 -4 -1.5 -16.5t-1.5 -16.5q1 -2 0 -14.5t-2 -29.5t-3 -36t-4 -35t-3 -26t-1 -9v174zM196 490q1 0 3 -9t3.5 -19.5t2.5 -20.5t1 -11q0 -5 -3 -3t-3 4l-1 9t-2 20.5t-1.5 20.5t0.5 9zM196 539q-6 0 -10 6t-3 11q0 3 1 9.5t2.5 13.5t3 13.5t2.5 9.5q0 7 7 7z
M130 208q3 0 7.5 0.5l4.5 0.5q5 3 10.5 15.5t5.5 16.5l19 -1q0 2 1 10.5t1 10.5q5 40 9 64t7.5 40t6 28.5t5.5 29t6.5 40.5t7.5 64q0 4 2.5 23.5t5.5 43.5t6.5 46.5t5.5 33.5q3 17 9.5 30t6.5 27q1 11 -8.5 21t-20.5 11q-3 0 -14 -0.5t-23 -2t-22.5 -3t-12.5 -4.5l1 -5
t1 -11q-1 -6 -2.5 -11.5t-6.5 -6.5q-5 22 -14 35t-36 14h-2q-3 1 -11 -1.5t-10 -4.5q-2 1 -12 3.5t-21 3.5t-19.5 -0.5t-8.5 -8.5v-15q0 -100 11 -194t19 -193q0 -6 -0.5 -6.5t-1.5 -0.5v-1q0 -4 1 -7q2 -11 9.5 -38t9.5 -53q0 -1 3.5 -9.5t2.5 -10.5zM51 138l4 -68
q0 -5 0.5 -15.5t0.5 -22.5t-0.5 -22t-0.5 -15q1 -2 2.5 -2.5t3.5 -2.5l1 -0.5t2 -0.5t2 0.5l1 0.5q3 2 9 8.5t8 8.5q4 0 6 -6q1 -2 3 -13t2 -16h12q0 2 0.5 7t2.5 10t4.5 9t7.5 4t10.5 -5.5t11 -12t11 -13.5t9.5 -10q12 42 21 64.5t15 40t9.5 36t4.5 51.5q-27 10 -64 10h-58
h-15q-10 0 -18 -4.5t-8 -17.5v-3zM158 110v-7q0 -5 0.5 -10.5t0.5 -10.5v-6v-9q0 -6 -0.5 -11t-0.5 -10v-5q0 -7 -2 -18t-4 -11h-5v6l5 86zM118 133q5 0 5 -5q0 -2 -0.5 -8t-1.5 -13.5t-2.5 -13t-2.5 -5.5t-1.5 11.5t-0.5 19.5v9q0 5 4 5z" />
    <glyph glyph-name="FL0022h" unicode="&#x22;" horiz-adv-x="306" 
d="M161 662q0 -5 0.5 -15.5t0.5 -22.5q0 -13 1.5 -26t1.5 -18q1 -2 2.5 -2.5t3.5 -2.5l0.5 -0.5t1.5 -0.5t2 0.5l1 0.5q0 -15 7.5 -33.5t7.5 -29.5h18q0 5 4 14.5t12 9.5q4 0 4 -8q0 -10 -2 -26t2 -20q10 19 21.5 44t21 53.5t16.5 60.5t8 65q-9 24 -31.5 37.5t-44.5 13.5
q-15 0 -24 -6q-26 -17 -33 -39.5t-2 -48.5zM218 666v-6v-9q0 -6 -0.5 -11t-0.5 -10v-5q0 -7 -1.5 -18t-3.5 -11h-5v6zM250 691q5 0 5 -5q0 -2 -0.5 -8.5t-1.5 -13.5t-2.5 -13t-2.5 -6l-0.5 11.5t-0.5 20.5v9q0 5 3 5zM10 731l4 -69v-38q0 -13 2 -26t2 -18q1 -2 2 -2.5
t3 -2.5l1 -0.5t2 -0.5t1.5 0.5l0.5 0.5q0 -16 7.5 -33.5t7.5 -29.5h19q0 2 1 11t3 18.5t5 17t7 7.5t4 -12q0 -8 -1 -19.5t-1.5 -22.5t0 -19.5t2.5 -10.5q10 19 21.5 44t21 53.5t16.5 60.5t8 65q-6 16 -18 25.5t-26.5 13.5t-29 5t-26.5 1h-14q-8 0 -16.5 -1.5t-8.5 -14.5v-3z
M35 730v-7q0 -5 0.5 -10.5t0.5 -11.5v-6v-9q0 -6 -0.5 -11t-0.5 -10v-5q0 -7 -1 -18t-3 -11h-5v6l5 87zM69 726q4 0 4 -5q0 -2 -0.5 -8.5t-1 -13.5t-2 -13t-2.5 -6t-1.5 11.5t-0.5 20.5v9q0 5 4 5z" />
    <glyph glyph-name="FL0023h" unicode="#" horiz-adv-x="593" 
d="M555 293l-57 -3q1 5 1 15v20v47v18q9 -1 17 -1.5t16 -0.5q15 0 16 1l15 48l-43 4l-33 2q9 3 23 7t27 8t22.5 6.5t11.5 2.5l-22 28l-49 1v55q0 42 0.5 70.5t1.5 33.5l-181 2l-18 -63q20 -29 20.5 -54.5t-3.5 -48.5h-3l-5 7l-49 1v55v59q0 20 1 22q-31 40 -180 25l4 -76
q10 -15 11 -26.5t-2 -21.5t-7.5 -20t-6.5 -22h-25q0 -1 -2 -3.5t-4 -3.5q-6 -1 -22 -3t-22 -2q0 -11 5 -16.5t8 -10.5t1 -11t-16 -18q10 -4 10 -10q0 -5 6 -11q-1 -5 3.5 -4.5t9.5 1.5t8 0.5t0 -6.5l8 -4q3 -1 8 -1h9h18l6 -91h-29h-6h-12h-13h-7q-5 0 -4 -7.5t1 -12.5
q0 -3 -3 -3q0 -15 18 -19t38 -4h14q9 0 12 -1l1 -3l-47 -5q0 -7 -3.5 -10t-9.5 -4.5t-12.5 -3.5t-12.5 -6q5 -2 7 -6t2.5 -8l1 -8t3.5 -7q-1 -5 3.5 -3.5t10 4.5t9 3.5t0.5 -5.5l8 -4q3 -1 11 -1h12h24l15 -122l11 -35q7 0 10 -5t3.5 -11.5t-0.5 -14t-1 -13.5q0 -8 7 -8
q3 0 7 4t7.5 8.5t6 9t2.5 6.5q1 4 5.5 12t9 17t8 17t3.5 13l-9 -47q0 5 6 11q0 2 3 2q2 0 2 -2l12 -51h27q0 1 1 7.5t1.5 14.5t1.5 16.5t1 13.5v162q5 -1 9.5 -2t9.5 -1q-1 -5 8 -1q5 0 9 -0.5t9 -0.5l5 -2q3 -1 11 -1h12h24l15 -122l26 -87q2 -10 5 -11t5.5 3t4.5 11.5
t2 14.5q0 10 -5 15l36 -10q2 7 0.5 14t-1.5 15l18 -17q1 -1 2.5 4t3.5 7q0 2 3 2q2 0 2 -2l12 -51l6 5q0 1 1 7.5t1.5 14.5t1.5 16.5t1 13.5v162q15 -3 35 -4t30 -1q8 0 8 1l24 61l-22 18q4 0 7 3.5t5.5 8t4.5 9t4 5.5zM262 375v18q2 -1 10 -1q9 0 11 -1l5 -2q3 -1 8 -1h9
h18l6 -91h-29h-6h-12h-13h-7h-1q1 5 1 15v19v44zM529 217h-16l-7 -4l-8 4l18 34l8 4q5 -13 5 -19v-19zM119 634q6 -18 8.5 -37.5t2.5 -39.5v-14q-12 15 -12 34v37q0 2 0.5 10t0.5 10zM447 567q-14 -97 -21.5 -153.5t-7.5 -60.5v-14q-3 3 -3 28q0 18 0.5 41t2 44.5t3.5 37.5
t4 19l5 33q0 1 2.5 5t6 8t6 7.5t2.5 4.5zM279 254l10 -2l2 -6q0 -3 1 -4q0 -12 -9.5 -13.5t-20.5 -5.5zM250 446q6 2 10 3q1 -3 -0.5 -7t-7.5 -11l-22 -2z" />
    <glyph glyph-name="FL0024h" unicode="$" horiz-adv-x="338" 
d="M17 17q14 -11 33 -14.5t36 -3.5h24q30 0 50 4l-10 -78l9 -25h20l10 3l4 14h15l-7 95q28 9 52 29t42 47t28 59.5t10 66.5v19q0 7 -0.5 12t-0.5 7q-8 20 -18.5 37.5t-27.5 30.5q-14 11 -30 22t-29.5 23t-22.5 27.5t-9 35.5q0 16 7.5 22t19.5 7t26 -1t27 -2t21.5 -3.5
t18.5 -3.5h6q-2 6 -6 6q-5 5 -13.5 8.5t-6.5 8.5q-2 8 -4.5 17t-4.5 12q-3 2 -14 8.5t-18 8.5q3 0 8 0.5t7 0.5q13 0 22.5 -3.5t21.5 -3.5h2q-7 9 -11.5 11.5t-7.5 4.5t-4 6t-1 15q2 0 6 -1t9 -1q3 0 6.5 2t3.5 7q0 7 -5.5 13.5t-14 11.5t-18.5 8.5t-18 4.5q2 0 -1.5 2.5
t-8.5 6t-9 6t-3 2.5q18 0 32.5 -4.5t32.5 -4.5l15 8l3 26q-6 14 -29.5 20t-45.5 6h-20q-7 0 -13 -0.5t-13 -1.5l2 32l-2 15l-4 8l26 19l7 14l-19 1l-15 -1l-27 -16l-8 17l-29 4l4 -2l11 -103q-63 -22 -102 -74.5t-39 -124.5q0 -46 13 -74.5t32 -46.5t41.5 -28t41.5 -19
t32 -20.5t13 -31.5t-11 -36.5t-27 -29.5t-34 -20.5t-32 -8.5q-2 -8 -11 -7t-11 1q-10 0 -17.5 0.5t-17.5 5.5v-3q0 -8 6 -12.5t13.5 -8.5t13.5 -9t6 -13h-39q1 -1 8.5 -5t16.5 -8.5t17 -9t10 -6.5q1 -1 2.5 -8t2.5 -9l18 -6q1 0 1 -3q0 -2 -1 -3q-12 -1 -20.5 -3.5t-16.5 -5
t-17 -3.5t-21 1zM303 212q2 -2 4 -8.5t2 -8.5v-4q0 -18 -1 -27t-18 -21v3q0 21 5.5 33t7.5 33zM35 403l0.5 8.5t0.5 19.5q0 10 0.5 19t0.5 10q2 -6 4 -19.5t3.5 -28.5t2.5 -29t1 -21q-6 0 -9 5t-4 11.5t-0.5 13.5t0.5 11z" />
    <glyph glyph-name="FL0025h" unicode="%" horiz-adv-x="478" 
d="M311 422q5 0 5 -5q0 -2 -4.5 -12t-10.5 -21t-11 -20.5t-6 -9.5t2.5 9.5t8 20.5t8.5 21t4 12q0 5 4 5zM95 48v57l19 30l-13 -87h-6zM253 486l-110 -193q-4 -21 -22 -47t-36.5 -56t-32 -63t-8.5 -68q1 -8 4 -20.5t5 -21t2 -9.5l29 -6q0 2 2 8.5t4 8.5l2 1q4 0 8.5 -5
t8 -10.5t5.5 -10l2 -4.5v26l3 2.5t5 0.5l17 -17h6q2 2 3.5 5.5t2.5 5.5l183 353q9 15 18.5 33t18.5 35t16.5 30.5t13.5 19.5q3 3 11 13.5t17 22.5t16.5 23t9.5 15q0 2 0.5 4.5t0.5 4.5q0 12 -5.5 25.5t-14.5 25t-21 19t-25 7.5h-4q0 -6 -2 -15.5t-5.5 -18t-9.5 -14.5t-13 -6
h-4q10 15 11 20.5t1 20.5q0 12 -5 13t-16 1q-8 0 -16 2t-14.5 3.5t-12.5 0.5t-10 -7q-3 -5 -5 -17t-4.5 -27.5t-5.5 -32.5t-8 -31zM332 -37q-2 0 -2 -2q0 -3 2 -3q3 0 3 3q0 2 -3 2zM353 -25q-8 -2 -11 -2q-5 0 -5 -6q0 -2 0.5 -2.5t0.5 -1.5q66 16 98.5 51.5t32.5 107.5
q0 24 -8 51t-23.5 49.5t-38.5 37t-52 14.5q-12 0 -18.5 -4.5t-10 -10t-5 -10.5t-3.5 -6q-5 -3 -11 -4.5t-11 -8.5q-48 -57 -48 -135q0 -28 12.5 -56.5t35.5 -45.5q10 -5 17.5 -8.5t16.5 -9.5h31zM453 75q0 -1 0.5 -3.5l0.5 -2.5q0 -13 -4.5 -26t-14.5 -21v1v1l6 13q2 4 7 18
t5 20zM329 104q0 20 7 36t15 30l1 2l0.5 0.5t1.5 0.5l1 -1q11 -11 14.5 -27.5t3.5 -33.5v-3q0 -3 -0.5 -5.5t-0.5 -5.5v-3q-1 -8 -3 -16.5t-7 -14.5q-2 -3 -6 -6.5l-4 -3.5l-1 -11l-4 10t-6 13q-5 10 -8.5 19t-3.5 20zM254 75v7q5 -13 5 -28v-4q-4 5 -4.5 12t-0.5 13z
M377 174q0 2 2 4.5t3 3.5q3 0 3 -3q7 -8 9 -14t2 -14q0 -2 -0.5 -3.5t-0.5 -3.5l-4 -3l-8 28q0 2 -2.5 3.5t-3.5 1.5zM446 195q2 0 2 -3q0 -1 1 -9.5t2 -15.5t1 -8q-1 0 -2.5 6.5t-3.5 14.5t-3.5 14.5t-1.5 7.5q0 2 2.5 -2.5zM299 217l1 -1l-1 -1q-1 -1 -3 -4.5t-4 -4.5h-1
h-1q2 7 9 11zM314 230q3 0 6 -0.5t3 -4.5h-4q-1 0 -2.5 1t-2.5 1t-4 -1t-4 -1h-2q2 5 10 5zM275 32q-2 1 -3.5 3t-2.5 3q6 -4 12 -9t10 -10l2 -4q-5 2 -10.5 7t-7.5 10zM101 381q-2 0 -2 -2q0 -3 2 -3q3 0 3 3q0 2 -3 2zM122 393q-8 -2 -11 -2q-5 0 -5 -6q0 -2 0.5 -2.5
t0.5 -1.5q66 16 98.5 51.5t32.5 107.5q0 24 -8 51t-23.5 49.5t-38.5 37t-52 14.5q-12 0 -18.5 -4.5t-10 -10t-5 -10.5t-3.5 -6q-5 -3 -11 -4.5t-11 -8.5q-48 -57 -48 -135q0 -28 12.5 -56.5t35.5 -45.5q10 -5 17.5 -8.5t16.5 -9.5h31zM222 493q0 -1 0.5 -3.5l0.5 -2.5
q0 -13 -4.5 -26t-14.5 -21v1v1l6 13q2 4 7 18t5 20zM98 522q0 20 7 36t15 30l1 2l0.5 0.5t1.5 0.5l1 -1q11 -11 14.5 -27.5t3.5 -33.5v-3q0 -3 -0.5 -5.5t-0.5 -5.5v-3q-1 -8 -3 -16.5t-7 -14.5q-2 -3 -6 -6.5l-4 -3.5l-1 -11l-4 10t-6 13q-5 10 -8.5 19t-3.5 20zM23 493v7
q5 -13 5 -28v-4q-4 5 -4.5 12t-0.5 13zM146 592q0 2 2 4.5t3 3.5q3 0 3 -3q7 -8 9 -14t2 -14q0 -2 -0.5 -3.5t-0.5 -3.5l-4 -3l-8 28q0 2 -2.5 3.5t-3.5 1.5zM215 613q2 0 2 -3q0 -1 1 -9.5t2 -15.5t1 -8q-1 0 -2.5 6.5t-3.5 14.5t-3.5 14.5t-1.5 7.5q0 2 2.5 -2.5zM68 635
l1 -1l-1 -1q-1 -1 -3 -4.5t-4 -4.5h-1h-1q2 7 9 11zM83 648q3 0 6 -0.5t3 -4.5h-4q-1 0 -2.5 1t-2.5 1t-4 -1t-4 -1h-2q2 5 10 5zM44 450q-2 1 -3.5 3t-2.5 3q6 -4 12 -9t10 -10l2 -4q-5 2 -10.5 7t-7.5 10z" />
    <glyph glyph-name="FL0026h" unicode="&#x26;" horiz-adv-x="510" 
d="M479 391l-129 -2l-40 -14l-92 44l-15 26q-4 8 -13.5 18t-9.5 18q0 16 10 27t29 14q3 -2 15 -1t29 -0.5t36.5 -8.5t38.5 -26l103 40q-5 34 -21.5 57.5t-39.5 38.5t-51 21.5t-56 6.5q-4 -3 -12 -4t-17 -1.5t-16.5 -1.5t-10.5 -4q-6 5 -4.5 9.5t-4.5 9.5q-32 0 -62.5 -14.5
t-54.5 -38t-39 -53t-15 -60.5q0 -37 6.5 -56t17 -29.5t23 -17t24.5 -17.5q-23 -11 -41 -19t-30.5 -23.5t-19 -44.5t-6.5 -82q-1 -42 13 -79.5t38.5 -65t57.5 -41.5t71 -9l-5 -28l102 23q26 2 48.5 4.5t41 21t33.5 59.5t26 120q3 15 1 41q16 -2 29.5 -2.5t13.5 1.5l19 80
l-17 23q3 0 5.5 5.5t5 12t4 12t2.5 4.5zM205 289l47 -27l5 22q7 -3 12 -9q-1 -3 -1 -8v-2l-0.5 -2t-3.5 -10l6 -6q2 -1 8 -1h8q1 -5 1.5 -9t0.5 -7v-14v-35q0 -19 -10.5 -24t-43.5 -5h-4l-6 -2q-21 5 -34.5 24.5t-13.5 39.5q0 8 0.5 18t3 20.5t8.5 20t17 16.5zM324 602
q1 5 4 5.5t5 0.5q7 0 16 -5.5t17 -13.5t14 -16.5t6 -15.5q-1 0 -9.5 5.5t-18.5 12.5t-19 13.5t-11 8.5q-4 1 -4 5zM155 609q0 -4 -4 -5q-2 -2 -10.5 -8t-18.5 -13.5t-19 -13t-10 -5.5q0 7 6 15.5t15 16.5t18 13.5t15 5.5q2 0 4.5 -0.5t3.5 -5.5zM457 291h-13l-6 -5l-6 5
l15 44l6 6q5 -15 4.5 -25t-0.5 -25zM381 205l6 27q2 13 7 19.5t9 12.5q0 -1 4 -5q-1 -17 -8 -34t-18 -20zM168 42q-2 -5 -11 0.5t-12 5.5q-7 0 -14 6t-13 15t-10 19.5t-5 18.5q1 -6 6 -16t12 -18.5t14.5 -13t14.5 0.5l3 -2.5t6 -6t6 -6.5zM188 129h22l8 -28q-6 0 -13.5 12.5
t-16.5 15.5zM251 35h-11l-55 28l68 -26zM96 342h5q0 -5 -2.5 -10.5t-4.5 -13.5q-2 5 -2.5 7.5t-1.5 3.5q2 5 4 9zM81 428h4l2 -3t4 -8q-2 -2 -2 -5l-0.5 -1.5l-1.5 -4.5q-2 8 -3.5 12.5t-2.5 9.5z" />
    <glyph glyph-name="FL0027h" unicode="'" horiz-adv-x="179" 
d="M13 731l4 -68q0 -5 0.5 -15.5t0.5 -22.5t2 -25t2 -18q1 -2 2.5 -2.5t3.5 -2.5l1 -0.5t2 -0.5t2 0.5l1 0.5q0 -16 8.5 -33.5t8.5 -28.5h21q0 2 1.5 10.5t3.5 18t5.5 17t8.5 7.5q4 0 4 -12t-1 -31t-1 -30q0 -8 2 -10q12 19 25 43.5t24 52.5t18.5 59.5t8.5 64.5
q-6 16 -20 25.5t-30.5 13.5t-33.5 5t-30 1h-15q-10 0 -19.5 -1.5t-9.5 -14.5v-3zM42 730v-7q0 -5 0.5 -10.5t0.5 -10.5v-6v-9q0 -6 -0.5 -11t-0.5 -10v-5q0 -7 -1.5 -18t-3.5 -11h-6v6l6 86zM80 726q5 0 5 -5q0 -2 -0.5 -8t-1.5 -13.5t-2.5 -13t-2.5 -5.5t-1.5 11.5
t-0.5 19.5v9q0 5 4 5z" />
    <glyph glyph-name="FL0028h" unicode="(" horiz-adv-x="311" 
d="M33 -34l6 -5q2 2 9.5 6t14.5 4l3 -1q8 -5 10.5 -7t7.5 -2h12h196q6 0 9 9t3 14q0 2 -0.5 3.5l-0.5 1.5h-9q-11 0 -27 2.5t-21 11.5h34v73q5 5 11.5 14.5t6.5 17.5q0 1 -0.5 1.5l-0.5 0.5q-2 2 -8.5 5t-8.5 3h-92l17 499q0 15 6 26q17 3 27.5 1t19 -3.5t17.5 0t24 12.5
q-10 7 -12.5 11t-4 6t-5 3.5t-16.5 3.5l7 22q9 1 15.5 0t11 0.5t7 7t2.5 19.5q0 4 -2.5 11.5t-5.5 14.5t-6.5 12.5t-6.5 6.5l-2.5 -4t-5 -8.5t-5 -8.5l-2.5 -4q0 2 4 9.5t8 17t6.5 18.5t-0.5 15h-13h-39h-14q-17 0 -24.5 -1.5t-13.5 -3.5t-13.5 -3.5t-23.5 -1.5
q-25 0 -48.5 3t-48.5 3h-7h-17h-3l-16 -33zM153 97q0 15 0.5 28t5.5 28l6 -6v-69l-6 -5l-6 5v19zM42 365v7q0 5 0.5 10.5t0.5 10.5v7l5 -6q1 0 2 -7t2 -16t1.5 -19t0.5 -16v-3q0 -5 0.5 -8.5t0.5 -8.5v-8v-6q0 -5 -0.5 -8.5t-0.5 -8.5v-6q-7 7 -9.5 18t-3 23t0 24t0.5 21z
" />
    <glyph glyph-name="FL0029h" unicode=")" horiz-adv-x="311" 
d="M281 -17l-6 -5q-2 2 -9.5 6t-14.5 4l-3 -1q-8 -5 -10 -7t-9 -2h-11h-196q-6 0 -9 9t-3 14q0 2 0.5 3.5l0.5 1.5q6 10 10 16l6 9t4 4t5 2l-15 32l13 24q-5 5 -11.5 14.5t-6.5 17.5q0 1 0.5 1.5l0.5 0.5q2 2 8.5 5t8.5 3h92l-18 476q0 15 -6 26q-17 3 -27.5 1t-19 -3.5
t-17.5 0t-24 12.5q10 7 8.5 11t-5.5 6.5t-4.5 4t12.5 3.5l6 16q-17 1 -20.5 7t-3.5 33q0 4 2.5 11.5t5.5 14.5t6.5 12.5t6.5 6.5l10.5 -5t23 -11.5t22.5 -11.5l10 -5l-56 68q-3 4 1 4.5t11 -0.5t14.5 -2.5t12.5 -1.5h14q16 0 24 -1.5t14 -3.5t13.5 -3.5t23.5 -1.5
q25 0 48.5 3t48.5 3h7l36 -33zM250 85q0 15 -0.5 28t-5.5 28l-6 -6v-69l6 -5l6 5v19zM145 479v7q0 5 -0.5 10.5t-0.5 10.5v7l-5 -6q-1 0 -2 -7t-2 -16t-1.5 -19t-0.5 -16v-3q0 -5 -0.5 -8.5t-0.5 -8.5v-8v-6q0 -5 0.5 -8.5t0.5 -8.5v-6q7 7 9.5 18t3 23t0 24t-0.5 21z" />
    <glyph glyph-name="FL002Ah" unicode="*" horiz-adv-x="247" 
d="M133 621l18 -21q7 -1 12.5 -8t12.5 -6q11 2 19 3.5t14 7.5q5 5 1 7q-3 4 -6 9.5t2 12.5q6 3 8 2t4.5 -1.5t6.5 1.5t14 11l-44 40q-2 0 -6 4q-2 3 -4.5 5t-3.5 3l8 9l20 18q1 8 7.5 13.5t6.5 13.5q-2 11 -5 20t-8 15q-5 3 -8 2q-2 -4 -8 -7t-12 3q-4 8 3 13t7 12
q0 6 -9 17l-52 -55l-12 -13l-32 34l-22 14q-5 2 -10 0t-7 -5q-8 -8 -5 -15.5t9 -12.5l-3 -3q-2 3 -8.5 5.5t-11.5 -2.5q0 -1 2.5 -5t5.5 -8t6 -7.5l3 -3.5q-5 -2 -14 4t-11 4q-3 0 -4 -4l-5 -3l50 -53q-14 -17 -24 -27.5t-10 -11.5l-13 -22q-2 -4 0 -9.5t4 -8.5
q8 -8 14.5 -5t14.5 9v-2q-2 -2 -1.5 -10t5.5 -13l0.5 0.5t2.5 1.5l6 7l7 7l1 2q1 -4 -4 -13.5t-3 -11.5q0 -3 3 -4l4 -5l54 56z" />
    <glyph glyph-name="FL002Bh" unicode="+" horiz-adv-x="377" 
d="M133 467l-1 -77h-10l-6 -8h-68q0 -1 -1.5 -4.5t-3.5 -4.5l-17.5 -3.5t-17.5 -2.5v-1q0 -11 5.5 -17t14 -9t18.5 -3.5t19 -0.5q13 0 21 -3l-49 -8q0 -11 -5 -11q-3 0 -6.5 2t-8.5 2q-1 0 -1.5 -4.5t-1.5 -10.5t-1.5 -11.5t-1.5 -6.5q7 -2 14.5 -0.5l12.5 2.5t5.5 -1.5
t-5.5 -11.5l6 -6q19 -2 39.5 -1t46.5 -4v-5l8 -6v-68q1 0 4.5 -1.5t4.5 -3.5l3.5 -17.5t2.5 -17.5h1q15 0 20 2.5t5.5 6.5t-1 10t1.5 14l15 -4q9 0 10 -2.5t-0.5 -7t-2.5 -9.5t5 -10q3 6 1 21.5t-2 26.5q0 8 4 11l36 -29l6 6q1 9 0.5 18.5t-0.5 19.5q0 12 1 25t5 27v3
q0 7 -1 9h9q0 -5 7 -9t17.5 -6t22 -3t19.5 -1q12 0 12 1l17 60l-17 23q3 0 5.5 5.5t5 12t4 12t2.5 4.5l6 5l-128 2q-2 14 -1 14q5 0 8.5 7t6 17.5t3.5 22t1 19.5q0 12 -1 12l-60 17l-23 -17q0 3 -5.5 5.5t-12 5t-12 4t-4.5 2.5zM320 307h-13l-6 -5l-6 5l13 24l6 6
q3 -12 4.5 -13t1.5 -7v-10zM174 233l-8 -15l-6 -5l-6 5l23 59l4 -25q2 -5 -1.5 -9.5t-2.5 -6.5l2 -6v-12z" />
    <glyph glyph-name="FL002Ch" unicode="," horiz-adv-x="179" 
d="M11 136l4 -68q0 -5 0.5 -15.5t0.5 -22.5t2 -25t2 -18q1 -2 2.5 -2.5t3.5 -2.5l1 -0.5t2 -0.5t2 0.5l1 0.5q0 -16 8.5 -33.5t8.5 -28.5h21q0 2 1.5 10.5t3.5 18t5.5 17t8.5 7.5q4 0 4 -12t-1 -31t-1 -30q0 -8 2 -10q12 19 25 43.5t24 52.5t18.5 59.5t8.5 64.5
q-6 16 -20 25.5t-30.5 13.5t-33.5 5t-30 1h-15q-10 0 -19.5 -1.5t-9.5 -14.5v-3zM40 135v-7q0 -5 0.5 -10.5t0.5 -10.5v-6v-9q0 -6 -0.5 -11t-0.5 -10v-5q0 -7 -1.5 -18t-3.5 -11h-6v6l6 86zM78 131q5 0 5 -5q0 -2 -0.5 -8t-1.5 -13.5t-2.5 -13t-2.5 -5.5t-1.5 11.5
t-0.5 19.5v9q0 5 4 5z" />
    <glyph glyph-name="FL002Dh" unicode="-" horiz-adv-x="296" 
d="M285 395l-6 -5q-1 1 -2.5 -4.5t-4 -12t-5 -12t-5.5 -5.5l17 -23l-19 -80q0 -1 -12 -1q-8 0 -19.5 1t-22 3t-17.5 6t-7 9q0 1 -6.5 -3t-14.5 -9.5t-14.5 -10t-7.5 -2.5q-27 7 -48.5 5.5t-41.5 0.5l-6 6q3 8 3.5 10l0.5 2v2q0 5 1 8q-5 8 -16 10t-19 7q5 6 10.5 8t10 4.5
t7.5 6.5t3 13l49 8q-8 3 -21 3q-9 0 -19 0.5t-18.5 3.5t-14 9t-5.5 17v1q5 0 17.5 2.5l17.5 3.5q2 1 3.5 4.5t1.5 4.5h68l6 8zM236 296q0 15 0.5 25t-4.5 25l-6 -6l-15 -44l6 -5l6 5h13z" />
    <glyph glyph-name="FL002Eh" unicode="." horiz-adv-x="184" 
d="M11 136l4 -68q0 -5 0.5 -15.5t0.5 -22.5t-0.5 -22t-0.5 -15q1 -2 2.5 -2.5t3.5 -2.5l1 -0.5t2 -0.5t2 0.5l1 0.5q3 2 9 8.5t8 8.5q4 0 6 -6q1 -2 3 -13t2 -16h12q0 2 0.5 7t2.5 10t4.5 9t7.5 4t10.5 -5.5t11 -12t11 -13.5t9.5 -10q12 42 21 64.5t15 40t9.5 36t4.5 51.5
q-27 10 -64 10h-58h-15q-10 0 -18 -4.5t-8 -17.5v-3zM118 108v-7q0 -5 0.5 -10.5t0.5 -10.5v-6v-9q0 -6 -0.5 -11t-0.5 -10v-5q0 -7 -2 -18t-4 -11h-5v6l5 86zM78 131q5 0 5 -5q0 -2 -0.5 -8t-1.5 -13.5t-2.5 -13t-2.5 -5.5t-1.5 11.5t-0.5 19.5v9q0 5 4 5z" />
    <glyph glyph-name="FL0030h" unicode="/" horiz-adv-x="472" 
d="M260 480q-5 0 -5 -5q0 -2 4.5 -12t10.5 -21.5t11 -21t6 -9.5t-2.5 9.5t-8 21t-8.5 21.5t-4 12q0 5 -4 5zM312 512l5 5q0 3 0.5 11.5t1.5 18t2 17.5t2 11q0 2 3 11.5t3 11.5q0 5 -4.5 5.5t-7.5 0.5t-3 -5l-2 -10v-6q0 -5 -0.5 -8.5t-0.5 -8.5v-6q0 -16 -2 -24.5t3 -23.5z
M465 627l-124 -282l-112 -153l-76 -103q0 -2 -4 -5t-8.5 -6.5t-8 -8t-3.5 -10.5t-4 -13t-8.5 -13.5t-8.5 -11.5t-4 -7q-1 -1 -2.5 -2t-3.5 -3l-1 -0.5t-2 -0.5l-2.5 -8.5t-5 -16.5t-2.5 -9q-2 0 -3 8t-2.5 17.5t-2.5 17.5t-2 9q-5 0 -6 -6q-1 -2 -3 -13t-2 -16h-12
q0 5 -2.5 7t-12.5 2q-9 0 -16.5 -4t-14.5 -10q1 5 1.5 8.5t0.5 5.5v11v14v15q0 9 3 24q22 55 52.5 117.5t62 125t60 122.5t47.5 112l52 112q2 0 3 -0.5t3 -0.5l36 -6h6q10 0 15.5 6t15.5 6q8 0 14.5 -3t14.5 -3q5 0 9.5 3t10.5 3q2 0 4 -0.5l2 -0.5q2 -2 11.5 -10t11.5 -13
q6 6 11 6h3q7 0 9 -4t0 -9zM122 148l-3 -6q-2 -5 -5.5 -9.5t-5.5 -9.5l-7 -13l-4 -10t-4 -8l-3 -5q-2 -6 -6 -17t-2 -11l5 -3l2 5l35 79z" />
    <glyph glyph-name="O" unicode="0" horiz-adv-x="539" 
d="M173 8h9q7 0 16 -1.5t14 -6.5h9q7 0 14.5 -0.5t12.5 -0.5h10q67 0 119 29.5t86.5 77.5t52.5 108t18 122q0 61 -14.5 120.5t-46 106t-81.5 75t-120 28.5h-8h-22h-7q16 -8 35 -14t33 -15h-8q-29 0 -58 9t-58 9q0 -9 -4 -14.5t-10 -9.5t-13 -7.5t-14 -9.5q-4 -3 -12.5 -11.5
l-18 -18t-17 -17.5t-10.5 -11q-38 -45 -56.5 -106.5t-18.5 -118.5q0 -64 16.5 -123.5t58.5 -110.5q7 -9 22 -20.5t31 -23.5t28 -24t12 -21zM218 11l6 6q27 2 58 9.5t59 7.5h3q-21 -12 -46.5 -20.5t-51.5 -8.5q-8 0 -14 0.5t-14 5.5zM201 292q0 10 2 29t6.5 41.5t11 46
t15.5 42.5t21 31t27 12q16 0 27.5 -23t19 -52.5t11 -57t3.5 -36.5q0 -59 -19 -101t-63 -81q-35 30 -48.5 67t-13.5 82zM40 315q0 12 2 24t9 22v-6v-6q0 -2 -1 -9.5t-1.5 -15.5t-1.5 -15.5t-1 -10.5q-6 1 -6 7v10zM321 510q1 0 2 0.5t2 0.5q7 0 14.5 -11.5t14 -26.5t10.5 -30
t4 -21v-11q0 -9 -1 -10q-15 24 -23.5 53.5t-22.5 55.5z" />
    <glyph glyph-name="FL0031h" unicode="1" horiz-adv-x="284" 
d="M93 660l181 -2q-1 -5 -1.5 -33.5t-0.5 -70.5t-0.5 -89.5t-0.5 -89.5t-0.5 -71t-0.5 -34q0 -3 -2 -14t-4 -23.5t-4 -23.5t-2 -14v-17v-29v-36v-37v-30v-17q0 -5 -1 -13.5t-1.5 -16.5t-1.5 -14.5t-1 -7.5l-6 -5l-12 51q0 2 -2 2q-3 0 -3 -2q-6 -6 -6 -11l-12 52
q0 -4 -0.5 -13t-1 -19.5t-1.5 -19.5t-2 -12q0 -3 -3.5 -13t-10.5 -10t-11.5 8t-9.5 18t-11.5 18t-16.5 8l-11 35l-44 381q-3 28 -12 36.5t-32 8.5h-32q-6 0 -6 6q0 2 2.5 5.5t3.5 5.5q1 5 3 16t2 13q3 31 4 42t5 13t14.5 0.5t33.5 5.5h-37q-2 8 -13 16t-11 16l1 3l17 17
l0.5 1t0.5 2l-1 2q-2 6 -5 6h20h46zM118 450q0 -2 -0.5 -10t-0.5 -10v-37q0 -19 12 -34v14q0 20 -2.5 39.5t-8.5 37.5zM78 491v-7l13 -2.5t21 -2.5h4h17h8h6h17h6l-81 11q-2 0 -5.5 0.5t-5.5 0.5z" />
    <glyph glyph-name="FL0032h" unicode="2" horiz-adv-x="378" 
d="M339 5q-38 2 -68.5 -1.5t-66.5 -3.5h-66q-45 0 -74 4.5t-50 20.5q-5 4 -6.5 22t-0.5 43t3.5 54t6.5 54t8.5 43t9.5 22q14 42 32.5 73.5t43.5 51.5q8 8 21.5 18.5t13.5 20.5q0 22 -5.5 37.5t-18 22.5t-34 4.5t-53.5 -15.5l-6 6q3 2 8.5 7.5l10.5 10.5q6 3 4 7t-4 6h-24
q3 12 12 17.5t18 8.5t15.5 6t5.5 11q-14 -2 -26.5 0.5t-24.5 5.5q0 1 -0.5 1.5t-0.5 1.5q0 8 10.5 13t13.5 7v3v3q-5 -2 -13 0t-10 6l-0.5 3.5t-0.5 6.5q0 24 6 35.5t18 15t30 3t42 -0.5q41 0 80.5 -13.5t70.5 -38.5t50 -59t19 -76q0 -32 -10.5 -54.5t-26.5 -40t-35 -32.5
t-34.5 -32t-25.5 -38t-9 -51q1 -38 -0.5 -53t5.5 -17.5t26.5 2t63.5 5.5q12 0 19.5 3t14.5 7t15 7t19 3v-14l-39 -53h2h3l23 5h4h2q-6 -13 -18.5 -20t-22 -11.5t-12.5 -9.5t10 -14l-0.5 -4.5t-2.5 -9.5l-11 -11q0 -4 5 -6h4q9 0 21.5 6t20.5 11q2 -10 2 -9q0 -11 -11 -14
t-19 -5q7 -5 13.5 -7.5t14.5 -4.5zM356 17q-2 3 3 3q3 0 2.5 -3t-2.5 -3q-3 0 -3 3zM52 143q-5 -2 -5.5 -6.5t-0.5 -7.5q0 -6 1.5 -15.5t5.5 -18t9 -15t13 -6.5h6q-8 14 -17.5 33t-11.5 36zM152 460l-2 -1l3 -6t5 -9t5.5 -9.5t3.5 -5.5q2 -5 3 -15t8 -13v15q0 5 -1.5 12.5
t-4.5 14.5t-8 12t-12 5zM104 551h-17v-8q5 0 10 1.5t7 6.5z" />
    <glyph glyph-name="FL0033h" unicode="3" horiz-adv-x="418" 
d="M124 427l46 -22q5 10 9 21.5l4 11.5q21 8 34 4q7 14 7 33q0 18 -3 31.5t-22 15.5q5 0 0 5t-5 4q0 -5 -23 -13.5t-52.5 -12t-57 3t-36.5 32.5q-2 5 0 14.5t10 9.5q3 0 2.5 10.5t-2.5 23.5t-2.5 23t2.5 9q2 -1 3.5 0l1.5 1v28h188q28 0 53.5 -15t44.5 -39t30.5 -54
t11.5 -61q0 -34 -13.5 -64.5t-35.5 -53.5q42 -23 63.5 -69t23.5 -100q1 -42 -10 -79t-31 -64t-48 -43t-60 -16l-187 1l-23 13q-7 5 -17 15t-10 17v17q0 10 -1.5 24.5t-3 30.5t-3 33t-1.5 32q5 1 12.5 1.5t18.5 0.5q27 0 42 4q1 -2 10 0t22 2q5 0 10 3t6 -5q4 -20 9.5 -29
t11.5 -12t11.5 -2t10.5 1q1 -1 5 -1q7 0 14.5 1.5t9.5 1.5h3q22 0 36.5 20.5t14.5 43.5q0 16 -4 38.5t-24 36.5q-5 0 -17 -0.5t-27 -0.5t-32 -0.5t-32 -0.5q-11 0 -19 0.5t-14 1.5l5 55q-4 -2 -7.5 -2.5t-5 4.5t0.5 17t9 35zM275 611q0 -4 4 -5q1 -2 9.5 -8t17.5 -13.5
t17 -13l8 -5.5q0 7 -5.5 15.5t-13 16.5t-15.5 13.5t-14 5.5q-2 0 -4.5 -0.5t-3.5 -5.5zM264 42q2 -5 9.5 0.5t11.5 5.5q6 0 12.5 6.5t12 15.5t9.5 19.5t5 19.5q-1 -5 -5.5 -15t-11 -19t-13.5 -14.5t-14 -0.5q-1 0 -3.5 -2.5t-5 -6t-5 -6.5zM241 445h-5q0 -1 -3.5 -7.5
t-8.5 -16.5t-8 -15q-4 -4 -5 -9h1q6 0 11 5.5t9 13t6.5 16t2.5 13.5zM212 124h16q4 0 17 5h-95q3 -1 11 -2t16.5 -1.5t15.5 -1t10 -0.5h9zM116 644h-10q-2 0 -9 -0.5t-14.5 -1t-14.5 -1t-9 -1.5h84q-10 3 -15 3.5t-12 0.5z" />
    <glyph glyph-name="FL0034h" unicode="4" 
d="M462 -9l-6 -5l-5.5 3t-13 7.5t-15 9.5t-12.5 8q-10 10 -11 18q-2 6 -0.5 15t-0.5 14l-6 6l-5 -6q0 -1 -1 -4.5t-1 -8.5v-5q0 -9 0.5 -14t0.5 -9q0 -5 0.5 -10t0.5 -13q-8 0 -17.5 2.5t-11.5 14.5q-1 25 -1.5 53.5t-2 57t-6 56.5t-13.5 52q-2 6 -5 6h-127l-130 -7
q4 -5 -2.5 9t-18 58t-25 125t-24.5 210v4v2q0 7 5 12h2q16 0 25 -6t12.5 -15.5t4.5 -22t2 -25.5h9v74h100q5 -2 8.5 -2.5t7.5 -0.5h15q11 0 18.5 -4.5t7.5 -17.5v-3q-4 -53 -8 -95t-4 -89q0 -5 0.5 -13t0.5 -10l6 -6l104 -16l-1 253q2 0 3 -0.5t3 -0.5l52 -6h6q9 0 14.5 6
t15.5 6q8 0 14.5 -3t14.5 -3q6 0 10.5 3t10.5 3q2 0 3.5 -0.5l1.5 -0.5q3 -2 12 -10t11 -13q6 6 11 6h3q7 0 8 -4t1 -9v-10l-34 -442q-1 -1 -2 -6t-2 -10.5t-1.5 -11t-0.5 -6.5q-1 -9 -2.5 -30t-3 -45t-3 -45t-2.5 -30zM173 329l13 -47q-1 0 4 -2.5l11 -5.5t11.5 -5.5
t5.5 -3.5l-15 14q-2 4 -6 6zM279 393l-110 8q1 -6 8 -6l61 -8q12 0 19.5 0.5t21.5 5.5zM177 524q0 4 0.5 12.5t1.5 17.5t2 17t2 11q0 2 -4 8t-4 8q0 5 2.5 9.5t-0.5 4.5t-6 -1t-5 -6v-6q0 -5 -0.5 -8.5t-0.5 -8.5v-6q0 -16 1 -28.5t6 -28.5zM434 29l5 5q0 3 0.5 10.5t1.5 15
t2 14.5t2 10q0 4 0.5 13t0.5 14t-1 5q-3 0 -6 -1t-5 -6v-6q0 -5 -0.5 -8.5t-0.5 -8.5v-6q0 -16 -2 -26t3 -25z" />
    <glyph glyph-name="FL0035h" unicode="5" horiz-adv-x="367" 
d="M34 5q38 2 69 -1.5t66 -3.5q37 0 71.5 13t61.5 36t43.5 55t16.5 71q0 13 -2 40.5t-9 58.5t-19 61t-32 49q-4 3 -19 18t-31.5 33t-29.5 34t-13 21l131 -14l6 6q-3 2 -8.5 7.5l-10.5 10.5q-6 3 -4 7t4 6h24q-2 13 -11 18t-18.5 8t-16.5 6t-5 11q14 -2 26.5 0.5t24.5 5.5
q0 1 0.5 1.5t0.5 1.5q0 8 -10.5 13t-13.5 7v3v3q5 -2 13 0t10 6q0 1 1 6.5t1.5 12t1.5 12.5t1 8q-6 18 -30 20.5t-72 2.5h-218q-2 0 -2.5 -15.5t-0.5 -38.5v-31v-74v-14q0 -18 27 -49t59.5 -70t59.5 -82t27 -84q0 -18 -11 -28.5t-27.5 -15.5t-36 -6.5t-36.5 -1.5
q-22 0 -40.5 9.5t-41.5 9.5v-13l40 -40h-2h-3l-23 5h-3h-3q6 -10 17 -17.5t22 -12.5t19.5 -9t10.5 -7q2 -2 0 -5.5l-2 -3.5h-24l0.5 -4.5t2.5 -9.5l11 -11q0 -4 -5 -6h-4q-9 0 -21.5 6t-20.5 11q-2 -10 -2 -9q0 -11 11 -14t19 -5q-7 -5 -13.5 -7.5t-14.5 -4.5zM17 17
q1 3 -3 3q-3 0 -2.5 -3t2.5 -3q3 0 3 3zM321 143q5 -2 5.5 -6.5t0.5 -7.5q0 -6 -1.5 -15.5t-5.5 -18t-9.5 -15t-12.5 -6.5h-6q8 14 17.5 33t11.5 36zM59 578l12 -9q0 -3 -1.5 -13.5t-1.5 -18.5v-7q-1 -6 0.5 -13.5t-3.5 -12.5q0 2 -2.5 7l-3.5 7q-1 4 -3 11t-3 15.5t0 17.5
t6 16zM269 551h17v-8q-5 0 -10 1.5t-7 6.5z" />
    <glyph glyph-name="FL0036h" unicode="6" horiz-adv-x="449" 
d="M357 58q-5 -3 -6.5 -8.5l-3 -11t-3.5 -10t-8 -5.5q-7 0 -11 6q-9 -9 -22 -13.5t-28 -7t-30.5 -3t-27.5 -0.5q-54 0 -93.5 31t-66 78.5t-39.5 103t-13 103.5q0 63 15.5 124t47 108t79 76t111.5 29q15 0 28.5 -3.5t28.5 -3.5h10q2 0 5.5 3.5t5.5 2.5q2 0 8 -4.5t12 -10
t10.5 -11t4.5 -8.5v-3q-11 -11 -13 -12t-3 0t-4 0.5t-16 -9.5q16 1 20.5 -0.5t5 -7t2.5 -15.5t13 -25h-5l-28 5h-2q0 -15 4 -18.5t20 -15.5q-8 -5 -12.5 -6t-7.5 -1q-2 0 -6 0.5t-13 0.5q0 -9 2 -12t5 -3.5t5 -2t2 -8.5l-0.5 -1t-0.5 -2q-69 11 -112 -15t-46 -74
q75 38 127.5 26.5t85.5 -63.5q15 -24 25 -54t14 -62t1.5 -63.5t-13.5 -57.5l-16 -35q-1 8 -6.5 2.5t-12.5 -14.5t-15 -16.5t-14 -2.5zM269 154q6 15 12.5 37.5t6 46t-12.5 43t-42 28.5q-14 -3 -23 -3q-14 0 -23 -3t-10 -15q-4 -50 0 -77t15.5 -39.5t30.5 -15t46 -2.5z
M150 208q0 -18 5.5 -40t20.5 -35q0 1 0.5 2.5t0.5 3.5q0 19 -9 42t-18 38v-11zM174 46q8 -11 20.5 -12.5t22.5 -1.5v7q-10 0 -18.5 3.5t-18.5 3.5h-6zM178 476l-25 -43q-7 -10 -8.5 -16t-1.5 -16v-9q5 10 6.5 14.5t5.5 12.5zM85 540l-14 -19q-7 -10 -8.5 -16t-1.5 -15v-10
q5 10 7.5 14.5t4.5 12.5z" />
    <glyph glyph-name="FL0037h" unicode="7" horiz-adv-x="384" 
d="M371 605l1 -3q4 -22 2.5 -51.5t-3.5 -49.5q-9 -42 -16 -72t-7 -38q0 -4 -4 -21t-10.5 -40.5t-13.5 -50t-13 -50t-9.5 -40t-2.5 -19.5q-3 -11 -5 -28.5t-7 -39.5t-16 -46t-32 -49l-146 -9q3 1 5 6l1 3q0 1 -0.5 2l-0.5 1l16 14v2q0 10 -1.5 17.5t0.5 18.5l33 3
q-20 9 -26 15t-6 13l0.5 2.5l1.5 7.5q3 10 3 19q0 8 8 19v-2h11h27q-2 11 -3 15t-2.5 4.5t-3 -1t-3.5 -1.5h-5q-5 0 -8.5 -3.5t-8.5 -5.5q5 7 8 15.5t-1 22.5l12 44q4 14 5.5 14.5t1.5 5.5v12l44 231l-155 10q-2 0 -8.5 3t-8.5 6l-5.5 3t-10 6t-5.5 3q0 4 4 8t9 7.5t10 6.5
t7 5l-8 67h101q-3 4 -16.5 7t-30 4.5t-31.5 2.5t-21 1h-9l-0.5 1.5t-0.5 3.5q0 5 3 14t9 9h276q8 0 11.5 0.5t6.5 0.5q5 0 13 -5l3 -1l23 2l14 -12q0 -1 -1 -9t-2.5 -18.5t-1.5 -14.5zM127 147q0 -2 -4 -6v4zM245 575l2 15l6 2.5t13 5t13 5l6 2.5q3 0 -1.5 0.5t-13 0
t-19.5 -2.5t-21 -7l-4 -19z" />
    <glyph glyph-name="FL0038h" unicode="8" horiz-adv-x="467" 
d="M191 650q4 -3 12 -4t17 -1.5t16.5 -1.5t10.5 -4q6 5 4.5 9.5t4.5 9.5q31 0 62 -14.5t55 -38t39 -53t15 -60.5q0 -37 -6.5 -56t-17 -29.5t-23 -17t-24.5 -17.5q23 -11 41 -19t30.5 -23.5t19 -44.5t6.5 -82q1 -42 -13 -79.5t-38.5 -65t-58 -41.5t-70.5 -9l5 -28l-102 23
q-35 0 -65 8.5t-52.5 31t-35 61.5t-11.5 101q2 54 26 100.5t70 68.5q-13 11 -28.5 22t-29 23.5t-23.5 26.5t-11 31q-2 42 13.5 74.5t41 54t57.5 33t63 11.5zM259 289l8 31l-62 -29q-11 -7 -17 -16.5t-8.5 -20t-3 -20.5t-0.5 -18q0 -23 15.5 -43.5t38.5 -20.5h4l6 -2
q21 5 34.5 24.5t13.5 39.5q0 8 -0.5 18t-3 20.5t-8.5 20t-17 16.5zM236 445q14 2 25 0q4 8 13.5 18t9.5 18q0 16 -10 27t-29 14q-6 -3 -17 -8t-21.5 -11.5t-18 -14t-7.5 -15.5q0 -3 8 -6.5t17.5 -7t18.5 -7t11 -7.5zM309 609q0 -4 4 -5q1 -2 9.5 -8.5t19 -13.5t19 -12.5
t10.5 -5.5q0 7 -6 15.5t-15 16.5t-18 13.5t-15 5.5q-2 0 -4.5 -0.5t-3.5 -5.5zM140 602q-1 5 -4 5.5t-5 0.5q-7 0 -16 -5.5t-17.5 -13.5t-14 -16.5t-5.5 -15.5q1 0 9.5 5.5t18.5 12.5t19 13.5t11 8.5q4 1 4 5zM68 202l-6 27q-2 17 -10.5 24.5t-8.5 17.5q-2 -9 -0.5 -20
t5 -21.5t9 -18t11.5 -9.5zM296 42q2 -5 11 0.5t12 5.5q7 0 14 6.5t13 15.5t10 19.5t5 18.5q-1 -6 -6 -16t-11.5 -19t-14.5 -13.5t-15 0.5l-3 -2.5t-6 -6t-6 -6.5zM182 436h-5q0 -5 2.5 -10.5t4.5 -13.5q2 5 2.5 7.5t1.5 3.5q-2 5 -4 9zM224 35l55 28l-68 -26l3 -3l-1 1h11z
M383 428h-4l-2 -3t-4 -8q2 -2 2 -5l0.5 -1.5l1.5 -4.5q2 8 3.5 12.5t2.5 9.5zM276 129h-22l-8 -28q6 0 13.5 12.5t16.5 15.5z" />
    <glyph glyph-name="FL0039h" unicode="9" horiz-adv-x="457" 
d="M85 605q5 3 7 8t3.5 10.5t3.5 10t8 6.5q6 0 11 -6q9 9 22.5 13.5t29 7t31.5 3t28 0.5q55 0 96 -31.5t68 -78.5t40 -103t13 -104q0 -64 -16 -124.5t-48 -108t-80.5 -76.5t-114.5 -29q-15 0 -29 3t-31 3h-9q-2 0 -5.5 -3t-5.5 -3q-3 0 -9 4.5t-12 10.5t-10.5 11.5t-4.5 7.5
v4q11 11 13 12t3 -0.5t4.5 -1t16.5 9.5q-16 -1 -21 0.5t-6 7t-3 15.5t-12 26h5l28 -5h3q0 8 -1 12t-3.5 7t-7.5 6t-13 9q8 5 12.5 6t6.5 1q3 0 7.5 -0.5t13.5 -0.5q0 9 -2 11.5t-5 3.5t-5 2.5t-2 8.5q0 1 0.5 1.5t0.5 1.5q35 -7 64 -2.5t50 17.5t33 32t14 42
q-75 -38 -129.5 -26.5t-87.5 63.5q-15 24 -26 54.5t-15.5 63t-1.5 63.5t15 57l17 36q1 -8 6.5 -2.5t12.5 14.5t15 16t14 3zM175 508q-6 -15 -13.5 -39t-7.5 -50q0 -25 11 -45.5t42 -30.5q23 -2 42 6t21 25q4 49 -0.5 76.5t-16.5 40t-31.5 15t-46.5 2.5zM298 454
q0 18 -6 40.5t-21 34.5q0 -1 -0.5 -2.5t-0.5 -3.5q0 -19 9.5 -42t18.5 -38v11zM273 617q-8 11 -21 12.5t-23 1.5v-7q10 0 18.5 -3.5t19.5 -3.5h6zM269 185l25 44q7 9 8.5 15t1.5 16v9q-5 -9 -6 -14t-6 -13zM364 122l14 18q8 10 9 16t1 16v9q-5 -10 -7 -14.5t-4 -12.5z" />
    <glyph glyph-name="FL003Ah" unicode=":" horiz-adv-x="179" 
d="M11 136l4 -68q0 -5 0.5 -15.5t0.5 -22.5t-0.5 -22t-0.5 -15q1 -2 2.5 -2.5t3.5 -2.5l1 -0.5t2 -0.5t2 0.5l1 0.5q3 2 9 8.5t8 8.5q4 0 6 -6q1 -2 3 -13t2 -16h12q0 2 0.5 7t2.5 10t4.5 9t7.5 4q4 0 9 -4.5t9.5 -10.5t8.5 -12t7 -9q12 42 21 64.5t15.5 40t10 36t4.5 51.5
q-31 10 -60 7.5t-55 -2.5h-15q-10 0 -18 -4.5t-8 -17.5v-3zM110 113v-7q0 -5 0.5 -10.5t0.5 -10.5v-6v-9q0 -6 -0.5 -11t-0.5 -10v-5q0 -7 -1.5 -18t-3.5 -11h-6v6l6 86zM78 131q5 0 5 -5q0 -2 -0.5 -8t-1.5 -13.5t-2.5 -13t-2.5 -5.5t-1.5 11.5t-0.5 19.5v9q0 5 4 5z
M16 359l21 -46h127q5 0 6 5t1 10q0 7 -9.5 12t-14.5 10l12 5l5 35q1 6 -5.5 12t-15 10.5t-16.5 7t-10 2.5v5q6 -1 11.5 -3t10.5 -2q11 0 11 14q0 1 4.5 7.5l4.5 6.5l-2.5 5t-4.5 5t-5.5 -0.5t-5.5 -0.5l-19 3q-20 2 -39.5 6.5t-45.5 -0.5l-23 -35v-15q0 -8 0.5 -19t0.5 -21
q0 -9 0.5 -15t0.5 -4zM48 361q5 0 5 -5v-12q0 -7 -3 -7q-2 0 -4.5 8t-2.5 11q0 5 5 5z" />
    <glyph glyph-name="FL003Bh" unicode=";" horiz-adv-x="179" 
d="M11 136l4 -68q0 -5 0.5 -15.5t0.5 -22.5t2 -25t2 -18q5 -2 10 -11.5t7 -14.5q0 -1 2 -7t4 -12.5l4 -13t2 -8.5h21q0 2 1.5 10.5t3.5 18t5.5 17t8.5 7.5q4 0 4 -12t-1 -31t-1 -30q0 -8 2 -10q12 19 25 43.5t24 52.5t18.5 59.5t8.5 64.5q-6 16 -20.5 26.5t-31.5 15.5
t-34.5 7t-30.5 2h-15q-10 0 -18 -4.5t-8 -17.5v-3zM40 135v-7q0 -5 0.5 -10.5t0.5 -10.5v-6v-9q0 -6 -0.5 -11t-0.5 -10v-5q0 -7 -1.5 -18t-3.5 -11h-6v6l6 86zM78 131q5 0 5 -5q0 -2 -0.5 -8t-1.5 -13.5t-2.5 -13t-2.5 -5.5t-1.5 11.5t-0.5 19.5v9q0 5 4 5zM16 359l21 -46
h127q5 0 6 5t1 10q0 7 -9.5 12t-14.5 10l12 5l5 35q1 6 -5.5 12t-15 10.5t-16.5 7t-10 2.5v5q6 -1 11.5 -3t10.5 -2q11 0 11 14q0 1 4.5 7.5l4.5 6.5l-2.5 5t-4.5 5t-5.5 -0.5t-5.5 -0.5l-19 3q-20 2 -39.5 6.5t-45.5 -0.5l-23 -35v-15q0 -8 0.5 -19t0.5 -21q0 -9 0.5 -15
t0.5 -4zM48 361q5 0 5 -5v-12q0 -7 -3 -7q-2 0 -4.5 8t-2.5 11q0 5 5 5z" />
    <glyph glyph-name="FL00BDh" unicode="&#x3c;" horiz-adv-x="348" 
d="M177 422q5 0 5 -5q0 -2 -4.5 -12t-10.5 -21t-11 -20.5t-6 -9.5t2.5 9.5t8 20.5t8.5 21t4 12q0 5 4 5zM111 541l-92 -144l-12 -26q-2 -5 2.5 -11t10.5 -12t11 -11.5t4 -8.5q-5 -24 -1.5 -39t14 -28.5t28 -28.5t40.5 -40l75 -103q0 -2 3.5 -5t8 -6.5t8.5 -8t4 -10.5t4 -13
t9 -13.5t9 -11.5t4 -7l5 -5l1 -0.5t2 -0.5l2.5 -8.5t5 -16.5t2.5 -9q1 1 2.5 9t2.5 17t2.5 17t2.5 9q6 0 6 -6q1 -2 3 -13t2 -16h12q0 5 2.5 7t12.5 2t17 -4t14 -10q-1 8 -1.5 14t-0.5 11v14v15q0 9 -3 24q-1 40 -13.5 80t-31 78t-41.5 74.5t-45 69.5q8 15 17.5 33.5
t19 35.5t17.5 30.5t13 18.5q3 3 11 13.5t17 22.5t16.5 23t9.5 15q0 2 0.5 4.5t0.5 4.5q0 12 -5.5 25.5t-14.5 25t-21 19t-25 7.5h-4q0 -6 -3 -17t-8 -21t-12 -17.5t-14 -7.5h-4q10 15 14.5 25t4.5 25q0 12 -5 13t-16 1q-8 0 -16 2t-15.5 3.5t-13 0.5t-8.5 -7q-3 -5 -8.5 -16
t-12.5 -26t-14 -31t-12 -30zM223 148l2 -6q3 -5 6 -9.5t5 -9.5l7 -13q2 -5 4.5 -10t4.5 -8l2 -5q3 -6 6.5 -17t1.5 -11l-4 -3l-3 5l-35 79z" />
    <glyph glyph-name="FL003Dh" unicode="=" horiz-adv-x="331" 
d="M331 314l-6 -4q-1 0 -3 -4l-4.5 -9t-5.5 -9t-7 -4l20 -18l-22 -61q0 -1 -14 -1q-10 0 -23 1t-25 3t-20.5 4.5t-8.5 6.5q0 2 -7 -1.5l-16 -8t-17 -8t-9 -1.5q-32 5 -56.5 4t-47.5 1l-7 4q3 6 3.5 8l0.5 2v1q0 4 1 6q-6 6 -18 7.5t-22 5.5q6 4 12 5.5t11.5 3.5t9 5.5
t3.5 9.5l56 7q-9 2 -24 1.5t-29.5 1t-25.5 6t-11 16.5q5 0 20.5 2t20.5 3q2 1 4 3.5t2 3.5l50 12l56 -11zM275 238v19q0 6 -5 19l-7 -4l-17 -34l7 -4l7 4h15zM280 453l37 -29q-1 0 -13 -4.5t-26 -10.5t-27 -10.5t-16 -4.5h75l-14 -48q0 -1 -15 -1q-9 0 -22 1t-25 3
t-20.5 4.5t-8.5 6.5q0 2 -7 -1.5l-16 -8t-17 -8t-9 -1.5q-32 5 -56.5 4t-47.5 1l-7 4q3 6 0 6.5t-8 -0.5t-9 -1.5t-3 4.5q-6 6 -5.5 11.5t-9.5 9.5q13 12 15 18t-1 11t-7.5 10.5t-4.5 16.5q5 0 20.5 2t20.5 3q2 1 4 3.5t2 3.5h78l7 6zM102 389q0 11 0.5 17t-4.5 17l-7 -4
v-18l-11 -16l7 4h15z" />
    <glyph glyph-name="FL00BEh" unicode="&#x3e;" horiz-adv-x="356" 
d="M309 379q5 0 5 -5q0 -2 -4.5 -12t-10.5 -21.5t-11.5 -21t-6.5 -9.5t2.5 9.5t8 21t8.5 21.5t4 12q0 5 5 5zM100 48v57l19 30l-13 -87h-6zM156 512l-5 5q0 3 -0.5 11.5t-1.5 18t-2 17.5t-2 11q0 2 -3 11.5t-3 11.5q0 5 4.5 5.5t7.5 0.5q4 0 4 -5q0 -2 0.5 -5t0.5 -5v-6
q0 -5 0.5 -8.5t0.5 -8.5v-6q0 -16 2 -24.5t-3 -23.5zM3 627l124 -282l19 26q3 3 2.5 -6t-2.5 -21.5t-4 -24.5t-3 -16q-4 -20 -20 -48t-33.5 -60t-29.5 -67t-7 -69q1 -8 4 -20.5t5 -21t2 -9.5l29 -6q0 2 2 8.5t4 8.5l1 0.5t2 0.5q4 0 10 -8t9.5 -14.5t4.5 -7.5v26l2.5 2.5
t4.5 0.5l17 -17h6q2 2 3.5 5.5t2.5 5.5l97 179l84 153q11 21 -2 58.5t-37 81.5t-52.5 88.5t-48.5 79.5q-1 2 -2.5 0.5t-3.5 -1.5l-52 -6h-6q-10 0 -15.5 6t-14.5 6t-15 -3t-14 -3q-6 0 -10.5 3t-10.5 3q-2 0 -4 -0.5l-2 -0.5q-2 -2 -11 -10t-12 -13q-5 6 -11 6h-2
q-8 0 -10 -4t0 -9z" />
    <glyph glyph-name="FL003Fh" unicode="?" horiz-adv-x="391" 
d="M349 476q0 -4 0.5 -12t-0.5 -16t-4.5 -14t-10.5 -6q0 18 5 37.5t10 33.5v-23zM308 643q1 -13 5.5 -28.5t9 -31.5t8.5 -31t4 -27v-4q-10 7 -16.5 19t-10.5 26t-5.5 28t-1.5 25v4q0 3 2.5 10.5t4.5 9.5zM216 227q4 34 18 55.5t32.5 38.5t39 32.5t37.5 37.5t28.5 54t11.5 81
q0 54 -20 100t-55 79.5t-82.5 52t-102.5 18.5h-24q-12 0 -26 -1.5t-27 -5t-22.5 -9t-12.5 -14.5h21v-40q22 0 39 5t38 5q3 0 12 -0.5t12 -0.5q-8 0 -27 -6.5t-38.5 -16.5t-35 -20.5t-15.5 -19.5q0 -7 4 -9t8 -2q5 0 10 1t8 1q0 -13 -1.5 -17.5t-5 -6.5t-9 -5.5t-13.5 -13.5
h3q14 0 25.5 4t25.5 4q2 0 10 -0.5t10 -0.5q-7 0 -21.5 -8t-18.5 -12q-1 -2 -2.5 -8t-4 -12.5t-4.5 -12.5t-3 -8q-1 -1 -10 -6t-10 -7q-6 0 -7 -7h7q12 0 22.5 4t24.5 4q15 0 32 -4t31 -12.5t23 -22t9 -32.5q0 -24 -10.5 -41.5t-26.5 -32t-35 -27t-36 -25.5q-10 -8 -12 -17
t-1.5 -19.5t1 -21.5t-4.5 -23q0 -2 -0.5 -8t-0.5 -14q43 -18 88 -22.5t94 15.5zM39 136l4 -68q0 -5 0.5 -15.5t0.5 -22.5t-0.5 -22t-0.5 -15q1 -2 2.5 -2.5t3.5 -2.5l1 -0.5t2 -0.5t2 0.5l1 0.5q3 2 9 8.5t8 8.5q4 0 6 -6q1 -2 3 -13t2 -16h12q0 2 0.5 7t2.5 10t4.5 9t7.5 4
t10.5 -5.5t11 -12t11 -13.5t9.5 -10q12 42 21 64.5t15 40t9.5 36t4.5 51.5q-27 10 -64 10h-58h-15q-10 0 -18 -4.5t-8 -17.5v-3zM146 108v-7q0 -5 0.5 -10.5t0.5 -10.5v-6v-9q0 -6 -0.5 -11t-0.5 -10v-5q0 -7 -2 -18t-4 -11h-5v6l5 86zM106 131q5 0 5 -5q0 -2 -0.5 -8
t-1.5 -13.5t-2.5 -13t-2.5 -5.5t-1.5 11.5t-0.5 19.5v9q0 5 4 5z" />
    <glyph glyph-name="FL0040h" unicode="@" horiz-adv-x="654" 
d="M624 180l19 491l-36 33h-7q-25 0 -48.5 -3t-48.5 -3q-16 0 -43 2.5t-56 5t-56.5 5t-43.5 2.5h-21q-5 0 -11.5 1.5t-12 2.5t-8.5 0.5t0 -4.5l-42 -33q-15 -11 -20.5 -9t-10 9t-11 15t-22.5 8q-25 0 -48.5 3t-48.5 3h-27l-16 -33l28 -710l6 -5q2 2 9.5 6t14.5 4l3 -1
q8 -5 10.5 -7t7.5 -2h12l370 -1q6 0 9 9t3 14q0 2 -0.5 3.5l-0.5 1.5h-9q-11 0 -27 2.5t-21 11.5h34v73q5 5 11.5 14.5t6.5 17.5q0 1 -0.5 1.5l-0.5 0.5q-2 2 -8.5 5t-8.5 3l-285 2l12 404q0 15 6 26q24 4 41.5 1.5t35.5 1.5q22 -3 49 -2.5t54 1.5t50 1.5t37 -1.5
q6 -11 6 -26l25 -228l-57 -2q8 29 8 63q0 24 -8 49t-23.5 45.5t-38.5 33t-52 12.5q-12 0 -18.5 -4.5t-10 -10t-5 -10.5t-3.5 -6q-5 -3 -11 -4.5t-11 -8.5q-48 -57 -48 -135q0 -28 12.5 -56.5t35.5 -45.5q10 -5 17.5 -8.5t16.5 -9.5h4q0 -6 3 -14t9 -8l256 -2h11q7 0 9 2
t10 7l3 1q7 0 14.5 -4t9.5 -6zM296 328q0 20 7 36t15 30l1 2l0.5 0.5t1.5 0.5l1 -1q11 -11 14.5 -27.5t3.5 -33.5v-3q0 -3 -0.5 -5.5t-0.5 -5.5v-3q-1 -8 -3 -16.5t-7 -14.5q-2 -3 -6 -6.5l-4 -3.5l-1 -11q-1 1 -4.5 10.5t-5.5 12.5q-5 10 -8.5 19t-3.5 20zM500 473
q0 -9 0.5 -21t0 -24t-3 -23t-9.5 -18v6q0 5 -0.5 8.5t-0.5 8.5v14q0 5 0.5 8.5t0.5 8.5v3q0 6 0.5 16t1.5 19t2 16t2 7l5 6v-7q0 -5 0.5 -10.5t0.5 -10.5v-7zM42 365v7q0 5 0.5 10.5t0.5 10.5v7l5 -6q1 0 2 -7t2 -16t1.5 -19t0.5 -16v-3q0 -5 0.5 -8.5t0.5 -8.5v-14
q0 -5 -0.5 -8.5t-0.5 -8.5v-6q-7 7 -9.5 18t-3 23t0 24t0.5 21zM74 39l4 28q2 15 -0.5 23.5t2.5 23.5l6 -6v-69l-6 -5zM593 282v-19l-6 -5l-6 5v69l6 6q5 -15 5.5 -28t0.5 -28zM414 261l8 -8l-11 -21h-9t-10 -1q12 12 22 30zM344 398q0 2 2 4.5t3 3.5q3 0 3 -3q7 -8 9 -14
t2 -14q0 -2 -0.5 -3.5t-0.5 -3.5l-4 -3l-8 28q0 2 -2.5 3.5t-3.5 1.5zM413 419q2 0 2 -3q0 -1 1 -9.5t2 -15.5t1 -8q-1 0 -2.5 6.5t-3.5 14.5t-3.5 14.5t-1.5 7.5q0 2 2.5 -2.5zM242 256q-2 1 -3.5 3t-2.5 3q6 -4 12 -9t10 -10l2 -4q-5 2 -10.5 7t-7.5 10zM221 299v7
q5 -13 5 -28v-4q-4 5 -4.5 12t-0.5 13zM411 266q1 -1 1.5 -2t1.5 -2q-5 -11 -12 -16v2l6 13q0 1 1 2t2 3zM281 454q3 0 6 -0.5t3 -4.5h-4q-1 0 -2.5 1t-2.5 1t-4 -1t-4 -1h-2q2 5 10 5zM266 441l1 -1l-1 -1q-1 -1 -3 -4.5t-4 -4.5h-2q2 7 9 11zM420 297v-2v-1h-1
q0 1 0.5 1.5t0.5 1.5z" />
    <glyph glyph-name="FL0041h" unicode="A" horiz-adv-x="586" 
d="M51 53q0 -6 2 -17t4.5 -23t4.5 -22.5t3 -16.5q1 -2 3.5 -10t3.5 -10q2 2 4.5 10t2.5 10q1 3 3 17t3.5 30t3.5 30t3 17q1 7 4.5 19t6.5 20t3 9h5q0 -4 1.5 -14t0.5 -13q0 -4 -3.5 -17.5t-3.5 -16.5q0 -2 2.5 -9t4.5 -11l27 -54q15 10 21 36.5t10.5 54.5t11.5 49.5t24 21.5
h142l20 -95q7 -2 19.5 -12t25.5 -20.5t23.5 -17.5t12.5 -4l14 27v108q12 -20 15 -35.5t7 -28t13 -25t32 -26.5q3 -2 13.5 -9.5t13.5 -10.5q0 1 0.5 3t0.5 4q0 9 -4.5 13.5t-9.5 8.5t-9.5 7.5t-4.5 10.5q0 5 2 10t8 5q1 0 2.5 -0.5l1.5 -0.5q3 -2 13 -7l14 -7q7 1 7 9v13
q0 2 -0.5 7l-0.5 5l-47 176v67l-74 412q-1 8 -5 17.5t-10 17.5t-14.5 13.5t-17.5 5.5q-11 0 -20.5 -7t-20.5 -7q-5 0 -8 1t-5.5 2.5t-6 3t-10.5 1.5t-16.5 -1t-20 -2t-19.5 -2.5l-15 -2.5q-10 -2 -20 -9.5t-19 -16t-15.5 -15t-9.5 -6.5h-4q0 3 -0.5 11t-2.5 16.5t-6 15
t-11 6.5q-1 0 -3.5 -1t-3.5 -1q-2 -5 -7 -19.5t-10.5 -30.5t-10 -30.5t-5.5 -20.5q-3 -14 -10 -42t-15.5 -63t-18.5 -74t-18.5 -74t-15.5 -63t-10 -42q-1 -30 -7.5 -59t-14 -58t-13.5 -58.5t-6 -60.5v-20l26 12l1.5 0.5t2.5 0.5l3 -1q2 -2 4 -7t3 -7zM215 296q10 60 28 122
t38 116l7 -7l47 -216l1 -15q-29 -4 -49.5 -5.5t-46.5 -1.5q-3 0 -13 -0.5t-12 7.5zM423 689q1 0 2 0.5t2 0.5q7 0 12.5 -20.5t9.5 -46t6 -48.5t2 -27q0 -2 -2.5 -3.5t-4.5 -3.5l-2 -1t-2 1q-1 9 -3.5 28.5t-6 42.5t-7 44t-6.5 33zM84 274v-8q0 -5 0.5 -12t0.5 -13v-7v-11
q0 -7 -0.5 -13t-0.5 -11v-6q0 -8 -2.5 -21t-4.5 -13h-6v7l6 101z" />
    <glyph glyph-name="FL0042h" unicode="B" horiz-adv-x="556" 
d="M37 542l-13 51l13 26q-1 1 -1 9t-4.5 21t-19.5 22l-5 92l326 9q40 0 78.5 -17t68.5 -44.5t48 -63t18 -71.5q0 -43 -21.5 -82t-58.5 -65q27 -14 44 -35.5t26 -47.5t10 -55.5t-4 -59.5q-7 -45 -27 -86.5t-47 -73t-57 -51t-58 -20.5l-238 2l-65 4l-9 279q0 2 0.5 3t0.5 2
q1 19 1.5 37t0.5 37q3 0 -4.5 3.5t-5.5 5.5q3 40 1.5 72t0.5 70q0 2 0.5 12t0.5 15zM364 254q0 9 -2 21t-7.5 24t-15.5 22t-26 15q-15 1 -40.5 3t-45.5 4q-1 -13 -0.5 -30t1 -33.5t1.5 -30t1 -19.5q0 -3 1 -10t2.5 -14.5t2.5 -14t1 -8.5q1 -1 7 -3t13 -4t13 -3.5t7 -1.5h4
q15 0 30 8t27 20.5t19 27t7 27.5zM231 545l7 7l-10 -102q5 11 11 24.5l6 13.5q19 6 36 6q11 0 33 -5q6 12 10 33.5t4 31.5q0 11 -3.5 23t-11 22.5t-18 17.5t-23.5 8q14 0 15 0.5t-8 2t-26.5 4.5t-39.5 7q1 -4 0.5 -8t0.5 -8l10 -78q1 0 2 -0.5t2 -0.5zM413 717q1 -1 2.5 -3
t3.5 -3q3 -2 14.5 -9.5t24.5 -16t23.5 -15t12.5 -6.5q0 8 -7.5 18.5t-18.5 19.5t-23 15.5t-20 6.5q-3 0 -6.5 -1t-5.5 -6zM64 327l11 -200l7 27l-11 180zM166 571q7 2 7.5 6.5t0.5 9.5q0 15 -3 31t-7 32l-12 3v-7q0 2 2 -9.5t4.5 -26t4.5 -27t3 -12.5zM423 89q1 -3 5 -2.5
t9 2.5t9 4l6 3q7 4 14.5 13.5t14.5 20.5t12 23t7 22q-4 -4 -10.5 -15t-14.5 -22.5t-16 -20t-14 -6.5q-1 0 -4.5 -3.5t-7 -7.5t-7 -7.5zM497 508h-6q-1 -1 -5.5 -8.5t-12 -19t-11.5 -17.5q-5 -5 -7 -11h3q7 0 14 6.5t12 15.5t8.5 18.5t4.5 15.5zM283 28h14q14 0 22 0.5
t24 5.5h-135q4 -1 14.5 -2t22.5 -2t22.5 -1.5t15.5 -0.5zM174 750h-12q-4 0 -20 -1t-34 -2.5t-33.5 -2.5t-19.5 -2l124 3l4 5h-9zM197 19h2q-8 0 -9 1l-70 29l-1 -13q-2 0 3.5 -1t12.5 -3t13 -4t6 -4q0 -3 12.5 -4t21.5 -1h9zM210 198l9 -53q7 0 7 7q1 1 1.5 2t1.5 2
q-2 0 -5 7t-6 15.5t-5.5 14.5t-2.5 5zM190 750q2 -2 2.5 -3t1.5 -2h21q-8 2 -14 3t-11 2z" />
    <glyph glyph-name="FL0043h" unicode="C" horiz-adv-x="525" 
d="M404 768h55q1 0 2 0.5t2 0.5q6 0 10.5 -8t7.5 -17.5t4 -18.5t1 -11l-8.5 -6t-19.5 -12.5t-19.5 -12.5l-8.5 -6l65 -26q1 1 -8 -2.5t-20 -8t-20 -8t-8 -2.5l72 -28q2 -23 -3 -31.5t-16 -8.5q-15 0 -41 9t-55 9q-20 0 -40 -11q-34 0 -57 -17t-37 -43.5t-20 -58.5t-6 -61
q0 -54 9 -91t31 -59t58 -30t89 -3q0 -1 0.5 -2t0.5 -2q0 -8 -7 -11.5t-15.5 -7t-15.5 -8.5t-7 -16q12 0 26.5 4l29 8t28.5 6t25 -3q-10 -7 -21 -12t-20.5 -10.5t-15.5 -11.5t-6 -15q1 0 6.5 1.5t11.5 3t11.5 3t6.5 1.5l34 6h4h3q-14 -18 -35 -31.5t-44 -21.5t-47.5 -11.5
t-45.5 -2.5q16 -11 38.5 -9.5t46 4.5t45 3.5t35.5 -12.5q0 -1 0.5 -2t0.5 -2q0 -3 -11 -11t-24.5 -16.5t-26 -15t-15.5 -6.5q-2 -1 -7 3t-7 4h-12q-10 0 -17.5 -3t-15 -6.5t-15 -6.5t-17.5 -3q-81 0 -141.5 34t-100.5 89.5t-60 127t-20 145.5q0 38 7.5 80.5t22 83.5t37 79
t52.5 66.5t68 45.5t83 17q16 0 31.5 3.5t30.5 5.5t28 1t24 -11q2 2 7 4.5t7 2.5zM222 714h7q13 0 24 4t23 4v8q-12 0 -28.5 -1.5t-25.5 -14.5zM210 451v-13q12 18 23.5 45t11.5 49q0 2 -0.5 4t-0.5 3q-18 -14 -26 -40.5t-8 -47.5zM60 255v7q0 5 -1.5 21t-3.5 33.5t-5 33.5
t-6 21q0 -1 0.5 -13t1 -26.5t1 -26.5t0.5 -13q0 -11 2.5 -18.5t10.5 -18.5z" />
    <glyph glyph-name="FL0044h" unicode="D" horiz-adv-x="592" 
d="M247 695l1 6l12 28q11 -1 27 1t24 -3q-4 0 -13 -5t-18.5 -11t-19 -11t-13.5 -5zM357 53h7q-9 -13 -25.5 -14.5t-28.5 -1.5v8q12 0 23 4t24 4zM526 505v7q8 -11 10.5 -18.5t2.5 -18.5q0 -1 0.5 -13t1 -26.5t1 -26.5t0.5 -13q-3 5 -6 21t-5 33.5t-3.5 33.5t-1.5 21zM50 514
q0 -2 0.5 -11.5t0.5 -12.5v-44q0 -23 -14 -40v17q0 52 13 91zM382 320v-13q0 -21 -8 -47.5t-26 -40.5q0 1 -0.5 3t-0.5 4q0 22 11.5 49t23.5 45zM191 187l41 375q40 -1 63.5 -12t35.5 -33.5t15.5 -56.5t3.5 -82q0 -29 -2 -61t-11.5 -58.5t-28.5 -44t-53 -17.5
q-17 -9 -33 -10.5t-31 0.5zM232 757l-5 19l-218 -10q1 -3 1.5 -24t1 -52.5t1 -70.5t0.5 -79v-80q0 -38 0.5 -69.5t1.5 -52t2 -24.5q0 -3 2 -16t5 -28t5 -28t2 -16v-196q0 -6 1 -16l2 -20t2 -17t1 -8l7 -6l14 60q0 2 3 2t3 -2q2 -2 4.5 -6.5t2.5 -6.5l14 61q0 -5 0.5 -15.5
t1.5 -22.5t2 -22.5t2 -14.5q0 -4 4.5 -15.5t12.5 -11.5q9 0 15 12t13 24q5 -8 12 -8q1 0 2 0.5t2 0.5h55q2 0 7 2.5t7 4.5q10 -10 20 -11t20.5 1.5t22 6t26.5 3.5q36 0 70 17t64 46t55 67t43 79t28 83.5t10 79.5q0 74 -15.5 145.5t-51 127.5t-92 90.5t-137.5 34.5
q-17 0 -27.5 -7t-24.5 -11zM154 235l-8 2q-1 0 0.5 15.5t4.5 24.5l1 5q1 4 1.5 9t2.5 10l5 16q1 3 2.5 8.5t3.5 10.5l1 7l-12 -95q-2 -10 -2 -13z" />
    <glyph glyph-name="FL0045h" unicode="E" horiz-adv-x="438" 
d="M40 6l7 -6q1 1 3 5.5t5.5 9.5t7.5 9t8 4l3 -1q12 -10 17.5 -18.5t22.5 -8.5h264q7 0 10.5 11t3.5 16q0 2 -0.5 4l-0.5 2h-11q-12 0 -31 3t-25 14h40v85q5 5 13 17t8 21q0 1 -0.5 1.5l-0.5 0.5q-2 3 -10 6.5t-10 3.5h-142q-1 0 -2 8t-2 19.5t-1.5 23.5t-0.5 20q0 4 2 14
t4 13q16 4 37 6.5t42 3.5t39.5 2t30.5 2l7 6q-3 10 -10.5 11.5t-15.5 1t-14.5 0t-7.5 8.5q6 10 18.5 12.5t22.5 7.5q-6 7 -12 10.5t-11 7.5t-8 9.5t-3 16.5h-74q9 3 27 4.5t36 5t31.5 12t13.5 26.5v2q-3 0 -8.5 1t-12 2.5t-12 2.5t-8.5 1q-2 1 -4 5t-2 5h-81l-7 10v25v32
q0 18 7 31q21 4 43 5t43.5 3.5t42.5 8t39 17.5q-24 16 -40.5 23t-46.5 11v6q10 1 26 4t31.5 9t26.5 16t11 26q0 6 -5.5 9.5t-12 5.5t-13.5 3t-10 2q0 1 -0.5 2t-0.5 2q0 8 8.5 11.5t19 7t19.5 9t9 17.5q0 17 -9.5 20t-25.5 5h-16q-11 0 -23 0.5t-23 0.5h-16q-40 0 -78 -4
t-76 -4q-29 0 -57 4t-57 4h-9q-5 0 -10 -0.5t-10 -0.5h-3l-19 -38zM67 82q0 18 1 33.5t6 32.5l7 -7v-81l-7 -6l-7 6v22zM26 607v8q0 6 0.5 13t0.5 12v8l6 -7q1 0 2 -8t2 -19t2 -22.5t1 -18.5v-4q0 -5 0.5 -10t0.5 -10v-9v-7q0 -5 -0.5 -10t-0.5 -10v-7q-8 9 -11 22t-4 27
t0 27.5t1 24.5z" />
    <glyph glyph-name="FL0046h" unicode="F" horiz-adv-x="432" 
d="M165 21v-11q0 -11 1 -24.5t3 -18.5v29l6 3t10 1q2 0 4 -5.5t3 -7.5q2 -3 6 -7q10 18 18 24.5t30 2.5q1 9 3 31t4.5 46.5t4 46.5t1.5 31v27q1 16 3 40t4.5 46t4.5 37.5l2 15.5h141q6 0 7 6.5t1 11.5q0 8 -11.5 13.5t-16.5 12.5l14 6l6 41q1 7 -9.5 13.5t-24.5 11t-26 7
t-14 2.5v6q7 -1 16.5 0t18 4.5t14.5 10t6 16.5q0 1 -0.5 2l-0.5 1q0 7 -7 7h-23q-24 0 -40.5 -1.5t-44.5 -5.5v7v18v6v19q0 13 5.5 20.5t21.5 10.5q6 1 19.5 3t28.5 4t28 4t19 3q12 3 13 10t1 16q0 11 -6.5 17.5t-17 10t-23 4.5t-24.5 1h-14q-7 0 -10 1q7 8 25 7.5t36.5 -1
t33 2.5t14.5 18q0 9 -5.5 12t-12 4.5t-12 4t-5.5 9.5q0 15 4 24t9.5 15.5t9.5 12t4 13.5q0 7 -7 7h-407q0 -87 11.5 -173.5t25 -173.5t24.5 -174t9 -175q19 -48 71 -48v96l10 6q2 -22 7.5 -44t5.5 -43v-7q0 -2 -3 -10t-3 -10zM109 29q-1 0 -5 1t-8.5 1.5t-8 0t-3.5 -2.5
q0 -3 4 -10t9 -14.5t9 -13t5 -4.5q4 4 4 11q0 4 -2 17t-4 14zM81 478l-4 -116q10 -4 12.5 -18t2.5 -28v-15h-8q-6 52 -12.5 84.5t-6.5 58.5zM126 713l12 -98l1 -4.5t2 -11.5l2 -14t1 -11q0 -3 1 -13.5t1 -19.5v-7h-8l-1 6t-2 15l-2 18t-2 15q0 1 -1 20.5t-1.5 42t-1.5 41.5
t-1 21z" />
    <glyph glyph-name="FL0047h" unicode="G" horiz-adv-x="560" 
d="M425 81q8 -5 14 -15t10 -21.5t6.5 -23.5t3.5 -21q1 0 2 -0.5t2 -0.5q6 0 10.5 7.5t7.5 17.5t4 19t1 11q1 0 2 0.5t2 0.5l2 -1q3 -2 11 -7t10 -7l6 14q1 42 6.5 84.5t12 84.5t11.5 84.5t5 84.5q0 25 -11.5 29t-40.5 4q-12 0 -16.5 -10.5t-7.5 -24t-6.5 -27t-12.5 -19.5v61
q0 8 -9 12.5t-20 6.5t-22 2.5t-14 0.5q-4 0 -12.5 -0.5t-10.5 -1.5l-7 -7v-47h-9v47h-14q0 -55 7.5 -108.5t7.5 -110.5q-34 0 -57 17t-37 43.5t-20 58.5t-6 61q0 97 49.5 144t146.5 50q0 1 0.5 2t0.5 2q0 8 -8.5 10t-18.5 3t-18.5 4.5t-8.5 14.5q24 0 44 -2.5t42 7.5
q-10 7 -16 11t-9.5 7.5t-4.5 8t-1 13.5h4l34 -6h4h3q-13 18 -30.5 28t-37 14.5t-40.5 5t-41 -0.5q16 11 35 13t38.5 2.5t37 3t31.5 15.5q0 1 0.5 2t0.5 2q0 3 -6 9.5t-13.5 13.5t-15 12t-10.5 5q-2 1 -7 -3t-7 -4h-12q-20 0 -37 4t-37 4q-81 0 -141.5 -34t-100.5 -89.5
t-60 -127t-20 -145.5q0 -38 7.5 -80.5t22 -83.5t37 -79t52.5 -66.5t68 -45.5t83 -17q64 0 108 41q2 -2 7 -4.5t7 -2.5q8 2 11 7.5t4.5 12t3.5 12.5t8 9zM222 54h7q13 0 24 -4t23 -4v-8q-12 0 -28.5 1.5t-25.5 14.5zM222 317v13q12 -18 23.5 -45t11.5 -49q0 -2 -0.5 -4
t-0.5 -3q-18 14 -26 40.5t-8 47.5zM60 513v-7q0 -6 -0.5 -22t-1 -34t-2.5 -33.5t-5 -21.5l-4 81q-1 11 2 18.5t11 18.5z" />
    <glyph glyph-name="FL0048h" unicode="H" horiz-adv-x="614" 
d="M65 -10l7 -6l6.5 3.5t15 9t17.5 11t15 9.5q10 10 13 21q1 3 3 12t4 18.5t4 18t3 11.5l7 7l6 -7q0 -1 1 -6t1 -10v-5q0 -23 -7.5 -41.5t-7.5 -39.5q10 0 21 3.5t13 17.5q1 30 1.5 63t3 66.5t7.5 66t15 61.5q1 7 6 7h149l7 -7l1.5 -20t4 -47t4.5 -55.5t3 -46.5
q0 -5 0.5 -18t0.5 -27t-0.5 -26t-0.5 -17q4 -4 7 -6l1 -0.5t2 -0.5t2.5 0.5l1.5 0.5q3 2 10.5 10t9.5 10q6 0 7 -7q1 -3 3.5 -16t2.5 -18h14q0 2 0.5 8t2.5 12t5.5 10.5t8.5 4.5q6 0 10.5 -5.5t8.5 -12t8.5 -13.5t9.5 -10q-3 19 1 36t9 32.5t9 32t1 34.5q31 159 48.5 313
t32.5 314v5v2q-1 2 -3 7t-4 7h-2q-19 0 -29 -7t-15 -18t-6 -26l-2 -30h-10v87h-118q-7 -4 -19 -4h-18q-11 0 -20.5 -5.5t-9.5 -19.5v-4q2 -31 4.5 -58t4.5 -53t3.5 -51.5t1.5 -53.5q0 -5 -0.5 -15t-0.5 -12l-7 -7l-121 -7v285q-2 0 -3.5 -0.5t-3.5 -0.5l-61 -7h-7
q-11 0 -18 7t-18 7q-10 0 -17.5 -3.5t-16.5 -3.5q-7 0 -12 3.5t-12 3.5q-2 0 -4.5 -0.5l-2.5 -0.5q-3 -2 -13.5 -12t-13.5 -15q-2 2 -6.5 4.5t-6.5 2.5h-3q-8 0 -9.5 -5t-1.5 -10v-12l41 -520q1 -2 2 -7.5t2 -12t2 -12.5t1 -8q1 -10 3 -35t3.5 -53t3.5 -53t3 -35zM497 159
v-8q0 -5 0.5 -12t0.5 -13v-7v-11q0 -7 -0.5 -13t-0.5 -11v-6q0 -8 -2.5 -21t-4.5 -13h-6v7l6 101zM475 226q1 0 0.5 -7.5t-2 -17.5t-3 -18.5t-1.5 -9.5q0 -7 -6 -7q-5 0 -5 7q0 1 2.5 9.5t5.5 18.5t5.5 17.5t3.5 7.5zM405 387l-16 -55q1 0 -4.5 -3t-13 -6.5t-14 -6.5
t-6.5 -4l18 16q2 5 7 7zM227 443h68q-1 -7 -9 -7h-11q-14 0 -23 1t-25 6zM106 503q0 4 -0.5 14t-1.5 20.5t-2.5 20t-2.5 13.5q0 2 -3.5 13.5t-3.5 13.5q0 6 5 7t9 1t7.5 -1t5.5 -7v-7q0 -5 0.5 -10t0.5 -10v-7q0 -19 -1 -34t-7 -33zM97 34l-6 6q0 4 -0.5 12.5t-1.5 17.5
t-2 17t-2 12q0 5 -1 15t-1 17q0 5 1 5q4 0 7.5 -1t5.5 -7v-7q0 -5 0.5 -10t0.5 -10v-7q0 -19 2.5 -30.5t-3.5 -29.5z" />
    <glyph glyph-name="FL0049h" unicode="I" horiz-adv-x="256" 
d="M126 5q13 0 18.5 -11.5t0.5 -22.5q10 3 19 11t9 20l-1 2q-1 2 -6 4.5t-7 2.5l-7 7q0 2 3.5 10.5t3.5 9.5q2 13 6 37.5t8.5 50.5t8 47l4.5 27t3 29t4.5 49t4 48.5t1.5 28.5q6 49 14 96.5t15.5 95t12.5 95.5t5 98v34q0 5 -6 7h-4h-3q-2 -2 -8.5 -5t-14.5 -6t-15 -6t-9 -4
q-2 2 -10 4.5t-11 2.5h-2q-27 0 -36.5 -12.5t-15.5 -34.5q-5 1 -6.5 6.5t-1.5 11.5t1 11l1 5q-2 3 -12 5t-22 4t-23 3t-14 1q-11 0 -21 -9.5t-10 -20.5q0 -14 6 -27.5t8 -30.5q1 -11 3 -34t4.5 -47t4 -43.5t1.5 -23.5q6 -121 5 -240t9 -239q0 -2 0.5 -10.5t0.5 -10.5h19
q0 -4 5 -17t9 -16l4.5 -0.5t7.5 -0.5q11 0 18 4t18 4zM91 200q7 0 7 -7q1 -3 2 -9.5t2 -14t2 -14t1 -9.5q0 -5 -4 -10.5t-10 -5.5v70zM54 493q1 0 0 -9t-2.5 -20.5t-3 -20.5l-1.5 -9q0 -2 -3 -3.5t-3 3.5q0 1 1.5 10.5t4 20.5t4.5 19.5t3 8.5zM82 652l16 -9l5 -176l-3 23.5
t-6.5 52t-6.5 52t-3 24.5q0 4 -1 16.5t-1 16.5z" />
    <glyph glyph-name="FL004Ah" unicode="J" horiz-adv-x="457" 
d="M20 13q1 3 -3 3t-3.5 -3t3.5 -3t3 3zM245 629v14q0 20 1 33.5t6 33.5l7 -20v-101q-9 5 -11.5 17t-2.5 23zM27 6l13 -7q22 1 41 -2t37.5 -7.5t37 -8t39.5 -3.5q15 0 25 5t19 12t18 15t22 15q-1 -8 -8 -18t-7 -18q7 0 17 8t19 19.5t16 23.5t9 20q11 7 13.5 12t11.5 14
q9 7 26.5 50.5t27.5 112.5q0 27 0.5 50t1.5 50t2.5 61t2.5 84l0.5 14t1.5 31t1.5 31.5l0.5 14.5q0 1 -0.5 2l-0.5 1l9 89l29 86q0 8 -5 7t-11 -3.5t-11 -3t-5 8.5l-210 5l-5 -1t-12 -2.5t-12.5 -3t-5.5 -2.5t3 -8t6.5 -15.5t6.5 -16.5t3 -9l2 -40q2 -37 6 -67.5t9.5 -59.5
t12 -60t12.5 -68q-3 -45 -5.5 -88t-7.5 -78q-8 -49 -35 -74.5t-78 -15.5q-13 0 -24.5 11.5t-22 25.5t-22 25.5t-24.5 11.5l-4 -67l47 -47h-6l-27 6h-7q7 -12 16.5 -18t18 -9.5t15.5 -6t9 -6.5q2 -2 0 -6l-2 -4l-35 -17l5 -1t10.5 -3t10.5 -4.5t6 -5.5l13 -13q0 -6 -6 -7h-4
q-11 0 -26 7.5t-24 12.5l-2 -10q0 -13 12.5 -16.5t22.5 -6.5q-8 -5 -16 -8t-17 -6zM355 260l5 44q7 -9 6.5 -34.5t-5 -53t-11 -50t-12.5 -26.5q-6 3 -4 19.5t6.5 36t9.5 37.5t5 25v2z" />
    <glyph glyph-name="FL004Bh" unicode="K" horiz-adv-x="546" 
d="M395 110l41 -81q5 -9 13 -22t17 -25t19.5 -20.5t19.5 -8.5q0 37 -5.5 66t-9.5 64l-102 371q-2 6 9.5 22.5t28 35.5t33 37t24.5 27q4 4 13 15.5t18.5 24.5t18 24.5t11.5 16.5q0 2 0.5 5t0.5 5q0 14 -6.5 30t-17.5 29.5t-25 22.5t-29 9h-4q0 -8 -3.5 -20.5t-9.5 -24.5
t-14 -21t-17 -9q-1 0 -2 0.5t-2 0.5q11 17 16.5 29t5.5 29q0 14 -6 15.5t-19 1.5q-19 0 -27 -10t-17 -25q-7 -10 -23.5 -37.5t-35 -59t-34.5 -59.5t-22 -40q-3 -7 -5 -7q-1 0 -2.5 1t-3.5 1q0 63 6.5 125t6.5 126q-8 0 -17.5 -1.5t-17.5 -7.5q-1 -4 -2.5 -14t-4.5 -22
t-8 -23t-12 -16q-3 10 -5.5 23t-6.5 25t-11.5 20t-20.5 8q-9 0 -14.5 -5t-8.5 -12.5t-5 -16t-3 -15.5q-5 3 -7 9.5t-4 13.5t-5.5 12.5t-10.5 5.5h-54q-8 0 -13.5 -11.5t-8.5 -26t-4 -27t-1 -15.5q0 -45 3 -84.5t7.5 -77.5l9 -76t7.5 -80t4.5 -77.5t3 -69t4.5 -68.5t9 -76
q1 -7 3 -17t4 -19.5t4 -16.5l2 -7l34 -7q0 2 2.5 10t4.5 10l1 0.5t2 0.5q4 0 9 -5.5t9.5 -12t7 -12l2.5 -5.5v31l3.5 2.5t5.5 0.5l20 -20h4h3q2 2 4.5 6.5t2.5 6.5l34 284q1 6 5.5 7t8.5 1q5 0 10.5 -8.5t10 -19t8 -21l4.5 -13.5t4 -14t6 -23.5t6 -23.5t4 -13q2 -5 10.5 -23
t19.5 -40.5t21.5 -44.5t16.5 -34q2 -2 7 -12.5t13 -10.5v23q6 -5 10 -11.5t8.5 -12.5t10 -10t13.5 -4q0 13 -3.5 25.5t-7.5 25t-7.5 25.5t-3.5 27v16zM382 9q-5 0 -5 -7t5 -7t5 7t-5 7zM118 123l22 36l-15 -103h-7v67zM307 231v14q8 -15 18.5 -37t10.5 -39q-9 0 -15 7t-9 17
t-4 20.5t-1 17.5zM395 495q2 -4 0 -6.5t-7 -0.5q-2 2 2 6t5 1zM111 670v7q0 5 0.5 10t0.5 10v7q7 -10 7 -25v-26v-6q0 -4 -0.5 -9t-0.5 -9v-6q-8 8 -7.5 24t0.5 23z" />
    <glyph glyph-name="FL004Ch" unicode="L" horiz-adv-x="374" 
d="M36 56l-6 -48l238 -16h21q10 0 21 1.5t21 5t16.5 10t6.5 16.5l-1 2q-2 3 -10.5 11.5t-11.5 10.5l28 13l-35 29q1 1 6.5 9t11.5 18t11 18t5 10q0 4 -5 6.5t-12 4t-15 2t-13 0.5h-119q4 68 9.5 112t11.5 74.5t12 54t12 49.5l-1 49q0 18 2.5 36t11.5 35q3 30 7 60.5t7 57.5
t5.5 48t2.5 33t-3 12l-25 -7h-180h-27q-13 0 -24 -14v-37l7 -334q0 -5 9 -10.5t9 -11.5q0 -4 -3.5 -7t-14.5 -8l8 -7zM130 61v-12l-5 -1t-11.5 -2t-13.5 -2t-13 -2h-15q5 11 20 15t26 4h12zM273 70l14 -16l-94 -3zM80 721q0 9 1.5 14t12.5 10l1 -16v-31q0 -17 -0.5 -38
t-1 -40.5t-2 -34t-3.5 -18.5q-2 5 -3.5 28t-2.5 49.5t-1.5 49t-0.5 27.5z" />
    <glyph glyph-name="FL004Dh" unicode="M" horiz-adv-x="664" 
d="M608 757l44 -25l-33 -721q-6 1 -14.5 8.5t-17 16t-16.5 15.5t-13 7q-3 0 -14 -14t-24.5 -30.5t-26.5 -30t-19 -13.5q-4 0 -4 6t2.5 15t6 19.5t6 22t2.5 21.5q0 9 -3 17l-21 212l-11 53q-9 -23 -17.5 -33.5t-16.5 -18t-17 -15.5t-19 -26q-2 -8 -5.5 -15.5t-7.5 -7.5h-1
q-3 -5 -5.5 -17.5l-5.5 -27.5t-6.5 -28.5t-6.5 -18.5q-5 3 -9 17t-6.5 30.5t-4 33t-2.5 24.5q-2 -9 -7.5 -17.5t-16.5 -15.5q-2 2 -6.5 12t-6.5 13q-4 -5 -5.5 -14.5t-6.5 -9.5q-3 0 -6 5t-5 11t-3.5 11.5t-1.5 6.5l7 20q-12 21 -22 33t-19 22t-17.5 23.5t-18.5 37.5l24 -83
l-27 -214q-4 -23 -7.5 -36.5t-7.5 -20t-8 -7t-8 1.5q-6 4 -15 7t-14 -3q-5 -5 -6.5 -14t-1.5 -20v-19q0 -13 -6 -13q-5 0 -13 10.5t-16.5 22.5t-17 22t-14.5 9l-41 742v9q0 5 13.5 8.5t24.5 4.5l64 5q8 -7 19 -7.5l22 -1t20 -3.5t13 -15q5 -15 13.5 -26.5t18.5 -23t18.5 -23
t13.5 -26.5q2 -5 7 -17t6 -17q4 1 6.5 6t4 11t2.5 11t1 6l55 -118l44 36q0 2 0.5 8.5t1 14t1.5 14t2 8.5q5 14 17 30t25.5 32t25 32t16.5 31q4 12 16 16t27 6t29.5 4t22.5 9zM608 567q-14 -11 -14 -27q0 -5 -3.5 -28.5t-7 -50t-4.5 -48t4 -21.5q0 7 4.5 32.5t10 55t9 55
t1.5 32.5zM230 408q0 -6 4 -11t10 -9.5t11.5 -9.5t8.5 -11q0 2 0.5 5.5t0.5 5.5q0 7 -5 17.5t-12 21.5t-14 21.5t-11 18.5q0 -2 1.5 -12.5t3.5 -23t2 -13.5zM383 378q0 2 -0.5 7t-0.5 6q-8 -15 -11 -25.5t-3 -24.5q0 -2 0.5 -5.5t0.5 -5.5q14 26 14 48zM74 186q-1 0 1 -8.5
t4.5 -19t5 -20t2.5 -10.5v-5q0 -3 2 -1q4 1 4 6q0 1 -2.5 10.5t-6 20t-6.5 19t-4 8.5zM579 132q-4 0 -4 -7q0 -5 4 -6q2 -2 2 1v5q0 9 -2 7zM155 650l30 -129q0 -1 -1 -1.5t-1 -2.5q0 -3 2 -3t5.5 6.5t3.5 7.5t-6 20t-13 41.5t-13 41.5t-7 19zM389 405q-3 -2 -3 -4t3 -3.5
t3 3.5t-3 4z" />
    <glyph glyph-name="FL004Eh" unicode="N" horiz-adv-x="567" 
d="M396 81q1 -3 3 -12t3.5 -18.5t3.5 -18.5t3 -12q1 -2 4 -11t6.5 -19t8 -19t8.5 -11q2 3 5 13.5t6 19.5q2 5 4.5 9.5t5.5 4.5l1.5 0.5t2.5 0.5q8 0 11 -11.5t5 -16.5l7 13l47 466v7q1 5 4 25t6 42.5t6 42.5t4 25q2 18 3.5 41t3 47t2 47.5t0.5 42.5q-3 0 -11 -0.5t-17 -1
t-17 -1t-11 -0.5q-2 0 -10 -3t-10 -3q-4 0 -17.5 3t-16.5 3h-10q-21 0 -34.5 -5.5t-22 -12t-12.5 -12t-5 -5.5t-2.5 1l-1.5 1l-13 27l-1 0.5t-2 0.5q-9 0 -10 -8.5t-1 -14.5q0 -88 2 -171t2 -171q0 -2 -3.5 -0.5t-7.5 6.5q-45 90 -81.5 175.5t-59.5 182.5l-7 6h-61
q-1 0 -3.5 -7.5t-3.5 -12.5q0 -3 0.5 -10.5t1 -16.5t1 -16.5t0.5 -10.5h-9q-6 20 -12 34t-15 23t-23.5 13t-37.5 4q-5 0 -8.5 -0.5t-5.5 -5.5v-23q0 -75 4.5 -148.5t4.5 -148.5q7 0 13 -5t5 -13q1 -5 2.5 -17t2.5 -26t1.5 -26.5t0.5 -18.5v-11v-18v-20v-11q0 -8 3 -21t4 -13
h11v94l9 -6v-81q-7 -7 -7 -15v-15q0 -26 2.5 -54.5t6 -57.5t7 -56.5t5.5 -51.5l20 20l1 0.5t2 0.5t2.5 -0.5l1.5 -0.5q2 -2 7 -10t6 -10l14 40q0 3 6 3q5 0 13 -10.5t16 -24t13.5 -26t5.5 -16.5q8 11 11 23.5t3 24.5q0 10 -7.5 17t-7.5 16q0 1 0.5 4l0.5 3l6 13q1 6 4 19.5
t6.5 27.5l6.5 26t4 15l13 108q1 0 2 0.5t2 0.5l3 -1l7 -7q4 -5 14 -19.5t20.5 -30.5t20 -30.5t12.5 -20.5l7 -13l54 -135l7 -7q4 8 6.5 19.5t4 23.5t2 22.5t0.5 15.5zM166 169q0 -2 0.5 -7t0.5 -7q0 -10 -1 -16.5t-6 -16.5q0 2 -0.5 10t-0.5 10t-0.5 13.5t7.5 13.5zM247 459
q7 0 7 -7q3 -4 10.5 -16.5t9.5 -16.5l9.5 -19l11 -22l9.5 -19l4 -8l38 -67q-4 3 -13.5 15.5t-20 27t-19.5 27.5t-12 17q-4 8 -9.5 20.5t-11 24.5t-9.5 21l-4 9v13zM241 473q5 0 5 -7t-5 -7t-5 7t5 7zM403 635v-88l-7 -7v27q0 20 1 34t6 34z" />
    <glyph glyph-name="FL004Fh" unicode="O" horiz-adv-x="614" 
d="M246 -40q-5 0 -5 -6q0 -7 5 -7q6 0 6 7q0 6 -6 6zM300 -6q-5 -4 -12 -5t-14 -2.5t-11.5 -4.5t-4.5 -11q0 -2 1 -5.5t1 -5.5q87 22 151.5 55t107.5 82.5t64 119t21 165.5q0 44 -9.5 90.5t-27.5 91.5t-45 85t-62.5 70t-78.5 47.5t-94 17.5q-32 0 -49 -12t-25.5 -26.5
t-12 -27.5t-8.5 -15q-19 -8 -32.5 -12.5t-27.5 -21.5q-63 -75 -96 -166t-33 -191q0 -38 9 -76.5t25.5 -74.5t40.5 -67t54 -53q23 -16 44 -24.5t43 -22.5h81zM564 257q0 -2 0.5 -8t0.5 -8q0 -33 -11.5 -68t-37.5 -57v4v2l14 34q2 6 7 20t10 30.5t10 30.5t7 20zM213 325
q0 62 26.5 114.5t60.5 101.5l7 7l1.5 0.5t2.5 0.5l3 -1q23 -18 37.5 -41.5t23 -49.5t11.5 -53.5t3 -54.5v-12q0 -8 -0.5 -17t-0.5 -17v-12q-7 -26 -18 -53.5t-29 -47.5q-3 -4 -8.5 -9.5t-11.5 -11t-10 -9.5l-4 -4l-8 -34l-4.5 10t-11 22.5l-13 25t-10.5 17.5
q-24 26 -35.5 59.5t-11.5 68.5zM44 257v21q6 -19 9.5 -38t3.5 -39v-11q-10 14 -11.5 32.5t-1.5 34.5zM361 521q0 3 5 10.5t9 9.5q3 2 8 -0.5t5 -6.5q14 -20 18.5 -36t4.5 -38q0 -4 -1 -11t-2 -9l-6 -7l-21 74q-2 5 -9.5 9.5t-10.5 4.5zM543 575q6 0 6 -7q0 -2 2 -15.5
t3.5 -29t2.5 -28t0 -12.5t-6 16.5t-10.5 37t-10 38t-4.5 19.5q0 1 2.5 -1.5t5.5 -6.5t5.5 -7.5t3.5 -3.5zM159 635l1 -2q0 -1 -0.5 -2.5l-0.5 -1.5q-2 -3 -7 -11t-7 -10h-3h-4q3 5 9 14t12 13zM199 670q8 0 15 -2t7 -14q-1 0 -4 0.5t-4 1.5l-7 3.5t-7 2.5q-1 0 -9.5 -3
t-10.5 -3h-3h-4q4 11 11 12.5t16 1.5zM94 143q-2 3 -6.5 9t-6.5 8q34 -21 58 -53l7 -8q-17 5 -29.5 18.5t-22.5 25.5z" />
    <glyph glyph-name="FL0050h" unicode="P" horiz-adv-x="581" 
d="M58 648v-202l7 -7v182zM243 219l-7 7l-3 1q-1 0 -2 -0.5t-2 -0.5l-10 -78q-2 -45 -7.5 -85.5t-17.5 -56.5l-6 7v-3q0 -9 7.5 -16t7.5 -17q0 -12 -3 -24.5t-11 -23.5q0 4 -5.5 16.5t-13.5 26t-16 24t-13 10.5q-6 0 -6 -3l-14 -40q-1 2 -6 10t-7 10l-1.5 0.5t-2.5 0.5
t-2 -0.5l-1 -0.5l-20 -20q-2 23 -5.5 50t-7 55.5t-6 57t-2.5 54.5l-27 35q0 5 -0.5 15t-0.5 12q-2 38 -1.5 78t-2.5 80q-6 6 -13 6q0 19 -0.5 37t-1.5 37q0 1 -0.5 2t-0.5 3q-1 13 -0.5 43.5t2 65t3 65t1.5 42.5v20q0 4 4.5 9.5t10.5 11t13 10t12 7.5l31 15l267 2
q46 0 85.5 -18.5t68.5 -51t45 -76t15 -93.5q-1 -32 -9.5 -62.5t-24.5 -56.5t-39 -47t-53 -34q-25 -17 -47.5 -34t-45 -29t-47 -16.5t-53.5 4.5l-6 13.5t-11 24.5zM242 443q-3 0 -8.5 -6.5t-5.5 -10.5q0 -2 -4.5 -6t-9.5 -7.5t-9 -6.5t-2 -3q1 0 8 2t15 4t15 3t7 -1t1 -3v-6
q8 -11 11 -15t4 -4.5t0.5 1l-0.5 1.5l24 4q1 0 -2 0.5t-8 2t-10.5 4.5t-8.5 8h3q19 0 35.5 11.5t28.5 28.5t18.5 36.5t6.5 35.5q0 13 -4.5 28t-12.5 27.5t-20.5 20.5t-27.5 8h-4q-1 0 -7 -1.5t-13 -3.5t-13 -4t-7 -3q0 -2 -1 -8.5t-2.5 -14t-2.5 -14.5t-1 -10q0 -6 2 -21.5
t4 -31.5t3 -29t-2 -16zM461 681l3 -4t7 -8t7.5 -7t4.5 -3q11 6 22.5 -1.5t21 -19.5t15 -24t4.5 -15q0 10 -5 23t-13.5 24.5t-18.5 19.5t-19 8q-2 0 -6.5 2t-9 4.5t-8.5 3t-5 -2.5zM140 94h-7q-1 -1 -7 -10t-14 -22.5t-12 -21.5q-2 -2 -4 -6.5t-3 -6.5h3q9 0 16.5 8t13.5 19
t9.5 22t4.5 18zM302 743h-14q-5 0 -15.5 -0.5t-22.5 -1.5t-22.5 -2t-14.5 -2h135q-16 5 -24 5.5t-22 0.5zM264 315l52 15h20q-2 6 -5.5 7t-7.5 1q-2 0 -4 -0.5t-3 -0.5zM249 415v-7q1 -4 10 -4q-1 1 -1.5 2t-1.5 2q0 7 -7 7zM170 186q-1 0 -3 -10t-4.5 -22t-4 -21.5
t-1.5 -7.5v-9q0 -7 0.5 -14.5t0.5 -14.5v-9l6 7q2 24 8.5 49.5t6.5 49.5q0 5 -1 2.5t-8 -0.5z" />
    <glyph glyph-name="FL0051h" unicode="Q" horiz-adv-x="634" 
d="M47 359v12q0 14 2.5 28t10.5 26v-14q0 -3 -1 -11.5t-2 -18.5t-2 -18.5t-1 -11.5q-7 1 -7 8zM256 13l7 7q23 2 48 7t50 9q3 -6 5 -14q-36 -16 -76 -16q-10 0 -17 1t-17 6zM378 600q1 0 2 0.5t2 0.5q8 0 17 -13.5t16.5 -31.5t12.5 -35.5t5 -24.5v-12q0 -11 -1 -12
q-18 29 -28 63.5t-26 64.5zM406 333l-148 -69q18 -14 32 -38t26 -53q-2 -2 -3 -2.5t-3 -2.5q-20 18 -41.5 39t-39.5 44t-29.5 48t-11.5 51q0 12 6 34t16.5 47.5t24.5 52t30.5 48t34 35.5t34.5 14q19 0 37 -26t31.5 -59.5t22 -65t8.5 -42.5q0 -45 -16 -81q-3 8 -6 14t-5 12z
M203 9h11q8 0 19 -2t16 -7h11q8 0 16.5 -0.5t15.5 -0.5h11q44 0 69 7q4 -10 8 -19.5t9 -18.5q5 -8 7.5 -14.5t5.5 -11.5t8 -7.5t16 -2.5q4 -4 12 -10.5t16.5 -13t16.5 -11t11 -4.5q2 0 2 2q0 4 -9 16q-1 1 -6 8.5t-10.5 16.5t-10 16.5t-5.5 9.5q0 2 1 7t1 6h11l34 -34
l36 -38l11 45v20l-28 114q60 60 89.5 141t29.5 172q0 72 -17 142t-54.5 125t-96 88.5t-140.5 33.5h-9q-6 0 -13 -0.5t-13 -0.5h-9q19 -8 41.5 -15.5t39.5 -18.5h-10q-34 0 -68 11t-68 11q0 -11 -4.5 -17.5t-11.5 -11t-16 -9t-17 -11.5q-5 -4 -15 -13.5t-21 -20.5t-20 -20.5
t-12 -13.5q-22 -26 -38.5 -58t-27.5 -66.5t-16.5 -70.5t-5.5 -70q0 -75 20 -145t68 -130q8 -10 26 -23.5t36.5 -28t32.5 -28.5t14 -25zM367 214v7q12 -8 20 -22t13 -30.5t7 -33t2 -29.5h-8z" />
    <glyph glyph-name="FL0052h" unicode="R" horiz-adv-x="587" 
d="M26 153q0 -48 -0.5 -95t13.5 -92q8 2 8 13v13q0 4 -0.5 11.5t-0.5 9.5t-3.5 13.5t-3.5 13.5q0 7 7 7q7 -4 13 -17.5t7 -16.5l20 142l3 1q6 0 8.5 -6t2.5 -14q0 -7 -0.5 -13.5t-0.5 -7.5v-3v-4l1 -21v-7q0 -7 5 -25t12 -36.5t15 -33t15 -14.5v49q0 4 -4 7t-9.5 6.5
t-9.5 8.5t-4 13q0 2 5.5 0l5.5 -2l30 27q2 2 7 -8t10 -23.5t9.5 -26.5t6.5 -16q10 13 15 46t8 71.5t5 75t6 57.5q2 5 7 7l1 0.5t2 0.5t2.5 -0.5l1.5 -0.5q25 -20 47.5 -50.5t41.5 -63.5t35.5 -65.5t30.5 -57.5q10 -16 18.5 -25.5t28.5 -9.5q3 0 10.5 0.5t9.5 1.5
q-2 3 -6.5 13t-6.5 14q0 2 1 7t1 6h11l34 -34h3h4l40 7v20l-40 162q-21 34 -32.5 73.5t-28.5 75.5q30 13 55 34t43 47.5t28 57.5t10 63q0 43 -18 85.5t-48.5 76.5t-71 54.5t-86.5 20.5h-299v-39l-4.5 -1.5t-6.5 -0.5q-6 2 -8 6.5t-4 9.5t-5 8.5t-10 3.5q-9 0 -11.5 -8.5
t-2.5 -16.5v-10v-20q0 -12 0.5 -44t1.5 -67.5t2.5 -67t2.5 -44.5q10 -29 13.5 -59.5t4.5 -61.5t0.5 -61.5t1.5 -60.5q0 -2 0.5 -12t0.5 -15q0 -18 -3.5 -31.5t-3.5 -30.5zM59 94l-6 -7v9q0 7 -0.5 14.5t-0.5 14.5v9zM451 242v7q12 -8 20 -22t13 -30.5t7 -33t2 -29.5h-8z
M161 296h6l-6 -6v6zM134 350q4 -4 4 -10t-4 -10q-4 -1 -4 10q0 5 1 8.5t3 1.5zM316 337q1 0 3 0.5t4 0.5q4 0 7.5 -1t5.5 -7h-20v7zM127 391v202l7 -27v-182zM525 458q-1 -7 -4.5 -18t-9.5 -22t-13.5 -19t-16.5 -8h-3q1 2 3 6.5t4 6.5q4 8 12 21.5t14 22.5t7 10h7zM248 411
q0 7 1 26.5t2.5 41.5t2.5 41t1 26q0 3 1 10t2.5 14.5t2.5 14t1 8.5q2 2 10 4.5t10 2.5h4q15 0 27.5 -8t20.5 -20.5t12.5 -27.5t4.5 -28q0 -16 -6.5 -35.5t-18.5 -36.5t-28.5 -28.5t-35.5 -11.5q-5 0 -8.5 1t-5.5 6zM431 708q2 6 5.5 7t7.5 1q9 0 22.5 -7.5t25.5 -18.5
t20.5 -23t8.5 -22q-2 0 -11 6.5t-20 15t-21 16.5t-13 10q-1 0 -5 2.5t-8.5 5t-8 5zM175 755q14 0 22 -0.5t24 -5.5h-135q4 1 14.5 2t22.5 2t22.5 1.5t15.5 0.5h14z" />
    <glyph glyph-name="S" unicode="S" horiz-adv-x="398" 
d="M20 20q16 -12 38.5 -16.5t42.5 -4.5h28q49 0 96.5 12.5t84.5 38.5t59.5 66t22.5 96v22q0 8 -0.5 14t-0.5 8q-10 23 -22 44.5t-32 36.5q-17 13 -36 25.5t-35 27t-26.5 32t-10.5 41.5q0 19 8 33.5t20.5 24t28.5 14.5t31 5q14 0 28 -7t26 -7h7q-1 7 -7 7q-1 2 -10 7t-10 6
q-1 2 -3 8t-4.5 12.5t-4 12.5t-2.5 8q-4 4 -18.5 12t-21.5 8q2 0 10 0.5t10 0.5q14 0 25.5 -4t25.5 -4h3q-8 10 -13.5 13.5t-9 5.5t-5 6.5t-1.5 17.5q3 0 8 -1t10 -1q4 0 8 2t4 9q0 9 -15.5 19.5t-35 20.5t-39 16.5t-26.5 6.5q3 0 12 0.5t12 0.5q21 0 38 -5t39 -5v40h21
q-3 9 -12.5 14.5t-22.5 9t-27 5t-26 1.5h-24q-55 0 -102.5 -18.5t-82.5 -52t-55 -79.5t-20 -100t15 -91t38 -62t49 -42.5t49 -32.5t38 -31.5t15 -39.5t-13 -36.5t-32 -21t-40.5 -10.5t-37.5 -4q-2 -8 -12.5 -7.5t-13.5 0.5q-11 0 -20.5 0.5t-20.5 6.5v-3q0 -9 7 -14.5
t16 -10.5t16 -11t7 -15h-19q2 -1 7 -5.5t10 -10l10 -11t7 -7.5q1 -1 3 -9.5t3 -10.5l21 -7q1 0 1 -3t-1 -4q-14 -1 -24 -4t-19 -5.5t-19.5 -4t-25.5 0.5zM357 209q2 -2 4.5 -9.5t2.5 -10.5v-4q0 -11 -1.5 -25t-5.5 -28t-10.5 -26t-16.5 -19v4q0 12 4 27t8.5 31t9 31.5
t5.5 28.5zM40 114q-5 0 -5 -6q0 -7 5 -7q6 0 6 7q0 6 -6 6zM40 476v23q5 -14 10 -33.5t5 -37.5q-8 0 -11 6t-4 14t-0.5 16t0.5 12z" />
    <glyph glyph-name="FL0054h" unicode="T" horiz-adv-x="450" 
d="M189 -12q-4 1 -4 -3q0 -5 4 -3t4 4t-4 2zM195 23v-14q1 -2 4.5 -6.5t8 -9t8.5 -8t6 -3.5l7 10.5t7 9.5l2 1q2 0 3.5 -0.5l1.5 -0.5q2 0 7 -2.5t6 -4.5l14 41l3 24.5t7.5 58t9 68.5t7.5 56q3 25 4 48.5t2.5 46.5t4.5 46t9 48q3 16 8.5 41t11 49t9.5 41t5 17l6 7h81v47
q-1 0 -5.5 2t-10 5t-10.5 6.5t-7 6.5l33 41v13h-74v7q3 1 10.5 2.5t16.5 3.5t16.5 4t10.5 4q8 3 14.5 7t6.5 14q0 11 -11.5 20.5t-22.5 12.5h-14q-9 0 -19.5 0.5t-20.5 0.5h-14q-35 0 -68.5 -4t-68.5 -4q-31 0 -60.5 4t-60.5 4q-8 0 -20 -0.5t-24 -3.5t-20.5 -9.5
t-8.5 -18.5v-3q1 -2 3.5 -4t3.5 -3q2 -1 8 -3t13 -4t12.5 -3.5t7.5 -2.5q-3 -6 -10 -8t-13.5 -3t-12 -3.5t-5.5 -8.5q0 -8 7.5 -12.5t7.5 -12.5t-7.5 -11.5t-7.5 -11.5q0 -11 11 -12t25.5 0.5t27.5 0.5t17 -13q-6 1 -19.5 0.5t-27 -4.5t-24 -11.5t-10.5 -20.5q0 -7 15 -11.5
t33.5 -7t36 -4t23.5 -2.5q1 -9 3.5 -33t4.5 -51t4 -51t2 -33q0 -14 0.5 -42.5t0.5 -64.5q0 -18 0.5 -40t0.5 -45t0.5 -45t0.5 -40q0 -36 0.5 -64.5t0.5 -42.5q1 0 1.5 0.5l0.5 0.5l14 7q1 1 3.5 0t3.5 -1v-19q10 6 14 14.5t6 18.5q1 5 3 16.5t4 24.5t3.5 24t2.5 16h6
q0 -26 -3 -50t-3 -50zM256 600h41v-4q-15 0 -22 -10.5t-10 -25t-4.5 -30t-4.5 -24.5v94z" />
    <glyph glyph-name="FL0055h" unicode="U" horiz-adv-x="614" 
d="M118 445q-6 0 -6 -7q0 -2 -2 -15.5t-3.5 -29t-3 -28t0.5 -12.5q1 0 4 12.5t6.5 28t6 29t2.5 15.5q0 7 -5 7zM232 122q0 -2 -0.5 -8t-0.5 -8q0 -17 5 -26t13 -16t19.5 -13.5t24.5 -17.5v6l-35 39zM107 249q-1 7 -10 7h-3q-8 -8 -7 -11q-7 -23 -6.5 -40t8.5 -38
q2 -3 4.5 -9.5t4.5 -8.5l8 -4l-11 65q-1 2 0 8.5t3.5 13t5 12t3.5 5.5zM235 529q0 -5 0.5 -15t0.5 -12l-11 -153l7 -75q0 -2 -0.5 -7.5t-2.5 -13.5q7 -17 15.5 -33.5t20.5 -29.5q3 -4 8.5 -10t11 -11t9.5 -9t5 -4h7q1 1 8 7.5t17 17t15 16.5q8 9 11 19t4.5 21.5t2 23
t3.5 22.5v2q3 10 3 20l4 178v285q2 0 3.5 -0.5t3.5 -0.5l61 -7h7q11 0 18 7t18 7q5 0 8 -6.5t6 -14t6 -14t8 -6.5q3 0 7 6.5t8 14t8 14t7 6.5q2 0 4.5 -0.5l2.5 -0.5q3 -2 13.5 -12t13.5 -15q2 2 6.5 4.5t6.5 2.5h3q8 0 9.5 -5t1.5 -10v-12l-25 -418q0 -38 -9 -76.5
t-25.5 -74.5t-40.5 -67t-54 -53q-12 -8 -20 -14.5t-15 -12.5t-14.5 -12t-18.5 -13l-61 9q5 -4 10 -5t8.5 -2.5t6 -4.5t2.5 -11l-2 -11q-87 22 -148 53t-99.5 78t-56 114.5t-17.5 163.5q0 64 -6.5 104t-6.5 71q0 24 7 41q-3 13 -4.5 34t-2.5 44t-3 45.5t-6 37.5v7q1 2 3 7
t4 7h2q17 0 27 -6t15 -15.5t6.5 -22t2.5 -25.5q1 1 2.5 6t3 11t2.5 10.5t3 5.5v42h118q2 -1 1 -7.5t-2.5 -14.5t-2.5 -14.5t2 -6.5q9 0 14 11t8.5 22.5t6.5 18t7 -2.5l17 -67q3 -8 3 -21q0 -19 -2.5 -42t-2.5 -34v-30q0 -17 -0.5 -27.5t-5.5 -28.5zM205 706l2 -50
q0 -1 -1 -12.5t-2.5 -25t-2.5 -25t-1 -12.5l20 68q-2 5 -7 7zM525 188v-2v1q1 0 1 1h-1zM551 684l-1 -2q0 -1 0.5 -2.5l0.5 -1.5q1 -2 2.5 -13.5t4 -25t4.5 -25t4 -12.5l6 55q-3 5 -9 14t-12 13zM379 50q-8 0 -15 -2t-7 -14q1 0 4 0.5t4 1.5l7 3.5t7 2.5q1 0 9.5 -3t10.5 -3
h7q-4 11 -11 12.5t-16 1.5zM397 222l6 6q0 4 0.5 14t1.5 20.5t2.5 20t2.5 13.5q0 2 3.5 13.5t3.5 13.5q0 6 -5 7t-9 1t-7.5 -1t-5.5 -7v-7q0 -5 -0.5 -10t-0.5 -10v-7q0 -19 1 -34t7 -33z" />
    <glyph glyph-name="FL0056h" unicode="V" horiz-adv-x="584" 
d="M186 92q-1 0 -2 -0.5t-2 -0.5q-7 0 -14.5 20.5t-14 46t-10.5 48.5t-4 28q0 2 2.5 3.5t4.5 3.5h4q4 0 8.5 -18t9 -42.5t9.5 -49.5t9 -39zM372 487q-10 -60 -28.5 -124.5t-38.5 -118.5l-7 7l-47 216v20l-14 148l-30 129q-7 2 -17.5 5.5t-21 7.5t-19.5 6t-13 1l-41 -9l-59 4
q0 -5 -2 -10t-8 -5q-1 0 -2.5 0.5l-1.5 0.5q-2 1 -2.5 -4t-1 -10.5t-1.5 -10t-3 -3.5q-7 -1 -7 -10v-12q0 -2 0.5 -7l0.5 -5l47 -176v-67l111 -412q1 -5 1.5 -9.5t0.5 -8.5q0 -14 3.5 -25.5t17.5 -11.5q6 0 10.5 5t9 11t9 11t10.5 5q5 0 6.5 -7t2.5 -16t3 -16t9 -7t16.5 4
t19 9.5t18.5 10t15 5.5q9 2 13 -10.5t5.5 -28t2 -28.5t3.5 -13h4q0 -3 7 9t16.5 27.5t19.5 28.5t17 13q1 0 3.5 1t3.5 1q2 5 7 19.5t10 30.5t9.5 30.5t6.5 20.5q3 14 10 42t15.5 63t18.5 74t18.5 74t15.5 63t10 42q1 30 7.5 59t14 58t13.5 58.5t6 60.5v20l-9 46q-1 6 -7 7
t-14.5 -0.5t-18.5 -3.5t-20 -2q-3 0 -9.5 -0.5t-13.5 -0.5t-13.5 1.5t-9.5 5.5l-36 -1q-15 -10 -17.5 -33t-3 -47t-4 -42t-20.5 -18q-6 -25 -8 -50.5t-2 -46.5t1.5 -35t1.5 -16zM384 361l-3 -7q-2 -5 -4.5 -11.5t-4.5 -12.5l-3 -6l-4 -10q-2 -7 -5 -12t-5 -10l-2 -6
q-5 -7 -10.5 -17.5t-9.5 -10.5l-5 2l2 6l45 92z" />
    <glyph glyph-name="FL0057h" unicode="W" horiz-adv-x="747" 
d="M576 79l-15 69v-19q0 -20 -2 -46t-6 -37l-7 7l-49 114l-7 13q-3 6 -13.5 20t-23 29t-23.5 28t-15 18l-7 7l-3 1q-1 0 -2 -0.5t-2 -0.5q-12 -11 -26.5 -38t-29.5 -54.5t-29 -48.5t-25 -21l-7 -7q-13 -32 -22.5 -46t-17.5 -21.5t-15 -13t-15 -19.5q-11 7 -16 22.5t-6 33
t0 34t2 25.5q-3 -6 -7.5 -21.5t-10.5 -32t-14.5 -29t-18.5 -12.5q-3 0 -6 5t-5 11t-3.5 11.5t-1.5 6.5l-122 689l4 20q38 1 60.5 0t35 -2.5t20 -3t15.5 -1.5q5 0 7.5 -5.5t5 -11.5t7 -11.5t14.5 -5.5q7 0 9 5.5t3 12t3 12t8 5.5q2 0 3 -0.5l1 -0.5q1 0 6 -2.5t7 -4.5
q2 -75 9 -141t18 -142l0.5 -9t2 -19.5t3.5 -19.5t6 -10q0 1 2 10t4.5 19t5 18.5t3.5 10.5q4 8 4 41q0 21 -0.5 47.5t-0.5 53.5t2.5 52t8.5 43l-1.5 6l-0.5 2h4l3.5 10.5t3.5 8.5q4 3 13 1.5t20 -1t22 5.5t19 21l31 -3q11 0 12.5 -6.5t1.5 -11.5v-9l100 -310q4 -5 7.5 -6.5
t3.5 0.5q0 44 -1 83.5t-1.5 78t-1.5 78t-1 82.5q0 6 1 14.5t10 8.5q1 0 2 -0.5l1 -0.5l43 -14l1.5 -1t2.5 -1q2 0 1 3.5t1.5 7.5t11.5 7.5t30 3.5h10q3 0 16.5 -3t17.5 -3q2 0 10 3t10 3q3 0 10.5 -0.5t15.5 -0.5q9 0 17 -0.5t11 -0.5q0 -38 -0.5 -77t-5.5 -76q-1 -5 -4 -25
t-6 -42.5t-6 -42.5t-4 -25v-7l-19 -173l-35 -306q-2 5 -5 16.5t-11 11.5q-1 0 -2.5 -0.5l-1.5 -0.5q-6 0 -10 -15q-3 -8 -6 -18.5t-5 -13.5q-5 2 -9.5 8.5t-9 14t-7.5 14.5t-4 10zM411 379v-13l4 -9t9.5 -21t11 -24.5t9.5 -20.5q5 -8 12 -17.5t15 -15.5v13l-4 8l-9.5 19
l-11 22l-9.5 19q-2 4 -9.5 16.5t-10.5 16.5q0 7 -7 7zM434 564q-14 -11 -14 -27q0 -10 5.5 -19.5t16.5 -9.5q0 14 -1.5 28t-6.5 28zM584 598q-5 -20 -6 -34t-1 -34v-27l15 -17zM269 270q0 2 -0.5 7t-0.5 6q-8 -15 -11 -25.5t-3 -24.5q0 -2 0.5 -5.5t0.5 -5.5q14 26 14 48z
M113 634l16 -17l-16 71v-54zM423 491q-5 0 -5 -7t5 -7t5 7t-5 7zM275 297q-3 -2 -3 -4t3 -3.5t3 3.5t-3 4z" />
    <glyph glyph-name="FL0058h" unicode="X" horiz-adv-x="572" 
d="M372 497q6 0 6 -6q0 -2 -5.5 -14t-12 -25.5t-13 -24.5t-7.5 -11t3 11t9.5 24.5t10 25.5t4.5 14q0 6 5 6zM118 56v67l22 36l-15 -103h-7zM184 602l-6 6q0 4 -0.5 14t-1.5 20.5t-2.5 20t-2.5 13.5q0 2 -3.5 13.5t-3.5 13.5q0 6 5 7t9 1t4 -6q0 -1 0.5 -4t1.5 -8v-7
q0 -5 0.5 -10t0.5 -10v-7q0 -19 2.5 -29t-3.5 -28zM4 738l146 -332l22 30q3 4 2.5 -6t-2.5 -25t-4.5 -30t-3.5 -19q-5 -24 -24.5 -56.5t-39.5 -70t-34 -78.5t-8 -82q1 -7 3 -17t4 -19.5t4 -16.5l2 -7l34 -7q0 2 2.5 10t4.5 10l1 0.5t2 0.5q4 0 9 -5.5t9.5 -12t7 -12
l2.5 -5.5v31l3.5 2.5t5.5 0.5l20 -20h7q2 2 4 6.5t3 6.5l114 211l89 -121q0 -3 4.5 -6t9.5 -7.5t9.5 -10t4.5 -12.5t4.5 -15t10.5 -15.5t10.5 -13t4.5 -8.5q4 -4 7 -6l1 -0.5t2 -0.5l1.5 -6.5t4 -14t4.5 -14l2 -6.5q1 1 2.5 10.5t3.5 20.5t3.5 20.5t2.5 10.5q6 0 7 -7
q1 -3 3.5 -16t2.5 -18h14q0 5 3 7.5t14 2.5t20 -4.5t17 -11.5q-3 19 -3 29v17v17q0 10 -3 28q-1 47 -15.5 94t-36.5 92t-49 88t-53 82q10 18 21 39.5t21.5 41t20 35.5t15.5 22q4 4 13.5 16.5t20 27t19 27t11.5 17.5q0 2 0.5 5t0.5 5q0 14 -6.5 30t-17.5 29.5t-25 22.5t-29 9
h-4q0 -8 -3.5 -20.5t-9.5 -24.5t-14 -21t-17 -9q-1 0 -2 0.5t-2 0.5q11 17 16.5 29t5.5 29q0 14 -6 15.5t-19 1.5q-9 0 -18.5 2.5t-18 4.5t-15 0.5t-10.5 -8.5q-3 -5 -9.5 -18.5t-15 -31t-16.5 -36.5t-14 -35l-61 131q-2 0 -3.5 -0.5t-3.5 -0.5l-61 -7h-7q-11 0 -18 7t-18 7
q-10 0 -17.5 -3.5t-16.5 -3.5q-7 0 -12 3.5t-12 3.5q-2 0 -4.5 -0.5l-2.5 -0.5q-3 -2 -13.5 -12t-13.5 -15q-2 2 -6.5 4.5t-6.5 2.5h-3q-8 0 -10.5 -5t-0.5 -10zM426 174l3 -7q3 -5 6.5 -10.5t6.5 -11.5l8 -16q3 -6 5.5 -11.5t4.5 -9.5l3 -6q3 -7 7 -19.5t2 -13.5l-5 -3
l-3 6l-41 93z" />
    <glyph glyph-name="FL0059h" unicode="Y" horiz-adv-x="597" 
d="M410 408l-22 30q-3 4 -2.5 -5.5t2 -24t3 -28t-0.5 -17.5q-9 -15 -11 -27.5t-9 -23.5l-1 -35l-24 -231q-1 -9 -5 -18.5t-10 -17.5t-14 -13.5t-17 -5.5q-12 0 -19.5 7.5t-18.5 7.5q-10 0 -24.5 -8.5t-26.5 -11.5l-29 365l-42 85q-11 17 -19.5 38t-15.5 40.5t-12.5 35
t-11.5 21.5q-4 4 -10.5 16t-13.5 26t-13 26.5t-9 17.5q0 1 -4.5 14.5t-9.5 30t-9.5 30.5t-4.5 15q0 14 11 17.5t26.5 2t34 -5t33.5 -3.5h4q0 -8 -0.5 -17t0.5 -17t4.5 -13.5t12.5 -5.5q1 0 2 0.5t2 0.5q-5 8 -5 11q0 7 5 10t5 15q0 14 6 15.5t19 1.5q10 0 19 2.5t16.5 4
t14.5 0.5t12 -8q3 -5 10.5 -33.5t16 -63.5t17 -69t14.5 -50l58 226q0 2 2.5 0.5t4.5 -1.5l61 -7h7q11 0 18 7t18 7q10 0 17.5 -3.5t16.5 -3.5q7 0 12 3.5t12 3.5q2 0 4.5 -0.5l2.5 -0.5q3 -2 13.5 -12t13.5 -15q2 2 6.5 4.5t6.5 2.5h3q8 0 10.5 -5t0.5 -10zM400 608
q0 4 0.5 14t1.5 20.5t2.5 20t2.5 13.5q0 2 3.5 13.5t3.5 13.5q0 6 -5 7t-9 1t-4 -6q0 -1 -0.5 -4t-1.5 -8v-7q0 -5 -0.5 -10t-0.5 -10v-7q0 -19 -2.5 -29t3.5 -28zM229 285q-2 -7 0 -22.5t5 -33t6 -33t3 -22.5q5 0 6 11.5t-0.5 26t-3.5 28t-2 18.5v4l-10 20q-1 1 -2 1.5
t-2 1.5zM188 499q-6 0 -6 -6q0 -2 2 -6t4 -10q1 7 7 9q0 1 6 -11l13.5 -27t14 -27.5l6.5 -12.5q0 -1 -2.5 11t-7.5 27.5t-14.5 31t-22.5 21.5zM250 107q-2 2 -2 -7v-5q0 -3 2 -1q4 1 4 6q0 7 -4 7z" />
    <glyph glyph-name="FL005Ah" unicode="Z" horiz-adv-x="495" 
d="M38 64l-2 4q-4 25 -1 43.5t5 41.5q5 23 16 51t22 53.5t19.5 44t8.5 23.5q-1 5 8 24t22.5 45t29.5 55.5t29.5 55.5t22.5 45t8 24q-48 12 -91.5 14.5t-82.5 2.5q-26 0 -48 3q5 9 18.5 17t29.5 15t32.5 11t27.5 4v6q-22 0 -43.5 -3t-44.5 -3q-11 0 -12 8t-1 18q0 13 7.5 22
t18 16t22 14t18.5 16q-7 3 -16 4.5t-17.5 4t-16 6.5t-11.5 12l7 7q0 1 18 1.5t47.5 1t66 1t74 1t72 1t59.5 1.5h108q-4 -4 -6 -7l-1 -3q0 -1 0.5 -2.5l0.5 -1.5l20 -20l1 -3q0 -5 -4 -9.5t-9 -9t-9.5 -9t-5.5 -10.5h-74q27 -8 44.5 -2t28.5 9t17 -5t10 -45q2 -22 -8 -33
t-20 -23v3q-2 0 -6.5 -0.5t-6.5 -0.5l-95 -13h7q3 0 5.5 -5t5 -10.5t4.5 -10t3 -2.5l18 27q3 5 9.5 3t10.5 -2h5q7 0 18 1t17 3q-6 -8 -9 -18.5t1 -26.5l-32 -49q-2 -3 -10 -0.5t-9 -1.5q-3 -11 -3 -13t1 -2.5t2.5 -1t2.5 -4t1 -11.5l-143 -250l175 -32q2 -1 10 -4t10 -6
l3.5 -2t8 -4.5t8.5 -5l4 -2.5q0 -5 -6 -8.5t-13.5 -6.5l-15 -6t-9.5 -5v-85h-101q3 -5 19.5 -8.5t36 -5.5t37.5 -2.5t24 -0.5h11l0.5 -2t0.5 -4q0 -5 -3.5 -16t-10.5 -11h-325q-17 0 -22.5 8.5t-17.5 18.5l-3 1q0 1 -5 4t-11 6l-11 5.5t-5 4.5v1q-2 1 -3 18zM72 8
q0 2 -0.5 3.5t-0.5 3.5q3 -5 6 -8.5t2 -4.5zM71 15q-7 13 0 13v-13zM448 595q2 4 5 7v-5l-1.5 -0.5t-3.5 -1.5zM186 100l-3 -18l-7 -3t-15.5 -6t-15.5 -6t-6 -3q-4 0 1.5 -0.5t15.5 0t23 3t24 8.5l5 22z" />
    <glyph glyph-name="FL005Bh" unicode="[" horiz-adv-x="311" 
d="M33 -34l6 -5q2 2 9.5 6t14.5 4l3 -1q8 -5 10.5 -7t7.5 -2h12h196q6 0 9 9t3 14q0 2 -0.5 3.5l-0.5 1.5h-9q-11 0 -27 2.5t-21 11.5h34v73q5 5 11.5 14.5t6.5 17.5q0 1 -0.5 1.5l-0.5 0.5q-2 2 -8.5 5t-8.5 3h-92l15 413q0 15 6 26q17 3 27.5 1t19 -3.5t17.5 0t24 12.5
q-10 7 -12 12t-3 9t-4.5 6.5t-16.5 4.5l7 22q9 1 15.5 0t11 0.5t7 7t2.5 19.5q0 4 -2.5 11.5t-5.5 14.5t-6.5 12.5t-6.5 6.5l-2.5 -4t-5 -8.5t-5 -8.5l-2.5 -4q0 2 4 9.5t8 17t6.5 18.5t-0.5 15h-13h-39h-14q-17 0 -24.5 -1.5t-13.5 -3.5t-13.5 -3.5t-23.5 -1.5
q-25 0 -48.5 3t-48.5 3h-7h-17h-3l-16 -33zM153 97q0 15 0.5 28t5.5 28l6 -6v-69l-6 -5l-6 5v19zM42 365v7q0 5 0.5 10.5t0.5 10.5v7l5 -6q1 0 2 -7t2 -16t1.5 -19t0.5 -16v-3q0 -5 0.5 -8.5t0.5 -8.5v-8v-6q0 -5 -0.5 -8.5t-0.5 -8.5v-6q-7 7 -9.5 18t-3 23t0 24t0.5 21z
" />
    <glyph glyph-name="FL002Fh" unicode="\" horiz-adv-x="440" 
d="M158 422q-5 0 -5 -5q0 -2 4.5 -12t10.5 -21t11 -20.5t6 -9.5t-2.5 9.5t-8 20.5t-8.5 21t-4 12q0 5 -4 5zM374 48v57l-19 30l13 -87h6zM224 541l111 -238q4 -21 20.5 -48.5t34 -59.5t29 -67t6.5 -69q-1 -8 -4 -20.5t-5 -21t-2 -9.5l-29 -6q0 2 -2 8.5t-4 8.5l-2 1
q-4 0 -8.5 -5t-8 -10.5t-5.5 -10l-2 -4.5v26l-3 2.5t-5 0.5l-17 -17h-6q-2 2 -3.5 5.5t-2.5 5.5l-183 353q-9 15 -18.5 33t-18.5 35t-16.5 30.5t-13.5 19.5q-3 3 -11 13.5t-17 22.5t-16.5 23t-9.5 15q0 2 -0.5 4.5t-0.5 4.5q0 12 5.5 25.5t14.5 25t21 19t25 7.5h4
q0 -6 3 -17t8 -21t11.5 -17.5t14.5 -7.5h4q-10 15 -14.5 25t-4.5 25q0 12 5 13t16 1q8 0 15.5 2t14.5 3.5t12.5 0.5t10.5 -7q3 -5 8.5 -16t12.5 -26t14 -31t12 -30z" />
    <glyph glyph-name="FL005Dh" unicode="]" horiz-adv-x="311" 
d="M281 -17l-6 -5q-2 2 -9.5 6t-14.5 4l-3 -1q-8 -5 -10 -7t-9 -2h-11h-196q-6 0 -9 9t-3 14q0 2 0.5 3.5l0.5 1.5q6 10 10 16l6 9t4 4t5 2l-15 32l13 24q-5 5 -11.5 14.5t-6.5 17.5q0 1 0.5 1.5l0.5 0.5q2 2 8.5 5t8.5 3h92l-21 396q0 15 -6 26q-17 3 -27.5 1t-19 -3.5
t-17.5 0t-24 12.5q10 7 8.5 11t-5.5 6.5t-4.5 4t12.5 3.5l6 16q-17 1 -20.5 7t-3.5 33q0 4 2.5 11.5t5.5 14.5t6.5 12.5t6.5 6.5l10.5 -5t23 -11.5t22.5 -11.5l10 -5l-56 68q-3 4 1 4.5t11 -0.5t14.5 -2.5t12.5 -1.5h14q16 0 24 -1.5t14 -3.5t13.5 -3.5t23.5 -1.5
q25 0 48.5 3t48.5 3h7l36 -33zM250 85q0 15 -0.5 28t-5.5 28l-6 -6v-69l6 -5l6 5v19zM145 479v7q0 5 -0.5 10.5t-0.5 10.5v7l-5 -6q-1 0 -2 -7t-2 -16t-1.5 -19t-0.5 -16v-3q0 -5 -0.5 -8.5t-0.5 -8.5v-8v-6q0 -5 0.5 -8.5t0.5 -8.5v-6q7 7 9.5 18t3 23t0 24t-0.5 21z" />
    <glyph glyph-name="FL005Eh" unicode="^" horiz-adv-x="214" 
d="M121 769q-2 -2 -6 -4l-7 3.5t-5 3.5l-52 -29q-2 -2 -4.5 -8t-7.5 -11q-4 -6 -7 -13.5t-5 -9.5v-2q0 -2 1 -3l0.5 -1t1.5 -1l2 -1q-5 -7 -11 -16.5t-10 -14.5l12 -8q1 1 5 4.5t8.5 7.5t9.5 7t8 3h2l1 -1l-1 -1q0 -6 -4.5 -9t-4.5 -8v-2l5 2q17 7 31 18.5t28 23.5
q9 -3 14.5 -8.5t10.5 -11.5t10.5 -11.5t13.5 -8.5l5 -2v2l27 -2q-2 2 -1 5q11 28 7.5 40t-13.5 19q-5 5 -7.5 11t-4.5 8zM127 748l29 -52l-3 -3q-1 0 -6 5t-7 8l-1 3q-2 2 -1.5 8t-1.5 10l-5 7q-2 3 -3 6t-3 6zM73 740l-5 -7q0 -1 -0.5 -1.5l-0.5 -0.5q0 -1 2 -1t2 -1v-1
l-1 -3q-2 -3 -7 -8t-6 -5l-3 3z" />
    <glyph glyph-name="FL005Fh" unicode="_" horiz-adv-x="320" 
d="M311 124l-6 -5q-1 1 -2.5 -4.5t-4 -12t-5 -12t-5.5 -5.5l17 -23l-18 -74q0 -1 -18 -1q-12 0 -28 1t-30.5 3t-25 5.5t-10.5 8.5q0 1 -6.5 -3t-14.5 -9.5t-14.5 -10t-7.5 -2.5q-27 7 -48.5 5.5t-41.5 0.5l-6 6q3 8 3.5 10l0.5 2v2q0 5 1 8q-5 8 -16 10t-19 7q5 6 10.5 8
t10 4.5t7.5 6.5t3 13l-8 -1q-8 3 -12 3q-7 0 -8.5 5.5t-1.5 27.5v1q5 0 17.5 2.5l17.5 3.5q2 1 3.5 4.5t1.5 4.5h68l6 8zM263 31v10q0 6 -1 8t-4 13l-6 -6l-14 -25l6 -5l6 5h13z" />
    <glyph glyph-name="FL0060h" unicode="`" horiz-adv-x="146" 
d="M52 739l9 -15h-1zM70 761l29 -52l-3 -3q-1 0 -6 5t-7 8l-1 3q-2 2 -1.5 8t-1.5 10l-5 7q-2 3 -3 6t-3 6l-2 3zM94 764q-3 4 -7 4h-1q-4 0 -11.5 3t-12.5 3l-3 -1l-9 -7q-14 -9 -26.5 -15.5t-12.5 -23.5v-7q23 -33 43.5 -46t46.5 -23l5 -2v2q0 5 -4.5 8t-4.5 9l-1 1l1 1h2
q3 0 6.5 -4t6.5 -9.5t5.5 -10t3.5 -5.5l12 8q-4 5 -5.5 18t-6.5 20l2 1q1 0 1.5 1l0.5 1q1 1 1 3v2q-2 2 -5 9.5t-7 13.5q-5 5 -7.5 11t-4.5 8l-7 26z" />
    <glyph glyph-name="a" unicode="a" horiz-adv-x="499" 
d="M44 45q0 -5 1.5 -14.5t3.5 -19.5t4 -19t3 -14q1 -2 3 -8.5t3 -8.5q2 2 4 8.5t2 8.5q1 3 2.5 14.5t3 25.5t3 25.5t2.5 14.5q1 6 4 16.5t5.5 17t2.5 7.5h4q0 -4 1.5 -12.5t0.5 -10.5q0 -4 -3 -15.5t-3 -13.5t2 -8t4 -9l23 -46q13 9 18 31.5t9 46t10 42t20 18.5h121l17 -81
q6 -2 16.5 -10.5t21.5 -17.5t19.5 -15t10.5 -3l12 23v92q10 -17 13 -30t6 -24t10.5 -21.5t27.5 -22.5q3 -2 12 -8.5t11 -8.5q0 1 0.5 2.5t0.5 3.5q0 7 -4 11t-8.5 7.5t-8 6.5t-3.5 9q0 13 9 13q1 0 2 -0.5l1 -0.5q3 -2 11.5 -6t11.5 -6q6 1 6 7v12q0 2 -0.5 6l-0.5 4
l-40 149v57l-63 350q-2 14 -12.5 30t-27.5 16q-9 0 -17 -6t-17 -6t-12 3.5t-14 3.5t-31 -2.5t-29 -4.5q-8 -2 -17 -8.5t-16.5 -13t-13.5 -12t-8 -5.5h-3q0 2 -0.5 9t-2 14t-5 12.5t-9.5 5.5q-1 0 -3 -1t-3 -1q-2 -4 -6 -16l-8.5 -25.5t-8.5 -26t-5 -17.5q-3 -12 -9 -35.5
t-13 -53.5t-15.5 -63t-15.5 -63t-13 -54l-9 -36q-1 -26 -6.5 -50.5t-12 -49t-11.5 -49.5t-5 -51v-17l22 10l1.5 0.5t2.5 0.5l2 -1q2 -2 3.5 -6t2.5 -6zM184 253q8 51 23.5 103t32.5 98l6 -6l40 -184l1 -11q-26 -3 -42.5 -4.5t-39.5 -1.5q-2 0 -10.5 -0.5t-10.5 6.5zM360 586
h4q6 0 10.5 -17.5t8 -39t5 -40.5t1.5 -23q0 -2 -6 -6l-1.5 -1t-1.5 1q-1 7 -3 24t-5 36t-6 37.5t-6 28.5zM72 233v-7q0 -5 0.5 -10.5t0.5 -10.5v-6v-9q0 -6 -0.5 -11t-0.5 -10v-5q0 -7 -2 -18t-4 -11h-5v6l5 86z" />
    <glyph glyph-name="FL0062h" unicode="b" horiz-adv-x="473" 
d="M31 461l-11 43l11 22v8q0 7 -4 17.5t-17 18.5l-4 79l277 7q34 0 67 -14.5t58 -38t40.5 -53t15.5 -60.5q0 -37 -18 -70t-50 -55q46 -24 59.5 -71t5.5 -98q-6 -39 -23 -74t-40 -61.5t-48.5 -43t-49.5 -17.5l-202 2l-56 3l-7 237q0 2 0.5 3l0.5 1q1 4 1 8v8v16v31
q3 0 -3.5 3t-4.5 5q2 34 1 61t1 60v23zM309 216q0 7 -1.5 17.5t-6 21t-13 19t-22.5 12.5q-13 0 -34.5 2t-38.5 4q-1 -3 -1 -12v-14q0 -20 1.5 -42t1.5 -29q0 -2 1 -8t2 -12.5t2 -12t1 -6.5q1 -1 6 -3t11 -3.5t11 -3t6 -1.5h4q13 0 25.5 7t22.5 17.5t16 23t6 23.5zM196 463
l6 6l-8 -87q5 10 9.5 21.5l4.5 11.5q22 5 31 5q17 0 28 -4q6 8 9 27.5t3 27.5q0 19 -12.5 38.5t-35.5 21.5q24 0 6.5 3t-56.5 9q1 -3 0.5 -6.5t0.5 -6.5l8 -67q1 0 2 -0.5t2 -0.5zM351 609q1 0 2 -2t3 -3q2 -2 11.5 -8.5t21 -13.5t21 -12.5t10.5 -5.5q0 7 -6.5 15.5
t-16 16.5t-19.5 13.5t-17 5.5q-2 0 -5 -0.5t-5 -5.5zM54 278l10 -170l6 23l-10 153zM141 485q6 2 6.5 5.5t0.5 8.5q0 13 -2.5 26.5t-6.5 26.5l-10 3v-6q0 1 1.5 -8.5t3.5 -22t4 -23t3 -10.5zM360 76q1 -3 4.5 -2.5t7.5 2t7.5 3.5t4.5 3q6 3 12.5 10.5t12.5 17.5t10 20.5
t6 18.5q-3 -3 -8.5 -12.5t-12.5 -19.5t-14 -17.5t-12 -5.5q-1 0 -4 -2.5t-6 -6t-5.5 -6.5zM422 432h-5q-1 -1 -5 -7.5t-10 -16t-9 -14.5q-4 -4 -6 -10h2q7 0 12.5 5.5t10 13t7 16t3.5 13.5zM241 24h11h19q4 0 21 5h-115q3 -1 12 -2t19 -1.5t19.5 -1t13.5 -0.5zM148 637h-10
q-4 0 -17.5 -1t-29 -2t-28.5 -2t-16 -1l105 2l4 4h-8zM167 16h2q-7 0 -8 1l-59 25l-1 -11q-1 0 3.5 -1t10.5 -2.5t11 -3.5t5 -4t10.5 -3t18.5 -1h7zM178 168l8 -45q6 0 6 6q1 1 1.5 2t1.5 2q-2 0 -5 6t-5.5 13t-4.5 12t-2 4zM161 637q2 -1 2.5 -2t1.5 -2h18q-11 4 -22 4z
" />
    <glyph glyph-name="FL0063h" unicode="c" horiz-adv-x="446" 
d="M343 653h47q1 0 2 0.5t2 0.5q5 0 8.5 -7t6 -15t3.5 -16t1 -9l-48 -32l56 -22q1 1 -7 -2t-17 -7t-17 -7t-7 -2l61 -23q2 -20 -2 -27t-14 -7q-13 0 -34.5 7.5t-46.5 7.5q-18 0 -34 -9q-29 0 -48.5 -14.5t-31.5 -37t-17 -49.5t-5 -52q0 -47 8 -78.5t26.5 -50t49 -25
t75.5 -2.5v-3q0 -7 -6 -10t-13 -6t-13 -7.5t-6 -13.5q10 0 22.5 3.5l25 7t24.5 5t21 -2.5q-8 -6 -17.5 -10.5t-17.5 -9t-13.5 -10t-5.5 -12.5q1 0 5.5 1t10 2.5t10 3t5.5 1.5l29 5h3h3q-12 -16 -29.5 -27t-37.5 -18t-41 -10t-39 -2q10 -6 24 -7t29 0.5t30 3.5t28 2
q17 0 30 -11q0 -1 0.5 -1.5t0.5 -1.5q0 -3 -9.5 -9.5t-21 -14t-22 -13t-13.5 -5.5q-2 -1 -6 2.5t-6 3.5h-10q-17 0 -27.5 -8t-27.5 -8q-69 0 -120.5 29t-85.5 76t-51 107.5t-17 123.5q0 49 14 104.5t42.5 102.5t71.5 78.5t102 31.5q13 0 26.5 3t25.5 5t23.5 0.5t20.5 -9.5
q6 6 12 6zM189 607h6q11 0 20 3.5t20 3.5v6q-11 0 -24.5 -1t-21.5 -12zM178 383v-11q11 16 20.5 39t9.5 41q0 2 -0.5 3.5t-0.5 2.5q-15 -12 -22 -34.5t-7 -40.5zM51 217v6q0 4 -1 17.5t-3 28.5t-4.5 28t-5.5 18l0.5 -10.5t1 -22.5t1 -22.5t0.5 -11.5q0 -10 2 -16t9 -15z" />
    <glyph glyph-name="FL0064h" unicode="d" horiz-adv-x="503" 
d="M210 591l1 5l10 24q10 -1 23 1t20 -3q-3 0 -10.5 -4t-16 -9.5t-16 -9.5t-11.5 -4zM303 45h6q-8 -11 -21.5 -12.5t-24.5 -1.5v7q11 0 20 3.5t20 3.5zM447 429v6q7 -10 9 -16t2 -15q0 -1 0.5 -11.5t1 -22.5t1 -22.5l0.5 -10.5q-3 4 -5.5 17.5t-4.5 28.5t-3 28t-1 18z
M42 437q0 -2 0.5 -10t0.5 -11v-37q0 -21 -12 -34v15q0 35 11 77zM325 272v-11q0 -18 -7 -40.5t-22 -34.5q0 1 -0.5 2.5t-0.5 3.5q0 19 9.5 42t20.5 38zM162 159l35 319q34 -1 54 -10.5t30 -28.5t13 -48.5t3 -69.5q0 -24 -1.5 -51.5t-9.5 -50t-24 -37.5t-45 -15
q-15 -8 -28.5 -9t-26.5 1zM197 643l-4 17l-185 -9q2 -5 2.5 -40t0.5 -85v-68v-67q0 -48 0.5 -83.5t2.5 -40.5q0 -3 2 -14t4 -23.5t4 -23.5t2 -14v-167q0 -5 1 -13.5t1.5 -16.5t1.5 -14.5l1 -6.5l6 -5l12 51l0.5 0.5t2.5 0.5t2 -1q6 -6 6 -12l12 52q0 -4 0.5 -13t1 -19
t1.5 -19t2 -12q0 -4 3.5 -13.5t11.5 -9.5t13 10t11 20q3 -7 10 -7q1 0 1.5 0.5t1.5 0.5h47q6 0 12 6q9 -8 17 -9t16.5 1t18.5 5t23 3q46 0 88 31.5t73.5 79t50 102.5t18.5 103q0 63 -13.5 124t-43.5 108.5t-78 77t-117 29.5q-14 0 -23 -6t-21 -10zM131 200l-7 1q-1 0 0.5 13
t3.5 21l1 5q1 3 1.5 7t2.5 9l4 13q1 3 2 7.5t3 9.5l1 6l-10 -81q-2 -10 -2 -11z" />
    <glyph glyph-name="FL0065h" unicode="e" horiz-adv-x="372" 
d="M34 5l6 -5q1 1 3 4.5t5 8t6 8t6 3.5l3 -1q10 -6 14 -14.5t20 -8.5h224q6 0 9 9t3 14q0 2 -0.5 3.5l-0.5 1.5h-9q-11 0 -27 2.5t-21 11.5h34v73q5 5 11.5 14.5t6.5 17.5q0 1 -0.5 1.5l-0.5 0.5q-2 2 -8.5 5t-8.5 3h-120q-1 0 -2 7t-1.5 16.5t-1 20t-0.5 17.5q0 3 1.5 11.5
t3.5 11.5q13 3 31 4.5t36 2.5t34 2t25 2l6 6q-3 8 -9.5 9.5t-13 1t-12 0t-6.5 6.5q5 8 16 10t19 7q-5 6 -10 9t-9.5 6.5t-7 8.5t-2.5 14h-62q7 3 22.5 4t30.5 4t26.5 10.5t11.5 22.5v1q-5 0 -17.5 2.5l-17.5 3.5q-2 1 -3.5 4.5t-1.5 4.5h-68l-6 8v21v28q0 15 6 26
q18 3 36.5 4t37.5 3t36 6.5t32 15.5q-20 13 -34.5 19.5t-39.5 9.5v5q9 1 22.5 3.5t26.5 7.5t22.5 13.5t9.5 22.5q0 5 -4.5 8t-10.5 4.5t-11.5 2.5t-8.5 2q0 1 -0.5 1.5t-0.5 1.5q0 7 7.5 10t16.5 6t16.5 7.5t7.5 14.5q0 15 -8 17.5t-22 4.5h-13h-39h-14q-34 0 -66.5 -3
t-64.5 -3q-25 0 -48.5 3t-48.5 3h-7h-17h-3l-16 -33zM57 70q0 15 0.5 28t5.5 28l6 -6v-69l-6 -5l-6 5v19zM22 516v7q0 5 0.5 10.5t0.5 10.5v7l5 -6q1 0 2 -7t2 -16t1.5 -19t0.5 -16v-3q0 -5 0.5 -8.5t0.5 -8.5v-8v-6q0 -5 -0.5 -8.5t-0.5 -8.5v-6q-7 7 -9.5 18t-3 23t0 24
t0.5 21z" />
    <glyph glyph-name="f" unicode="f" horiz-adv-x="367" 
d="M140 18v-10q0 -9 1 -20.5t3 -15.5v25l5 2.5t8 0.5q4 -2 5 -7.5t6 -9.5q8 15 15 20.5t26 2.5q1 7 3 26t3.5 40t3 39.5t1.5 26.5v23q1 13 3 33.5t4 39t3.5 32l1.5 13.5h120q5 0 6 5t1 10q0 7 -9.5 12t-14.5 10l12 5l5 35q1 6 -8 11.5t-21 9.5t-22.5 6t-11.5 2v5q6 -1 14 0
t15.5 4t12.5 8.5t5 13.5q0 1 -0.5 2l-0.5 1q0 6 -6 6h-20q-20 0 -34 -1.5t-38 -4.5v6v15v5v17q0 11 4.5 17t18.5 9q5 1 16.5 3t24.5 3.5t24 3t16 2.5q10 2 11 8t1 14q0 10 -5.5 15.5t-14.5 8.5t-19.5 3.5t-20.5 0.5q-18 0 -21 1q6 7 21.5 6.5l31 -1t28 2t12.5 15.5
q0 7 -4.5 10t-10.5 4t-10.5 3t-4.5 8q0 13 3.5 20.5t8 13t8 10.5t3.5 11t-6 6h-346q0 -74 10 -147.5t21.5 -147t20.5 -147.5t7 -149q17 -41 61 -41v82l8 5q2 -19 6.5 -37.5t4.5 -36.5v-6q0 -2 -2.5 -8.5t-2.5 -8.5zM93 25q-2 0 -9 -0.5t-7 -5.5q0 -2 2.5 -7t6 -10.5t6 -9.5
t2.5 -3q4 3 4 9q0 4 -1.5 15t-3.5 12zM69 406l-4 -98q8 -4 10.5 -15.5t2.5 -23.5v-13h-7q-5 45 -10.5 72t-5.5 49zM107 606l10 -83q0 -1 1 -7l2.5 -15t1.5 -13q0 -3 1 -11.5t1 -16.5v-6h-7l-1 5t-1.5 12.5t-1.5 15.5t-2 13q0 1 -0.5 17t-1.5 35.5t-1.5 35.5t-0.5 18z" />
    <glyph glyph-name="g" unicode="g" horiz-adv-x="476" 
d="M361 69q7 -4 12 -12.5t8.5 -18.5t5.5 -20.5t3 -17.5q1 0 2 -0.5t2 -0.5q5 0 8.5 6.5t6 15t3.5 16t1 9.5q1 0 2 0.5l1 0.5l2 -1q3 -2 9.5 -6t8.5 -6l5 12q1 36 6 72t10 71.5t9.5 71.5t4.5 72q0 21 -9.5 24.5t-34.5 3.5q-10 0 -14 -9t-6.5 -20.5t-5.5 -23t-11 -16.5v52
q0 7 -7.5 10.5t-17 5.5t-18.5 2.5t-12 0.5t-10.5 -0.5t-9.5 -1.5l-6 -6v-40h-7v40h-12q0 -48 6.5 -93t6.5 -93q-29 0 -48.5 14.5t-31.5 37t-17 49.5t-5 52q0 85 42 124t124 41q0 1 0.5 2l0.5 1q0 7 -7 8.5t-16 2.5t-16 4t-7 13q20 0 37.5 -2t35.5 6q-17 12 -21.5 15.5
t-4.5 18.5h3l29 -5h4h2q-11 15 -25.5 23.5t-31 12.5t-34.5 4.5t-36 -0.5q14 9 30.5 10.5t33 2t31.5 3t26 13.5l0.5 1t0.5 2q0 3 -5 8.5t-11.5 11t-12.5 10t-9 4.5q-2 1 -6 -2.5t-6 -3.5h-10q-17 0 -31.5 3.5t-31.5 3.5q-69 0 -120.5 -29t-85.5 -76t-51 -108t-17 -124
q0 -48 14 -103.5t42.5 -103t71.5 -78.5t102 -31q53 0 91 35q6 -6 12 -6q7 1 9.5 5.5t4 10.5t3 11t6.5 8zM189 46h6q11 0 20 -3.5t20 -3.5v-7q-11 0 -24.5 1.5t-21.5 12.5zM189 269v11q10 -15 19.5 -38t9.5 -41v-6q-16 12 -22.5 34.5t-6.5 39.5zM51 436v-6q0 -5 -0.5 -20.5
t-1.5 -32.5t-2.5 -32.5t-4.5 -20.5l-2 81q0 9 2 15t9 16z" />
    <glyph glyph-name="h" unicode="h" 
d="M55 -9l6 -5l5.5 3t12.5 7.5t15 9.5t13 8q5 5 7 9t4 9q1 3 2.5 10.5t3.5 15.5t3.5 15.5t2.5 9.5l6 6l5 -6q0 -1 1 -4.5t1 -8.5v-5q0 -20 -6.5 -35.5t-6.5 -32.5q8 0 17.5 2.5t11.5 14.5q0 50 2.5 109.5t20.5 109.5q1 6 5 6h127l6 -6l1 -17t3 -40t4 -47.5t3 -39.5v-38v-37
q0 -1 6 -5l0.5 -0.5t1.5 -0.5t2.5 0.5l1.5 0.5l17 17q5 0 5 -6q1 -2 3.5 -13t2.5 -16h11q0 2 0.5 7t2.5 10t4.5 9t7.5 4t9 -4.5t7.5 -10t7 -11.5t7.5 -9q-2 17 1.5 31t8 27.5t7.5 27t0 29.5q26 135 41 266t28 267v4v2q-1 2 -2.5 6t-3.5 6h-1q-17 0 -25.5 -6t-12.5 -15.5
t-5 -22t-2 -25.5h-8v74h-100q-5 -2 -8.5 -2.5t-8.5 -0.5h-15q-10 0 -17.5 -4.5t-7.5 -17.5v-3q2 -53 7 -95t5 -89q0 -5 -0.5 -13t-0.5 -10l-6 -6l-103 -5v242q-2 0 -3 -0.5t-3 -0.5l-52 -6h-6q-10 0 -15.5 6t-14.5 6t-15 -3t-14 -3q-6 0 -10.5 3t-10.5 3q-2 0 -4 -0.5
l-2 -0.5q-2 -2 -11 -10t-12 -13q-5 6 -11 6h-2q-8 0 -9 -4t-1 -9v-10l35 -442q1 -1 2 -6t2 -10.5t1.5 -11t0.5 -6.5q1 -9 2.5 -30t3 -45t3 -45t2.5 -30zM422 135v-7q0 -5 0.5 -10.5t0.5 -10.5v-6v-9q0 -6 -0.5 -11t-0.5 -10v-5q0 -7 -2 -18t-4 -11h-5v6l5 86zM404 192
q1 0 0.5 -6.5t-2 -15t-2.5 -15.5t-1 -8q0 -6 -5 -6t-5 6q0 1 2 8t4.5 15.5t5 15t3.5 6.5zM344 329l-13 -47q1 0 -4 -2.5t-11.5 -5.5t-12 -5.5t-5.5 -3.5l16 14q0 4 6 6zM193 377h58q-2 -6 -8 -6h-9q-12 0 -19.5 0.5t-21.5 5.5zM90 428q0 3 -0.5 11.5t-1.5 17.5t-2 17t-2 11
q0 2 -3 11.5t-3 11.5q0 5 4.5 6t7.5 1t6 -1t5 -6v-6q0 -5 0.5 -8.5t0.5 -8.5v-6q0 -16 -1 -28.5t-6 -28.5zM82 29l-5 5q0 3 -0.5 10.5l-1 15t-1.5 14.5t-2 10q0 4 -0.5 13t-0.5 14v5q4 0 6.5 -1t4.5 -6v-6q0 -5 0.5 -8.5t0.5 -8.5v-6q0 -16 2 -26t-3 -25z" />
    <glyph glyph-name="i" unicode="i" horiz-adv-x="218" 
d="M107 4q11 0 16 -9.5t0 -19.5q8 3 16 9.5t8 17.5l-1 1q-1 2 -5 4t-6 2l-6 6q0 2 3 9t3 8q1 11 4.5 32t7 43t7 40t4.5 23t3 24.5t3.5 42t3 41.5t1.5 24q5 42 12 82t13 80.5t10.5 81.5t4.5 83v29q0 4 -5 6h-3h-3q-4 -4 -19.5 -10t-20.5 -8q-2 2 -8.5 4t-9.5 2h-1
q-23 0 -31.5 -10.5t-13.5 -29.5q-5 1 -5.5 5.5t-0.5 9.5t0.5 9.5l0.5 4.5q-2 2 -10.5 4t-18.5 3.5t-19 2.5t-12 1q-10 0 -18 -8t-8 -18q0 -12 4.5 -23t6.5 -26q1 -9 3 -28.5t3.5 -40t3 -37t1.5 -20.5q5 -103 4.5 -203.5t7.5 -203.5q0 -2 0.5 -9t0.5 -9h16q0 -3 4.5 -14
t7.5 -14l4 -0.5t6 -0.5q10 0 15.5 3.5t15.5 3.5zM77 170q6 0 6 -6q2 -5 4 -20t2 -20t-3.5 -9.5t-8.5 -4.5v60zM46 419q1 0 0 -7.5t-2.5 -17.5t-2.5 -17.5l-1 -7.5q0 -2 -2.5 -3.5t-2.5 3.5q0 1 1.5 9t3 17t3.5 16.5t3 7.5zM70 554l13 -7l5 -150l-2.5 20t-6 44t-6 44t-2.5 21
q0 3 -0.5 14t-0.5 14z" />
    <glyph glyph-name="s" unicode="j" horiz-adv-x="388" 
d="M17 11q1 3 -3 3q-3 0 -2.5 -3t2.5 -3q3 0 3 3zM208 535v12q0 17 0.5 28t5.5 28l6 -17v-85q-8 5 -10 14.5t-2 19.5zM23 5l11 -6q18 1 34.5 -1.5t32 -6.5t31.5 -7t34 -3q12 0 20.5 4t16 10t15.5 13t19 13q-1 -7 -7 -15t-6 -15q6 0 14.5 7t16 16.5t13.5 19.5t8 17
q10 6 11.5 10t9.5 12q8 6 23 43t23 96q0 23 0.5 42.5t1.5 42.5t2 52t2 71l0.5 12t1.5 26t1.5 26.5l0.5 12.5q0 1 -0.5 2l-0.5 1l8 75l24 74q0 7 -4 6t-9.5 -3.5t-9.5 -3t-4 7.5l-179 4l-4.5 -1t-10 -2t-10 -2t-4.5 -2t2.5 -7t5.5 -13.5t5.5 -14t2.5 -7.5l2 -34
q1 -32 4.5 -57.5t8.5 -50.5t10.5 -51t10.5 -58q-3 -38 -5 -74.5t-6 -66.5q-8 -42 -31 -63t-66 -13q-11 0 -20.5 10t-18.5 21.5t-19 21.5t-21 10l-3 -57l40 -40h-5l-23 5h-6q6 -10 14 -15.5t15.5 -8.5t13 -5t7.5 -5q2 -2 0 -5.5l-2 -3.5l-29 -14l4 -1t8.5 -2.5t9 -3.5t5.5 -5
l11 -11q0 -4 -5 -6h-4q-9 0 -21.5 6t-20.5 11l-1.5 -6l-0.5 -2q0 -11 11 -14.5t19 -5.5q-7 -5 -13.5 -7.5t-14.5 -4.5zM302 221l4 37q6 -8 5.5 -29.5t-4 -45t-9.5 -42.5t-11 -22q-5 3 -3 16.5t6 30.5t8 32t4 21v2z" />
    <glyph glyph-name="k" unicode="k" horiz-adv-x="464" 
d="M336 93l35 -68q4 -8 10.5 -19t14.5 -21.5t16.5 -17.5t16.5 -7q0 32 -4.5 56.5t-8.5 54.5l-86 315q-2 5 8 19t24 30t28 31.5t21 23.5q3 3 10.5 12.5t16 20.5t15.5 21t9 14q0 2 0.5 4.5t0.5 4.5q0 12 -5.5 25.5t-14.5 25t-21 19t-25 7.5h-3q0 -6 -3 -17t-8 -21t-12 -17.5
t-15 -7.5h-3q9 15 13.5 25t4.5 25q0 12 -5 13t-16 1q-16 0 -22.5 -8.5t-14.5 -21.5q-6 -9 -20 -32t-29.5 -49.5t-29.5 -50.5t-19 -34q-3 -6 -4 -6t-2 1t-3 1q0 54 5.5 106.5t5.5 106.5q-8 0 -15.5 -1.5t-14.5 -6.5q-1 -3 -2.5 -11.5t-4 -19t-6.5 -20t-10 -13.5q-3 9 -5 20
t-5.5 21t-9.5 17t-17 7q-15 0 -20 -14.5t-7 -27.5q-4 2 -5.5 7.5t-3.5 11.5t-5 11t-9 5h-46q-7 0 -11.5 -10t-7 -22t-3.5 -23t-1 -13q0 -38 3 -71.5t6.5 -66t7.5 -64.5t6 -68q3 -36 4 -66t2.5 -58.5t4 -58.5t7.5 -64q1 -8 4 -20.5t5 -21t2 -9.5l29 -6q0 2 2 8.5t4 8.5l1 0.5
t2 0.5q4 0 10 -8t9.5 -14.5t4.5 -7.5v26l2.5 2.5t4.5 0.5l17 -17h4h2q6 4 6 11l29 241q1 5 5 6t7 1q4 0 9 -7t8.5 -16.5t6.5 -18t4 -11.5t3.5 -12.5t5 -20t5 -19.5t3.5 -11q2 -4 9.5 -19.5t16.5 -34.5t18 -37.5t14 -28.5q2 -2 5.5 -11t11.5 -9v20q5 -4 8.5 -9.5l7 -11t8 -9
t11.5 -3.5q0 23 -9 43.5t-9 44.5v13zM325 8q-5 0 -5 -6t5 -6q4 0 4 6t-4 6zM100 105l19 30l-13 -87h-6v57zM261 196v12q7 -13 16 -31.5t9 -32.5q-8 0 -13 6t-7.5 14t-3.5 17t-1 15zM336 421q2 -4 0.5 -6t-6.5 0q-2 2 1.5 5t4.5 1zM94 569v6q0 5 0.5 8.5t0.5 8.5v6
q6 -9 6 -21v-22v-5q0 -3 -0.5 -7.5t-0.5 -7.5v-5q-7 7 -6.5 20.5t0.5 18.5z" />
    <glyph glyph-name="e" unicode="l" horiz-adv-x="318" 
d="M31 48l-6 -41l203 -14h18q8 0 17.5 1t18 4t14 8.5t5.5 14.5l-1 2q-2 2 -9 9.5t-10 9.5l24 11l-30 24q1 1 5.5 8t9.5 15.5t9.5 15.5t4.5 8q0 7 -14.5 9t-23.5 2h-101q3 58 7.5 95t9.5 63.5t10.5 46t10.5 42.5l-1 41q0 16 2 31t10 30q3 25 6.5 51t6 49t4.5 41t2 28t-3 10
l-21 -6h-153h-23q-11 0 -20 -12v-31l6 -284q0 -5 7.5 -9.5t7.5 -9.5q0 -3 -3 -5.5t-12 -7.5l6 -6zM110 52v-10q0 -1 -13.5 -3t-22.5 -3h-13q5 9 17.5 12.5t21.5 3.5h10zM232 59l12 -13l-80 -3zM68 613q0 8 1 11.5t11 8.5l1 -13v-27v-32q0 -13 -0.5 -26.5t-1 -24.5t-2 -18.5
t-2.5 -9.5q-2 4 -3.5 24t-2.5 42.5t-1 41.5v23z" />
    <glyph glyph-name="m" unicode="m" horiz-adv-x="564" 
d="M517 643l37 -21l-28 -613q-5 1 -12 7.5t-14.5 13.5t-14.5 13t-11 6q-2 0 -11.5 -11.5t-21 -26t-22.5 -26t-16 -11.5q-4 0 -4 6q0 10 7.5 29.5t7.5 36.5q0 8 -3 14l-17 181l-10 45q-8 -20 -15 -29t-13.5 -15t-14 -13t-16.5 -22q-2 -8 -5 -14t-6 -6h-1q-2 -4 -4.5 -15
t-5 -23.5t-5.5 -24t-6 -15.5q-5 3 -8 14.5t-5 25.5t-3 27.5t-2 21.5q-2 -8 -6.5 -15t-14.5 -13q-2 2 -5.5 10.5t-5.5 10.5q-3 -5 -4 -12.5t-6 -7.5q-3 0 -5.5 4t-4.5 9.5t-3 10t-1 5.5l6 17q-11 18 -19 28t-15.5 18.5t-14.5 19.5t-16 32l20 -70l-23 -182q-4 -27 -8 -38.5
t-8.5 -14.5t-10 0t-12.5 6q-11 3 -15 -7.5t-4 -24.5v-16q0 -11 -5 -11q-4 0 -10.5 9t-14 19.5t-14.5 19t-12 7.5l-35 631v7q0 5 11 7.5t21 3.5l54 5q7 -6 16.5 -6.5l19 -1t17 -3t10.5 -12.5q4 -13 11.5 -23t15.5 -19.5t15.5 -19.5t12.5 -23q2 -5 6 -14.5t5 -13.5q3 0 5 4.5
t3.5 9.5t2.5 9.5l1 4.5l46 -100l38 31q0 1 0.5 7t1 12.5t1 12t1.5 6.5q4 12 14 25.5t21 27t21.5 27t15.5 26.5q3 10 13.5 14t23 5.5t24.5 3t19 7.5zM517 482q-12 -9 -12 -23q0 -4 -3 -24t-6 -42.5t-4 -41t4 -18.5q0 6 3.5 27.5t8 47t7.5 47t2 27.5zM195 347
q0 -11 11.5 -17.5t17.5 -17.5q0 2 0.5 4.5t0.5 4.5q0 6 -4.5 15t-10 18.5t-11.5 18.5t-9 15l0.5 -6.5t1.5 -14t2 -14zM326 321q0 2 -0.5 6t-0.5 5q-8 -13 -10 -21.5t-2 -20.5q0 -2 0.5 -5t0.5 -5q5 11 8.5 21.5t3.5 19.5zM63 158q-1 0 0.5 -7t4 -16t4.5 -17t2 -9v-4
q0 -3 2 -1q3 1 3 5q0 1 -2 9t-5 17t-5.5 16t-3.5 7zM492 112q-3 0 -3 -6q0 -4 3 -5q2 -2 2 1v4q0 8 -2 6zM132 552l25 -109q0 -1 -0.5 -1.5t-0.5 -2.5t1 -2q2 0 5 5.5t3 6.5l-5 16.5t-11 35.5t-11.5 35zM331 344q-3 -2 -3 -3q0 -2 2.5 -3.5t2.5 3.5t-2 3z" />
    <glyph glyph-name="n" unicode="n" horiz-adv-x="482" 
d="M337 69q1 -3 2.5 -10.5t3 -15.5t3 -15.5t2.5 -10.5q0 -2 2 -9.5t5.5 -16.5t7.5 -16.5t8 -8.5q1 2 4 11t5 17q4 12 8 12l1.5 0.5t2.5 0.5q7 0 9 -9.5t4 -14.5l6 11l40 396v6q1 4 3.5 21t5.5 36.5t5 36t3 21.5q2 15 3.5 34.5t2.5 40t1.5 40.5t0.5 36q-3 0 -9.5 -0.5
t-14.5 -0.5t-14.5 -0.5t-9.5 -0.5q-2 0 -8.5 -3t-8.5 -3q-3 0 -14.5 3t-14.5 3h-8q-18 0 -29.5 -4.5t-18.5 -10.5t-10.5 -10.5t-4.5 -4.5t-2 1l-1 1l-11 22l-1 0.5t-2 0.5q-8 0 -8.5 -7t-0.5 -12q0 -75 1.5 -145.5t1.5 -145.5q0 -2 -3 -1t-6 6q-38 78 -69 150t-51 154l-6 6
h-52q-1 0 -3 -6t-3 -11q0 -2 0.5 -9t1 -14.5t1 -14t0.5 -8.5h-8q-5 17 -10 29t-13 19.5t-20.5 11t-31.5 3.5q-5 0 -7.5 -0.5t-4.5 -5.5v-19q0 -64 4 -126.5t4 -126.5q6 0 11 -3.5t4 -11.5q1 -4 2 -14.5t2 -22.5t1.5 -23t0.5 -15v-9v-15v-17v-10q0 -7 2.5 -18t3.5 -11h10v80
l7 -5v-69q-6 -6 -6 -12v-13q0 -45 7.5 -95t10.5 -92l17 17l1 0.5t2 0.5t2 -0.5l1 -0.5q2 -2 6 -8.5t5 -8.5l12 34q0 2 5 2q4 0 11 -9t13.5 -20t11.5 -22t5 -14q7 10 9.5 20t2.5 21q0 8 -6.5 14t-6.5 14q0 1 0.5 3.5l0.5 2.5l5 11q1 5 3.5 16.5t5.5 23.5l5.5 22t3.5 13l11 91
q1 0 1.5 0.5t1.5 0.5l3 -1l6 -5q3 -5 11 -17t17.5 -25.5t17.5 -26t11 -17.5l6 -11l46 -115l6 -6q3 7 5 17t3.5 20t2 18.5t0.5 13.5zM141 144q0 -2 0.5 -6t0.5 -6q0 -8 -0.5 -14t-5.5 -14q0 2 -0.5 8.5t-0.5 8.5q-1 1 -0.5 11t6.5 12zM210 390q6 0 6 -6q2 -3 8.5 -14t8.5 -14
l8 -16l9.5 -19l8 -16l3.5 -7l32 -57q-3 3 -11 14t-16.5 23t-16.5 23t-11 14q-3 7 -8 18t-9.5 21t-8 17.5l-3.5 7.5v11zM205 402q4 0 4 -6t-4 -6t-4 6t4 6zM343 540v-75l-6 -6v23q0 17 0.5 29t5.5 29z" />
    <glyph glyph-name="o" unicode="o" 
d="M209 -34q-4 0 -4 -5q0 -6 4 -6q5 0 5 6q0 5 -5 5zM255 -5q-4 -3 -10 -4l-12 -2t-10 -4t-4 -10q0 -2 1 -4.5t1 -4.5q74 19 129 47t91 70t54 101.5t18 140.5q0 55 -18 115.5t-52 110.5t-84.5 82.5t-114.5 32.5q-27 0 -41.5 -10t-22 -22.5t-10.5 -23.5t-7 -12
q-8 -4 -14.5 -6t-12.5 -5t-12 -7t-12 -11q-54 -64 -81.5 -141.5t-27.5 -162.5q0 -32 7.5 -65t21.5 -63.5t34 -56.5t46 -45q20 -14 37.5 -21t36.5 -19h69zM479 218q0 -2 0.5 -6.5t0.5 -6.5q0 -29 -9.5 -58.5t-31.5 -47.5v3v2l11 29q2 4 6 16.5t8.5 26l8.5 25.5t6 17zM181 276
q0 54 22.5 98t51.5 86l6 6l1 0.5t2 0.5l3 -1q19 -15 31.5 -35t19.5 -42.5t10 -46t3 -45.5v-11q0 -7 -0.5 -14t-0.5 -14v-11q-6 -22 -15.5 -45.5t-24.5 -40.5q-5 -6 -16.5 -16.5t-12.5 -11.5l-7 -29l-4 8.5t-9.5 19l-11 21t-8.5 14.5q-20 23 -30 51t-10 58zM37 218v18
q11 -36 11 -65v-10q-8 13 -9.5 28.5t-1.5 28.5zM307 443q0 2 4 8.5t8 8.5q2 2 6.5 -0.5t4.5 -5.5q12 -17 15.5 -30.5t3.5 -32.5q0 -3 -0.5 -9t-1.5 -8l-5 -6l-18 63q-2 5 -8.5 8.5t-8.5 3.5zM462 489q5 0 5 -6q0 -2 1.5 -13t3 -24.5t2 -24t-0.5 -10.5t-5 14t-8.5 31.5
t-8.5 32t-4 16.5q0 1 2 -1.5t4.5 -5.5l5 -6t3.5 -3zM135 540l1 -2q0 -1 -0.5 -2l-0.5 -1q-2 -3 -6 -9.5t-6 -8.5h-2h-4q3 5 8 12t10 11zM169 569q7 0 13 -1.5t6 -11.5q-1 0 -3.5 0.5t-3.5 1.5q-2 0 -6 2.5t-6 2.5q-1 0 -8 -2.5t-9 -2.5h-2h-4q3 9 9 10t14 1zM80 122
q-2 2 -5.5 7t-5.5 7q14 -10 26.5 -20.5t22.5 -24.5l6 -7q-14 5 -25 16t-19 22z" />
    <glyph glyph-name="FL0070h" unicode="p" horiz-adv-x="492" 
d="M49 551v-172l6 -6v155zM207 186l-6 6l-3 1q-1 0 -2 -0.5l-1 -0.5l-9 -66q-2 -39 -6.5 -73t-14.5 -48l-5 6v-3q0 -8 6.5 -14t6.5 -14q0 -10 -2.5 -20.5t-9.5 -19.5q0 3 -5 14t-11.5 22t-13.5 20t-11 9q-2 0 -3.5 -1l-1.5 -1l-12 -34q-1 2 -5 8.5t-6 8.5h-4h-2l-17 -17
q-2 19 -5 42t-6 47t-5 48.5t-2 46.5l-23 30q0 5 -0.5 13t-0.5 10q-2 32 -1.5 66t-1.5 68q-8 5 -11 5q0 16 -0.5 31.5t-1.5 31.5q0 1 -0.5 1.5t-0.5 2.5q-1 10 -0.5 36.5t2 56t2.5 55.5t1 36v17q0 7 13 16.5t21 15.5l27 13l227 2q39 0 72.5 -16t58 -43.5t38 -65t12.5 -79.5
q-2 -54 -29 -100.5t-78 -69.5q-21 -14 -40 -28.5t-38.5 -25t-40 -14t-45.5 4.5l-4.5 11t-9.5 21zM206 377q-3 0 -7.5 -6t-4.5 -9q0 -2 -4 -5l-8 -6t-7.5 -5.5t-1.5 -2.5l5.5 1.5t13 3t13.5 2.5t6 -1q0 -1 1 -2v-5q8 -12 10.5 -15t2 -1.5l-0.5 1.5l21 4q2 0 -8.5 2t-16.5 10
h3q16 0 30 10t24 24.5t15.5 31t5.5 30.5q0 11 -3.5 23.5t-10.5 23t-17.5 17.5t-23.5 7h-3q-1 0 -6 -1.5t-11 -3t-11 -3t-6 -2.5q0 -2 -1 -7t-2 -11.5t-2 -12.5t-1 -9q0 -6 2 -19t3.5 -26.5t2 -24.5t-1.5 -13zM392 579l3 -3.5l6 -7t6 -6t4 -2.5q9 5 18.5 -1t17.5 -16.5
t13 -20.5t4 -13q0 9 -4.5 20t-11.5 20.5t-15.5 16.5t-16.5 7q-4 0 -13 5.5t-11 0.5zM119 80h-6l-3 -5t-8 -12.5t-9.5 -15.5t-7.5 -13q-5 -5 -6 -11h3q7 0 13.5 7t11 16t8 18.5t4.5 15.5zM257 632h-12q-4 0 -13 -0.5t-19.5 -1.5t-19.5 -2t-12 -2h115q-14 5 -20.5 5.5
t-18.5 0.5zM224 268l45 12h17q-2 5 -5 6t-6 1q-2 0 -4 -0.5l-2 -0.5zM212 353v-6q0 -4 8 -4q-2 2 -2 4q0 6 -6 6zM146 158q-1 0 -3 -8.5t-4.5 -19t-4 -18.5t-1.5 -6v-7q0 -6 0.5 -12.5t0.5 -12.5v-8l5 6q2 20 7.5 42t5.5 42v2q0 -2 -6 0z" />
    <glyph glyph-name="FL0071h" unicode="q" horiz-adv-x="539" 
d="M40 305v10q0 12 2 24t9 22v-12q0 -2 -1 -9.5t-1.5 -15.5t-1.5 -15.5t-1 -10.5q-6 1 -6 7zM218 11l6 6q20 2 41 6l42 8q2 -4 2.5 -7t1.5 -5q-34 -14 -65 -14q-8 0 -14 0.5t-14 5.5zM321 510q1 0 2 0.5t2 0.5q7 0 14.5 -11.5t14 -26.5t10.5 -30t4 -21v-11q0 -9 -1 -10
q-15 24 -23.5 53.5t-22.5 55.5zM345 283l-126 -59q16 -12 27.5 -32t22.5 -45q-2 -2 -3 -2t-3 -2q-17 15 -35 32.5t-33 37.5t-25 41.5t-10 42.5q0 15 11 48t29 66t40 58t44 25q16 0 31 -22.5t27 -51t19 -55t7 -35.5q0 -35 -14 -69q-2 7 -4.5 12t-4.5 10zM173 8h9q7 0 16 -1.5
t14 -6.5h9q7 0 14.5 -0.5t12.5 -0.5h10q31 0 58 6q5 -18 15 -32q4 -7 6 -12.5t4.5 -9.5t7 -6.5t13.5 -2.5q3 -3 10 -9t14.5 -11t14 -9t9.5 -4q1 0 1 2q0 6 -7 13q-1 1 -5.5 7.5t-9 14t-8.5 14t-4 8.5t0.5 6t0.5 5h10l28 -29l31 -32l9 38v17l-23 97q51 51 76 120.5t25 145.5
q0 61 -14.5 120.5t-46 106t-81.5 75t-120 28.5h-8h-22h-7q16 -8 35 -14t33 -15h-8q-29 0 -58 9t-58 9q0 -9 -4 -14.5t-10 -9.5t-13 -7.5t-14 -9.5q-4 -3 -12.5 -11.5l-18 -18t-17 -17.5t-10.5 -11q-38 -45 -56.5 -106.5t-18.5 -118.5q0 -64 16.5 -123.5t58.5 -110.5
q7 -9 22 -20.5t31 -23.5t28 -24t12 -21zM312 182v6q10 -7 17 -19t11 -25.5t6 -27.5t2 -26h-7z" />
    <glyph glyph-name="r" unicode="r" horiz-adv-x="499" 
d="M22 130q0 -42 -0.5 -81.5t11.5 -77.5q7 1 7 11v11q0 3 -0.5 9.5t-0.5 8.5t-3 11.5t-3 11.5q0 6 6 6q6 -3 11 -15t6 -14l17 121l3 1q5 0 7 -5t2 -12q0 -6 -0.5 -11.5t-0.5 -6.5v-3v-3l1 -18v-6q0 -6 4 -21.5t10 -31t13 -28t13 -12.5v42q0 3 -3.5 6t-8 6t-8 7t-3.5 11
q0 2 4.5 0l4.5 -2l26 23q2 2 6 -6.5t8.5 -20t8 -22.5t5.5 -14q9 12 13 40t6.5 60.5t4 63.5t5.5 49q1 4 6 6h2h4q21 -17 40 -43t35 -54.5t30 -56t26 -48.5q8 -14 15.5 -22t24.5 -8q3 0 9 0.5t8 1.5q-2 2 -5.5 11t-5.5 12q0 2 1 6t1 5h9l29 -29h3h3l34 6v17l-34 138
q-18 29 -27.5 62.5t-24.5 63.5q51 24 83.5 70.5t32.5 101.5q0 37 -15 73.5t-41 65t-60.5 46t-73.5 17.5h-255v-34l-3.5 -1t-5.5 0q-5 2 -7 6t-3.5 8t-4 7t-8.5 3q-8 0 -10 -7t-2 -15v-8v-17q0 -11 0.5 -37.5t1.5 -57t2 -57.5t2 -38q8 -24 11 -50t4 -52t0.5 -52.5t1.5 -51.5
q0 -2 0.5 -10t0.5 -13q0 -16 -3 -27t-3 -26zM50 80l-5 -6v8q0 5 -0.5 12t-0.5 12v8zM383 206v6q10 -7 17 -19t11 -25.5t6 -27.5t2 -26h-7zM137 252h5l-5 -6v6zM114 297q3 -3 3 -8t-3 -9q-4 0 -4 9q0 12 4 8zM269 286l2 0.5t4 0.5q3 0 6 -1t5 -6h-17v6zM108 332v172l6 -23
v-155zM446 389q-1 -6 -4.5 -15.5t-8 -18.5t-11 -16t-13.5 -7h-3q2 7 6 11q3 6 7.5 14t9.5 15t8 12l3 5h6zM211 349q0 6 1 22.5t2 35.5t2 35t1 22q0 3 1 9t2 12.5t2 11.5t1 7q2 2 8.5 4t8.5 2h3q13 0 23.5 -7t17.5 -17.5t10.5 -23t3.5 -23.5q0 -14 -5.5 -30.5t-15.5 -31
t-24 -24.5t-30 -10q-5 0 -7.5 0.5t-4.5 5.5zM366 602q2 5 5 6t6 1q8 0 19.5 -6.5t22 -16t17.5 -20t7 -18.5q-2 0 -10 5.5t-17.5 13t-18 14t-11.5 8.5q-2 1 -10.5 6.5t-9.5 6.5zM149 642h18q4 0 21 -5h-115q3 1 12 1.5t19.5 1.5t20 1.5t12.5 0.5h12z" />
    <glyph glyph-name="FL0073h" unicode="s" horiz-adv-x="338" 
d="M17 17q14 -11 33 -14.5t36 -3.5h24q42 0 82 10.5t71.5 32.5t50.5 56.5t19 81.5v19q0 7 -0.5 12t-0.5 7q-8 20 -18.5 37.5t-27.5 30.5q-14 11 -30 22t-29.5 23t-22.5 27.5t-9 35.5q0 16 6.5 28.5t17 21.5t23.5 13.5t26 4.5t25 -7.5t22 -7.5h6q-2 6 -6 6q-5 5 -13.5 8.5
t-6.5 8.5q-2 8 -4.5 17t-4.5 12q-3 3 -15.5 10t-18.5 7q2 0 8.5 0.5t8.5 0.5q13 0 22.5 -3.5t21.5 -3.5h2q-7 9 -11.5 11.5t-7.5 4.5t-4 6t-1 15q2 0 6 -1t9 -1q3 0 6.5 2t3.5 7q0 7 -13 16.5t-29.5 18t-33 14t-22.5 5.5q2 0 10 0.5t10 0.5q18 0 32.5 -4.5t32.5 -4.5v34h18
q-6 14 -29.5 20t-45.5 6h-20q-47 0 -87.5 -16t-70 -44.5t-46.5 -67.5t-17 -85t13 -77t32 -52.5t41.5 -36.5t41.5 -27.5t32 -26.5t13 -34q0 -19 -11 -30.5t-27 -18t-34 -9t-32 -3.5q-2 -8 -11 -7t-11 1q-10 0 -17.5 0.5t-17.5 5.5v-3q0 -8 6 -12.5t13.5 -8.5t13.5 -9t6 -13
h-39q1 -1 8.5 -5t16.5 -8.5t17 -9t10 -6.5q1 -1 2.5 -8t2.5 -9l18 -6q1 0 1 -3q0 -2 -1 -3q-12 -1 -20.5 -3.5t-16.5 -5t-17 -3.5t-21 1zM303 178q2 -2 4 -8.5t2 -8.5v-4q0 -9 -1.5 -21t-4.5 -23.5t-8.5 -22t-14.5 -16.5v3q0 10 3 23.5t7 27t8 26.5t5 24zM34 405l0.5 8.5
t0.5 19.5q0 10 0.5 19t0.5 10q2 -6 4 -19.5t3.5 -28.5t2.5 -29t1 -21q-6 0 -9 5t-4 11.5t-0.5 13.5t0.5 11z" />
    <glyph glyph-name="t" unicode="t" horiz-adv-x="381" 
d="M161 -11q-4 1 -4 -2q0 -5 3.5 -3.5t3.5 3.5t-3 2zM166 19v-12q2 -3 10.5 -13t12.5 -10q2 2 6 8.5t6 8.5l1 1q2 0 3.5 -0.5l1.5 -0.5q2 0 6 -2t5 -4l11 35l2.5 21t6.5 49.5t8 58.5t6 48q6 43 7 80t10 80q3 13 7.5 34.5t9 42t8.5 35l4 14.5l5 6h69v40q-1 0 -5 1.5t-8.5 4
t-9 5.5t-5.5 6l28 35v11h-63v6q1 0 8 1t14.5 3t14.5 4t9 4q8 2 13 5.5t5 11.5q0 10 -9.5 18t-19.5 11h-12h-34h-12q-30 0 -58 -3t-58 -3q-26 0 -51.5 3t-51.5 3q-6 0 -16.5 -0.5t-20.5 -3t-17.5 -8t-7.5 -15.5v-2q1 -2 3 -3.5t3 -2.5q4 -2 18 -6t17 -5q-3 -5 -9 -6.5
t-11.5 -3t-10 -3.5t-4.5 -7q0 -7 6.5 -10.5t6.5 -10.5q0 -8 -6.5 -10t-6.5 -10q0 -9 9.5 -9.5t22 0.5t23.5 0t14 -11q-5 1 -16.5 0.5t-23 -4t-20.5 -10t-9 -17.5q0 -6 12.5 -9.5t28.5 -6t31 -3.5t20 -2q1 -8 3 -28t4 -43t3.5 -43.5t1.5 -28.5q0 -12 0.5 -36t0.5 -55
t0.5 -72.5t0.5 -72.5t0.5 -55t0.5 -36q1 0 1.5 0.5l0.5 0.5l12 6q1 1 3 0t3 -1v-16q8 5 11.5 12.5t5.5 15.5q1 4 2.5 14t3 21t3 20.5t2.5 13.5h5q0 -23 -2.5 -42.5t-2.5 -42.5zM218 510h34v-3q-12 0 -18 -9t-9 -21.5t-4 -25.5t-3 -21v80z" />
    <glyph glyph-name="FL0075h" unicode="u" 
d="M100 378q-5 0 -5 -6q0 -2 -1.5 -13t-3 -24.5t-2.5 -24t0 -10.5t4 10.5t6 24t5 24.5t2 13q0 6 -5 6zM197 104q0 -2 -0.5 -7t-0.5 -7q0 -14 4 -22t11 -13.5t17 -11.5t21 -15v5l-30 33zM91 212q-2 6 -9 6h-2q-8 -5 -6 -10q-6 -20 -6 -34q0 -11 8 -32q2 -2 3.5 -7.5t3.5 -7.5
l7 -4l-9 55q-1 2 0 7.5t3 11.5t4 10.5t3 4.5zM200 450q0 -5 0.5 -13t0.5 -10l-10 -130l6 -64v-7q0 -2 -0.5 -4.5t-1.5 -6.5q5 -15 12.5 -29t17.5 -25q7 -7 17 -17.5t12 -10.5h6q1 1 7 6.5t14.5 14t12.5 13.5q13 13 13 34q0 9 1.5 19t3.5 21v1l2 8v9l4 152v242q2 0 3 -0.5
t3 -0.5l52 -6h6q9 0 14.5 6t15.5 6q4 0 6.5 -5.5t5 -12t5 -12t7.5 -5.5q3 0 6 5.5t7 12t7 12t6 5.5q2 0 3.5 -0.5l1.5 -0.5q3 -2 12 -10t11 -13q6 6 11 6h3q7 0 8 -4t1 -9v-10l-21 -355q0 -32 -8 -65t-22 -63.5t-34.5 -57t-45.5 -45.5q-20 -13 -29.5 -22.5t-27.5 -21.5
l-52 8q4 -3 8 -4t7.5 -2t5.5 -4t2 -10l-2 -9q-74 19 -126 45.5t-84.5 66.5t-47.5 97.5t-15 138.5q0 55 -5.5 88.5t-5.5 59.5q0 17 6 35q-3 11 -4.5 29t-2 37.5t-2 38.5t-4.5 32v6q0 7 5 12h2q15 0 23 -5t12.5 -13.5t6 -19t2.5 -21.5q1 1 2 5.5t2 9.5t2 9t3 4v36h100
q1 -1 0 -7t-2 -12.5t-1.5 -12t1.5 -5.5q7 0 12 9.5t8 19.5t5.5 15.5t5.5 -2.5l15 -57q1 -5 1.5 -9.5t0.5 -8.5q0 -16 -2 -35.5t-2 -28.5v-26q0 -14 -0.5 -23t-4.5 -24zM174 600l2 -42q0 -1 -1 -11t-2 -21.5t-2 -21t-1 -10.5l17 58q-2 4 -6 6q0 2 -1.5 11t-3.5 20zM446 160
v-2v1q1 0 1 1h-1zM468 581l-1 -1q0 -1 0.5 -2.5l0.5 -1.5q1 -1 2.5 -10.5t4 -21.5t4 -21.5t2.5 -10.5l5 46q-2 5 -7.5 12.5t-10.5 10.5zM322 42q-7 0 -13 -1.5t-6 -11.5q1 0 3.5 0.5t3.5 1.5q2 0 6 2.5t6 2.5q1 0 8 -2.5t9 -2.5h6q-3 9 -9 10t-14 1zM337 189l6 5
q0 3 0.5 11.5t1 17.5t1.5 17.5t2 11.5q0 2 3 11.5t3 11.5q0 5 -4 5.5t-7 0.5q-4 0 -7 -0.5t-5 -5.5v-6v-17v-6q0 -17 0.5 -29.5t5.5 -27.5z" />
    <glyph glyph-name="FL00BAh" unicode="v" horiz-adv-x="498" 
d="M158 78q-1 0 -1.5 -0.5t-1.5 -0.5q-6 0 -12.5 17.5t-12 39.5t-9 41.5t-3.5 23.5q0 2 2 3t4 3h3q3 0 7 -15.5t8.5 -36t8.5 -42t7 -33.5zM316 414q-8 -51 -24 -105t-33 -102l-6 6l-40 184v17l-12 126l-25 109l-15 5l-18 6t-16.5 5t-10.5 1l-35 -7l-50 3q0 -13 -9 -13
q-1 0 -2 0.5l-1 0.5q-2 1 -2.5 -3t-1 -9t-1 -9t-2.5 -3q-6 0 -6 -8v-10q0 -2 0.5 -6l0.5 -4l40 -150v-57l94 -350q1 -5 1.5 -9t0.5 -7q0 -11 3 -21t15 -10q4 0 8 4t8 9.5t8 9.5t9 4q4 0 5.5 -6t2 -13.5t2.5 -13.5t8 -6t14 3.5t16 8t15.5 8.5t12.5 5q8 1 11.5 -9.5t5 -23.5
t2 -24t2.5 -11h3q0 -2 6 8t14 23t16.5 24t14.5 11q1 0 3 1t3 1q2 4 6 16.5t8.5 26t8 26t5.5 17.5q2 11 7.5 35t13 54t16 63t16 63l13.5 54t9 35q1 25 6.5 50t12 49.5t11.5 49.5t5 52v17l-8 39q-1 5 -6 5.5t-12.5 -0.5t-16 -3t-16.5 -2h-19q-6 0 -12 1t-8 5l-31 -1
q-13 -9 -15 -28.5t-2.5 -39.5t-3.5 -35.5t-17 -15.5q-5 -21 -6.5 -43t-1.5 -40t1 -29.5t1 -13.5zM326 307l-2 -6q-2 -5 -4 -10.5t-4 -10.5l-2 -5l-4 -8q-2 -6 -4 -10t-4 -9l-2 -5q-2 -6 -8.5 -15.5t-8.5 -8.5l-4 2l1 5l39 78z" />
    <glyph glyph-name="FL00BBh" unicode="w" horiz-adv-x="635" 
d="M495 77l-15 71q0 -4 -0.5 -19.5t-1.5 -33.5t-3 -34t-5 -22l-6 6l-42 97l-6 11q-2 5 -11 17t-19.5 24.5t-20 24t-12.5 15.5l-6 6l-3 1q-1 0 -1.5 -0.5t-1.5 -0.5q-11 -10 -23 -32.5t-24.5 -46t-24.5 -41.5t-22 -18l-6 -6q-11 -27 -19 -39t-14.5 -18.5t-12.5 -11t-13 -16.5
q-9 6 -13.5 19t-5.5 28t0 29t2 22q-3 -5 -6.5 -18.5t-9 -27.5t-12 -24.5t-15.5 -10.5q-3 0 -5.5 4t-4.5 9.5t-3 10t-1 5.5l-104 586l4 17q32 1 51 0.5t30 -2t17 -3t13 -1.5q4 0 6 -4.5t4.5 -10t6.5 -10t12 -4.5q6 0 7.5 4.5t2.5 10t2.5 10t6.5 4.5h4q1 0 5 -2t6 -4
q2 -64 7.5 -120t15.5 -121q0 -2 1 -12.5t3 -23t6 -13.5q0 1 1.5 8.5t4 16t4.5 16t3 8.5q3 10 3 35q0 18 -0.5 40.5t0 45.5t2.5 44.5t7 36.5l-1.5 4.5l-0.5 1.5h3q2 5 3 9t3 8q5 1 14 -4t18.5 -7t18 4t12.5 29l27 -2q9 0 10 -5t1 -10v-8l85 -264q4 -4 7 -5.5t3 0.5
q0 74 -2 138t-2 136q0 5 0.5 12.5t8.5 7.5q1 0 1.5 -0.5l0.5 -0.5l37 -12l3 -2q1 0 0.5 3t2 6.5t10 6.5t25.5 3h8q3 0 14.5 -2.5t14.5 -2.5q2 0 8.5 2.5t8.5 2.5q3 0 9 -0.5t13 -0.5q8 0 15 -0.5t9 -0.5v-65q0 -17 -1.5 -33t-3.5 -32q-1 -5 -3 -21.5t-5 -36t-5.5 -36.5
t-3.5 -21v-6l-16 -147l-30 -260q-2 5 -4 14.5t-9 9.5q-1 0 -2.5 -0.5l-1.5 -0.5q-5 0 -8 -13q-3 -6 -5.5 -15t-4.5 -12q-3 2 -7.5 8.5t-8 13.5t-6.5 13.5t-4 8.5zM349 322v-11l3.5 -7.5t8 -17.5t9.5 -21t8 -18q5 -7 10.5 -15t12.5 -13v11l-3.5 7l-8 16l-9.5 19l-8 16
q-2 3 -8 14t-9 14q0 6 -6 6zM369 479q-12 -9 -12 -23q0 -8 4.5 -16t14.5 -8q0 12 -1 23.5t-6 23.5zM496 508q-5 -17 -5.5 -29t-0.5 -29v-22l13 -15zM229 229q0 2 -0.5 6.5t-0.5 5.5q-8 -13 -10 -22t-2 -21q0 -2 0.5 -4.5t0.5 -4.5q5 11 8.5 21t3.5 19zM96 539l14 -15l-14 61
v-46zM360 417q-5 0 -5 -6t5 -6q4 0 4 6t-4 6zM234 252q-3 0 -3 -3q0 -2 2.5 -3.5t2.5 3.5t-2 3z" />
    <glyph glyph-name="FL00B5h" unicode="x" horiz-adv-x="490" 
d="M316 422q5 0 5 -5q0 -2 -4.5 -12t-10.5 -21t-11 -20.5t-6 -9.5t2.5 9.5t8 20.5t8.5 21t4 12q0 5 4 5zM100 48v57l19 30l-13 -87h-6zM156 512l-5 5q0 3 -0.5 11.5t-1.5 18t-2 17.5t-2 11q0 2 -3 11.5t-3 11.5q0 5 4.5 5.5t7.5 0.5q4 0 4 -5q0 -2 0.5 -5t0.5 -5v-6
q0 -5 0.5 -8.5t0.5 -8.5v-6q0 -16 2 -24.5t-3 -23.5zM3 627l124 -282l19 26q3 3 2.5 -6t-2.5 -21.5t-4 -24.5t-3 -16q-4 -20 -20 -48t-33.5 -60t-29.5 -67t-7 -69q1 -8 4 -20.5t5 -21t2 -9.5l29 -6q0 2 2 8.5t4 8.5l1 0.5t2 0.5q4 0 10 -8t9.5 -14.5t4.5 -7.5v26l2.5 2.5
t4.5 0.5l17 -17h6q2 2 3.5 5.5t2.5 5.5l97 179l76 -103q0 -2 3.5 -5t8 -6.5t8 -8t3.5 -10.5t4 -13t9 -13.5t9 -11.5t4 -7q2 -2 3.5 -3t2.5 -2l2 -1l11 -34q1 1 2.5 9t2.5 17t2.5 17t2.5 9q4 0 6 -6q1 -2 3 -13t2 -16h12q0 5 2 7t12 2t17 -4t15 -10q-3 16 -3 25v14v15
q0 5 -0.5 10.5t-1.5 13.5q-1 40 -13.5 80t-31 78t-41.5 74.5t-45 69.5q8 15 17.5 33.5t18.5 35.5t17 30.5t13 18.5q3 3 11 13.5t17 22.5t16.5 23t9.5 15q0 2 0.5 4.5t0.5 4.5q0 12 -5.5 25.5t-14.5 25t-21 19t-25 7.5h-3q0 -6 -3 -17t-8 -21t-12 -17.5t-15 -7.5h-3
q9 15 13.5 25t4.5 25q0 12 -5 13t-16 1q-8 0 -16 2t-14.5 3.5t-12.5 0.5t-10 -7q-2 -5 -7.5 -16.5t-12.5 -26t-14 -30.5t-12 -30l-52 112q-2 0 -3 -0.5t-3 -0.5l-52 -6h-6q-10 0 -15.5 6t-14.5 6t-15 -3t-14 -3q-6 0 -10.5 3t-10.5 3q-2 0 -4 -0.5l-2 -0.5q-2 -2 -11 -10
t-12 -13q-5 6 -11 6h-2q-8 0 -10 -4t0 -9zM362 148l3 -6q2 -5 5 -9.5t6 -9.5l6 -13q3 -5 5 -10t4 -8l3 -5q2 -6 5.5 -17t1.5 -11l-4 -3l-3 5l-34 79z" />
    <glyph glyph-name="FL0079h" unicode="y" horiz-adv-x="507" 
d="M348 347l-18 25q-3 4 -2.5 -4.5t2 -20.5t2.5 -23.5t-1 -14.5q-8 -13 -9.5 -23.5t-7.5 -20.5v-30l-21 -196q-2 -14 -12.5 -30.5t-26.5 -16.5q-10 0 -16 6.5t-16 6.5q-8 0 -20.5 -7.5t-23.5 -9.5l-24 310l-36 73q-9 15 -16 32.5t-13 34t-11 29.5t-10 18q-3 4 -8.5 14.5
t-11 22t-11 22t-8.5 14.5q0 1 -4 12.5t-8.5 25.5t-8 26t-3.5 13q0 12 9 14.5t22.5 1.5t29 -4t28.5 -3h4q0 -6 -0.5 -14t0.5 -15t4 -11.5t10 -4.5q1 0 2 0.5t2 0.5q-5 8 -5 9q0 6 4.5 8.5t4.5 13.5q0 12 5 13t16 1q8 0 15.5 2t14.5 3.5t12.5 0.5t10.5 -7q3 -5 9 -29l13.5 -54
t14.5 -58.5t12 -41.5l49 192q0 2 2 0.5t4 -1.5l52 -6h6q10 0 15.5 6t15.5 6q8 0 14.5 -3t14.5 -3q5 0 9.5 3t10.5 3q2 0 4 -0.5l2 -0.5q2 -2 11.5 -10t11.5 -13q4 6 11 6h3q7 0 9 -4t0 -9zM340 517q0 3 0.5 11.5t1.5 18t2 17.5t2 11q0 2 3 11.5t3 11.5q0 5 -4.5 5.5
t-7.5 0.5t-3 -5l-2 -10v-6q0 -5 -0.5 -8.5t-0.5 -8.5v-6q0 -16 -2 -24.5t3 -23.5zM195 242q-2 -6 -0.5 -19.5t4.5 -28t5.5 -27.5t2.5 -19q4 0 4.5 9.5t-0.5 22t-2.5 24t-1.5 15.5v4l-9 17q-3 3 -3 2zM160 424q-5 0 -5 -5q0 1 5 -14q1 6 6 8q0 1 5 -9.5t11.5 -23t12 -23
l5.5 -10.5q0 -1 -2 9t-6.5 23.5t-12.5 26.5t-19 18zM212 91q0 1 -0.5 -1t-0.5 -5v-4q0 -1 0.5 -1.5t0.5 0.5q4 1 4 5q0 6 -4 6z" />
    <glyph glyph-name="T" unicode="z" horiz-adv-x="421" 
d="M32 54l-1 4q-4 21 -1.5 36.5t4.5 35.5q4 19 13.5 43t19 45.5t16.5 37.5t7 20q-1 4 6.5 20.5t19 38.5t25.5 47t25.5 47t19 38t6.5 21q-40 10 -77.5 12t-70.5 2q-22 0 -41 3q4 7 15.5 14t25.5 13t28 9.5t23 3.5v5q-18 0 -36.5 -2.5t-38.5 -2.5q-9 0 -10 7t-1 15
q0 11 6.5 18.5t15.5 13.5t18.5 12t15.5 14q-6 3 -13.5 4.5l-15 3t-13.5 5t-9 10.5l6 6l15.5 0.5t40 1t56 1l63 1t61 1t50.5 1.5h92q-3 -1 -5 -6l-1 -3q0 -1 0.5 -2l0.5 -1l17 -17l1 -3q0 -5 -3.5 -8.5t-7.5 -7t-8 -7.5t-5 -9h-63q23 -7 37.5 -1.5t23.5 8t14.5 -5t9.5 -38.5
q2 -18 -7 -27.5t-17 -19.5v2q-2 0 -5.5 -0.5t-5.5 -0.5l-81 -11h6q2 0 4.5 -4t5 -9t4 -8.5t1.5 -1.5l16 22q2 5 8 3t9 -2h4q6 0 15.5 1t14.5 3q-5 -8 -7.5 -16.5t0.5 -22.5l-27 -41q-2 -3 -9 -1t-7 -1q-3 -9 -3 -11t1 -2q2 0 3.5 -2t1.5 -12l-122 -213l149 -27
q2 -1 8.5 -3.5t8.5 -4.5q1 0 5.5 -3t10 -6l5.5 -3q0 -4 -5 -7t-12 -6t-13 -5t-8 -4v-73h-86q3 -5 17 -7.5t30.5 -4t31.5 -2t21 -0.5h9l0.5 -1.5t0.5 -3.5q0 -5 -3 -14t-9 -9h-276q-16 0 -20 8.5t-14 14.5l-3 1q0 1 -4 3.5t-9.5 5t-9.5 4.5t-4 4v1q-2 0 -2 15zM61 7
q0 2 -0.5 3t-0.5 3q4 -5 5.5 -8l1.5 -3zM60 13q-6 11 0 11v-11zM381 506q1 1 1.5 2.5t2.5 3.5v-5h-1q-2 0 -3 -1zM158 85l-2 -15l-6 -2.5t-13.5 -5.5t-13.5 -5.5t-5 -2.5q-2 0 2 -0.5t12.5 0.5t19 3t21.5 7l4 18z" />
    <glyph glyph-name="FL007Bh" unicode="{" horiz-adv-x="394" 
d="M139 380q-1 0 -3 -11.5t-4 -25t-4 -24.5t-3 -11q3 -20 12 -29v6q0 5 0.5 8.5t0.5 8.5v4q-1 0 -1 11q0 7 0.5 17.5t0.5 20.5t0.5 17.5zM242 73l6 5v69l-6 6q-5 -15 -5.5 -28t-0.5 -28v-19zM104 724h27q25 0 48.5 -3t48.5 -3q16 0 23.5 1.5t13.5 3.5t13.5 3.5t24.5 1.5h66
q3 -6 0.5 -15t-6.5 -18.5t-8 -17t-4 -9.5l2.5 4t5 8.5t5 8.5l2.5 4q3 -1 6.5 -6.5t6.5 -12.5t5.5 -14.5t2.5 -11.5q0 -14 -2.5 -19.5t-7 -7t-11 -0.5t-15.5 0l-7 -22q13 -2 16.5 -4.5t4.5 -6.5t3 -9t12 -12q-15 -11 -24 -12.5t-17.5 0t-19 3.5t-27.5 -1q-6 -11 -6 -26
l-15 -413h92q2 0 8.5 -3t8.5 -5l0.5 -0.5t0.5 -1.5q0 -8 -6.5 -17.5t-11.5 -14.5v-73h-34q5 -9 21 -11.5t27 -2.5h9l0.5 -1.5t0.5 -3.5q0 -5 -3 -14t-9 -9h-196h-12q-5 0 -7.5 2t-10.5 7l-3 1q-7 0 -14.5 -4t-9.5 -6l-6 5l-14 345q-16 1 -30 0t-28 1l-6 6q3 6 2.5 8t-2.5 2
q-1 0 -3.5 -1t-3.5 -1q-3 0 -1 6q-5 8 -9.5 14t-12.5 11q5 6 10.5 8t10 4.5t7.5 6.5t3 13l-15 11q-8 3 -11 2.5t-3.5 0.5t0 6.5t0.5 20.5v1q5 0 17.5 2.5l17.5 3.5q2 1 3.5 4.5t1.5 4.5h47l-9 245zM231 356q0 15 0.5 25t-4.5 25l-6 -6l-15 -44l6 -5l6 5h13z" />
    <glyph glyph-name="FL00BCh" unicode="|" horiz-adv-x="216" 
d="M113 -110q11 0 16 -9.5t0 -19.5q8 3 16 9.5t8 17.5l-1 1q-1 2 -5 4t-6 2l-6 6q0 2 3 9.5l3 7.5q1 11 4.5 32t7 43t7 40t4.5 23q0 3 0.5 29t1.5 62.5t1.5 79t1.5 79t1.5 62t0.5 28.5q5 42 11.5 87.5t12.5 92t10.5 92.5t4.5 88v29q0 4 -5 6h-3h-3q-2 -1 -7.5 -3.5t-12 -5.5
t-12.5 -5.5t-8 -3.5q-2 2 -8.5 4t-8.5 2h-2q-23 0 -31 -10.5t-13 -29.5q-5 1 -6 6t-1 10t1 9l1 4q-2 2 -10.5 4t-19 3.5t-19.5 2.5t-12 1q-9 0 -17.5 -7.5t-8.5 -17.5q0 -12 5 -23.5t7 -26.5q1 -9 3 -33.5t3.5 -51t3 -48.5t1.5 -25q1 -26 2 -60t2 -74.5t1 -84.5v-89
q0 -91 2.5 -174t8.5 -134q0 -2 0.5 -9t0.5 -9h16q0 -3 4.5 -14t7.5 -14h10q10 0 15.5 3t15.5 3zM83 56q6 0 6 -6q2 -5 4 -20t2 -20q0 -13 -12 -13v59zM47 513q1 0 0.5 -7.5t-2 -17.5t-3 -17.5l-1.5 -7.5q0 -2 -2.5 -3.5t-2.5 3.5q0 1 1.5 9t3.5 17t3.5 16.5t2.5 7.5zM71 682
l14 -41l4 -150l-2.5 20l-5.5 44t-5.5 44.5l-2.5 20.5q0 2 -0.5 11t-0.5 20t-0.5 20t-0.5 11z" />
    <glyph glyph-name="FL007Dh" unicode="}" horiz-adv-x="383" 
d="M381 420l-87 -1l9 272l-36 33h-7q-25 0 -48.5 -3t-48.5 -3q-16 0 -23.5 1.5t-13.5 3.5t-14 3.5t-24 1.5h-14q-5 0 -12.5 1.5t-14.5 2.5t-11 0.5t-1 -4.5l56 -68l-10 5t-22.5 11.5t-23 11.5l-10.5 5q-3 -1 -6.5 -6.5t-6.5 -12.5t-5.5 -14.5t-2.5 -11.5q0 -27 3.5 -33
t20.5 -7l-6 -16q-13 -2 -12.5 -3.5t4.5 -4t5.5 -6.5t-8.5 -11q15 -11 24 -12.5t17.5 0t19 3.5t27.5 -1q6 -11 6 -26l7 -135h-1v-1q0 -7 1 -8v-3l3 -56l-6 -6q4 -2 7 -3l10 -184h-92q-2 0 -8.5 -3t-8.5 -5l-0.5 -0.5t-0.5 -1.5q0 -8 6.5 -17.5t11.5 -14.5l-13 -24l15 -32
q-3 -1 -5 -2t-4 -4l-6 -9t-10 -16l-0.5 -1.5t-0.5 -3.5q0 -5 3 -14t9 -9h196h11q7 0 9 2t10 7l3 1q7 0 14.5 -4t9.5 -6l6 5l9 302q12 -5 30.5 -6.5t28.5 -1.5q7 0 7 1l19 80l-17 23q3 0 5.5 5.5t5 12t4 12t2.5 4.5zM145 479q0 -17 0.5 -39.5t-7.5 -39.5q-4 0 -5 -1
q0 5 -0.5 8.5t-0.5 8.5v14q0 5 0.5 8.5t0.5 8.5v3q0 6 0.5 16t1.5 19t2 16t2 7l5 6v-7q0 -5 0.5 -10.5t0.5 -10.5v-7zM250 85v-19l-6 -5l-6 5v69l6 6q5 -15 5.5 -28t0.5 -28zM332 321h-13l-6 -5l-6 5l15 44l6 6q5 -15 4.5 -25t-0.5 -25z" />
    <glyph glyph-name="FL007Eh" unicode="~" horiz-adv-x="294" 
d="M171 254q1 3 6 5q2 -1 4.5 -2.5t7.5 -5.5l54 33q2 2 5 9t8 13q4 7 7 15.5t5 10.5v3q0 2 -1 3l-0.5 1t-1.5 1l-2 1q5 8 11 19t11 17l-13 9l-5 -5t-9 -8.5t-10 -8t-8 -3.5h-2l-1 1l1 1q0 7 4.5 11t4.5 9v2l-5 -2q-17 -8 -31.5 -20.5t-28.5 -26.5q-5 6 -7 12.5t-4 8.5
l-54 34q-1 -3 -6 -5q-5 2 -13 8l-54 -33q-2 -2 -4.5 -9t-7.5 -13q-4 -7 -7 -15.5t-5 -10.5v-3q0 -2 1 -3l0.5 -1t1.5 -1l2 -1l-10 -45q1 1 5.5 5t9.5 8.5t10 8t8 3.5h2l1 -1l-1 -1q0 -7 -5 -11t-5 -9v-2l5 2q17 8 31.5 20.5t27.5 25.5q5 -6 8 -12t5 -8zM220 288l6 8
q0 1 0.5 1.5l0.5 0.5q0 1 -3 1q-2 0 -2 1v1l1 4q3 3 8 9t6 6l3 -4zM67 357l-5 -8q0 -1 -0.5 -1.5l-0.5 -0.5q0 -1 2 -1t2 -1v-1l-1 -4q-2 -3 -7 -9t-6 -6l-3 4zM153 307l-2 -2l-30 34l16 1z" />
    <glyph glyph-name="FL007Fh" horiz-adv-x="164" 
 />
    <glyph glyph-name="FL20ACh" horiz-adv-x="554" 
d="M528 553h1h-1zM316 452q0 1 0.5 8t0.5 15t0.5 15l0.5 7l-21 -56zM107 381l50 -7q0 1 -6 3.5t-13.5 5.5t-13.5 5.5t-6 3.5zM303 607q11 0 20 3.5t20 3.5v6q-11 0 -24.5 -1t-21.5 -12h6zM392 138v8q0 4 -1.5 4.5t-7.5 9.5l-11 -4l-26 -18l11 -4l11 4h24zM493 303
q-2 0 -5 -4t-7 -9.5t-9 -9.5t-11 -4l32 -19l-35 -64q0 -1 -11 -1q-16 0 -45 1t-53 4q19 -16 48 -21t71 -1v-3q0 -7 -6 -10t-13 -6t-13 -7.5t-6 -13.5q10 0 22.5 3.5l25 7t24.5 5t21 -2.5q-8 -6 -17.5 -10.5t-17.5 -9t-13.5 -10t-5.5 -12.5q1 0 5.5 1t10 2.5t10 3t5.5 1.5
l29 5h6q-12 -16 -29.5 -27t-37.5 -18t-41 -10t-39 -2q10 -6 24 -7t29 0.5t30 3.5t28 2q17 0 30 -11q0 -1 0.5 -1.5t0.5 -1.5q0 -3 -9.5 -9.5t-21 -14t-22 -13t-13.5 -5.5q-2 -1 -6 2.5t-6 3.5h-10q-17 0 -27.5 -8t-27.5 -8q-50 0 -90.5 15t-72 41.5t-54 62.5t-36.5 78h-22
q-19 0 -42 1t-34 1l-11 5q4 6 5.5 8l1.5 2l-0.5 1t1.5 6q-8 10 -16.5 13.5t-12 6t0.5 6t21 13.5l67 7v5q-17 0 -31.5 -2t-25.5 -2t-17.5 5t-7.5 19q4 0 13 0.5t19 1.5t19 2t13 2q3 1 6.5 3.5t3.5 3.5l28 4v27v9h-26h-12q-8 0 -12 1l-11 4q4 6 -1 6.5t-12.5 -0.5t-14 -1.5
t-4.5 4.5q-5 3 -4.5 5.5t1.5 5.5t0 5.5t-8 4.5q17 13 17.5 19.5t-4 12t-10 11t-0.5 16.5q8 0 26 2.5t26 3.5q3 1 6.5 3.5t3.5 3.5h56q12 39 31 75t45.5 64t60.5 45t76 17q13 0 26.5 3t25.5 5t23.5 0.5t20.5 -9.5q6 6 12 6h47q1 0 2 0.5t2 0.5q5 0 8.5 -7t6 -15t3.5 -16t1 -9
l-48 -32l55 -22q-3 0 -11 -3t-16.5 -7t-14.5 -6.5t-5 -1.5l61 -23q2 -20 -2 -27t-14 -7q-13 0 -34.5 7.5t-46.5 7.5q-18 0 -34 -9q-23 0 -39.5 -9t-27.5 -23h78l58 -30q-2 0 -14 -2.5t-27.5 -5.5t-30.5 -6t-24 -4l85 -13l-22 -50q-1 -1 -19 -1q-12 0 -29.5 0.5t-35 1.5
t-32.5 3t-22 5v-19v-29l193 5zM206 128v6q0 4 -1 17.5t-3 28.5t-4.5 28t-5.5 18l0.5 -10.5t1 -22.5t1 -22.5t0.5 -11.5q0 -10 2 -16t9 -15z" />
    <glyph glyph-name="FL20ACh" unicode="&#x20ac;" horiz-adv-x="554" 
d="M528 553h1h-1zM316 452q0 1 0.5 8t0.5 15t0.5 15l0.5 7l-21 -56zM107 381l50 -7q0 1 -6 3.5t-13.5 5.5t-13.5 5.5t-6 3.5zM303 607q11 0 20 3.5t20 3.5v6q-11 0 -24.5 -1t-21.5 -12h6zM392 138v8q0 4 -1.5 4.5t-7.5 9.5l-11 -4l-26 -18l11 -4l11 4h24zM493 303
q-2 0 -5 -4t-7 -9.5t-9 -9.5t-11 -4l32 -19l-35 -64q0 -1 -11 -1q-16 0 -45 1t-53 4q19 -16 48 -21t71 -1v-3q0 -7 -6 -10t-13 -6t-13 -7.5t-6 -13.5q10 0 22.5 3.5l25 7t24.5 5t21 -2.5q-8 -6 -17.5 -10.5t-17.5 -9t-13.5 -10t-5.5 -12.5q1 0 5.5 1t10 2.5t10 3t5.5 1.5
l29 5h6q-12 -16 -29.5 -27t-37.5 -18t-41 -10t-39 -2q10 -6 24 -7t29 0.5t30 3.5t28 2q17 0 30 -11q0 -1 0.5 -1.5t0.5 -1.5q0 -3 -9.5 -9.5t-21 -14t-22 -13t-13.5 -5.5q-2 -1 -6 2.5t-6 3.5h-10q-17 0 -27.5 -8t-27.5 -8q-50 0 -90.5 15t-72 41.5t-54 62.5t-36.5 78h-22
q-19 0 -42 1t-34 1l-11 5q4 6 5.5 8l1.5 2l-0.5 1t1.5 6q-8 10 -16.5 13.5t-12 6t0.5 6t21 13.5l67 7v5q-17 0 -31.5 -2t-25.5 -2t-17.5 5t-7.5 19q4 0 13 0.5t19 1.5t19 2t13 2q3 1 6.5 3.5t3.5 3.5l28 4v27v9h-26h-12q-8 0 -12 1l-11 4q4 6 -1 6.5t-12.5 -0.5t-14 -1.5
t-4.5 4.5q-5 3 -4.5 5.5t1.5 5.5t0 5.5t-8 4.5q17 13 17.5 19.5t-4 12t-10 11t-0.5 16.5q8 0 26 2.5t26 3.5q3 1 6.5 3.5t3.5 3.5h56q12 39 31 75t45.5 64t60.5 45t76 17q13 0 26.5 3t25.5 5t23.5 0.5t20.5 -9.5q6 6 12 6h47q1 0 2 0.5t2 0.5q5 0 8.5 -7t6 -15t3.5 -16t1 -9
l-48 -32l55 -22q-3 0 -11 -3t-16.5 -7t-14.5 -6.5t-5 -1.5l61 -23q2 -20 -2 -27t-14 -7q-13 0 -34.5 7.5t-46.5 7.5q-18 0 -34 -9q-23 0 -39.5 -9t-27.5 -23h78l58 -30q-2 0 -14 -2.5t-27.5 -5.5t-30.5 -6t-24 -4l85 -13l-22 -50q-1 -1 -19 -1q-12 0 -29.5 0.5t-35 1.5
t-32.5 3t-22 5v-19v-29l193 5zM206 128v6q0 4 -1 17.5t-3 28.5t-4.5 28t-5.5 18l0.5 -10.5t1 -22.5t1 -22.5t0.5 -11.5q0 -10 2 -16t9 -15z" />
    <glyph glyph-name="FL017Dh" horiz-adv-x="495" 
d="M208 97l-5 -22q-11 -6 -24 -8.5t-23 -3t-15.5 0t-1.5 0.5q-1 0 6 3t15.5 6t15.5 6l7 3l3 18zM448 595q2 1 3.5 1.5l1.5 0.5v5q-3 -3 -5 -7zM71 28q-7 0 0 -13v13zM79 2q1 1 -2 4.5t-6 8.5q0 -2 0.5 -3.5t0.5 -3.5zM36 67q1 -17 3 -18v-1q0 -2 5 -4.5l11 -5.5t11 -6t5 -4
l3 -1q12 -10 17.5 -18.5t22.5 -8.5h325q7 0 10.5 11t3.5 16q0 2 -0.5 4l-0.5 2h-11q-6 0 -24 0.5t-37.5 2.5t-36 5.5t-19.5 8.5h101v85q2 2 9.5 5l15 6t13.5 6.5t6 8.5l-4 2.5t-8.5 5t-8 4.5l-3.5 2q-2 3 -10 6t-10 4l-175 32l143 250q0 8 -1 11.5t-2.5 4t-2.5 1t-1 2.5
t3 13q1 4 9 1.5t10 0.5l32 49q-4 16 -1 26.5t9 18.5q-6 -2 -17 -3t-18 -1h-5q-4 0 -10.5 2t-9.5 -3l-18 -27q-1 -2 -3 2.5t-4.5 10t-5 10.5t-5.5 5h-7l95 13q2 0 6.5 0.5t6.5 0.5v-3q10 12 20 23t8 33q-4 37 -10 45t-17 5t-28.5 -9t-44.5 2h74q1 6 5.5 10.5t9.5 9t9 9t4 9.5
l-1 3l-20 20l-0.5 1.5t-0.5 2.5l1 3q2 3 6 7h-108q-25 -1 -59.5 -1.5t-72 -1t-74 -1t-66 -1t-47.5 -1t-18 -1.5l-7 -7q4 -8 11.5 -12t16 -6.5t17.5 -4t16 -4.5q-7 -9 -18.5 -16t-22 -14t-18 -16t-7.5 -22q0 -10 1 -18t12 -8q23 0 44.5 3t43.5 3v-6q-11 0 -27.5 -4t-32.5 -11
t-29.5 -15t-18.5 -17q22 -3 48 -3q39 0 82.5 -2.5t91.5 -14.5q1 -5 -8 -24t-22.5 -45t-29.5 -55.5t-29.5 -55.5t-22.5 -45t-8 -24q0 -5 -8.5 -23.5t-19.5 -44t-22 -53.5t-16 -51q-2 -23 -5 -41.5t1 -43.5l2 -4zM241 785q2 2 6 4l7 -3.5t5 -3.5l52 29q2 2 4.5 8t7.5 11
q4 6 7 13.5t5 9.5v2q0 2 -1 3l-0.5 1t-1.5 1l-2 1q5 7 11 16.5t10 14.5l-12 8q-1 -1 -5 -4.5t-8.5 -7.5t-9.5 -7t-8 -3h-2l-1 1l1 1q0 6 4.5 9t4.5 8v2l-5 -2q-17 -7 -31 -18.5t-28 -23.5q-9 3 -14.5 8.5t-10.5 11.5t-10.5 11.5t-13.5 8.5l-5 2v-2l-27 2q2 -2 1 -5
q-11 -28 -7.5 -40t13.5 -19q5 -5 7.5 -11t4.5 -8zM235 806l-29 52l3 3q1 0 6 -5t7 -8l1 -3q2 -2 1.5 -8t1.5 -10l5 -7q2 -3 3 -6t3 -6zM289 814l5 7q0 1 0.5 1.5l0.5 0.5q0 1 -2 1t-2 1v1l1 3q2 3 7 8t6 5l3 -3z" />
    <glyph glyph-name="FL017Dh" unicode="&#x17d;" horiz-adv-x="495" 
d="M208 97l-5 -22q-11 -6 -24 -8.5t-23 -3t-15.5 0t-1.5 0.5q-1 0 6 3t15.5 6t15.5 6l7 3l3 18zM448 595q2 1 3.5 1.5l1.5 0.5v5q-3 -3 -5 -7zM71 28q-7 0 0 -13v13zM79 2q1 1 -2 4.5t-6 8.5q0 -2 0.5 -3.5t0.5 -3.5zM36 67q1 -17 3 -18v-1q0 -2 5 -4.5l11 -5.5t11 -6t5 -4
l3 -1q12 -10 17.5 -18.5t22.5 -8.5h325q7 0 10.5 11t3.5 16q0 2 -0.5 4l-0.5 2h-11q-6 0 -24 0.5t-37.5 2.5t-36 5.5t-19.5 8.5h101v85q2 2 9.5 5l15 6t13.5 6.5t6 8.5l-4 2.5t-8.5 5t-8 4.5l-3.5 2q-2 3 -10 6t-10 4l-175 32l143 250q0 8 -1 11.5t-2.5 4t-2.5 1t-1 2.5
t3 13q1 4 9 1.5t10 0.5l32 49q-4 16 -1 26.5t9 18.5q-6 -2 -17 -3t-18 -1h-5q-4 0 -10.5 2t-9.5 -3l-18 -27q-1 -2 -3 2.5t-4.5 10t-5 10.5t-5.5 5h-7l95 13q2 0 6.5 0.5t6.5 0.5v-3q10 12 20 23t8 33q-4 37 -10 45t-17 5t-28.5 -9t-44.5 2h74q1 6 5.5 10.5t9.5 9t9 9t4 9.5
l-1 3l-20 20l-0.5 1.5t-0.5 2.5l1 3q2 3 6 7h-108q-25 -1 -59.5 -1.5t-72 -1t-74 -1t-66 -1t-47.5 -1t-18 -1.5l-7 -7q4 -8 11.5 -12t16 -6.5t17.5 -4t16 -4.5q-7 -9 -18.5 -16t-22 -14t-18 -16t-7.5 -22q0 -10 1 -18t12 -8q23 0 44.5 3t43.5 3v-6q-11 0 -27.5 -4t-32.5 -11
t-29.5 -15t-18.5 -17q22 -3 48 -3q39 0 82.5 -2.5t91.5 -14.5q1 -5 -8 -24t-22.5 -45t-29.5 -55.5t-29.5 -55.5t-22.5 -45t-8 -24q0 -5 -8.5 -23.5t-19.5 -44t-22 -53.5t-16 -51q-2 -23 -5 -41.5t1 -43.5l2 -4zM241 785q2 2 6 4l7 -3.5t5 -3.5l52 29q2 2 4.5 8t7.5 11
q4 6 7 13.5t5 9.5v2q0 2 -1 3l-0.5 1t-1.5 1l-2 1q5 7 11 16.5t10 14.5l-12 8q-1 -1 -5 -4.5t-8.5 -7.5t-9.5 -7t-8 -3h-2l-1 1l1 1q0 6 4.5 9t4.5 8v2l-5 -2q-17 -7 -31 -18.5t-28 -23.5q-9 3 -14.5 8.5t-10.5 11.5t-10.5 11.5t-13.5 8.5l-5 2v-2l-27 2q2 -2 1 -5
q-11 -28 -7.5 -40t13.5 -19q5 -5 7.5 -11t4.5 -8zM235 806l-29 52l3 3q1 0 6 -5t7 -8l1 -3q2 -2 1.5 -8t1.5 -10l5 -7q2 -3 3 -6t3 -6zM289 814l5 7q0 1 0.5 1.5l0.5 0.5q0 1 -2 1t-2 1v1l1 3q2 3 7 8t6 5l3 -3z" />
    <glyph glyph-name="FL017Eh" horiz-adv-x="421" 
d="M177 82l-4 -18q-11 -5 -21.5 -7t-19 -3t-12.5 -0.5t-2 0.5q-1 0 5 2.5t13.5 5.5t13.5 5.5l6 2.5l2 15zM381 506q1 1 3 1h1v5q-2 -2 -2.5 -3.5t-1.5 -2.5zM60 24q-6 0 0 -11v11zM67 2l-1.5 3t-5.5 8q0 -2 0.5 -3t0.5 -3zM31 57q0 -15 2 -15v-1q0 -2 4 -4t9.5 -4.5t9.5 -5
t4 -3.5l3 -1q10 -6 14 -14.5t20 -8.5h276q6 0 9 9t3 14q0 2 -0.5 3.5l-0.5 1.5h-9q-6 0 -21 0.5t-31.5 2t-30.5 4t-17 7.5h86v73q2 2 8 4t13 5t12 6t5 7l-5.5 3t-10 6t-5.5 3q-2 2 -8.5 4.5t-8.5 3.5l-149 27l122 213q0 10 -1.5 12t-3.5 2q-1 0 -1 2t3 11q0 3 7 1t9 1l27 41
q-3 14 -0.5 22.5t7.5 16.5q-5 -2 -14.5 -3t-15.5 -1h-4q-3 0 -9 2t-8 -3l-16 -22q0 -2 -1.5 1.5t-4 8.5t-5 9t-4.5 4h-6l81 11q2 0 5.5 0.5t5.5 0.5v-2q8 10 17 19.5t7 27.5q-4 31 -9.5 38.5t-14.5 5t-23.5 -8t-37.5 1.5h63q1 5 5 9t8 7.5t7.5 7t3.5 8.5l-1 3l-17 17l-0.5 1
t-0.5 2l1 3q2 5 5 6h-92q-26 -1 -64.5 -2t-78.5 -1.5t-75 -1t-53 -0.5q-15 0 -15 -1l-6 -6q3 -7 9 -10.5t13.5 -5l15 -3t13.5 -4.5q-6 -8 -15.5 -14t-18.5 -12t-15.5 -13.5t-6.5 -18.5q0 -8 1 -15t10 -7q20 0 38.5 2.5t36.5 2.5v-5q-9 0 -23 -3.5t-28 -9.5t-25.5 -13
t-15.5 -14q19 -3 41 -3q33 0 70.5 -2t77.5 -12q1 -5 -6.5 -21t-19 -38t-25.5 -47t-25.5 -47t-19 -38.5t-6.5 -20.5q0 -4 -7 -20t-16.5 -37.5t-19 -45.5t-13.5 -43q-2 -20 -4.5 -35.5t1.5 -36.5l1 -4zM202 695q2 2 6 4l7 -3.5t5 -3.5l52 29q2 2 4.5 8t7.5 11q4 6 7 13.5
t5 9.5v2q0 2 -1 3l-0.5 1t-1.5 1l-2 1q5 7 11 16.5t10 14.5l-12 8q-1 -1 -5 -4.5t-8.5 -7.5t-9.5 -7t-8 -3h-2l-1 1l1 1q0 6 4.5 9t4.5 8v2l-5 -2q-17 -7 -31 -18.5t-28 -23.5q-9 3 -14.5 8.5t-10.5 11.5t-10.5 11.5t-13.5 8.5l-5 2v-2l-27 2q2 -2 1 -5q-11 -28 -7.5 -40
t13.5 -19q5 -5 7.5 -11t4.5 -8zM196 716l-29 52l3 3q1 0 6 -5t7 -8l1 -3q2 -2 1.5 -8t1.5 -10l5 -7q2 -3 3 -6t3 -6zM250 724l5 7q0 1 0.5 1.5l0.5 0.5q0 1 -2 1t-2 1v1l1 3q2 3 7 8t6 5l3 -3z" />
    <glyph glyph-name="FL017Eh" unicode="&#x17e;" horiz-adv-x="421" 
d="M177 82l-4 -18q-11 -5 -21.5 -7t-19 -3t-12.5 -0.5t-2 0.5q-1 0 5 2.5t13.5 5.5t13.5 5.5l6 2.5l2 15zM381 506q1 1 3 1h1v5q-2 -2 -2.5 -3.5t-1.5 -2.5zM60 24q-6 0 0 -11v11zM67 2l-1.5 3t-5.5 8q0 -2 0.5 -3t0.5 -3zM31 57q0 -15 2 -15v-1q0 -2 4 -4t9.5 -4.5t9.5 -5
t4 -3.5l3 -1q10 -6 14 -14.5t20 -8.5h276q6 0 9 9t3 14q0 2 -0.5 3.5l-0.5 1.5h-9q-6 0 -21 0.5t-31.5 2t-30.5 4t-17 7.5h86v73q2 2 8 4t13 5t12 6t5 7l-5.5 3t-10 6t-5.5 3q-2 2 -8.5 4.5t-8.5 3.5l-149 27l122 213q0 10 -1.5 12t-3.5 2q-1 0 -1 2t3 11q0 3 7 1t9 1l27 41
q-3 14 -0.5 22.5t7.5 16.5q-5 -2 -14.5 -3t-15.5 -1h-4q-3 0 -9 2t-8 -3l-16 -22q0 -2 -1.5 1.5t-4 8.5t-5 9t-4.5 4h-6l81 11q2 0 5.5 0.5t5.5 0.5v-2q8 10 17 19.5t7 27.5q-4 31 -9.5 38.5t-14.5 5t-23.5 -8t-37.5 1.5h63q1 5 5 9t8 7.5t7.5 7t3.5 8.5l-1 3l-17 17l-0.5 1
t-0.5 2l1 3q2 5 5 6h-92q-26 -1 -64.5 -2t-78.5 -1.5t-75 -1t-53 -0.5q-15 0 -15 -1l-6 -6q3 -7 9 -10.5t13.5 -5l15 -3t13.5 -4.5q-6 -8 -15.5 -14t-18.5 -12t-15.5 -13.5t-6.5 -18.5q0 -8 1 -15t10 -7q20 0 38.5 2.5t36.5 2.5v-5q-9 0 -23 -3.5t-28 -9.5t-25.5 -13
t-15.5 -14q19 -3 41 -3q33 0 70.5 -2t77.5 -12q1 -5 -6.5 -21t-19 -38t-25.5 -47t-25.5 -47t-19 -38.5t-6.5 -20.5q0 -4 -7 -20t-16.5 -37.5t-19 -45.5t-13.5 -43q-2 -20 -4.5 -35.5t1.5 -36.5l1 -4zM202 695q2 2 6 4l7 -3.5t5 -3.5l52 29q2 2 4.5 8t7.5 11q4 6 7 13.5
t5 9.5v2q0 2 -1 3l-0.5 1t-1.5 1l-2 1q5 7 11 16.5t10 14.5l-12 8q-1 -1 -5 -4.5t-8.5 -7.5t-9.5 -7t-8 -3h-2l-1 1l1 1q0 6 4.5 9t4.5 8v2l-5 -2q-17 -7 -31 -18.5t-28 -23.5q-9 3 -14.5 8.5t-10.5 11.5t-10.5 11.5t-13.5 8.5l-5 2v-2l-27 2q2 -2 1 -5q-11 -28 -7.5 -40
t13.5 -19q5 -5 7.5 -11t4.5 -8zM196 716l-29 52l3 3q1 0 6 -5t7 -8l1 -3q2 -2 1.5 -8t1.5 -10l5 -7q2 -3 3 -6t3 -6zM250 724l5 7q0 1 0.5 1.5l0.5 0.5q0 1 -2 1t-2 1v1l1 3q2 3 7 8t6 5l3 -3z" />
    <glyph glyph-name="FL00A1h" unicode="&#xa1;" horiz-adv-x="266" 
d="M179 88q0 4 1.5 16.5t1.5 16.5q-1 2 -0.5 14.5t2 29.5t3.5 36.5t4 35.5t3 26t1 8v-174zM72 278q-2 0 -3.5 9t-3 19.5t-2.5 20t-1 11.5q0 5 3 3t3 -4l1 -9t2 -20.5t1.5 -20.5t-0.5 -9zM72 229q6 0 10 -6t3 -11q0 -3 -1 -9.5t-2.5 -13.5t-3 -13.5t-2.5 -9.5q0 -7 -7 -7z
M138 560q-3 0 -7.5 -0.5l-4.5 -0.5q-5 -3 -10.5 -15.5t-5.5 -16.5l-19 1q0 -2 -1 -10.5t-1 -10.5q-5 -40 -9 -64t-7.5 -40t-6 -28.5t-5.5 -29t-6.5 -40.5t-7.5 -64q0 -4 -2.5 -23.5t-6 -43.5t-7 -46.5t-4.5 -33.5q-3 -17 -9.5 -30t-6.5 -27q-1 -11 8.5 -21t20.5 -11
q3 0 14 0.5t23 2t22.5 3t12.5 4.5l-1 5t-1 11q1 6 2.5 11.5t6.5 6.5q5 -22 14 -35t36 -14h2q3 -1 11 1.5t10 4.5q2 -2 11.5 -4.5t20.5 -3.5t20 1t9 9v15q0 100 -11 194t-19 193q0 6 0.5 6.5l0.5 0.5q1 0 1 1q0 4 -1 7q-2 11 -9.5 38t-9.5 53q0 1 -3.5 9.5t-2.5 10.5z
M217 630l-4 68q0 5 -0.5 15.5t-0.5 22.5q0 6 -2 12.5t-5.5 11t-9 5.5t-11.5 -4q-5 0 -6 6q-6 9 -17 11.5t-22.5 1.5t-21.5 -3t-14 -2q-27 0 -37 -10t-12 -30.5t0 -50.5t0 -69q27 -10 64 -10h58h15q10 0 18 4.5t8 17.5v3zM110 658v7q0 5 -0.5 10.5t-0.5 10.5v6v9q0 6 0.5 11
t0.5 10v5q0 7 2 18t4 11h5v-6l-5 -86zM150 635q-5 0 -5 5q0 1 0.5 7.5t1.5 14t2 13t3 5.5q1 0 1.5 -11.5t0.5 -19.5v-9q0 -5 -4 -5z" />
    <glyph glyph-name="FL00A2h" unicode="&#xa2;" horiz-adv-x="446" 
d="M312 -85l2 91q13 5 20 5h10q2 0 6 -3.5t6 -2.5q3 0 13.5 5.5t22 13t21 14t9.5 9.5q0 1 -0.5 1.5t-0.5 1.5q-9 8 -21.5 9.5t-26.5 0t-29 -4t-29 -2.5v10q32 4 63 17.5t49 38.5h-6l-29 -5q-1 0 -5.5 -1.5t-10 -3t-10 -2.5t-5.5 -1q0 7 5.5 12.5t13.5 10t17.5 9t17.5 10.5
q-9 0 -28.5 -6t-41.5 -12t-41.5 -8.5t-29.5 5.5q8 5 22.5 10.5t28.5 10.5t24.5 11t10.5 13v3q-6 -1 -12 -1.5t-11 -0.5h-20l7 318q5 1 8 1.5t5 0.5q25 0 46.5 -7.5t34.5 -7.5q10 0 14 7t2 27l-61 23q-1 -1 5.5 2t15 6.5t16.5 6.5t10 3l-55 22l48 32q0 1 -1 9t-3.5 16t-6 15
t-8.5 7q-1 0 -2 -0.5t-2 -0.5h-47q-6 0 -12 -6q-1 1 -2 1.5t-2 1.5l-7 45l6 16l-4 8l18 18l7 14l-19 1l-15 -1l-27 -16l-8 17l-14 1l-10 -4l2 -99q-5 -1 -10.5 -1.5t-10.5 -0.5q-59 0 -102 -31.5t-71.5 -78.5t-42.5 -102.5t-14 -104.5q0 -62 16.5 -121.5t49.5 -106t82.5 -76
t116.5 -31.5l2 -104zM201 331q0 19 3 40t9.5 40.5t17.5 35.5t28 26l7 -290q-36 14 -50.5 49.5t-14.5 98.5zM178 383q0 18 7 40.5t22 34.5q0 -1 0.5 -2.5t0.5 -3.5q0 -18 -9.5 -41t-20.5 -39v11zM51 217q-7 9 -9 15t-2 16q0 1 -0.5 11.5t-1 22.5t-1 22.5l-0.5 10.5
q3 -5 5.5 -18t4.5 -28t3 -28.5t1 -17.5v-6zM189 607q8 11 21.5 12t24.5 1v-6q-11 0 -20 -3.5t-20 -3.5h-6zM421 553h-1h1z" />
    <glyph glyph-name="FL00A3h" unicode="&#xa3;" horiz-adv-x="490" 
d="M143 516q0 -9 -0.5 -21t0 -24t3 -23t9.5 -18v6q0 5 0.5 8.5t0.5 8.5v14q0 5 -0.5 8.5t-0.5 8.5v3q0 6 -0.5 16t-1.5 19t-2 16t-2 7l-5 6v-7q0 -5 -0.5 -10.5t-0.5 -10.5v-7zM262 654q16 0 18.5 1t6 2.5t16 2.5t49.5 1h13q14 -2 22 -4.5t8 -17.5q0 -10 -7.5 -14.5
t-16.5 -7.5t-16.5 -6t-7.5 -10q0 -1 0.5 -1.5t0.5 -1.5q3 -1 8.5 -2t11.5 -2.5t10.5 -4.5t4.5 -8q0 -14 -3 -20.5t-8.5 -9.5t-12.5 -4t-16 -2v-5q12 -2 17 -5t8 -7.5t7 -10t14 -11.5q-15 -11 -20 -13t-8.5 -1.5t-10 2t-24.5 -1.5q-2 -3 -2.5 -9t-1 -13.5t-0.5 -14.5v-11v-49
l37 -7l32 -3q0 -1 1.5 -4.5t3.5 -4.5l17.5 -3.5t17.5 -2.5v-1q0 -15 -6 -22t-14 -9.5t-18 -3t-17 -3.5l26 -3q0 -9 2.5 -14t7 -8.5t9.5 -6.5t10 -9q-8 -5 -19 -7t-16 -10q1 -6 6.5 -6.5t12 0t13 -1t9.5 -9.5l-6 -6q-9 -1 -25 -0.5t-35 0.5q-18 0 -36 -0.5t-31 -3.5
q-2 -3 -0.5 -14t1.5 -14q0 -7 0.5 -17.5t1 -20t1.5 -16.5t2 -7h144q2 0 8.5 -3t8.5 -5l0.5 -0.5t0.5 -1.5q0 -8 -6.5 -17.5t-11.5 -14.5v-73h-34q5 -9 21 -11.5t27 -2.5h9l0.5 -1.5t0.5 -3.5q0 -5 -3 -14t-9 -9h-248q-11 0 -15.5 4.5t-8.5 9.5q-5 3 -6 6l-2 2q-3 -2 -8 -5.5
t-12 -8.5q-2 -3 -3.5 -5.5l-1.5 -2.5l-4 3q-5 -3 -8.5 -5t-3.5 -1q-27 7 -48.5 5.5t-41.5 0.5l-6 6q3 8 3.5 10l0.5 2v2q0 5 1 8q-5 8 -16 10t-19 7q5 6 10.5 8t10 4.5t7.5 6.5t3 13l49 8q-8 3 -21 3q-9 0 -19 0.5t-18.5 3.5t-14 9t-5.5 17v1q5 0 17.5 2.5l17.5 3.5
q2 1 3.5 4.5t1.5 4.5h68l6 8h12l-5 103q-9 -4 -9 -3q-27 7 -48.5 5.5t-41.5 0.5l-6 6q3 8 3.5 10l0.5 2v2q0 5 1 8q-5 8 -16 10t-19 7l19 45v44h91l6 8h11q-2 53 -3.5 104.5t-3.5 104.5q25 26 56.5 41.5t78.5 10.5zM178 51l6 -5l6 5v69l-6 6q-5 -15 -5.5 -28t-0.5 -28v-19z
" />
    <glyph glyph-name="FL00A4h" unicode="&#xa4;" horiz-adv-x="487" 
d="M3 627l94 -214q-18 -50 -18 -105q0 -45 21 -87q-21 -37 -39 -78.5t-12 -83.5q1 -8 4 -20.5t5 -21t2 -9.5l29 -6q0 2 2 8.5t4 8.5l1 0.5t2 0.5q4 0 10 -8t9.5 -14.5t4.5 -7.5v26l2.5 2.5t4.5 0.5l17 -17h6q2 2 3.5 5.5t2.5 5.5l53 98h1q4 0 4 4q0 2 -2 2l5 9v-2
q0 -2 0.5 -3t0.5 -3q20 5 37 5.5t33 7.5l41 -42q0 -2 3.5 -4t7.5 -4.5t7.5 -6.5t3.5 -10t4 -14t9.5 -15t9.5 -13t4 -8q2 -2 3.5 -3t2.5 -2l2 -1l11 -34q1 1 2.5 9t2.5 17t2.5 17t2.5 9q4 0 6 -6q1 -2 3 -13t2 -16h12q0 5 2 7t12 2t17 -4t15 -10q-3 16 -3 25v29
q0 5 -0.5 10.5t-1.5 13.5q-2 54 -22.5 106.5t-49.5 101.5q8 40 8 75q0 48 -23 103q7 12 12 20.5t10 13.5q3 3 11 13.5t17 22.5t16.5 23t9.5 15q0 2 0.5 4.5t0.5 4.5q0 12 -5.5 25.5t-14.5 25t-21 19t-25 7.5h-3q0 -6 -3 -17t-8 -21t-12 -17.5t-15 -7.5h-3q9 15 13.5 25
t4.5 25q0 12 -5 13t-16 1q-8 0 -16 2t-14.5 3.5t-12.5 0.5t-10 -7q-4 -8 -15.5 -31.5t-22.5 -49.5q-5 1 -10 1.5t-10 1.5l-40 87q-2 0 -3 -0.5t-3 -0.5l-52 -6h-6q-10 0 -15.5 6t-14.5 6t-15 -3t-14 -3q-6 0 -10.5 3t-10.5 3q-2 0 -4 -0.5l-2 -0.5q-2 -2 -11 -10t-12 -13
q-5 6 -11 6h-2q-8 0 -10 -4t0 -9zM156 512l-5 5q0 3 -0.5 11.5t-1.5 18t-2 17.5t-2 11q0 2 -3 11.5t-3 11.5q0 5 4.5 5.5t7.5 0.5q4 0 4 -5q0 -2 0.5 -5t0.5 -5v-6q0 -5 0.5 -8.5t0.5 -8.5v-6q0 -16 2 -24.5t-3 -23.5zM100 48v57l19 30l-13 -87h-6zM377 157l3 -6
q2 -5 5 -9.5t6 -9.5l6 -13q3 -5 5 -10t4 -8l3 -5q2 -6 5.5 -17t1.5 -11l-4 -3l-3 5l-34 79zM99 279v10q5 -10 6 -19.5t1 -20.5v-6q-5 8 -6 18t-1 18zM380 439q2 -11 3.5 -25t0.5 -14t-3.5 9.5t-5.5 20.5q2 2 2.5 4.5t2.5 4.5zM301 441l20 -41q0 -1 -3 -4l-6.5 -6.5
l-6.5 -6.5t-3 -4l-5 -5l-1 2q2 5 4 9.5t4 9.5zM242 135q-5 -2 -11.5 -2.5t-9.5 -3.5l3 6h18zM207 321q0 28 10 51.5t22 43.5l1 3l1 0.5t2 0.5l2 -1q16 -15 21 -39.5t5 -48.5v-4q0 -5 -1 -8t-1 -8v-4q-2 -27 -14 -45q-4 -5 -9.5 -9.5l-5.5 -4.5l-1 -16q0 1 -3 7t-6.5 14.5
t-4.5 11.5q-7 14 -12.5 26.5t-5.5 29.5z" />
    <glyph glyph-name="FL00A5h" unicode="&#xa5;" horiz-adv-x="507" 
d="M431 201l-121 -4l4 38q17 -3 37 -3.5t30 -0.5q8 0 8 1l17 46l-49 6q7 1 16.5 5t18 8t15 7t7.5 3l-44 29h-39q-2 15 -3.5 27.5t2.5 8.5l18 -25l140 280q2 5 0 9t-9 4h-3q-7 0 -11 -6q-2 5 -11.5 13t-11.5 10l-2 0.5t-4 0.5q-6 0 -10.5 -3t-9.5 -3q-8 0 -14.5 3t-14.5 3
q-10 0 -15.5 -6t-15.5 -6h-6l-52 6q-2 0 -4 1.5t-2 -0.5l-49 -192q-5 13 -12 41.5t-14.5 58.5l-13.5 54t-9 29q-5 6 -10.5 7t-12.5 -0.5t-14.5 -3.5t-15.5 -2q-11 0 -16 -1t-5 -13q0 -11 -4.5 -13.5t-4.5 -8.5q0 -1 5 -9q-1 0 -2 -0.5t-2 -0.5q-7 0 -10 4.5t-4 11.5t-0.5 15
t0.5 14h-4q-13 0 -28.5 3t-29 4t-22.5 -1.5t-9 -14.5q0 -1 3.5 -13t8 -26t8.5 -25.5t4 -12.5q3 -4 8.5 -14.5t11 -22t11 -22t8.5 -14.5q5 -5 10 -18t11 -29.5t13 -34t16 -32.5l19 -40h-31q0 -1 -2.5 -3.5t-4.5 -3.5q-3 0 -10 -1t-14.5 -1.5t-14.5 -1.5t-10 -1q0 -11 5.5 -16
t9.5 -9.5t1.5 -10.5t-18.5 -18q11 -4 11.5 -9.5t5.5 -10.5q-1 -3 2 -4t7 -0.5t8.5 1t6.5 0.5q4 0 0 -6l9 -4q5 -1 14 -1h15h32l2 -28l-47 -9q0 -5 -7 -6q-3 0 -10 -1t-14.5 -1.5t-14.5 -1.5t-10 -1q0 -11 -2.5 -15.5t-3.5 -5.5t2 -0.5t14 -0.5l31 -9q0 -7 -4 -10t-10.5 -4.5
t-14 -3t-14.5 -5.5q11 -4 25.5 -5.5t22.5 -7.5q-2 -5 -1.5 -6l0.5 -1l-1 -1.5t-4 -7.5l8 -4q15 -1 31 -0.5t33 -0.5l8 -107q11 2 23.5 9.5t20.5 7.5q10 0 16 -6.5t16 -6.5q16 0 26.5 16.5t12.5 30.5l7 63q11 -3 31 -5t35 -2h20q12 0 12 1l26 59l-24 17q4 0 8 4t7 8.5t5 8.5
t4 4zM340 517l-5 -5q-5 15 -3 23.5t2 24.5v6q0 5 0.5 8.5t0.5 8.5v6l2 10q0 5 3 5t7.5 -0.5t4.5 -5.5q0 -2 -3 -11.5t-3 -11.5q-1 -3 -2 -11t-2 -17.5t-1.5 -18t-0.5 -11.5zM364 128h-18l-8 -4l-9 4l21 33l8 3q6 -11 6 -18v-18zM160 424q11 -5 19 -18t12.5 -26.5t6.5 -23.5
t2 -9l-5.5 10.5t-12 23t-11.5 23t-5 9.5q-5 -2 -6 -8q-5 15 -5 14q0 5 5 5zM156 274h-16l-9 -4l13 15v18l6 2l4 -7zM203 229l4 -6v-4q0 -2 0.5 -7t1.5 -12l-11 2q-4 13 -4 28q8 0 9 -1zM212 91q4 0 4 -6q0 -4 -4 -5q0 -1 -0.5 -0.5t-0.5 1.5v4q0 3 0.5 5t0.5 1z" />
    <glyph glyph-name="FL00A6h" unicode="&#xa6;" horiz-adv-x="216" 
d="M113 -110q11 0 16 -9.5t0 -19.5q8 3 16 9.5t8 17.5l-1 1q-1 2 -5 4t-6 2l-6 6q0 2 3 9.5l3 7.5q1 11 4.5 32t7 43t7 40t4.5 23q0 3 0.5 29t1.5 62.5t1.5 79t1.5 79t1.5 62t0.5 28.5q5 42 11.5 87.5t12.5 92t10.5 92.5t4.5 88v29q0 4 -5 6h-3h-3q-2 -1 -7.5 -3.5t-12 -5.5
t-12.5 -5.5t-8 -3.5q-2 2 -8.5 4t-8.5 2h-2q-23 0 -31 -10.5t-13 -29.5q-5 1 -6 6t-1 10t1 9l1 4q-2 2 -10.5 4t-19 3.5t-19.5 2.5t-12 1q-9 0 -17.5 -7.5t-8.5 -17.5q0 -12 5 -23.5t7 -26.5q1 -9 3 -33.5t3.5 -51t3 -48.5t1.5 -25q1 -26 2 -60t2 -74.5t1 -84.5v-89
q0 -91 2.5 -174t8.5 -134q0 -2 0.5 -9t0.5 -9h16q0 -3 4.5 -14t7.5 -14h10q10 0 15.5 3t15.5 3zM83 56q6 0 6 -6q2 -5 4 -20t2 -20q0 -13 -12 -13v59zM47 513q1 0 0.5 -7.5t-2 -17.5t-3 -17.5l-1.5 -7.5q0 -2 -2.5 -3.5t-2.5 3.5q0 1 1.5 9t3.5 17t3.5 16.5t2.5 7.5zM71 682
l14 -41l4 -150l-2.5 20l-5.5 44t-5.5 44.5l-2.5 20.5q0 2 -0.5 11t-0.5 20t-0.5 20t-0.5 11z" />
    <glyph glyph-name="FL00A7h" unicode="&#xa7;" horiz-adv-x="498" 
d="M483 627l-94 -214q18 -50 18 -105q0 -45 -21 -87q-22 -64 -82 -92l-37 -5h-14q-6 0 -15.5 0.5t-18.5 1t-15.5 2t-7.5 3.5l-41 -42q0 -2 -3.5 -4t-7.5 -4.5t-7.5 -6.5t-3.5 -10t-4 -14t-9.5 -15t-9.5 -13t-4 -8q-2 -2 -3.5 -3t-2.5 -2l-2 -1l-11 -34q-1 1 -2.5 9t-2.5 17
t-2.5 17t-2.5 9q-5 0 -6 -6q-1 -2 -3 -13t-2 -16h-12q0 5 -2 7t-12 2t-17 -4t-15 -10q3 16 3 25v29q0 5 0.5 10.5t1.5 13.5q2 54 22.5 106.5t49.5 101.5q-8 40 -8 75q0 48 23 103q6 40 20.5 55t32 19t35.5 4.5t31 11.5q5 1 10 1.5t10 1.5l48 110q2 0 3 -0.5t3 -0.5l52 -6h6
q10 0 15.5 6t14.5 6t15 -3t14 -3q6 0 10.5 3t10.5 3q2 0 4 -0.5l2 -0.5q2 -2 11 -10t12 -13q4 6 11 6h2q11 0 11 -9zM330 512l5 5q0 3 0.5 11.5t1.5 18t2 17.5t2 11q0 2 3 11.5t3 11.5q0 5 -4.5 5.5t-7.5 0.5q-4 0 -4 -5q0 -2 -0.5 -5t-0.5 -5v-6q0 -5 -0.5 -8.5t-0.5 -8.5
v-6q0 -16 -2 -24.5t3 -23.5zM109 157l-3 -6q-2 -5 -5 -9.5t-6 -9.5l-6 -13q-3 -5 -5 -10t-4 -8l-3 -5q-2 -6 -5.5 -17t-1.5 -11l4 -3l3 5l34 79zM387 279v10q-5 -10 -6 -19.5t-1 -20.5v-6q5 8 6 18t1 18zM106 439q-2 -11 -3.5 -25t-0.5 -14t3.5 9.5t5.5 20.5q-2 2 -2.5 4.5
t-2.5 4.5zM185 441l-20 -41q0 -1 3 -4l6.5 -6.5l6.5 -6.5t3 -4l5 -5l1 2q-2 5 -4 9.5t-4 9.5zM244 135q5 -2 11.5 -2.5t9.5 -3.5l-3 6h-18zM279 321q0 28 -10 51.5t-22 43.5l-1 3l-1 0.5t-2 0.5l-2 -1q-16 -15 -21 -39.5t-5 -48.5v-4q0 -5 1 -8t1 -8v-4q2 -27 14 -45
q4 -5 9.5 -9.5l5.5 -4.5l1 -16q0 1 3 7t6.5 14.5t4.5 11.5q7 14 12.5 26.5t5.5 29.5z" />
    <glyph glyph-name="FL00A8h" unicode="&#xa8;" horiz-adv-x="292" 
d="M14 677l10 -22h97q4 0 4.5 4t0.5 8q0 5 -7 8.5t-11 7.5l9 5l4 26q1 5 -4 9.5t-11.5 7.5t-13 5t-7.5 2v4q5 0 9 -2t7 -2q9 0 9 11q0 1 3.5 6l3.5 5l-1.5 3.5t-3.5 3.5h-9l-14 2q-15 2 -30 5t-35 0l-17 -27l9.5 -5t9.5 -10q0 -14 -9 -17.5t-9 -1.5zM33 692q3 0 3 -4v-9
q0 -6 -2 -6q-1 0 -3 6.5t-2 8.5q0 4 4 4zM168 690l-1 -29l113 -6q4 0 4.5 4t0.5 8q0 5 -3.5 6.5t-7.5 5.5l2 9l4 26q-17 12 -20 18t0 6q9 0 9 11q0 1 3.5 6l3.5 5l-1.5 3.5t-3.5 3.5h-9l-33 7q-3 1 -8 1h-5q-7 0 -13.5 -2.5t-21.5 -4.5l-15 -21v-11q0 -7 0.5 -15t0.5 -16
q0 -7 0.5 -11.5t0.5 -3.5zM212 729q3 0 3 -4v-9q0 -6 -2 -6q-1 0 -3 6.5t-2 8.5q0 4 4 4z" />
    <glyph glyph-name="copyright" unicode="&#xa9;" horiz-adv-x="226" 
d="M113 788q26 0 48 -13q27 -14 38 -37q14 -23 14 -50q0 -23 -14 -49q-6 -13 -15 -21t-22 -16q-23 -9 -35.5 -11t-13.5 -2q-25 0 -50 13q-11 8 -20 16t-17 21q-13 22 -13 49q0 14 3.5 25.5t9.5 24.5q7 11 16 20.5t22 16.5q25 13 49 13zM113 772q-21 0 -41 -10.5t-31 -31.5
q-11 -20 -11 -42q0 -20 11 -40q12 -18 30 -31l6 -2q31 -9 36 -9q21 0 41 11q18 9 31 31q11 20 11 40q0 22 -11 42t-32 31q-20 11 -40 11zM145 673l16 -5q-10 -37 -48 -37q-24 0 -38 15t-14 42q0 28 14 42.5t39 14.5q34 0 45 -32l-16 -3q-9 20 -29 20q-35 0 -35 -42
q0 -40 33 -40q27 0 33 25z" />
    <glyph glyph-name="FL00AAh" unicode="&#xaa;" horiz-adv-x="273" 
d="M31 489q0 -5 2 -16.5t4 -16.5q0 -2 1 -4.5t2 -4.5q1 2 2 4.5t1 4.5q0 1 1 7t1.5 12.5t1.5 12.5t1 8q2 5 4 12.5l2 7.5h2q0 -2 1 -6t0 -5q0 -2 -1.5 -7.5t-1.5 -7.5q0 -1 1 -3.5t2 -4.5l12 -23q6 4 9 15.5t5 23.5t4.5 21t9.5 9h61l8 -41q3 -1 8.5 -5t11 -8.5t9.5 -8
t5 -1.5l6 12v46q5 -9 6.5 -15.5t3 -12t5.5 -10.5t14 -11q2 -2 6 -4.5t5 -4.5q0 1 0.5 1.5t0.5 1.5q0 8 -6 10t-6 7q0 7 4 7q1 0 1.5 -0.5l0.5 -0.5q2 -1 5.5 -2.5t5.5 -3.5q3 1 3 4v6v5l-20 74v29l-32 175q-1 7 -6 15t-14 8q-5 0 -8.5 -3t-8.5 -3t-6 1.5t-7 1.5q-5 0 -15 -1
t-15 -2q-8 -2 -16.5 -11t-10.5 -9h-2q0 2 -1 11.5t-7 9.5q-1 0 -2 -0.5l-1 -0.5q-1 -2 -3.5 -8t-4.5 -13t-4 -13t-2 -9q-2 -9 -7.5 -30.5t-11.5 -45.5t-11.5 -45.5t-7.5 -30.5q-1 -26 -9 -50t-8 -50v-9l11 5l0.5 0.5t1.5 0.5l1 -1q1 -1 1.5 -2.5t1.5 -3.5zM101 593
q4 26 11.5 52t16.5 49l3 -3l20 -92v-6q-13 -2 -21 -2.5t-20 -0.5h-5t-5 3zM189 760h2q3 0 5 -8.5t3.5 -19.5t2.5 -20.5t1 -11.5t-3 -3l-0.5 -1t-0.5 1q-1 3 -2 11.5t-2.5 18l-3 19t-2.5 14.5zM45 583v-3v-11v-3v-4v-11v-2q0 -4 -1 -9.5t-2 -5.5h-3v3l3 43z" />
    <glyph glyph-name="FL00ABh" unicode="&#xab;" horiz-adv-x="266" 
d="M22 375q2 -2 4 -6l-3.5 -7t-3.5 -5l29 -52q2 -2 8 -4.5t11 -7.5q6 -4 13.5 -7t9.5 -5h2q2 0 3 1l1 0.5t1 1.5l1 2q7 -5 16.5 -11t14.5 -10l8 12q-1 1 -4.5 5t-7.5 8.5t-7 9.5t-3 8v2l1 1l1 -1q6 0 9 -4.5t8 -4.5h2l-2 5q-7 17 -18.5 31t-23.5 28q3 9 8.5 14.5t11.5 10.5
t11.5 10.5t8.5 13.5l2 5h-2l2 27q-2 -2 -5 -1q-28 11 -40 7.5t-19 -13.5q-5 -5 -11 -7.5t-8 -4.5zM43 381l52 29l3 -3q0 -1 -5 -6t-8 -7l-3 -1q-2 -2 -8 -1.5t-10 -1.5l-7 -5q-3 -2 -6 -3t-6 -3zM51 327l7 -5q1 0 1.5 -0.5l0.5 -0.5q1 0 1 2t1 2h1l3 -1q3 -2 8 -7t5 -6
l-3 -3zM136 371q2 -2 4 -6l-3.5 -7t-3.5 -5l29 -52q2 -2 8 -4.5t11 -7.5q6 -4 13.5 -7t9.5 -5h2q2 0 3 1l1 0.5t1 1.5l1 2q7 -5 16.5 -11t14.5 -10l8 12q-1 1 -4.5 5t-7.5 8.5t-7 9.5t-3 8v2l1 1l1 -1q6 0 9 -4.5t8 -4.5h2l-2 5q-7 17 -18.5 31t-23.5 28q3 9 8.5 14.5
t11.5 10.5t11.5 10.5t8.5 13.5l2 5h-2l2 27q-2 -2 -5 -1q-28 11 -40 7.5t-19 -13.5q-5 -5 -11 -7.5t-8 -4.5zM157 377l52 29l3 -3q0 -1 -5 -6t-8 -7l-3 -1q-2 -2 -8 -1.5t-10 -1.5l-7 -5q-3 -2 -6 -3t-6 -3zM165 323l7 -5q1 0 1.5 -0.5l0.5 -0.5q1 0 1 2t1 2h1l3 -1
q3 -2 8 -7t5 -6l-3 -3z" />
    <glyph glyph-name="FL00ACh" unicode="&#xac;" horiz-adv-x="377" 
d="M326 382q0 -1 1.5 -4.5t3.5 -4.5l17.5 -3.5t17.5 -2.5v-1q-5 -17 -5 -23q0 -15 -0.5 -31.5t-12.5 -44.5v-5l-8 -6v-68q-1 0 -4.5 -1.5t-4.5 -3.5l-3.5 -17.5t-2.5 -17.5h-1q-15 0 -20 2.5t-5.5 6.5t1 10t-1.5 14l-15 -4q-9 0 -10 -2.5t0.5 -7t2.5 -9.5t-5 -10
q-3 6 -1 21.5t2 26.5q0 8 -4 11l-36 -29l-6 6q0 4 0.5 14.5t1.5 22.5t1.5 22.5t0.5 15.5q0 6 -17 6q-12 0 -28 -1t-31 -1.5t-26 1t-12 6.5l7 5.5t15.5 12.5t16 13.5t7.5 9.5l-54 -29q0 -5 -7 -9t-17.5 -6t-22 -3t-19.5 -1q-12 0 -12 1l-17 60l17 23q-3 0 -6 5.5t-5 12
t-3.5 12t-2.5 4.5l-6 5zM54 307h13l6 -5l6 5l-13 24l-6 6q-3 -12 -4.5 -13t-1.5 -7v-10zM304 237l8 -15l6 -5l6 5l-23 59l-4 -25q-2 -5 1.5 -9.5t2.5 -6.5l-2 -6v-12z" />
    <glyph glyph-name="FL00ADh" unicode="&#xad;" horiz-adv-x="258" 
d="M250 394l-6 -5q-1 1 -2.5 -4.5t-4 -12t-5 -12t-5.5 -5.5l17 -23l-19 -80q0 -1 -12 -1q-8 0 -19.5 1t-22 3t-17.5 6t-7 9q0 1 -6.5 -3t-14.5 -9.5t-14.5 -10t-7.5 -2.5q-14 3 -20.5 4.5t-11.5 1.5h-9h-6q-5 0 -8 1l-6 6q3 8 3.5 10l0.5 2v2q0 5 1 8q-5 8 -16 10t-19 7
q5 6 10.5 8t10 4.5t7.5 6.5t3 13l49 8q-8 3 -21 3q-9 0 -19 0.5t-18.5 3.5t-14 9t-5.5 17v1q5 0 17.5 2.5l17.5 3.5q2 1 3.5 4.5t1.5 4.5h68l6 8h121zM201 295q0 15 0.5 25t-4.5 25l-6 -6l-15 -44l6 -5l6 5h13z" />
    <glyph glyph-name="registered" unicode="&#xae;" horiz-adv-x="226" 
d="M113 788q26 0 48 -13q27 -14 38 -37q14 -23 14 -50q0 -23 -14 -49q-11 -23 -37 -37q-20 -10 -34 -11.5t-15 -1.5q-28 0 -50 13q-21 13 -37 37q-13 22 -13 49q0 14 3.5 25.5t9.5 24.5q7 11 16 20.5t22 16.5q25 13 49 13zM113 772q-21 0 -41 -10.5t-31 -31.5
q-11 -20 -11 -42l3 -10.5t8 -30.5q9 -17 30 -30l6 -2q31 -9 36 -9q21 0 41 11q18 12 31 30q5 20 8 30.5l3 10.5q0 22 -11 42t-32 31q-20 11 -40 11zM70 634v107h36q21 0 28 -4q7 -3 12 -9q6 -8 6 -17q0 -11 -8.5 -19.5t-22.5 -9.5q8 -4 12.5 -10t12.5 -17l14 -21h-22l-9 16
q-12 22 -19 25q-4 4 -13 4h-10v-45h-17zM87 693h20q16 0 21.5 4.5t5.5 12.5q0 11 -10 15q-1 1 -18 1h-19v-33z" />
    <glyph glyph-name="FL00AFh" unicode="&#xaf;" horiz-adv-x="320" 
d="M316 792l-6 -5q-1 1 -2.5 -4.5t-4 -12t-5 -12t-5.5 -5.5l17 -23l-18 -74q0 -1 -18 -1q-12 0 -28 1t-30.5 3t-25 5.5t-10.5 8.5q0 1 -6.5 -3t-14.5 -9.5t-14.5 -10t-7.5 -2.5q-27 7 -48.5 5.5t-41.5 0.5l-6 6q3 8 3.5 10l0.5 2v2q0 5 1 8q-5 8 -16 10t-19 7q5 6 10.5 8
t10 4.5t7.5 6.5t3 13l-8 -1q-8 3 -12 3q-7 0 -8.5 5.5t-1.5 27.5v1q5 0 17.5 2.5l17.5 3.5q2 1 3.5 4.5t1.5 4.5h68l6 8zM268 699v10q0 6 -1 8t-4 13l-6 -6l-14 -25l6 -5l6 5h13z" />
    <glyph glyph-name="FL00B0h" unicode="&#xb0;" horiz-adv-x="138" 
d="M14 690l-1 -29l113 -6q4 0 4.5 4t0.5 8q0 5 -3.5 6.5t-7.5 5.5l2 9l4 26q-17 12 -20 18t0 6q9 0 9 11q0 1 3.5 6l3.5 5l-1.5 3.5t-3.5 3.5h-9l-33 7q-3 1 -8 1h-5q-7 0 -13.5 -2.5t-21.5 -4.5l-15 -21v-11q0 -7 0.5 -15t0.5 -16q0 -7 0.5 -11.5t0.5 -3.5zM58 729
q3 0 3 -4v-9q0 -6 -2 -6q-1 0 -3 6.5t-2 8.5q0 4 4 4z" />
    <glyph glyph-name="FL00B1h" unicode="&#xb1;" horiz-adv-x="377" 
d="M234 580l1 -77h10l6 -8h68q0 -1 1.5 -4.5t3.5 -4.5l17.5 -3.5t17.5 -2.5v-1q0 -11 -5.5 -17t-14 -9t-18.5 -3.5t-19 -0.5q-14 0 -21 -3l49 -8q0 -11 5 -11q3 0 6.5 2t8.5 2q1 0 1.5 -4.5t1.5 -10.5t1.5 -11.5t1.5 -6.5q-7 -2 -14.5 -0.5l-12.5 2.5t-5.5 -1.5t5.5 -11.5
l-6 -6q-19 -2 -39.5 -1t-46.5 -4v-5l-8 -6v-68q-1 0 -4.5 -1.5t-4.5 -3.5l-3.5 -17.5t-2.5 -17.5h-1q-15 0 -20 2.5t-5.5 6.5t1 10t-1.5 14l-15 -4q-9 0 -10 -2.5t0.5 -7t2.5 -9.5t-5 -10q-3 6 -1 21.5t2 26.5q0 8 -4 11l-36 -29l-6 6q-1 9 -0.5 18.5t0.5 19.5q0 12 -1 25
t-5 27v3q0 7 1 9h-9q0 -5 -7 -9t-17.5 -6t-22 -3t-19.5 -1q-12 0 -12 1l-17 60l17 23q-3 0 -5.5 5.5t-5 12t-4 12t-2.5 4.5l-6 5l128 2q2 14 1 14q-5 0 -8.5 7t-6 17.5t-3.5 22t-1 19.5q0 12 1 12l60 17l23 -17q0 3 5.5 5.5t12 5t12 4t4.5 2.5zM47 420h13l6 -5l6 5l-13 24
l-6 6q-3 -12 -4.5 -13t-1.5 -7v-10zM193 346l8 -15l6 -5l6 5l-23 59l-4 -25q-2 -5 1.5 -9.5t2.5 -6.5l-2 -6v-12zM362 178l-6 -5q-1 1 -2.5 -4.5t-4 -12t-5 -12t-5.5 -5.5l17 -23l-17 -60q0 -1 -12 -1q-8 0 -19.5 1t-22 3t-17.5 6t-7 9q0 1 -20 -2.5t-44.5 -8t-45.5 -8
t-22 -1.5q-27 7 -48.5 5.5t-41.5 0.5l-6 6q3 8 3.5 10l0.5 2v2q0 5 1 8q-5 8 -16 10t-19 7q5 6 10 5t9.5 -2.5t7 -0.5t2.5 10l49 8q-8 3 -21 3q-9 0 -19 0.5t-18.5 3.5t-14 9t-5.5 17v1q5 0 17.5 2.5l17.5 3.5q2 1 3.5 4.5t1.5 4.5h68l6 8zM315 99v10q0 6 -1.5 7t-4.5 13
l-6 -6l-13 -24l6 -5l6 5h13z" />
    <glyph glyph-name="FL00B2h" unicode="&#xb2;" horiz-adv-x="198" 
d="M175 474q-19 2 -34 0t-33 -2h-33q-23 0 -37 2t-25 10q-3 3 -3.5 21t1.5 39t5.5 38.5t6.5 20.5q15 43 38 63q5 4 11.5 9t6.5 10q0 23 -12 30.5t-44 -5.5l-3 3q2 1 4.5 3.5l5.5 5.5q3 2 2 3.5t-2 2.5h-12q1 6 5.5 9t9 4.5t8 3t2.5 5.5q-7 -2 -13 -0.5t-12 3.5l-1 1q0 5 5 7
t7 3v2v1q-2 -1 -6 0t-5 3l-0.5 1.5t-0.5 3.5q0 24 12 25.5t36 1.5q21 0 40.5 -7t35 -19t25 -29.5t9.5 -38.5q0 -24 -11 -38t-24.5 -25.5t-24.5 -25t-10 -35.5q0 -19 -0.5 -26.5t2.5 -8.5t13 1t32 3q12 0 17.5 5t16.5 5v-7l-19 -27h1h1l12 3h2h1q-3 -7 -9 -10.5t-11 -5.5
t-6.5 -4.5t4.5 -7.5v-2t-1 -5l-6 -5q0 -3 3 -3h2q5 0 10.5 3t10.5 5q0 -2 0.5 -3l0.5 -1q0 -6 -5.5 -7t-9.5 -3q3 -2 6 -3t8 -3zM184 480q-2 2 1 2q2 0 2 -2q0 -1 -2 -1q-1 0 -1 1zM32 543q-3 -1 -3 -3v-4q0 -6 3 -16.5t11 -10.5h3q-4 7 -8.5 16.5t-5.5 17.5zM82 702l-1 -1
q1 -2 4 -7.5t4 -7.5q2 -2 2 -7t4 -7v8q0 5 -3 13.5t-10 8.5zM58 747h-9v-4q6 0 9 4z" />
    <glyph glyph-name="FL00B3h" unicode="&#xb3;" horiz-adv-x="219" 
d="M68 683l23 -11q2 5 4 11l2 6q11 3 17 2q4 7 4 16t-1.5 15.5t-11.5 8.5q3 0 0.5 2.5t-2.5 1.5q0 -2 -11.5 -6.5t-26.5 -6t-29 1.5t-18 16q-1 3 0 7.5t5 4.5q2 0 1.5 5.5t-1 12t-1.5 11.5t1 4q2 0 2.5 0.5l0.5 0.5v14h94q14 0 26.5 -7.5t22.5 -19.5t15.5 -27.5t5.5 -30.5
q0 -17 -7 -32t-18 -27q21 -11 31.5 -34t12.5 -50q1 -42 -21 -71.5t-54 -29.5h-93l-12 7q-3 2 -8 7t-5 9v8q0 11 -2.5 28t-2.5 32q4 1 16 1q6 0 11 0.5t10 1.5q0 1 16 1q2 0 4.5 2t3.5 -3q2 -10 4.5 -14.5t5.5 -6t6 -1t5 0.5h3q3 0 6.5 0.5t5.5 0.5h1q11 0 18.5 10.5
t7.5 21.5q0 8 -2 19t-12 19q-3 0 -8.5 -0.5t-13.5 -0.5h-32q-13 0 -17 1l3 27q-2 -1 -4 -1t-2.5 2.5t0.5 8.5t4 17zM143 775q0 -2 2 -2q1 -1 7.5 -6t12 -9t6.5 -5q0 7 -9 16t-15 9h-2t-2 -3zM138 491q1 -3 4.5 0t5.5 3q6 0 12 11t8 19q-1 -2 -3 -7t-5 -9.5t-7 -7.5t-7 0
q-2 0 -5 -4.5zM126 692h-2l-4 -7.5t-6 -11.5q-1 -1 -3 -5h1q5 0 9.5 9.5t4.5 14.5zM112 532h8l8 2h-47q3 -1 13.5 -1.5t12.5 -0.5h5zM64 792h-5q-2 0 -12 -0.5t-12 -1.5h42q-5 2 -8 2h-5z" />
    <glyph glyph-name="FL00B4h" unicode="&#xb4;" horiz-adv-x="146" 
d="M92 739l-9 -15h1zM74 761l-29 -52l3 -3q1 0 6 5t7 8l1 3q2 2 1.5 8t1.5 10l5 7q2 3 3 6t3 6l2 3zM50 764q3 4 7 4h1q4 0 11.5 3t12.5 3l3 -1l9 -7q14 -9 26.5 -15.5t12.5 -23.5v-7q-23 -33 -43.5 -46t-46.5 -23l-5 -2v2q0 5 4.5 8t4.5 9l1 1l-1 1h-2q-3 0 -6.5 -4
t-6.5 -9.5t-5.5 -10t-3.5 -5.5l-12 8q4 5 5.5 18t6.5 20l-2 1q-1 0 -1.5 1l-0.5 1q-1 1 -1 3v2q2 2 5 9.5t7 13.5q5 5 7.5 11t4.5 8l7 26z" />
    <glyph glyph-name="FL00B8h" unicode="&#xb5;" horiz-adv-x="715" 
d="M693 429l-12 -93l-19 2l3 98zM683 296l-18 -20l-14 15l14 13zM633 303q-28 0 -68 63v-62l-20 -2v127l65 -83l4 90l19 -7v-126zM526 304l-15 4q-12 30 -28 30q-13 0 -28 -30h-25q9 65 48 127q1 4 16 4q20 0 32 -41v-94zM419 436l-7 -126l-27 -8l12 127zM363 298
q-26 0 -70 62v-60l-20 -4v128l67 -81l5 86l18 -5v-126zM260 388q-11 -90 -43 -90q-7 -1 -11.5 -1.5t-8.5 -0.5q-30 0 -39 20q0 85 43 113h12q38 0 47 -41zM149 434l-2 -32q-3 2 -4.5 2.5l-1.5 0.5q0 1 -6 1q-15 0 -31 -18q-17 -23 -17 -52q0 -26 24 -26q18 0 22 4l2 -22
q-10 -2 -14 -4t-10 -2q-34 0 -44 57q-2 2 -2 9v8q0 59 84 74zM53 429l-7 -123l-24 -10l11 130zM505 366l-15 43l-21 -43h36zM238 369q0 2 -0.5 6t-1.5 9q-10 16 -22 16q-20 0 -33 -40v-9q0 -31 18 -31q9 0 30 12q6 10 7.5 18t1.5 19z" />
    <glyph glyph-name="FL00B6h" unicode="&#xb6;" horiz-adv-x="967" 
d="M956 378l-6 14l-105 59l66 20h8l-8 15l-150 37l52 43h-175l13 50l-170 -28l-5 44l-13 5l-118 -64l-51 43l-70 -84q-7 -4 -17 -4q-23 0 -63 31l-12 -102l-84 8l5 -30l45 -65l-83 -6l111 -64l-73 -36l157 -40l-52 -40l180 -8l-19 -49l162 33l20 -28l-6 -28l130 72l59 -44
l65 88l84 -31l6 102l86 -15q1 6 1.5 7l0.5 1q0 18 -54 86zM829 429l-12 -93l-19 2l3 98zM819 296l-18 -20l-14 15l14 13zM769 303q-28 0 -68 63v-62l-20 -2v127l65 -83l4 90l19 -7v-126zM662 304l-15 4q-12 30 -28 30q-13 0 -28 -30h-25q9 65 48 127q1 4 16 4q20 0 32 -41
v-94zM555 436l-7 -126l-27 -8l12 127zM499 298q-26 0 -70 62v-60l-20 -4v128l67 -81l5 86l18 -5v-126zM396 388q-11 -90 -43 -90q-7 -1 -11.5 -1.5t-8.5 -0.5q-30 0 -39 20q0 85 43 113h12q38 0 47 -41zM285 434l-2 -32q-3 2 -4.5 2.5l-1.5 0.5q0 1 -6 1q-15 0 -31 -18
q-17 -23 -17 -52q0 -26 24 -26q18 0 22 4l2 -22q-10 -2 -14 -4t-10 -2q-34 0 -44 57q-2 2 -2 9v8q0 59 84 74zM189 429l-7 -123l-24 -10l11 130zM641 366l-15 43l-21 -43h36zM374 369q0 2 -0.5 6t-1.5 9q-10 16 -22 16q-20 0 -33 -40v-9q0 -31 18 -31q9 0 30 12q6 10 7.5 18
t1.5 19z" />
    <glyph glyph-name="FL00B7h" unicode="&#xb7;" horiz-adv-x="179" 
d="M16 359l21 -46h127q5 0 6 5t1 10q0 7 -9.5 12t-14.5 10l12 5l5 35q1 6 -5.5 12t-15 10.5t-16.5 7t-10 2.5v5q6 -1 11.5 -3t10.5 -2q11 0 11 14q0 1 4.5 7.5l4.5 6.5l-2.5 5t-4.5 5t-5.5 -0.5t-5.5 -0.5l-19 3q-20 2 -39.5 6.5t-45.5 -0.5l-23 -35v-15q0 -8 0.5 -19
t0.5 -21q0 -9 0.5 -15t0.5 -4zM48 361q5 0 5 -5v-12q0 -7 -3 -7q-2 0 -4.5 8t-2.5 11q0 5 5 5z" />
    <glyph glyph-name="FL01E1h" unicode="&#xb8;" horiz-adv-x="136" 
d="M13 -125l87 1l22 79l-7 7v2q-4 15 -4 30q9 8 4 14.5t-17 10.5t-28 6t-29.5 1t-20.5 -6t-2 -14v-28l-7 -5v-3q-11 -2 -17.5 -3t-11.5 -1.5t-10 -0.5q-6 0 -14 -1l-5 -5q5 -7 4.5 -8.5t-4.5 -1t-10 1.5t-12 0q1 -1 1.5 -5l1 -8t1 -7.5t1.5 -3.5q5 0 7.5 1.5t4.5 1.5
q4 0 4 -9l40 -6q-3 -1 -7 -1.5t-10 -0.5q-14 0 -30 -3t-16 -19v-1q5 0 14.5 -2t13.5 -2q2 -1 3 -3.5t1 -3.5l39 2l5 -6h8zM47 -8l2 7h2v-5q0 -1 -0.5 -1.5t-0.5 -2.5q-1 -2 2 -5t1 -7l-3 -19l-19 44q3 -1 11 -3zM33 -71v-7q0 -5 -1 -5.5t-4 -9.5l-5 4l-10 18l5 4l5 -4h10z
" />
    <glyph glyph-name="FL00B9h" unicode="&#xb9;" horiz-adv-x="161" 
d="M51 799h96q-1 -3 -1 -17v-35t-0.5 -45t-0.5 -45v-52q0 -2 -1 -7.5t-2 -11.5l-2 -12t-1 -7v-8v-15v-18v-18v-15v-9q0 -5 -1.5 -14.5t-1.5 -11.5l-3 -2l-6 25q0 1 -1 1t-1 -1q-3 -3 -3 -5l-6 26q0 -4 -0.5 -16.5t-2.5 -15.5q0 -2 -4 -7.5t-8 -5.5q-3 0 -5.5 4t-5 9t-5.5 9
t-8 4l-6 18l-22 190q-2 14 -6 18.5t-16 4.5h-16q-3 0 -3 3q0 1 1.5 2.5t1.5 2.5q1 3 2 8t1 7q1 15 1.5 20.5t2.5 6.5t7.5 0.5t16.5 2.5h-18q-2 5 -7 8.5t-5 7.5v2l9 8v2v1q-2 3 -3 3h10h23zM64 694q0 -2 -0.5 -5.5t-0.5 -4.5v-19q0 -10 6 -17v7q0 11 -1 20.5t-4 18.5z
M44 714v-3l6 -1.5t11 -1.5h2h8h4h3h9h3l-41 6h-5z" />
    <glyph glyph-name="FL0EE8h" unicode="&#xba;" horiz-adv-x="251" 
d="M103 487q-2 0 -2 -2q0 -3 2 -3q3 0 3 3q0 2 -3 2zM124 499q-8 -2 -11 -2q-5 0 -5 -6q0 -2 0.5 -2.5t0.5 -1.5q66 16 98.5 51.5t32.5 107.5q0 24 -8 51t-23.5 49.5t-38.5 37t-52 14.5q-12 0 -18.5 -4.5t-10 -10t-5 -10.5t-3.5 -6q-5 -3 -11 -4.5t-11 -8.5
q-48 -57 -48 -135q0 -28 12.5 -56.5t35.5 -45.5q10 -5 17.5 -8.5t16.5 -9.5h31zM224 599q0 -1 0.5 -3.5l0.5 -2.5q0 -13 -4.5 -26t-14.5 -21v1v1l6 13q2 4 7 18t5 20zM100 628q0 20 7 36t15 30l1 2l0.5 0.5t1.5 0.5l1 -1q11 -11 14.5 -27.5t3.5 -33.5v-3q0 -3 -0.5 -5.5
t-0.5 -5.5v-3q-1 -8 -3 -16.5t-7 -14.5q-2 -3 -6 -6.5l-4 -3.5l-1 -11l-4 10t-6 13q-5 10 -8.5 19t-3.5 20zM25 599v7q5 -13 5 -28v-4q-4 5 -4.5 12t-0.5 13zM148 698q0 2 2 4.5t3 3.5q3 0 3 -3q7 -8 9 -14t2 -14q0 -2 -0.5 -3.5t-0.5 -3.5l-4 -3l-8 28q0 2 -2.5 3.5
t-3.5 1.5zM217 719q2 0 2 -3q0 -1 1 -9.5t2 -15.5t1 -8q-1 0 -2.5 6.5t-3.5 14.5t-3.5 14.5t-1.5 7.5q0 2 2.5 -2.5zM70 741l1 -1l-1 -1q-1 -1 -3 -4.5t-4 -4.5h-1h-1q2 7 9 11zM85 754q3 0 6 -0.5t3 -4.5h-4q-1 0 -2.5 1t-2.5 1t-4 -1t-4 -1h-2q2 5 10 5zM46 556
q-2 1 -3.5 3t-2.5 3q6 -4 12 -9t10 -10l2 -4q-5 2 -10.5 7t-7.5 10z" />
    <glyph glyph-name="FL00C0h" unicode="&#xbb;" horiz-adv-x="266" 
d="M248 375q-2 -2 -4 -6l3.5 -7t3.5 -5l-29 -52q-2 -2 -8 -4.5t-11 -7.5q-6 -4 -13.5 -7t-9.5 -5h-2q-2 0 -3 1l-1 0.5t-1 1.5l-1 2q-7 -5 -16.5 -11t-14.5 -10l-8 12q1 1 4.5 5t7.5 8.5t7 9.5t3 8v2l-1 1l-1 -1q-6 0 -9 -4.5t-8 -4.5h-2l2 5q7 17 18.5 31t23.5 28
q-3 9 -8.5 14.5t-11.5 10.5t-11.5 10.5t-8.5 13.5l-2 5h2l-2 27q2 -2 5 -1q28 11 40 7.5t19 -13.5q5 -5 11 -7.5t8 -4.5zM227 381l-52 29l-3 -3q0 -1 5 -6t8 -7l3 -1q2 -2 8 -1.5t10 -1.5l7 -5q3 -2 6 -3t6 -3zM219 327l-7 -5q-1 0 -1.5 -0.5l-0.5 -0.5q-1 0 -1 2t-1 2h-1
l-3 -1q-3 -2 -8 -7t-5 -6l3 -3zM134 371q-2 -2 -4 -6l3.5 -7t3.5 -5l-29 -52q-2 -2 -8 -4.5t-11 -7.5q-6 -4 -13.5 -7t-9.5 -5h-2q-2 0 -3 1l-1 0.5t-1 1.5l-1 2q-7 -5 -16.5 -11t-14.5 -10l-8 12q1 1 4.5 5t7.5 8.5t7 9.5t3 8v2l-1 1l-1 -1q-6 0 -9 -4.5t-8 -4.5h-2l2 5
q7 17 18.5 31t23.5 28q-3 9 -8.5 14.5t-11.5 10.5t-11.5 10.5t-8.5 13.5l-2 5h2l-2 27q2 -2 5 -1q28 11 40 7.5t19 -13.5q5 -5 11 -7.5t8 -4.5zM113 377l-52 29l-3 -3q0 -1 5 -6t8 -7l3 -1q2 -2 8 -1.5t10 -1.5l7 -5q3 -2 6 -3t6 -3zM105 323l-7 -5q-1 0 -1.5 -0.5
l-0.5 -0.5q-1 0 -1 2t-1 2h-1l-3 -1q-3 -2 -8 -7t-5 -6l3 -3z" />
    <glyph glyph-name="FL0189h" unicode="&#xbc;" horiz-adv-x="574" 
d="M265 536q5 14 8 31t5.5 32.5t4.5 27.5t5 17q4 6 10 7t12.5 -0.5t14.5 -3.5t16 -2q11 0 16 -1t5 -13q0 -15 -1 -20.5t-11 -20.5h4q7 0 13 6t9.5 14.5t5.5 18t2 15.5h4q13 0 25 -7.5t21 -19t14.5 -25t5.5 -25.5q0 -2 -0.5 -4.5t-0.5 -4.5q-2 -4 -9.5 -15t-16.5 -23
t-17 -22.5t-11 -13.5q-6 -6 -13.5 -19.5t-16.5 -30.5t-18.5 -35t-18.5 -33l-183 -353q-1 -2 -2.5 -5.5t-3.5 -5.5h-6l-17 17q-2 2 -5 -0.5l-3 -2.5v-26l-2 4.5t-5.5 10t-8 10.5t-8.5 5l-2 -1q-2 -2 -4 -8.5t-2 -8.5l-29 6q0 1 -2 9.5t-5 21t-4 20.5q-5 35 8.5 68t32 63
t36.5 56t22 47l110 193zM97 48l13 87l-19 -30v-57h6zM307 422q-4 0 -4 -5q0 -2 -4 -12t-8.5 -21t-8 -20.5t-2.5 -9.5t6 9.5t11 20.5t10.5 21t4.5 12q0 5 -5 5zM53 699h96q-1 -3 -1 -17v-35t-0.5 -45t-0.5 -45v-52q0 -2 -1 -7.5t-2 -11.5l-2 -12t-1 -7v-8v-15v-18v-18v-15v-9
q0 -5 -1.5 -14.5t-1.5 -11.5l-3 -2l-6 25q0 1 -1 1t-1 -1q-3 -3 -3 -5l-6 26q0 -4 -0.5 -16.5t-2.5 -15.5q0 -2 -4 -7.5t-8 -5.5q-3 0 -5.5 4t-5 9t-5.5 9t-8 4l-6 18l-22 190q-2 14 -6 18.5t-16 4.5h-16q-3 0 -3 3q0 1 1.5 2.5t1.5 2.5q1 3 2 8t1 7q1 15 1.5 20.5t2.5 6.5
t7.5 0.5t16.5 2.5h-18q-2 5 -7 8.5t-5 7.5v2l9 8v2v1q-2 3 -3 3h10h23zM66 594q0 -2 -0.5 -5.5t-0.5 -4.5v-19q0 -10 6 -17v7q0 11 -1 20.5t-4 18.5zM46 614v-3l6 -1.5t11 -1.5h2h8h4h3h9h3l-41 6h-5zM541 -33l-3 -2q0 -1 -9 4.5t-14 9.5t-6 9q-1 3 0 7.5t0 6.5l-3 3l-3 -3
l-0.5 -2t-0.5 -4v-3q0 -5 0.5 -7t0.5 -4v-12q-4 0 -8.5 1.5t-5.5 7.5q-2 25 -2.5 55t-9.5 54q0 3 -2 3h-64l-65 -3q2 -2 -1 4.5t-9 28.5t-12.5 62.5t-12.5 105.5v2v1q0 3 3 6h1q17 0 18.5 -10.5l3.5 -24.5h4v37h50q4 -1 8 -1h8q13 0 13 -11v-2q-2 -26 -4 -47t-2 -45v-11
l3 -3l52 -8v126h3l26 -3h3q5 0 7.5 3t7.5 3q4 0 7 -1.5t7 -1.5q3 0 5.5 1.5t5.5 1.5q1 0 1.5 -0.5l0.5 -0.5q2 -1 6 -5l6 -6q3 3 5 3h2q4 0 4 -7v-5l-17 -221q-1 -1 -2 -8t-1 -9q0 -4 -1 -14.5t-1.5 -22.5t-1.5 -23t-1 -15zM396 136l7 -23q-1 0 1.5 -1.5t5.5 -3l6 -3l3 -1.5
l-8 7q0 3 -3 3zM449 168l-55 4q1 -3 4 -3l31 -4q6 0 9.5 0.5t10.5 2.5zM398 234q0 4 1 15t2 14q0 1 -2 3.5t-2 4.5t1.5 4.5t-0.5 2.5q-4 0 -5 -4v-3q0 -2 -0.5 -4t-0.5 -4v-3q0 -8 0.5 -14.5t3.5 -14.5zM527 -14l2 3q0 3 1 12.5t2 12.5q0 2 0.5 6.5t0.5 6.5q0 3 -1 3
q-4 0 -5 -4v-3q0 -2 -0.5 -4t-0.5 -4v-3q0 -8 -1 -13t2 -13z" />
    <glyph glyph-name="FL0170h" unicode="&#xbd;" horiz-adv-x="504" 
d="M265 536q5 14 8 31t5.5 32.5t4.5 27.5t5 17q4 6 10 7t12.5 -0.5t14.5 -3.5t16 -2q11 0 16 -1t5 -13q0 -15 -1 -20.5t-11 -20.5h4q7 0 13 6t9.5 14.5t5.5 18t2 15.5h4q13 0 25 -7.5t21 -19t14.5 -25t5.5 -25.5q0 -2 -0.5 -4.5t-0.5 -4.5q-2 -4 -9.5 -15t-16.5 -23
t-17 -22.5t-11 -13.5q-6 -6 -13.5 -19.5t-16.5 -30.5t-18.5 -35t-18.5 -33l-183 -353q-1 -2 -2.5 -5.5t-3.5 -5.5h-6l-17 17q-2 2 -5 -0.5l-3 -2.5v-26l-2 4.5t-5.5 10t-8 10.5t-8.5 5l-2 -1q-2 -2 -4 -8.5t-2 -8.5l-29 6q0 1 -2 9.5t-5 21t-4 20.5q-5 35 8.5 68t32 63
t36.5 56t22 47l110 193zM97 48l13 87l-19 -30v-57h6zM307 422q-4 0 -4 -5q0 -2 -4 -12t-8.5 -21t-8 -20.5t-2.5 -9.5t6 9.5t11 20.5t10.5 21t4.5 12q0 5 -5 5zM53 699h96q-1 -3 -1 -17v-35t-0.5 -45t-0.5 -45v-52q0 -2 -1 -7.5t-2 -11.5l-2 -12t-1 -7v-8v-15v-18v-18v-15v-9
q0 -5 -1.5 -14.5t-1.5 -11.5l-3 -2l-6 25q0 1 -1 1t-1 -1q-3 -3 -3 -5l-6 26q0 -4 -0.5 -16.5t-2.5 -15.5q0 -2 -4 -7.5t-8 -5.5q-3 0 -5.5 4t-5 9t-5.5 9t-8 4l-6 18l-22 190q-2 14 -6 18.5t-16 4.5h-16q-3 0 -3 3q0 1 1.5 2.5t1.5 2.5q1 3 2 8t1 7q1 15 1.5 20.5t2.5 6.5
t7.5 0.5t16.5 2.5h-18q-2 5 -7 8.5t-5 7.5v2l9 8v2v1q-2 3 -3 3h10h23zM66 594q0 -2 -0.5 -5.5t-0.5 -4.5v-19q0 -10 6 -17v7q0 11 -1 20.5t-4 18.5zM46 614v-3l6 -1.5t11 -1.5h2h8h4h3h9h3l-41 6h-5zM482 -30q-19 2 -34 0t-33 -2h-33q-23 0 -37 2t-25 10q-3 3 -3.5 21
t1.5 39t5.5 38.5t6.5 20.5q15 43 38 63q5 4 11.5 9t6.5 10q0 23 -12 30.5t-44 -5.5l-3 3q2 1 4.5 3.5l5.5 5.5q3 2 2 3.5t-2 2.5h-12q1 6 5.5 9t9 4.5t8 3t2.5 5.5q-7 -2 -13 -0.5t-12 3.5l-1 1q0 5 5 7t7 3v2v1q-2 -1 -6 0t-5 3l-0.5 1.5t-0.5 3.5q0 24 12 25.5t36 1.5
q21 0 40.5 -7t35 -19t25 -29.5t9.5 -38.5q0 -24 -11 -38t-24.5 -25.5t-24.5 -25t-10 -35.5q0 -19 -0.5 -26.5t2.5 -8.5t13 1t32 3q12 0 17.5 5t16.5 5v-7l-19 -27h1h1l12 3h2h1q-3 -7 -9 -10.5t-11 -5.5t-6.5 -4.5t4.5 -7.5v-2t-1 -5l-6 -5q0 -3 3 -3h2q5 0 10.5 3t10.5 5
q0 -2 0.5 -3l0.5 -1q0 -6 -5.5 -7t-9.5 -3q3 -2 6 -3t8 -3zM491 -24q-2 2 1 2q2 0 2 -1q0 -2 -2 -2q-1 0 -1 1zM339 39q-3 -1 -3 -3v-4q0 -6 3 -16.5t11 -10.5h3q-4 7 -8.5 16.5t-5.5 17.5zM389 198l-1 -1q1 -2 4 -7.5t4 -7.5q2 -2 2 -7t4 -7v8q0 5 -3 13.5t-10 8.5z
M365 243h-9v-4q6 0 9 4z" />
    <glyph glyph-name="FL019Ah" unicode="&#xbe;" horiz-adv-x="594" 
d="M285 536q5 14 8 31t5.5 32.5t4.5 27.5t5 17q4 6 10 7t12.5 -0.5t14.5 -3.5t16 -2q11 0 16 -1t5 -13q0 -15 -1 -20.5t-11 -20.5h4q7 0 13 6t9.5 14.5t5.5 18t2 15.5h4q13 0 25 -7.5t21 -19t14.5 -25t5.5 -25.5q0 -2 -0.5 -4.5t-0.5 -4.5q-2 -4 -9.5 -15t-16.5 -23
t-17 -22.5t-11 -13.5q-6 -6 -13.5 -19.5t-16.5 -30.5t-18.5 -35t-18.5 -33l-183 -353q-1 -2 -2.5 -5.5t-3.5 -5.5h-6l-17 17q-2 2 -5 -0.5l-3 -2.5v-26l-2 4.5t-5.5 10t-8 10.5t-8.5 5l-2 -1q-2 -2 -4 -8.5t-2 -8.5l-29 6q0 1 -2 9.5t-5 21t-4 20.5q-5 35 8.5 68t32 63
t36.5 56t22 47l110 193zM117 48l13 87l-19 -30v-57h6zM327 422q-4 0 -4 -5q0 -2 -4 -12t-8.5 -21t-8 -20.5t-2.5 -9.5t6 9.5t11 20.5t10.5 21t4.5 12q0 5 -5 5zM561 -33l-3 -2q0 -1 -9 4.5t-14 9.5t-6 9q-1 3 0 7.5t0 6.5l-3 3l-3 -3l-0.5 -2t-0.5 -4v-3q0 -5 0.5 -7t0.5 -4
v-12q-4 0 -8.5 1.5t-5.5 7.5q-2 25 -2.5 55t-9.5 54q0 3 -2 3h-64l-65 -3q2 -2 -1 4.5t-9 28.5t-12.5 62.5t-12.5 105.5v2v1q0 3 3 6h1q17 0 18.5 -10.5l3.5 -24.5h4v37h50q4 -1 8 -1h8q13 0 13 -11v-2q-2 -26 -4 -47t-2 -45v-11l3 -3l52 -8v126h3l26 -3h3q5 0 7.5 3t7.5 3
q4 0 7 -1.5t7 -1.5q3 0 5.5 1.5t5.5 1.5q1 0 1.5 -0.5l0.5 -0.5q2 -1 6 -5l6 -6q3 3 5 3h2q4 0 4 -7v-5l-17 -221q-1 -1 -2 -8t-1 -9q0 -4 -1 -14.5t-1.5 -22.5t-1.5 -23t-1 -15zM416 136l7 -23q-1 0 1.5 -1.5t5.5 -3l6 -3l3 -1.5l-8 7q0 3 -3 3zM469 168l-55 4q1 -3 4 -3
l31 -4q6 0 9.5 0.5t10.5 2.5zM418 234q0 4 1 15t2 14q0 1 -2 3.5t-2 4.5t1.5 4.5t-0.5 2.5q-4 0 -5 -4v-3q0 -2 -0.5 -4t-0.5 -4v-3q0 -8 0.5 -14.5t3.5 -14.5zM547 -14l2 3q0 3 1 12.5t2 12.5q0 2 0.5 6.5t0.5 6.5q0 3 -1 3q-4 0 -5 -4v-3q0 -2 -0.5 -4t-0.5 -4v-3
q0 -8 -1 -13t2 -13zM66 584l23 -11q2 5 4 11l2 6q11 3 17 2q4 7 4 16t-1.5 15.5t-11.5 8.5q3 0 0.5 2.5t-2.5 1.5q0 -2 -11.5 -6.5t-26.5 -6t-29 1.5t-18 16q-1 3 0 7.5t5 4.5q2 0 1.5 5.5t-1 12t-1.5 11.5t1 4q2 0 2.5 0.5l0.5 0.5v14h94q14 0 26.5 -7.5t22.5 -19.5
t15.5 -27.5t5.5 -30.5q0 -17 -7 -32t-18 -27q21 -11 31.5 -34t12.5 -50q1 -42 -21 -71.5t-54 -29.5h-93l-12 7q-3 2 -8 7t-5 9v8q0 11 -2.5 28t-2.5 32q4 1 16 1q6 0 11 0.5t10 1.5q0 1 16 1q2 0 4.5 2t3.5 -3q2 -10 4.5 -14.5t5.5 -6t6 -1t5 0.5h3q3 0 6.5 0.5t5.5 0.5h1
q11 0 18.5 10.5t7.5 21.5q0 8 -2 19t-12 19q-3 0 -8.5 -0.5t-13.5 -0.5h-32q-13 0 -17 1l3 27q-2 -1 -4 -1t-2.5 2.5t0.5 8.5t4 17zM141 676q0 -2 2 -2q1 -1 7.5 -6t12 -9t6.5 -5q0 7 -9 16t-15 9h-2t-2 -3zM136 392q1 -3 4.5 0t5.5 3q6 0 12 11t8 19q-1 -2 -3 -7t-5 -9.5
t-7 -7.5t-7 0q-2 0 -5 -4.5zM124 593h-2l-4 -7.5t-6 -11.5q-1 -1 -3 -5h1q5 0 9.5 9.5t4.5 14.5zM110 433h8l8 2h-47q3 -1 13.5 -1.5t12.5 -0.5h5zM62 693h-5q-2 0 -12 -0.5t-12 -1.5h42q-5 2 -8 2h-5z" />
    <glyph glyph-name="FL00BFh" unicode="&#xbf;" horiz-adv-x="391" 
d="M47 294q0 4 -0.5 12t0.5 16t4 14t11 6q0 -18 -5 -37.5t-10 -33.5v23zM88 127q-1 13 -5.5 28.5t-9 31.5t-8.5 31t-4 27v4q10 -7 16.5 -19t10.5 -26t5.5 -28t1.5 -25v-4q0 -3 -2.5 -10.5t-4.5 -9.5zM180 543q-5 -34 -19.5 -55.5t-33 -38.5t-38.5 -32.5t-37 -37.5t-28 -54
t-11 -81q0 -54 20 -100t55 -79.5t82.5 -52t102.5 -18.5h24q12 0 26 1.5t27 5t22.5 9t12.5 14.5h-21v40q-22 0 -39 -5t-38 -5q-3 0 -12 0.5t-12 0.5q7 0 26.5 6.5t39 16.5t35 20.5t15.5 19.5q0 7 -4 9t-8 2q-5 0 -10 -1t-8 -1q0 13 1.5 17.5t5 6.5t9 5.5t13.5 13.5h-3
q-14 0 -25.5 -4t-25.5 -4q-2 0 -10 0.5t-10 0.5q7 0 21.5 8t18.5 12q1 2 2.5 8t4 12.5t4.5 12.5t3 8q1 1 10 6t10 7q6 0 7 7h-7q-12 0 -22.5 -4t-24.5 -4q-15 0 -32 4t-31 12.5t-23 22t-9 32.5q0 24 10.5 41.5t26.5 32t35 27t36 25.5q10 7 12 16.5t1.5 20t-1 22t4.5 22.5
q0 2 0.5 8t0.5 14q-43 18 -88 22.5t-94 -15.5zM357 634l-4 68q0 5 -0.5 15.5t-0.5 22.5t0.5 22t0.5 15q-1 2 -2.5 2.5t-3.5 2.5l-1 0.5t-2 0.5t-2 -0.5l-1 -0.5q-3 -2 -9 -8.5t-8 -8.5q-5 0 -6 6q-6 9 -10 10t-7.5 -1.5t-7 -6t-7.5 -3.5q-28 0 -45 4.5t-28 4.5
q-13 0 -16.5 -15t-3.5 -63v-36v-22q0 -11 1 -24q27 -10 64 -10h58h15q10 0 18 4.5t8 17.5v3zM250 662v7q0 5 -0.5 10.5t-0.5 10.5v6v9q0 6 0.5 11t0.5 10v5q0 7 2 18t4 11h5v-6l-5 -86zM290 639q-5 0 -5 5q0 1 0.5 7.5t1.5 14t2 13t3 5.5q1 0 1.5 -11.5t0.5 -19.5v-9
q0 -5 -4 -5z" />
    <glyph glyph-name="FL00C3h" unicode="&#xc0;" horiz-adv-x="586" 
d="M51 53q0 -6 2 -17t4.5 -23t4.5 -22.5t3 -16.5q1 -2 3.5 -10t3.5 -10q2 2 4.5 10t2.5 10q1 3 3 17t3.5 30t3.5 30t3 17q1 7 4.5 19t6.5 20t3 9h5q0 -4 1.5 -14t0.5 -13q0 -4 -3.5 -17.5t-3.5 -16.5q0 -2 2.5 -9t4.5 -11l27 -54q15 10 21 36.5t10.5 54.5t11.5 49.5t24 21.5
h142l20 -95q7 -2 19.5 -12t25.5 -20.5t23.5 -17.5t12.5 -4l14 27v108q12 -20 15 -35.5t7 -28t13 -25t32 -26.5q3 -2 13.5 -9.5t13.5 -10.5q0 1 0.5 3t0.5 4q0 9 -4.5 13.5t-9.5 8.5t-9.5 7.5t-4.5 10.5q0 5 2 10t8 5q1 0 2.5 -0.5l1.5 -0.5q3 -2 13 -7l14 -7q7 1 7 9v13
q0 2 -0.5 7l-0.5 5l-47 176v67l-74 412q-1 8 -5 17.5t-10 17.5t-14.5 13.5t-17.5 5.5q-11 0 -20.5 -7t-20.5 -7q-5 0 -8 1t-5.5 2.5t-6 3t-10.5 1.5t-16.5 -1t-20 -2t-19.5 -2.5l-15 -2.5q-10 -2 -20 -9.5t-19 -16t-15.5 -15t-9.5 -6.5h-4q0 3 -0.5 11t-2.5 16.5t-6 15
t-11 6.5q-1 0 -3.5 -1t-3.5 -1q-2 -5 -7 -19.5t-10.5 -30.5t-10 -30.5t-5.5 -20.5q-3 -14 -10 -42t-15.5 -63t-18.5 -74t-18.5 -74t-15.5 -63t-10 -42q-1 -30 -7.5 -59t-14 -58t-13.5 -58.5t-6 -60.5v-20l26 12l1.5 0.5t2.5 0.5l3 -1q2 -2 4 -7t3 -7zM214 291
q10 60 28.5 124.5t38.5 118.5l7 -7l47 -216v-20q-29 -4 -49.5 -5.5t-46.5 -1.5q-3 0 -13 -0.5t-12 7.5zM423 689q1 0 2 0.5t2 0.5q7 0 12.5 -20.5t9.5 -46t6 -48.5t2 -27q0 -2 -2.5 -3.5t-4.5 -3.5l-2 -1t-2 1q-1 9 -3.5 28.5t-6 42.5t-7 44t-6.5 33zM84 274v-8
q0 -5 0.5 -12t0.5 -13v-7v-11q0 -7 -0.5 -13t-0.5 -11v-6q0 -8 -2.5 -21t-4.5 -13h-6v7l6 101zM264 889l9 -15h-1zM282 911l29 -52l-3 -3q-1 0 -6 5t-7 8l-1 3q-2 2 -1.5 8t-1.5 10l-5 7q-2 3 -3 6t-3 6l-2 3zM306 914q-3 4 -7 4h-1q-4 0 -11.5 3t-12.5 3l-3 -1l-9 -7
q-14 -9 -26.5 -15.5t-12.5 -23.5v-7q23 -33 43.5 -46t46.5 -23l5 -2v2q0 5 -4.5 8t-4.5 9l-1 1l1 1h2q3 0 6.5 -4t6.5 -9.5t5.5 -10t3.5 -5.5l12 8q-4 5 -5.5 18t-6.5 20l2 1q1 0 1.5 1l0.5 1q1 1 1 3v2q-2 2 -5 9.5t-7 13.5q-5 5 -7.5 11t-4.5 8l-7 26z" />
    <glyph glyph-name="FL00C1h" unicode="&#xc1;" horiz-adv-x="586" 
d="M51 53q0 -6 2 -17t4.5 -23t4.5 -22.5t3 -16.5q1 -2 3.5 -10t3.5 -10q2 2 4.5 10t2.5 10q1 3 3 17t3.5 30t3.5 30t3 17q1 7 4.5 19t6.5 20t3 9h5q0 -4 1.5 -14t0.5 -13q0 -4 -3.5 -17.5t-3.5 -16.5q0 -2 2.5 -9t4.5 -11l27 -54q15 10 21 36.5t10.5 54.5t11.5 49.5t24 21.5
h142l20 -95q7 -2 19.5 -12t25.5 -20.5t23.5 -17.5t12.5 -4l14 27v108q12 -20 15 -35.5t7 -28t13 -25t32 -26.5q3 -2 13.5 -9.5t13.5 -10.5q0 1 0.5 3t0.5 4q0 9 -4.5 13.5t-9.5 8.5t-9.5 7.5t-4.5 10.5q0 5 2 10t8 5q1 0 2.5 -0.5l1.5 -0.5q3 -2 13 -7l14 -7q7 1 7 9v13
q0 2 -0.5 7l-0.5 5l-47 176v67l-74 412q-1 8 -5 17.5t-10 17.5t-14.5 13.5t-17.5 5.5q-11 0 -20.5 -7t-20.5 -7q-5 0 -8 1t-5.5 2.5t-6 3t-10.5 1.5t-16.5 -1t-20 -2t-19.5 -2.5l-15 -2.5q-10 -2 -20 -9.5t-19 -16t-15.5 -15t-9.5 -6.5h-4q0 3 -0.5 11t-2.5 16.5t-6 15
t-11 6.5q-1 0 -3.5 -1t-3.5 -1q-2 -5 -7 -19.5t-10.5 -30.5t-10 -30.5t-5.5 -20.5q-3 -14 -10 -42t-15.5 -63t-18.5 -74t-18.5 -74t-15.5 -63t-10 -42q-1 -30 -7.5 -59t-14 -58t-13.5 -58.5t-6 -60.5v-20l26 12l1.5 0.5t2.5 0.5l3 -1q2 -2 4 -7t3 -7zM214 291
q10 60 28.5 124.5t38.5 118.5l7 -7l47 -216v-20q-29 -4 -49.5 -5.5t-46.5 -1.5q-3 0 -13 -0.5t-12 7.5zM423 689q1 0 2 0.5t2 0.5q7 0 12.5 -20.5t9.5 -46t6 -48.5t2 -27q0 -2 -2.5 -3.5t-4.5 -3.5l-2 -1t-2 1q-1 9 -3.5 28.5t-6 42.5t-7 44t-6.5 33zM84 274v-8
q0 -5 0.5 -12t0.5 -13v-7v-11q0 -7 -0.5 -13t-0.5 -11v-6q0 -8 -2.5 -21t-4.5 -13h-6v7l6 101zM303 915l-7 -26q-2 -2 -4.5 -8t-7.5 -11q-4 -6 -7 -13.5t-5 -9.5v-2q0 -2 1 -3l0.5 -1t1.5 -1l2 -1q-5 -7 -6.5 -20t-5.5 -18l12 -8q1 1 3.5 5.5t5.5 10t6.5 9.5t6.5 4h2l1 -1
l-1 -1q0 -6 -4.5 -9t-4.5 -8v-2l5 2q26 10 46.5 23t43.5 46v7q0 17 -12.5 23.5t-26.5 15.5l-9 7l-3 1q-5 0 -12.5 -3t-11.5 -3h-1q-4 0 -7 -4zM332 914l-2 -3q-2 -3 -3 -6t-3 -6l-5 -7q-2 -4 -1.5 -10t-1.5 -8l-1 -3q-2 -3 -7 -8t-6 -5l-3 3l29 52zM338 876h-1l9 15z" />
    <glyph glyph-name="FL00C2h" unicode="&#xc2;" horiz-adv-x="586" 
d="M51 53q0 -6 2 -17t4.5 -23t4.5 -22.5t3 -16.5q1 -2 3.5 -10t3.5 -10q2 2 4.5 10t2.5 10q1 3 3 17t3.5 30t3.5 30t3 17q1 7 4.5 19t6.5 20t3 9h5q0 -4 1.5 -14t0.5 -13q0 -4 -3.5 -17.5t-3.5 -16.5q0 -2 2.5 -9t4.5 -11l27 -54q15 10 21 36.5t10.5 54.5t11.5 49.5t24 21.5
h142l20 -95q7 -2 19.5 -12t25.5 -20.5t23.5 -17.5t12.5 -4l14 27v108q12 -20 15 -35.5t7 -28t13 -25t32 -26.5q3 -2 13.5 -9.5t13.5 -10.5q0 1 0.5 3t0.5 4q0 9 -4.5 13.5t-9.5 8.5t-9.5 7.5t-4.5 10.5q0 5 2 10t8 5q1 0 2.5 -0.5l1.5 -0.5q3 -2 13 -7l14 -7q7 1 7 9v13
q0 2 -0.5 7l-0.5 5l-47 176v67l-74 412q-1 8 -5 17.5t-10 17.5t-14.5 13.5t-17.5 5.5q-11 0 -20.5 -7t-20.5 -7q-5 0 -8 1t-5.5 2.5t-6 3t-10.5 1.5t-16.5 -1t-20 -2t-19.5 -2.5l-15 -2.5q-10 -2 -20 -9.5t-19 -16t-15.5 -15t-9.5 -6.5h-4q0 3 -0.5 11t-2.5 16.5t-6 15
t-11 6.5q-1 0 -3.5 -1t-3.5 -1q-2 -5 -7 -19.5t-10.5 -30.5t-10 -30.5t-5.5 -20.5q-3 -14 -10 -42t-15.5 -63t-18.5 -74t-18.5 -74t-15.5 -63t-10 -42q-1 -30 -7.5 -59t-14 -58t-13.5 -58.5t-6 -60.5v-20l26 12l1.5 0.5t2.5 0.5l3 -1q2 -2 4 -7t3 -7zM214 291
q10 60 28.5 124.5t38.5 118.5l7 -7l47 -216v-20q-29 -4 -49.5 -5.5t-46.5 -1.5q-3 0 -13 -0.5t-12 7.5zM423 689q1 0 2 0.5t2 0.5q7 0 12.5 -20.5t9.5 -46t6 -48.5t2 -27q0 -2 -2.5 -3.5t-4.5 -3.5l-2 -1t-2 1q-1 9 -3.5 28.5t-6 42.5t-7 44t-6.5 33zM84 274v-8
q0 -5 0.5 -12t0.5 -13v-7v-11q0 -7 -0.5 -13t-0.5 -11v-6q0 -8 -2.5 -21t-4.5 -13h-6v7l6 101zM309 918q-2 -2 -6 -4l-7 3.5t-5 3.5l-52 -29q-2 -2 -4.5 -8t-7.5 -11q-4 -6 -7 -13.5t-5 -9.5v-2q0 -2 1 -3l0.5 -1t1.5 -1l2 -1q-5 -7 -11 -16.5t-10 -14.5l12 -8q1 1 5 4.5
t8.5 7.5t9.5 7t8 3h2l1 -1l-1 -1q0 -6 -4.5 -9t-4.5 -8v-2l5 2q17 7 31 18.5t28 23.5q9 -3 14.5 -8.5t10.5 -11.5t10.5 -11.5t13.5 -8.5l5 -2v2l27 -2q-2 2 -1 5q11 28 7.5 40t-13.5 19q-5 5 -7.5 11t-4.5 8zM315 897l29 -52l-3 -3q-1 0 -6 5t-7 8l-1 3q-2 2 -1.5 8t-1.5 10
l-5 7q-2 3 -3 6t-3 6zM261 889l-5 -7q0 -1 -0.5 -1.5l-0.5 -0.5q0 -1 2 -1t2 -1v-1l-1 -3q-2 -3 -7 -8t-6 -5l-3 3z" />
    <glyph glyph-name="FL00C7h" unicode="&#xc3;" horiz-adv-x="586" 
d="M51 53q0 -6 2 -17t4.5 -23t4.5 -22.5t3 -16.5q1 -2 3.5 -10t3.5 -10q2 2 4.5 10t2.5 10q1 3 3 17t3.5 30t3.5 30t3 17q1 7 4.5 19t6.5 20t3 9h5q0 -4 1.5 -14t0.5 -13q0 -4 -3.5 -17.5t-3.5 -16.5q0 -2 2.5 -9t4.5 -11l27 -54q15 10 21 36.5t10.5 54.5t11.5 49.5t24 21.5
h142l20 -95q7 -2 19.5 -12t25.5 -20.5t23.5 -17.5t12.5 -4l14 27v108q12 -20 15 -35.5t7 -28t13 -25t32 -26.5q3 -2 13.5 -9.5t13.5 -10.5q0 1 0.5 3t0.5 4q0 9 -4.5 13.5t-9.5 8.5t-9.5 7.5t-4.5 10.5q0 5 2 10t8 5q1 0 2.5 -0.5l1.5 -0.5q3 -2 13 -7l14 -7q7 1 7 9v13
q0 2 -0.5 7l-0.5 5l-47 176v67l-74 412q-1 8 -5 17.5t-10 17.5t-14.5 13.5t-17.5 5.5q-11 0 -20.5 -7t-20.5 -7q-5 0 -8 1t-5.5 2.5t-6 3t-10.5 1.5t-16.5 -1t-20 -2t-19.5 -2.5l-15 -2.5q-10 -2 -20 -9.5t-19 -16t-15.5 -15t-9.5 -6.5h-4q0 3 -0.5 11t-2.5 16.5t-6 15
t-11 6.5q-1 0 -3.5 -1t-3.5 -1q-2 -5 -7 -19.5t-10.5 -30.5t-10 -30.5t-5.5 -20.5q-3 -14 -10 -42t-15.5 -63t-18.5 -74t-18.5 -74t-15.5 -63t-10 -42q-1 -30 -7.5 -59t-14 -58t-13.5 -58.5t-6 -60.5v-20l26 12l1.5 0.5t2.5 0.5l3 -1q2 -2 4 -7t3 -7zM214 291
q10 60 28.5 124.5t38.5 118.5l7 -7l47 -216v-20q-29 -4 -49.5 -5.5t-46.5 -1.5q-3 0 -13 -0.5t-12 7.5zM423 689q1 0 2 0.5t2 0.5q7 0 12.5 -20.5t9.5 -46t6 -48.5t2 -27q0 -2 -2.5 -3.5t-4.5 -3.5l-2 -1t-2 1q-1 9 -3.5 28.5t-6 42.5t-7 44t-6.5 33zM84 274v-8
q0 -5 0.5 -12t0.5 -13v-7v-11q0 -7 -0.5 -13t-0.5 -11v-6q0 -8 -2.5 -21t-4.5 -13h-6v7l6 101zM320 796q2 2 6 4l7 -3.5t5 -3.5l52 29q2 2 4.5 8t7.5 11q4 6 7 13.5t5 9.5v2q0 2 -1 3l-0.5 1t-1.5 1l-2 1q5 7 11 16.5t10 14.5l-12 8q-1 -1 -5 -4.5t-8.5 -7.5t-9.5 -7t-8 -3
h-2l-1 1l1 1q0 6 4.5 9t4.5 8v2l-5 -2q-17 -7 -30.5 -18t-27.5 -23q-5 5 -7 11t-4 8l-52 29q-2 -2 -6 -4l-7 3.5t-5 3.5l-52 -29q-2 -2 -4.5 -8t-7.5 -11q-4 -6 -7 -13.5t-5 -9.5v-2q0 -2 1 -3l0.5 -1t1.5 -1l2 -1q-5 -7 -11 -16.5t-10 -14.5l12 -8q1 1 5 4.5t8.5 7.5t9.5 7
t8 3h2l1 -1l-1 -1q0 -6 -4.5 -9t-4.5 -8v-2l5 2q16 6 30 17.5t27 22.5q5 -5 7.5 -10.5t4.5 -7.5zM368 825l5 7q0 1 0.5 1.5l0.5 0.5q0 1 -2 1t-2 1v1l1 3q2 3 7 8t6 5l3 -3zM220 886l-5 -7q0 -1 -0.5 -1.5l-0.5 -0.5q0 -1 2 -1t2 -1v-1l-1 -3q-2 -3 -7 -8t-6 -5l-3 3z
M303 842l-2 -2l-29 30l15 1z" />
    <glyph glyph-name="FL00C4h" unicode="&#xc4;" horiz-adv-x="586" 
d="M51 53q0 -6 2 -17t4.5 -23t4.5 -22.5t3 -16.5q1 -2 3.5 -10t3.5 -10q2 2 4.5 10t2.5 10q1 3 3 17t3.5 30t3.5 30t3 17q1 7 4.5 19t6.5 20t3 9h5q0 -4 1.5 -14t0.5 -13q0 -4 -3.5 -17.5t-3.5 -16.5q0 -2 2.5 -9t4.5 -11l27 -54q15 10 21 36.5t10.5 54.5t11.5 49.5t24 21.5
h142l20 -95q7 -2 19.5 -12t25.5 -20.5t23.5 -17.5t12.5 -4l14 27v108q12 -20 15 -35.5t7 -28t13 -25t32 -26.5q3 -2 13.5 -9.5t13.5 -10.5q0 1 0.5 3t0.5 4q0 9 -4.5 13.5t-9.5 8.5t-9.5 7.5t-4.5 10.5q0 5 2 10t8 5q1 0 2.5 -0.5l1.5 -0.5q3 -2 13 -7l14 -7q7 1 7 9v13
q0 2 -0.5 7l-0.5 5l-47 176v67l-74 412q-1 8 -5 17.5t-10 17.5t-14.5 13.5t-17.5 5.5q-11 0 -20.5 -7t-20.5 -7q-5 0 -8 1t-5.5 2.5t-6 3t-10.5 1.5t-16.5 -1t-20 -2t-19.5 -2.5l-15 -2.5q-10 -2 -20 -9.5t-19 -16t-15.5 -15t-9.5 -6.5h-4q0 3 -0.5 11t-2.5 16.5t-6 15
t-11 6.5q-1 0 -3.5 -1t-3.5 -1q-2 -5 -7 -19.5t-10.5 -30.5t-10 -30.5t-5.5 -20.5q-3 -14 -10 -42t-15.5 -63t-18.5 -74t-18.5 -74t-15.5 -63t-10 -42q-1 -30 -7.5 -59t-14 -58t-13.5 -58.5t-6 -60.5v-20l26 12l1.5 0.5t2.5 0.5l3 -1q2 -2 4 -7t3 -7zM214 291
q10 60 28.5 124.5t38.5 118.5l7 -7l47 -216v-20q-29 -4 -49.5 -5.5t-46.5 -1.5q-3 0 -13 -0.5t-12 7.5zM423 689q1 0 2 0.5t2 0.5q7 0 12.5 -20.5t9.5 -46t6 -48.5t2 -27q0 -2 -2.5 -3.5t-4.5 -3.5l-2 -1t-2 1q-1 9 -3.5 28.5t-6 42.5t-7 44t-6.5 33zM84 274v-8
q0 -5 0.5 -12t0.5 -13v-7v-11q0 -7 -0.5 -13t-0.5 -11v-6q0 -8 -2.5 -21t-4.5 -13h-6v7l6 101zM167 819l10 -22h97q4 0 4.5 4t0.5 8q0 5 -7 8.5t-11 7.5l9 5l4 26q1 5 -4 9.5t-11.5 7.5t-13 5t-7.5 2v4q5 0 9 -2t7 -2q9 0 9 11q0 1 3.5 6l3.5 5l-1.5 3.5t-3.5 3.5h-9l-14 2
q-15 2 -30 5t-35 0l-17 -27l9.5 -5t9.5 -10q0 -14 -9 -17.5t-9 -1.5zM186 834q3 0 3 -4v-9q0 -6 -2 -6q-1 0 -3 6.5t-2 8.5q0 4 4 4zM321 832l-1 -29l113 -6q4 0 4.5 4t0.5 8q0 5 -3.5 6.5t-7.5 5.5l2 9l4 26q-17 12 -20 18t0 6q9 0 9 11q0 1 3.5 6l3.5 5l-1.5 3.5t-3.5 3.5
h-9l-33 7q-3 1 -8 1h-5q-7 0 -13.5 -2.5t-21.5 -4.5l-15 -21v-11q0 -7 0.5 -15t0.5 -16q0 -7 0.5 -11.5t0.5 -3.5zM365 871q3 0 3 -4v-9q0 -6 -2 -6q-1 0 -3 6.5t-2 8.5q0 4 4 4z" />
    <glyph glyph-name="FL00C5h" unicode="&#xc5;" horiz-adv-x="586" 
d="M51 53q0 -6 2 -17t4.5 -23t4.5 -22.5t3 -16.5q1 -2 3.5 -10t3.5 -10q2 2 4.5 10t2.5 10q1 3 3 17t3.5 30t3.5 30t3 17q1 7 4.5 19t6.5 20t3 9h5q0 -4 1.5 -14t0.5 -13q0 -4 -3.5 -17.5t-3.5 -16.5q0 -2 2.5 -9t4.5 -11l27 -54q15 10 21 36.5t10.5 54.5t11.5 49.5t24 21.5
h142l20 -95q7 -2 19.5 -12t25.5 -20.5t23.5 -17.5t12.5 -4l14 27v108q12 -20 15 -35.5t7 -28t13 -25t32 -26.5q3 -2 13.5 -9.5t13.5 -10.5q0 1 0.5 3t0.5 4q0 9 -4.5 13.5t-9.5 8.5t-9.5 7.5t-4.5 10.5q0 5 2 10t8 5q1 0 2.5 -0.5l1.5 -0.5q3 -2 13 -7l14 -7q7 1 7 9v13
q0 2 -0.5 7l-0.5 5l-47 176v67l-74 412q-1 8 -5 17.5t-10 17.5t-14.5 13.5t-17.5 5.5q-11 0 -20.5 -7t-20.5 -7q-5 0 -8 1t-5.5 2.5t-6 3t-10.5 1.5t-16.5 -1t-20 -2t-19.5 -2.5l-15 -2.5q-10 -2 -20 -9.5t-19 -16t-15.5 -15t-9.5 -6.5h-4q0 3 -0.5 11t-2.5 16.5t-6 15
t-11 6.5q-1 0 -3.5 -1t-3.5 -1q-2 -5 -7 -19.5t-10.5 -30.5t-10 -30.5t-5.5 -20.5q-3 -14 -10 -42t-15.5 -63t-18.5 -74t-18.5 -74t-15.5 -63t-10 -42q-1 -30 -7.5 -59t-14 -58t-13.5 -58.5t-6 -60.5v-20l26 12l1.5 0.5t2.5 0.5l3 -1q2 -2 4 -7t3 -7zM214 291
q10 60 28.5 124.5t38.5 118.5l7 -7l47 -216v-20q-29 -4 -49.5 -5.5t-46.5 -1.5q-3 0 -13 -0.5t-12 7.5zM423 689q1 0 2 0.5t2 0.5q7 0 12.5 -20.5t9.5 -46t6 -48.5t2 -27q0 -2 -2.5 -3.5t-4.5 -3.5l-2 -1t-2 1q-1 9 -3.5 28.5t-6 42.5t-7 44t-6.5 33zM84 274v-8
q0 -5 0.5 -12t0.5 -13v-7v-11q0 -7 -0.5 -13t-0.5 -11v-6q0 -8 -2.5 -21t-4.5 -13h-6v7l6 101zM252 833l-1 -29l113 -6q4 0 4.5 4t0.5 8q0 5 -3.5 6.5t-7.5 5.5l2 9l4 26q-17 12 -20 18t0 6q9 0 9 11q0 1 3.5 6l3.5 5l-1.5 3.5t-3.5 3.5h-9l-33 7q-3 1 -8 1h-5
q-7 0 -13.5 -2.5t-21.5 -4.5l-15 -21v-11q0 -7 0.5 -15t0.5 -16q0 -7 0.5 -11.5t0.5 -3.5zM296 872q3 0 3 -4v-9q0 -6 -2 -6q-1 0 -3 6.5t-2 8.5q0 4 4 4z" />
    <glyph glyph-name="FL00C6h" unicode="&#xc6;" horiz-adv-x="897" 
d="M53 51q0 -6 2 -17t4 -22.5t4.5 -22t3.5 -15.5q1 -3 3 -10.5t4 -9.5q2 2 4.5 9.5t2.5 10.5q1 3 2.5 16.5t3.5 29.5t3.5 29.5t2.5 16.5q1 7 4.5 18.5t6.5 19.5t3 9h5q0 -5 1.5 -14.5t0.5 -12.5q0 -2 -1 -7t-2.5 -10.5t-2.5 -10t-1 -5.5q0 -3 2 -9.5t5 -10.5l26 -53
q15 10 21 36t10.5 53.5t11 48.5t23.5 21h139l20 -93q6 -2 18.5 -12l25 -20t22.5 -17t12 -4l14 27v105q10 -18 13.5 -32l6.5 -26t9 -22.5t21 -22.5l1 -16l7 -6q2 2 7 13q4 -3 14 -10t13 -10q0 1 0.5 3t0.5 4q0 10 -6.5 14.5t-12.5 9.5q4 4 7 4l4 -2q6 -4 9.5 -8.5t7 -8.5
t8.5 -6.5t14 -2.5h257q8 0 11 10.5t3 15.5q0 2 -0.5 4l-0.5 2h-10q-12 0 -30.5 3t-25.5 13h40v84q5 5 12.5 17t7.5 20q0 1 -0.5 1.5l-0.5 0.5q-2 3 -9.5 6.5t-9.5 3.5h-138q-2 0 -3 8t-1.5 19t-1 23t-0.5 20q0 3 1.5 13t4.5 13q15 4 35.5 6t41 3.5t38.5 2t29 1.5l7 7
q-3 9 -10.5 10.5t-15 1t-14 0t-7.5 7.5q6 10 18.5 12.5t21.5 7.5q-5 7 -11 10.5t-11 7.5t-8 9.5t-3 16.5h-71q9 3 26 4t34.5 5t30.5 12.5t13 25.5v1q-2 0 -7.5 1t-12 2.5t-12 2.5t-8.5 1q-2 1 -4 5t-2 5h-78l-7 9v57q0 17 7 30q20 4 41.5 5t42.5 3t41.5 7.5t38.5 17.5
q-23 16 -39.5 23t-46.5 10v6q10 1 26 3.5t31 8.5t26 16t11 26q0 6 -5.5 9t-12 5t-13.5 3t-10 3q0 1 -0.5 1.5t-0.5 1.5q0 8 8.5 11.5t19 7t19 8.5t8.5 17q0 17 -9 20t-25 5h-76q-39 0 -76 -3.5t-75 -3.5q-29 0 -55.5 3.5t-55.5 3.5h-31l-19 -38l10 -176l-30 167
q-2 16 -14.5 34.5t-31.5 18.5q-11 0 -20 -7t-19 -7t-14 4t-16 4q-7 0 -17 -1l-20 -2t-18.5 -2.5t-13.5 -2.5q-9 -2 -20 -10q-14 -11 -27 -23t-17 -12h-3q0 3 -0.5 10.5t-2.5 15.5t-6 14.5t-11 6.5q-1 0 -3 -1t-3 -1q-2 -5 -7 -19t-10.5 -29.5t-10 -29.5t-5.5 -20
q-3 -13 -9.5 -40.5t-15.5 -62t-18 -72.5t-18 -72.5t-15.5 -62t-9.5 -41.5q-1 -29 -7.5 -57.5t-13.5 -56.5t-13 -57t-6 -59v-19l25 11l2 1t3 1l2 -2q2 -2 4 -6.5t3 -6.5zM213 283q9 60 27 122t38 116l7 -7l46 -212v-19q-29 -4 -48.5 -5.5t-45.5 -1.5q-3 0 -12.5 -0.5
t-11.5 7.5zM416 673h5q7 0 12 -20t9 -45t6 -47t2 -26q0 -3 -2.5 -4t-4.5 -3l-2 -1.5t-2 1.5q-1 8 -3.5 27.5t-6 41.5t-7 43t-6.5 33zM495 593v8q0 7 0.5 13.5t0.5 11.5v8l5 -7q1 0 2.5 -8t2.5 -19t1.5 -22t0.5 -18v-3q0 -5 0.5 -10t0.5 -10v-16q0 -5 -0.5 -10t-0.5 -10v-6
q-8 9 -10.5 21.5t-3.5 26t0 27t1 23.5zM85 267v-8q0 -5 0.5 -11.5t0.5 -12.5v-18q0 -7 -0.5 -13t-0.5 -11v-6q0 -8 -2 -20.5t-5 -12.5h-6v7l6 99z" />
    <glyph glyph-name="FL01CFh" unicode="&#xc7;" horiz-adv-x="525" 
d="M233 -125l87 1l22 79l-7 7v2q-4 15 -4 30q9 1 16.5 4t14.5 6.5t14.5 6t16.5 2.5h12q2 0 7 -4t7 -3q3 0 15.5 6.5t26 15t24.5 16.5t11 11q0 1 -0.5 2t-0.5 2q-14 13 -35.5 12.5t-45 -3.5t-46 -4.5t-38.5 9.5q21 -1 45.5 2.5t47.5 11.5t44 21.5t35 31.5h-7l-34 -6
q-1 0 -6.5 -1.5t-11.5 -3t-11.5 -3t-6.5 -1.5q0 9 6 15t15.5 11.5t20.5 10.5t21 12q-11 5 -25 3t-28.5 -6l-29 -8t-26.5 -4q0 11 7 16t15.5 8.5t15.5 7t7 11.5q0 1 -0.5 2t-0.5 2q-53 -5 -89 3t-58 30t-31 59t-9 91q0 29 6 61t20 58.5t37 43.5t57 17q20 11 40 11q29 0 55 -9
t41 -9q11 0 16 8.5t3 31.5l-72 28q-1 -1 8 2.5t20 8t20 8t8 2.5l-65 26l8.5 6t19.5 12.5t19.5 12.5l8.5 6q0 2 -1 11t-4 18.5t-7.5 17.5t-10.5 8q-1 0 -2 -0.5t-2 -0.5h-55q-2 0 -7 -2.5t-7 -4.5q-11 10 -24 11t-28 -1t-30.5 -5.5t-31.5 -3.5q-46 0 -83.5 -17t-67.5 -45.5
t-52.5 -66.5t-37 -79t-22 -83.5t-7.5 -80.5q0 -63 14.5 -124.5t43 -113.5t72 -90t102.5 -56v-28l-7 -5v-3q-11 -2 -17.5 -3t-11.5 -1.5t-11 -0.5q-5 0 -13 -1l-5 -5q5 -7 4.5 -8.5t-4.5 -1t-10 1.5t-12 0q1 -1 1.5 -5l1 -8t1 -7.5t1.5 -3.5q5 0 7.5 1.5t4.5 1.5q4 0 4 -9
l40 -6q-3 -1 -7 -1.5t-10 -0.5q-14 0 -30 -3t-16 -19v-1q5 0 14.5 -2t13.5 -2q2 -1 3 -3.5t1 -3.5l39 2l5 -6h8zM210 451q0 21 8 47.5t26 40.5q0 -1 0.5 -3t0.5 -4q0 -22 -11.5 -49t-23.5 -45v13zM60 255q-8 11 -10.5 18.5t-2.5 18.5q0 1 -0.5 13t-1 26.5t-1 26.5t-0.5 13
q3 -5 6 -21t5 -33.5t3.5 -33.5t1.5 -21v-7zM222 714q9 13 25.5 14.5t28.5 1.5v-8q-12 0 -23 -4t-24 -4h-7zM267 -8l2 7h2v-5q0 -1 -0.5 -1.5t-0.5 -2.5q-1 -2 2 -5t1 -7l-3 -19l-19 44q3 -1 11 -3zM253 -71v-7q0 -5 -1 -5.5t-4 -9.5l-5 4l-10 18l5 4l5 -4h10z" />
    <glyph glyph-name="FL00C8h" unicode="&#xc8;" horiz-adv-x="438" 
d="M40 6l7 -6q1 1 3 5.5t5.5 9.5t7.5 9t8 4l3 -1q12 -10 17.5 -18.5t22.5 -8.5h264q7 0 10.5 11t3.5 16q0 2 -0.5 4l-0.5 2h-11q-12 0 -31 3t-25 14h40v85q5 5 13 17t8 21q0 1 -0.5 1.5l-0.5 0.5q-2 3 -10 6.5t-10 3.5h-142q-1 0 -2 8t-2 19.5t-1.5 23.5t-0.5 20q0 4 2 14
t4 13q16 4 37 6.5t42 3.5t39.5 2t30.5 2l7 6q-3 10 -10.5 11.5t-15.5 1t-14.5 0t-7.5 8.5q6 10 18.5 12.5t22.5 7.5q-6 7 -12 10.5t-11 7.5t-8 9.5t-3 16.5h-74q9 3 27 4.5t36 5t31.5 12t13.5 26.5v2q-3 0 -8.5 1t-12 2.5t-12 2.5t-8.5 1q-2 1 -4 5t-2 5h-81l-7 10v25v32
q0 18 7 31q21 4 43 5t43.5 3.5t42.5 8t39 17.5q-24 16 -40.5 23t-46.5 11v6q10 1 26 4t31.5 9t26.5 16t11 26q0 6 -5.5 9.5t-12 5.5t-13.5 3t-10 2q0 1 -0.5 2t-0.5 2q0 8 8.5 11.5t19 7t19.5 9t9 17.5q0 17 -9.5 20t-25.5 5h-16q-11 0 -23 0.5t-23 0.5h-16q-40 0 -78 -4
t-76 -4q-29 0 -57 4t-57 4h-9q-5 0 -10 -0.5t-10 -0.5h-3l-19 -38zM67 82q0 18 1 33.5t6 32.5l7 -7v-81l-7 -6l-7 6v22zM26 607v8q0 6 0.5 13t0.5 12v8l6 -7q1 0 2 -8t2 -19t2 -22.5t1 -18.5v-4q0 -5 0.5 -10t0.5 -10v-9v-7q0 -5 -0.5 -10t-0.5 -10v-7q-8 9 -11 22t-4 27
t0 27.5t1 24.5zM162 887l9 -15h-1zM180 909l29 -52l-3 -3q-1 0 -6 5t-7 8l-1 3q-2 2 -1.5 8t-1.5 10l-5 7q-2 3 -3 6t-3 6l-2 3zM204 912q-3 4 -7 4h-1q-4 0 -11.5 3t-12.5 3l-3 -1l-9 -7q-14 -9 -26.5 -15.5t-12.5 -23.5v-7q23 -33 43.5 -46t46.5 -23l5 -2v2q0 5 -4.5 8
t-4.5 9l-1 1l1 1h2q3 0 6.5 -4t6.5 -9.5t5.5 -10t3.5 -5.5l12 8q-4 5 -5.5 18t-6.5 20l2 1q1 0 1.5 1l0.5 1q1 1 1 3v2q-2 2 -5 9.5t-7 13.5q-5 5 -7.5 11t-4.5 8l-7 26z" />
    <glyph glyph-name="FL00C9h" unicode="&#xc9;" horiz-adv-x="438" 
d="M40 6l7 -6q1 1 3 5.5t5.5 9.5t7.5 9t8 4l3 -1q12 -10 17.5 -18.5t22.5 -8.5h264q7 0 10.5 11t3.5 16q0 2 -0.5 4l-0.5 2h-11q-12 0 -31 3t-25 14h40v85q5 5 13 17t8 21q0 1 -0.5 1.5l-0.5 0.5q-2 3 -10 6.5t-10 3.5h-142q-1 0 -2 8t-2 19.5t-1.5 23.5t-0.5 20q0 4 2 14
t4 13q16 4 37 6.5t42 3.5t39.5 2t30.5 2l7 6q-3 10 -10.5 11.5t-15.5 1t-14.5 0t-7.5 8.5q6 10 18.5 12.5t22.5 7.5q-6 7 -12 10.5t-11 7.5t-8 9.5t-3 16.5h-74q9 3 27 4.5t36 5t31.5 12t13.5 26.5v2q-3 0 -8.5 1t-12 2.5t-12 2.5t-8.5 1q-2 1 -4 5t-2 5h-81l-7 10v25v32
q0 18 7 31q21 4 43 5t43.5 3.5t42.5 8t39 17.5q-24 16 -40.5 23t-46.5 11v6q10 1 26 4t31.5 9t26.5 16t11 26q0 6 -5.5 9.5t-12 5.5t-13.5 3t-10 2q0 1 -0.5 2t-0.5 2q0 8 8.5 11.5t19 7t19.5 9t9 17.5q0 17 -9.5 20t-25.5 5h-16q-11 0 -23 0.5t-23 0.5h-16q-40 0 -78 -4
t-76 -4q-29 0 -57 4t-57 4h-9q-5 0 -10 -0.5t-10 -0.5h-3l-19 -38zM67 82q0 18 1 33.5t6 32.5l7 -7v-81l-7 -6l-7 6v22zM26 607v8q0 6 0.5 13t0.5 12v8l6 -7q1 0 2 -8t2 -19t2 -22.5t1 -18.5v-4q0 -5 0.5 -10t0.5 -10v-9v-7q0 -5 -0.5 -10t-0.5 -10v-7q-8 9 -11 22t-4 27
t0 27.5t1 24.5zM220 906l-7 -26q-2 -2 -4.5 -8t-7.5 -11q-4 -6 -7 -13.5t-5 -9.5v-2q0 -2 1 -3l0.5 -1t1.5 -1l2 -1q-5 -7 -6.5 -20t-5.5 -18l12 -8q1 1 3.5 5.5t5.5 10t6.5 9.5t6.5 4h2l1 -1l-1 -1q0 -6 -4.5 -9t-4.5 -8v-2l5 2q26 10 46.5 23t43.5 46v7q0 17 -12.5 23.5
t-26.5 15.5l-9 7l-3 1q-5 0 -12.5 -3t-11.5 -3h-1q-4 0 -7 -4zM249 905l-2 -3q-2 -3 -3 -6t-3 -6l-5 -7q-2 -4 -1.5 -10t-1.5 -8l-1 -3q-2 -3 -7 -8t-6 -5l-3 3l29 52zM255 867h-1l9 15z" />
    <glyph glyph-name="FL00CAh" unicode="&#xca;" horiz-adv-x="438" 
d="M40 6l7 -6q1 1 3 5.5t5.5 9.5t7.5 9t8 4l3 -1q12 -10 17.5 -18.5t22.5 -8.5h264q7 0 10.5 11t3.5 16q0 2 -0.5 4l-0.5 2h-11q-12 0 -31 3t-25 14h40v85q5 5 13 17t8 21q0 1 -0.5 1.5l-0.5 0.5q-2 3 -10 6.5t-10 3.5h-142q-1 0 -2 8t-2 19.5t-1.5 23.5t-0.5 20q0 4 2 14
t4 13q16 4 37 6.5t42 3.5t39.5 2t30.5 2l7 6q-3 10 -10.5 11.5t-15.5 1t-14.5 0t-7.5 8.5q6 10 18.5 12.5t22.5 7.5q-6 7 -12 10.5t-11 7.5t-8 9.5t-3 16.5h-74q9 3 27 4.5t36 5t31.5 12t13.5 26.5v2q-3 0 -8.5 1t-12 2.5t-12 2.5t-8.5 1q-2 1 -4 5t-2 5h-81l-7 10v25v32
q0 18 7 31q21 4 43 5t43.5 3.5t42.5 8t39 17.5q-24 16 -40.5 23t-46.5 11v6q10 1 26 4t31.5 9t26.5 16t11 26q0 6 -5.5 9.5t-12 5.5t-13.5 3t-10 2q0 1 -0.5 2t-0.5 2q0 8 8.5 11.5t19 7t19.5 9t9 17.5q0 17 -9.5 20t-25.5 5h-16q-11 0 -23 0.5t-23 0.5h-16q-40 0 -78 -4
t-76 -4q-29 0 -57 4t-57 4h-9q-5 0 -10 -0.5t-10 -0.5h-3l-19 -38zM67 82q0 18 1 33.5t6 32.5l7 -7v-81l-7 -6l-7 6v22zM26 607v8q0 6 0.5 13t0.5 12v8l6 -7q1 0 2 -8t2 -19t2 -22.5t1 -18.5v-4q0 -5 0.5 -10t0.5 -10v-9v-7q0 -5 -0.5 -10t-0.5 -10v-7q-8 9 -11 22t-4 27
t0 27.5t1 24.5zM225 911q-2 -2 -6 -4l-7 3.5t-5 3.5l-52 -29q-2 -2 -4.5 -8t-7.5 -11q-4 -6 -7 -13.5t-5 -9.5v-2q0 -2 1 -3l0.5 -1t1.5 -1l2 -1q-5 -7 -11 -16.5t-10 -14.5l12 -8q1 1 5 4.5t8.5 7.5t9.5 7t8 3h2l1 -1l-1 -1q0 -6 -4.5 -9t-4.5 -8v-2l5 2q17 7 31 18.5
t28 23.5q9 -3 14.5 -8.5t10.5 -11.5t10.5 -11.5t13.5 -8.5l5 -2v2l27 -2q-2 2 -1 5q11 28 7.5 40t-13.5 19q-5 5 -7.5 11t-4.5 8zM231 890l29 -52l-3 -3q-1 0 -6 5t-7 8l-1 3q-2 2 -1.5 8t-1.5 10l-5 7q-2 3 -3 6t-3 6zM177 882l-5 -7q0 -1 -0.5 -1.5l-0.5 -0.5q0 -1 2 -1
t2 -1v-1l-1 -3q-2 -3 -7 -8t-6 -5l-3 3z" />
    <glyph glyph-name="FL00CBh" unicode="&#xcb;" horiz-adv-x="438" 
d="M40 6l7 -6q1 1 3 5.5t5.5 9.5t7.5 9t8 4l3 -1q12 -10 17.5 -18.5t22.5 -8.5h264q7 0 10.5 11t3.5 16q0 2 -0.5 4l-0.5 2h-11q-12 0 -31 3t-25 14h40v85q5 5 13 17t8 21q0 1 -0.5 1.5l-0.5 0.5q-2 3 -10 6.5t-10 3.5h-142q-1 0 -2 8t-2 19.5t-1.5 23.5t-0.5 20q0 4 2 14
t4 13q16 4 37 6.5t42 3.5t39.5 2t30.5 2l7 6q-3 10 -10.5 11.5t-15.5 1t-14.5 0t-7.5 8.5q6 10 18.5 12.5t22.5 7.5q-6 7 -12 10.5t-11 7.5t-8 9.5t-3 16.5h-74q9 3 27 4.5t36 5t31.5 12t13.5 26.5v2q-3 0 -8.5 1t-12 2.5t-12 2.5t-8.5 1q-2 1 -4 5t-2 5h-81l-7 10v25v32
q0 18 7 31q21 4 43 5t43.5 3.5t42.5 8t39 17.5q-24 16 -40.5 23t-46.5 11v6q10 1 26 4t31.5 9t26.5 16t11 26q0 6 -5.5 9.5t-12 5.5t-13.5 3t-10 2q0 1 -0.5 2t-0.5 2q0 8 8.5 11.5t19 7t19.5 9t9 17.5q0 17 -9.5 20t-25.5 5h-16q-11 0 -23 0.5t-23 0.5h-16q-40 0 -78 -4
t-76 -4q-29 0 -57 4t-57 4h-9q-5 0 -10 -0.5t-10 -0.5h-3l-19 -38zM67 82q0 18 1 33.5t6 32.5l7 -7v-81l-7 -6l-7 6v22zM26 607v8q0 6 0.5 13t0.5 12v8l6 -7q1 0 2 -8t2 -19t2 -22.5t1 -18.5v-4q0 -5 0.5 -10t0.5 -10v-9v-7q0 -5 -0.5 -10t-0.5 -10v-7q-8 9 -11 22t-4 27
t0 27.5t1 24.5zM79 816l10 -22h97q4 0 4.5 4t0.5 8q0 5 -7 8.5t-11 7.5l9 5l4 26q1 5 -4 9.5t-11.5 7.5t-13 5t-7.5 2v4q5 0 9 -2t7 -2q9 0 9 11q0 1 3.5 6l3.5 5l-1.5 3.5t-3.5 3.5h-9l-14 2q-15 2 -30 5t-35 0l-17 -27l9.5 -5t9.5 -10q0 -14 -9 -17.5t-9 -1.5zM98 831
q3 0 3 -4v-9q0 -6 -2 -6q-1 0 -3 6.5t-2 8.5q0 4 4 4zM233 829l-1 -29l113 -6q4 0 4.5 4t0.5 8q0 5 -3.5 6.5t-7.5 5.5l2 9l4 26q-17 12 -20 18t0 6q9 0 9 11q0 1 3.5 6l3.5 5l-1.5 3.5t-3.5 3.5h-9l-33 7q-3 1 -8 1h-5q-7 0 -13.5 -2.5t-21.5 -4.5l-15 -21v-11
q0 -7 0.5 -15t0.5 -16q0 -7 0.5 -11.5t0.5 -3.5zM277 868q3 0 3 -4v-9q0 -6 -2 -6q-1 0 -3 6.5t-2 8.5q0 4 4 4z" />
    <glyph glyph-name="FL00CCh" unicode="&#xcc;" horiz-adv-x="256" 
d="M126 5q13 0 18.5 -11.5t0.5 -22.5q10 3 19 11t9 20l-1 2q-1 2 -6 4.5t-7 2.5l-7 7q0 2 3.5 10.5t3.5 9.5q2 13 6 37.5t8.5 50.5t8 47l4.5 27t3 29t4.5 49t4 48.5t1.5 28.5q6 49 14 96.5t15.5 95t12.5 95.5t5 98v34q0 5 -6 7h-4h-3q-2 -2 -8.5 -5t-14.5 -6t-15 -6t-9 -4
q-2 2 -10 4.5t-11 2.5h-2q-27 0 -36.5 -12.5t-15.5 -34.5q-5 1 -6.5 6.5t-1.5 11.5t1 11l1 5q-2 3 -12 5t-22 4t-23 3t-14 1q-11 0 -21 -9.5t-10 -20.5q0 -14 6 -27.5t8 -30.5q1 -11 3 -34t4.5 -47t4 -43.5t1.5 -23.5q6 -121 5 -240t9 -239q0 -2 0.5 -10.5t0.5 -10.5h19
q0 -4 5 -17t9 -16l4.5 -0.5t7.5 -0.5q11 0 18 4t18 4zM91 200q7 0 7 -7q1 -3 2 -9.5t2 -14t2 -14t1 -9.5q0 -5 -4 -10.5t-10 -5.5v70zM54 493q1 0 0 -9t-2.5 -20.5t-3 -20.5l-1.5 -9q0 -2 -3 -3.5t-3 3.5q0 1 1.5 10.5t4 20.5t4.5 19.5t3 8.5zM82 652l16 -9l5 -176l-3 23.5
t-6.5 52t-6.5 52t-3 24.5q0 4 -1 16.5t-1 16.5zM97 886l9 -15h-1zM115 908l29 -52l-3 -3q-1 0 -6 5t-7 8l-1 3q-2 2 -1.5 8t-1.5 10l-5 7q-2 3 -3 6t-3 6l-2 3zM139 911q-3 4 -7 4h-1q-4 0 -11.5 3t-12.5 3l-3 -1l-9 -7q-14 -9 -26.5 -15.5t-12.5 -23.5v-7q23 -33 43.5 -46
t46.5 -23l5 -2v2q0 5 -4.5 8t-4.5 9l-1 1l1 1h2q3 0 6.5 -4t6.5 -9.5t5.5 -10t3.5 -5.5l12 8q-4 5 -5.5 18t-6.5 20l2 1q1 0 1.5 1l0.5 1q1 1 1 3v2q-2 2 -5 9.5t-7 13.5q-5 5 -7.5 11t-4.5 8l-7 26z" />
    <glyph glyph-name="FL00CDh" unicode="&#xcd;" horiz-adv-x="256" 
d="M126 5q13 0 18.5 -11.5t0.5 -22.5q10 3 19 11t9 20l-1 2q-1 2 -6 4.5t-7 2.5l-7 7q0 2 3.5 10.5t3.5 9.5q2 13 6 37.5t8.5 50.5t8 47l4.5 27t3 29t4.5 49t4 48.5t1.5 28.5q6 49 14 96.5t15.5 95t12.5 95.5t5 98v34q0 5 -6 7h-4h-3q-2 -2 -8.5 -5t-14.5 -6t-15 -6t-9 -4
q-2 2 -10 4.5t-11 2.5h-2q-27 0 -36.5 -12.5t-15.5 -34.5q-5 1 -6.5 6.5t-1.5 11.5t1 11l1 5q-2 3 -12 5t-22 4t-23 3t-14 1q-11 0 -21 -9.5t-10 -20.5q0 -14 6 -27.5t8 -30.5q1 -11 3 -34t4.5 -47t4 -43.5t1.5 -23.5q6 -121 5 -240t9 -239q0 -2 0.5 -10.5t0.5 -10.5h19
q0 -4 5 -17t9 -16l4.5 -0.5t7.5 -0.5q11 0 18 4t18 4zM91 200q7 0 7 -7q1 -3 2 -9.5t2 -14t2 -14t1 -9.5q0 -5 -4 -10.5t-10 -5.5v70zM54 493q1 0 0 -9t-2.5 -20.5t-3 -20.5l-1.5 -9q0 -2 -3 -3.5t-3 3.5q0 1 1.5 10.5t4 20.5t4.5 19.5t3 8.5zM82 652l16 -9l5 -176l-3 23.5
t-6.5 52t-6.5 52t-3 24.5q0 4 -1 16.5t-1 16.5zM122 911l-7 -26q-2 -2 -4.5 -8t-7.5 -11q-4 -6 -7 -13.5t-5 -9.5v-2q0 -2 1 -3l0.5 -1t1.5 -1l2 -1q-5 -7 -6.5 -20t-5.5 -18l12 -8q1 1 3.5 5.5t5.5 10t6.5 9.5t6.5 4h2l1 -1l-1 -1q0 -6 -4.5 -9t-4.5 -8v-2l5 2
q26 10 46.5 23t43.5 46v7q0 17 -12.5 23.5t-26.5 15.5l-9 7l-3 1q-5 0 -12.5 -3t-11.5 -3h-1q-4 0 -7 -4zM151 910l-2 -3q-2 -3 -3 -6t-3 -6l-5 -7q-2 -4 -1.5 -10t-1.5 -8l-1 -3q-2 -3 -7 -8t-6 -5l-3 3l29 52zM157 872h-1l9 15z" />
    <glyph glyph-name="FL00CEh" unicode="&#xce;" horiz-adv-x="256" 
d="M126 5q13 0 18.5 -11.5t0.5 -22.5q10 3 19 11t9 20l-1 2q-1 2 -6 4.5t-7 2.5l-7 7q0 2 3.5 10.5t3.5 9.5q2 13 6 37.5t8.5 50.5t8 47l4.5 27t3 29t4.5 49t4 48.5t1.5 28.5q6 49 14 96.5t15.5 95t12.5 95.5t5 98v34q0 5 -6 7h-4h-3q-2 -2 -8.5 -5t-14.5 -6t-15 -6t-9 -4
q-2 2 -10 4.5t-11 2.5h-2q-27 0 -36.5 -12.5t-15.5 -34.5q-5 1 -6.5 6.5t-1.5 11.5t1 11l1 5q-2 3 -12 5t-22 4t-23 3t-14 1q-11 0 -21 -9.5t-10 -20.5q0 -14 6 -27.5t8 -30.5q1 -11 3 -34t4.5 -47t4 -43.5t1.5 -23.5q6 -121 5 -240t9 -239q0 -2 0.5 -10.5t0.5 -10.5h19
q0 -4 5 -17t9 -16l4.5 -0.5t7.5 -0.5q11 0 18 4t18 4zM91 200q7 0 7 -7q1 -3 2 -9.5t2 -14t2 -14t1 -9.5q0 -5 -4 -10.5t-10 -5.5v70zM54 493q1 0 0 -9t-2.5 -20.5t-3 -20.5l-1.5 -9q0 -2 -3 -3.5t-3 3.5q0 1 1.5 10.5t4 20.5t4.5 19.5t3 8.5zM82 652l16 -9l5 -176l-3 23.5
t-6.5 52t-6.5 52t-3 24.5q0 4 -1 16.5t-1 16.5zM137 912q-2 -2 -6 -4l-7 3.5t-5 3.5l-52 -29q-2 -2 -4.5 -8t-7.5 -11q-4 -6 -7 -13.5t-5 -9.5v-2q0 -2 1 -3l0.5 -1t1.5 -1l2 -1q-5 -7 -11 -16.5t-10 -14.5l12 -8q1 1 5 4.5t8.5 7.5t9.5 7t8 3h2l1 -1l-1 -1q0 -6 -4.5 -9
t-4.5 -8v-2l5 2q17 7 31 18.5t28 23.5q9 -3 14.5 -8.5t10.5 -11.5t10.5 -11.5t13.5 -8.5l5 -2v2l27 -2q-2 2 -1 5q11 28 7.5 40t-13.5 19q-5 5 -7.5 11t-4.5 8zM143 891l29 -52l-3 -3q-1 0 -6 5t-7 8l-1 3q-2 2 -1.5 8t-1.5 10l-5 7q-2 3 -3 6t-3 6zM89 883l-5 -7
q0 -1 -0.5 -1.5l-0.5 -0.5q0 -1 2 -1t2 -1v-1l-1 -3q-2 -3 -7 -8t-6 -5l-3 3z" />
    <glyph glyph-name="FL00CFh" unicode="&#xcf;" horiz-adv-x="256" 
d="M126 5q13 0 18.5 -11.5t0.5 -22.5q10 3 19 11t9 20l-1 2q-1 2 -6 4.5t-7 2.5l-7 7q0 2 3.5 10.5t3.5 9.5q2 13 6 37.5t8.5 50.5t8 47l4.5 27t3 29t4.5 49t4 48.5t1.5 28.5q6 49 14 96.5t15.5 95t12.5 95.5t5 98v34q0 5 -6 7h-4h-3q-2 -2 -8.5 -5t-14.5 -6t-15 -6t-9 -4
q-2 2 -10 4.5t-11 2.5h-2q-27 0 -36.5 -12.5t-15.5 -34.5q-5 1 -6.5 6.5t-1.5 11.5t1 11l1 5q-2 3 -12 5t-22 4t-23 3t-14 1q-11 0 -21 -9.5t-10 -20.5q0 -14 6 -27.5t8 -30.5q1 -11 3 -34t4.5 -47t4 -43.5t1.5 -23.5q6 -121 5 -240t9 -239q0 -2 0.5 -10.5t0.5 -10.5h19
q0 -4 5 -17t9 -16l4.5 -0.5t7.5 -0.5q11 0 18 4t18 4zM91 200q7 0 7 -7q1 -3 2 -9.5t2 -14t2 -14t1 -9.5q0 -5 -4 -10.5t-10 -5.5v70zM54 493q1 0 0 -9t-2.5 -20.5t-3 -20.5l-1.5 -9q0 -2 -3 -3.5t-3 3.5q0 1 1.5 10.5t4 20.5t4.5 19.5t3 8.5zM82 652l16 -9l5 -176l-3 23.5
t-6.5 52t-6.5 52t-3 24.5q0 4 -1 16.5t-1 16.5zM-7 818l10 -22h97q4 0 4.5 4t0.5 8q0 5 -7 8.5t-11 7.5l9 5l4 26q1 5 -4 9.5t-11.5 7.5t-13 5t-7.5 2v4q5 0 9 -2t7 -2q9 0 9 11q0 1 3.5 6l3.5 5l-1.5 3.5t-3.5 3.5h-9l-14 2q-15 2 -30 5t-35 0l-17 -27l9.5 -5t9.5 -10
q0 -14 -9 -17.5t-9 -1.5zM12 833q3 0 3 -4v-9q0 -6 -2 -6q-1 0 -3 6.5t-2 8.5q0 4 4 4zM147 831l-1 -29l113 -6q4 0 4.5 4t0.5 8q0 5 -3.5 6.5t-7.5 5.5l2 9l4 26q-17 12 -20 18t0 6q9 0 9 11q0 1 3.5 6l3.5 5l-1.5 3.5t-3.5 3.5h-9l-33 7q-3 1 -8 1h-5q-7 0 -13.5 -2.5
t-21.5 -4.5l-15 -21v-11q0 -7 0.5 -15t0.5 -16q0 -7 0.5 -11.5t0.5 -3.5zM191 870q3 0 3 -4v-9q0 -6 -2 -6q-1 0 -3 6.5t-2 8.5q0 4 4 4z" />
    <glyph glyph-name="FL00D0h" unicode="&#xd0;" horiz-adv-x="714" 
d="M354 757l-5 19l-218 -10q1 -5 1.5 -34t1 -72t1 -93.5t0.5 -97.5l-54 -1q0 -2 -3.5 -5.5l-5.5 -5.5q-4 0 -12.5 -1t-18 -2.5t-18 -2.5t-12.5 -1q0 -16 7 -23.5t11.5 -14t1.5 -15.5t-22 -27q7 -3 9.5 -6.5t3 -7.5t2 -8.5t6.5 -8.5q-1 -7 5 -6.5t13 2t11.5 1t0.5 -9.5l10 -6
q20 -1 35.5 0t32.5 1q0 -2 0.5 -4t0.5 -3q0 -3 2 -16t5 -28t5 -28t2 -16v-196q0 -6 1 -16l2 -20t2 -17t1 -8l7 -6l14 60q0 2 3 2t3 -2q2 -2 4.5 -6.5t2.5 -6.5l14 61q0 -5 0.5 -15.5t1.5 -22.5t2 -22.5t2 -14.5q0 -4 4.5 -15.5t12.5 -11.5q9 0 15 12t13 24q5 -8 12 -8
q1 0 2 0.5t2 0.5h55q2 0 7 2.5t7 4.5q10 -10 20 -11t20.5 1.5t22 6t26.5 3.5q36 0 70 17t64 46t55 67t43 79t28 83.5t10 79.5q0 74 -15.5 145.5t-51 127.5t-92 90.5t-137.5 34.5q-17 0 -27.5 -7t-24.5 -11zM387 478h-42l9 84q40 -1 63.5 -12t35.5 -33.5t15.5 -56.5t3.5 -82
q0 -29 -2 -61t-11.5 -58.5t-28.5 -44t-53 -17.5q-17 -9 -33 -10.5t-31 0.5l15 139q20 -3 42 -3.5t32 -0.5q8 0 8 1v68l-69 3q6 0 18 3.5t24.5 8t22.5 8.5t12 4zM504 320v-13q0 -21 -8 -47.5t-26 -40.5q0 1 -0.5 3t-0.5 4q0 22 11.5 49t23.5 45zM369 695l1 6l12 28
q11 -1 27 1t24 -3q-4 0 -13 -5t-18.5 -11t-19 -11t-13.5 -5zM119 371h-22l-11 -5l16 22v27l11 6q7 -14 7 -25q0 -5 -0.5 -10.5t-0.5 -14.5zM648 505v7q8 -11 10.5 -18.5t2.5 -18.5q0 -1 0.5 -13t1 -26.5t1 -26.5t0.5 -13q-3 5 -6 21t-5 33.5t-3.5 33.5t-1.5 21zM276 235
l-8 2q-1 0 0.5 15.5t4.5 24.5l1 5q1 4 1.5 9t2.5 10l5 16q1 2 2 6.5t3 9.5l-10 -85q-2 -10 -2 -13zM479 53h7q-9 -13 -25.5 -14.5t-28.5 -1.5v8q12 0 23 4t24 4zM172 514q0 -2 0.5 -11.5t0.5 -12.5v-19l-11 -1l4 22t6 22z" />
    <glyph glyph-name="FL00D1h" unicode="&#xd1;" horiz-adv-x="567" 
d="M396 81q1 -3 3 -12t3.5 -18.5t3.5 -18.5t3 -12q1 -2 4 -11t6.5 -19t8 -19t8.5 -11q2 3 5 13.5t6 19.5q2 5 4.5 9.5t5.5 4.5l1.5 0.5t2.5 0.5q8 0 11 -11.5t5 -16.5l7 13l47 466v7q1 5 4 25t6 42.5t6 42.5t4 25q2 18 3.5 41t3 47t2 47.5t0.5 42.5q-3 0 -11 -0.5t-17 -1
t-17 -1t-11 -0.5q-2 0 -10 -3t-10 -3q-4 0 -17.5 3t-16.5 3h-10q-21 0 -34.5 -5.5t-22 -12t-12.5 -12t-5 -5.5t-2.5 1l-1.5 1l-13 27l-1 0.5t-2 0.5q-9 0 -10 -8.5t-1 -14.5q0 -88 2 -171t2 -171q0 -2 -3.5 -0.5t-7.5 6.5q-45 90 -81.5 175.5t-59.5 182.5l-7 6h-61
q-1 0 -3.5 -7.5t-3.5 -12.5q0 -3 0.5 -10.5t1 -16.5t1 -16.5t0.5 -10.5h-9q-6 20 -12 34t-15 23t-23.5 13t-37.5 4q-5 0 -8.5 -0.5t-5.5 -5.5v-23q0 -75 4.5 -148.5t4.5 -148.5q7 0 13 -5t5 -13q1 -5 2.5 -17t2.5 -26t1.5 -26.5t0.5 -18.5v-11v-18v-20v-11q0 -8 3 -21t4 -13
h11v94l9 -6v-81q-7 -7 -7 -15v-15q0 -26 2.5 -54.5t6 -57.5t7 -56.5t5.5 -51.5l20 20l1 0.5t2 0.5t2.5 -0.5l1.5 -0.5q2 -2 7 -10t6 -10l14 40q0 3 6 3q5 0 13 -10.5t16 -24t13.5 -26t5.5 -16.5q8 11 11 23.5t3 24.5q0 10 -7.5 17t-7.5 16q0 1 0.5 4l0.5 3l6 13q1 6 4 19.5
t6.5 27.5l6.5 26t4 15l13 108q1 0 2 0.5t2 0.5l3 -1l7 -7q4 -5 14 -19.5t20.5 -30.5t20 -30.5t12.5 -20.5l7 -13l54 -135l7 -7q4 8 6.5 19.5t4 23.5t2 22.5t0.5 15.5zM166 169q0 -2 0.5 -7t0.5 -7q0 -10 -1 -16.5t-6 -16.5q0 2 -0.5 10t-0.5 10t-0.5 13.5t7.5 13.5zM247 459
q7 0 7 -7q3 -4 10.5 -16.5t9.5 -16.5l9.5 -19l11 -22l9.5 -19l4 -8l38 -67q-4 3 -13.5 15.5t-20 27t-19.5 27.5t-12 17q-4 8 -9.5 20.5t-11 24.5t-9.5 21l-4 9v13zM241 473q5 0 5 -7t-5 -7t-5 7t5 7zM403 635v-88l-7 -7v27q0 20 1 34t6 34zM302 788q2 2 6 4l7 -3.5t5 -3.5
l52 29q2 2 4.5 8t7.5 11q4 6 7 13.5t5 9.5v2q0 2 -1 3l-0.5 1t-1.5 1l-2 1q5 7 11 16.5t10 14.5l-12 8q-1 -1 -5 -4.5t-8.5 -7.5t-9.5 -7t-8 -3h-2l-1 1l1 1q0 6 4.5 9t4.5 8v2l-5 -2q-17 -7 -30.5 -18t-27.5 -23q-5 5 -7 11t-4 8l-52 29q-2 -2 -6 -4l-7 3.5t-5 3.5l-52 -29
q-2 -2 -4.5 -8t-7.5 -11q-4 -6 -7 -13.5t-5 -9.5v-2q0 -2 1 -3l0.5 -1t1.5 -1l2 -1q-5 -7 -11 -16.5t-10 -14.5l12 -8q1 1 5 4.5t8.5 7.5t9.5 7t8 3h2l1 -1l-1 -1q0 -6 -4.5 -9t-4.5 -8v-2l5 2q16 6 30 17.5t27 22.5q5 -5 7.5 -10.5t4.5 -7.5zM350 817l5 7q0 1 0.5 1.5
l0.5 0.5q0 1 -2 1t-2 1v1l1 3q2 3 7 8t6 5l3 -3zM202 878l-5 -7q0 -1 -0.5 -1.5l-0.5 -0.5q0 -1 2 -1t2 -1v-1l-1 -3q-2 -3 -7 -8t-6 -5l-3 3zM285 834l-2 -2l-29 30l15 1z" />
    <glyph glyph-name="FL00D2h" unicode="&#xd2;" horiz-adv-x="614" 
d="M246 -40q-5 0 -5 -6q0 -7 5 -7q6 0 6 7q0 6 -6 6zM300 -6q-5 -4 -12 -5t-14 -2.5t-11.5 -4.5t-4.5 -11q0 -2 1 -5.5t1 -5.5q87 22 151.5 55t107.5 82.5t64 119t21 165.5q0 44 -9.5 90.5t-27.5 91.5t-45 85t-62.5 70t-78.5 47.5t-94 17.5q-32 0 -49 -12t-25.5 -26.5
t-12 -27.5t-8.5 -15q-19 -8 -32.5 -12.5t-27.5 -21.5q-63 -75 -96 -166t-33 -191q0 -38 9 -76.5t25.5 -74.5t40.5 -67t54 -53q23 -16 44 -24.5t43 -22.5h81zM564 257q0 -2 0.5 -8t0.5 -8q0 -33 -11.5 -68t-37.5 -57v4v2l14 34q2 6 7 20t10 30.5t10 30.5t7 20zM213 325
q0 62 26.5 114.5t60.5 101.5l7 7l1.5 0.5t2.5 0.5l3 -1q23 -18 37.5 -41.5t23 -49.5t11.5 -53.5t3 -54.5v-12q0 -8 -0.5 -17t-0.5 -17v-12q-7 -26 -18 -53.5t-29 -47.5q-3 -4 -8.5 -9.5t-11.5 -11t-10 -9.5l-4 -4l-8 -34l-4.5 10t-11 22.5l-13 25t-10.5 17.5
q-24 26 -35.5 59.5t-11.5 68.5zM44 257v21q6 -19 9.5 -38t3.5 -39v-11q-10 14 -11.5 32.5t-1.5 34.5zM361 521q0 3 5 10.5t9 9.5q3 2 8 -0.5t5 -6.5q14 -20 18.5 -36t4.5 -38q0 -4 -1 -11t-2 -9l-6 -7l-21 74q-2 5 -9.5 9.5t-10.5 4.5zM543 575q6 0 6 -7q0 -2 2 -15.5
t3.5 -29t2.5 -28t0 -12.5t-6 16.5t-10.5 37t-10 38t-4.5 19.5q0 1 2.5 -1.5t5.5 -6.5t5.5 -7.5t3.5 -3.5zM159 635l1 -2q0 -1 -0.5 -2.5l-0.5 -1.5q-2 -3 -7 -11t-7 -10h-3h-4q3 5 9 14t12 13zM199 670q8 0 15 -2t7 -14q-1 0 -4 0.5t-4 1.5l-7 3.5t-7 2.5q-1 0 -9.5 -3
t-10.5 -3h-3h-4q4 11 11 12.5t16 1.5zM94 143q-2 3 -6.5 9t-6.5 8q34 -21 58 -53l7 -8q-17 5 -29.5 18.5t-22.5 25.5zM269 890l9 -15h-1zM287 912l29 -52l-3 -3q-1 0 -6 5t-7 8l-1 3q-2 2 -1.5 8t-1.5 10l-5 7q-2 3 -3 6t-3 6l-2 3zM311 915q-3 4 -7 4h-1q-4 0 -11.5 3
t-12.5 3l-3 -1l-9 -7q-14 -9 -26.5 -15.5t-12.5 -23.5v-7q23 -33 43.5 -46t46.5 -23l5 -2v2q0 5 -4.5 8t-4.5 9l-1 1l1 1h2q3 0 6.5 -4t6.5 -9.5t5.5 -10t3.5 -5.5l12 8q-4 5 -5.5 18t-6.5 20l2 1q1 0 1.5 1l0.5 1q1 1 1 3v2q-2 2 -5 9.5t-7 13.5q-5 5 -7.5 11t-4.5 8l-7 26
z" />
    <glyph glyph-name="FL00D3h" unicode="&#xd3;" horiz-adv-x="614" 
d="M246 -40q-5 0 -5 -6q0 -7 5 -7q6 0 6 7q0 6 -6 6zM300 -6q-5 -4 -12 -5t-14 -2.5t-11.5 -4.5t-4.5 -11q0 -2 1 -5.5t1 -5.5q87 22 151.5 55t107.5 82.5t64 119t21 165.5q0 44 -9.5 90.5t-27.5 91.5t-45 85t-62.5 70t-78.5 47.5t-94 17.5q-32 0 -49 -12t-25.5 -26.5
t-12 -27.5t-8.5 -15q-19 -8 -32.5 -12.5t-27.5 -21.5q-63 -75 -96 -166t-33 -191q0 -38 9 -76.5t25.5 -74.5t40.5 -67t54 -53q23 -16 44 -24.5t43 -22.5h81zM564 257q0 -2 0.5 -8t0.5 -8q0 -33 -11.5 -68t-37.5 -57v4v2l14 34q2 6 7 20t10 30.5t10 30.5t7 20zM213 325
q0 62 26.5 114.5t60.5 101.5l7 7l1.5 0.5t2.5 0.5l3 -1q23 -18 37.5 -41.5t23 -49.5t11.5 -53.5t3 -54.5v-12q0 -8 -0.5 -17t-0.5 -17v-12q-7 -26 -18 -53.5t-29 -47.5q-3 -4 -8.5 -9.5t-11.5 -11t-10 -9.5l-4 -4l-8 -34l-4.5 10t-11 22.5l-13 25t-10.5 17.5
q-24 26 -35.5 59.5t-11.5 68.5zM44 257v21q6 -19 9.5 -38t3.5 -39v-11q-10 14 -11.5 32.5t-1.5 34.5zM361 521q0 3 5 10.5t9 9.5q3 2 8 -0.5t5 -6.5q14 -20 18.5 -36t4.5 -38q0 -4 -1 -11t-2 -9l-6 -7l-21 74q-2 5 -9.5 9.5t-10.5 4.5zM543 575q6 0 6 -7q0 -2 2 -15.5
t3.5 -29t2.5 -28t0 -12.5t-6 16.5t-10.5 37t-10 38t-4.5 19.5q0 1 2.5 -1.5t5.5 -6.5t5.5 -7.5t3.5 -3.5zM159 635l1 -2q0 -1 -0.5 -2.5l-0.5 -1.5q-2 -3 -7 -11t-7 -10h-3h-4q3 5 9 14t12 13zM199 670q8 0 15 -2t7 -14q-1 0 -4 0.5t-4 1.5l-7 3.5t-7 2.5q-1 0 -9.5 -3
t-10.5 -3h-3h-4q4 11 11 12.5t16 1.5zM94 143q-2 3 -6.5 9t-6.5 8q34 -21 58 -53l7 -8q-17 5 -29.5 18.5t-22.5 25.5zM285 911l-7 -26q-2 -2 -4.5 -8t-7.5 -11q-4 -6 -7 -13.5t-5 -9.5v-2q0 -2 1 -3l0.5 -1t1.5 -1l2 -1q-5 -7 -6.5 -20t-5.5 -18l12 -8q1 1 3.5 5.5t5.5 10
t6.5 9.5t6.5 4h2l1 -1l-1 -1q0 -6 -4.5 -9t-4.5 -8v-2l5 2q26 10 46.5 23t43.5 46v7q0 17 -12.5 23.5t-26.5 15.5l-9 7l-3 1q-5 0 -12.5 -3t-11.5 -3h-1q-4 0 -7 -4zM314 910l-2 -3q-2 -3 -3 -6t-3 -6l-5 -7q-2 -4 -1.5 -10t-1.5 -8l-1 -3q-2 -3 -7 -8t-6 -5l-3 3l29 52z
M320 872h-1l9 15z" />
    <glyph glyph-name="FL00D4h" unicode="&#xd4;" horiz-adv-x="614" 
d="M246 -40q-5 0 -5 -6q0 -7 5 -7q6 0 6 7q0 6 -6 6zM300 -6q-5 -4 -12 -5t-14 -2.5t-11.5 -4.5t-4.5 -11q0 -2 1 -5.5t1 -5.5q87 22 151.5 55t107.5 82.5t64 119t21 165.5q0 44 -9.5 90.5t-27.5 91.5t-45 85t-62.5 70t-78.5 47.5t-94 17.5q-32 0 -49 -12t-25.5 -26.5
t-12 -27.5t-8.5 -15q-19 -8 -32.5 -12.5t-27.5 -21.5q-63 -75 -96 -166t-33 -191q0 -38 9 -76.5t25.5 -74.5t40.5 -67t54 -53q23 -16 44 -24.5t43 -22.5h81zM564 257q0 -2 0.5 -8t0.5 -8q0 -33 -11.5 -68t-37.5 -57v4v2l14 34q2 6 7 20t10 30.5t10 30.5t7 20zM213 325
q0 62 26.5 114.5t60.5 101.5l7 7l1.5 0.5t2.5 0.5l3 -1q23 -18 37.5 -41.5t23 -49.5t11.5 -53.5t3 -54.5v-12q0 -8 -0.5 -17t-0.5 -17v-12q-7 -26 -18 -53.5t-29 -47.5q-3 -4 -8.5 -9.5t-11.5 -11t-10 -9.5l-4 -4l-8 -34l-4.5 10t-11 22.5l-13 25t-10.5 17.5
q-24 26 -35.5 59.5t-11.5 68.5zM44 257v21q6 -19 9.5 -38t3.5 -39v-11q-10 14 -11.5 32.5t-1.5 34.5zM361 521q0 3 5 10.5t9 9.5q3 2 8 -0.5t5 -6.5q14 -20 18.5 -36t4.5 -38q0 -4 -1 -11t-2 -9l-6 -7l-21 74q-2 5 -9.5 9.5t-10.5 4.5zM543 575q6 0 6 -7q0 -2 2 -15.5
t3.5 -29t2.5 -28t0 -12.5t-6 16.5t-10.5 37t-10 38t-4.5 19.5q0 1 2.5 -1.5t5.5 -6.5t5.5 -7.5t3.5 -3.5zM159 635l1 -2q0 -1 -0.5 -2.5l-0.5 -1.5q-2 -3 -7 -11t-7 -10h-3h-4q3 5 9 14t12 13zM199 670q8 0 15 -2t7 -14q-1 0 -4 0.5t-4 1.5l-7 3.5t-7 2.5q-1 0 -9.5 -3
t-10.5 -3h-3h-4q4 11 11 12.5t16 1.5zM94 143q-2 3 -6.5 9t-6.5 8q34 -21 58 -53l7 -8q-17 5 -29.5 18.5t-22.5 25.5zM301 906q-2 -2 -6 -4l-7 3.5t-5 3.5l-52 -29q-2 -2 -4.5 -8t-7.5 -11q-4 -6 -7 -13.5t-5 -9.5v-2q0 -2 1 -3l0.5 -1t1.5 -1l2 -1q-5 -7 -11 -16.5
t-10 -14.5l12 -8q1 1 5 4.5t8.5 7.5t9.5 7t8 3h2l1 -1l-1 -1q0 -6 -4.5 -9t-4.5 -8v-2l5 2q17 7 31 18.5t28 23.5q9 -3 14.5 -8.5t10.5 -11.5t10.5 -11.5t13.5 -8.5l5 -2v2l27 -2q-2 2 -1 5q11 28 7.5 40t-13.5 19q-5 5 -7.5 11t-4.5 8zM307 885l29 -52l-3 -3q-1 0 -6 5
t-7 8l-1 3q-2 2 -1.5 8t-1.5 10l-5 7q-2 3 -3 6t-3 6zM253 877l-5 -7q0 -1 -0.5 -1.5l-0.5 -0.5q0 -1 2 -1t2 -1v-1l-1 -3q-2 -3 -7 -8t-6 -5l-3 3z" />
    <glyph glyph-name="FL00D5h" unicode="&#xd5;" horiz-adv-x="614" 
d="M246 -40q-5 0 -5 -6q0 -7 5 -7q6 0 6 7q0 6 -6 6zM300 -6q-5 -4 -12 -5t-14 -2.5t-11.5 -4.5t-4.5 -11q0 -2 1 -5.5t1 -5.5q87 22 151.5 55t107.5 82.5t64 119t21 165.5q0 44 -9.5 90.5t-27.5 91.5t-45 85t-62.5 70t-78.5 47.5t-94 17.5q-32 0 -49 -12t-25.5 -26.5
t-12 -27.5t-8.5 -15q-19 -8 -32.5 -12.5t-27.5 -21.5q-63 -75 -96 -166t-33 -191q0 -38 9 -76.5t25.5 -74.5t40.5 -67t54 -53q23 -16 44 -24.5t43 -22.5h81zM564 257q0 -2 0.5 -8t0.5 -8q0 -33 -11.5 -68t-37.5 -57v4v2l14 34q2 6 7 20t10 30.5t10 30.5t7 20zM213 325
q0 62 26.5 114.5t60.5 101.5l7 7l1.5 0.5t2.5 0.5l3 -1q23 -18 37.5 -41.5t23 -49.5t11.5 -53.5t3 -54.5v-12q0 -8 -0.5 -17t-0.5 -17v-12q-7 -26 -18 -53.5t-29 -47.5q-3 -4 -8.5 -9.5t-11.5 -11t-10 -9.5l-4 -4l-8 -34l-4.5 10t-11 22.5l-13 25t-10.5 17.5
q-24 26 -35.5 59.5t-11.5 68.5zM44 257v21q6 -19 9.5 -38t3.5 -39v-11q-10 14 -11.5 32.5t-1.5 34.5zM361 521q0 3 5 10.5t9 9.5q3 2 8 -0.5t5 -6.5q14 -20 18.5 -36t4.5 -38q0 -4 -1 -11t-2 -9l-6 -7l-21 74q-2 5 -9.5 9.5t-10.5 4.5zM543 575q6 0 6 -7q0 -2 2 -15.5
t3.5 -29t2.5 -28t0 -12.5t-6 16.5t-10.5 37t-10 38t-4.5 19.5q0 1 2.5 -1.5t5.5 -6.5t5.5 -7.5t3.5 -3.5zM159 635l1 -2q0 -1 -0.5 -2.5l-0.5 -1.5q-2 -3 -7 -11t-7 -10h-3h-4q3 5 9 14t12 13zM199 670q8 0 15 -2t7 -14q-1 0 -4 0.5t-4 1.5l-7 3.5t-7 2.5q-1 0 -9.5 -3
t-10.5 -3h-3h-4q4 11 11 12.5t16 1.5zM94 143q-2 3 -6.5 9t-6.5 8q34 -21 58 -53l7 -8q-17 5 -29.5 18.5t-22.5 25.5zM328 789q2 2 6 4l7 -3.5t5 -3.5l52 29q2 2 4.5 8t7.5 11q4 6 7 13.5t5 9.5v2q0 2 -1 3l-0.5 1t-1.5 1l-2 1q5 7 11 16.5t10 14.5l-12 8q-1 -1 -5 -4.5
t-8.5 -7.5t-9.5 -7t-8 -3h-2l-1 1l1 1q0 6 4.5 9t4.5 8v2l-5 -2q-17 -7 -30.5 -18t-27.5 -23q-5 5 -7 11t-4 8l-52 29q-2 -2 -6 -4l-7 3.5t-5 3.5l-52 -29q-2 -2 -4.5 -8t-7.5 -11q-4 -6 -7 -13.5t-5 -9.5v-2q0 -2 1 -3l0.5 -1t1.5 -1l2 -1q-5 -7 -11 -16.5t-10 -14.5l12 -8
q1 1 5 4.5t8.5 7.5t9.5 7t8 3h2l1 -1l-1 -1q0 -6 -4.5 -9t-4.5 -8v-2l5 2q16 6 30 17.5t27 22.5q5 -5 7.5 -10.5t4.5 -7.5zM376 818l5 7q0 1 0.5 1.5l0.5 0.5q0 1 -2 1t-2 1v1l1 3q2 3 7 8t6 5l3 -3zM228 879l-5 -7q0 -1 -0.5 -1.5l-0.5 -0.5q0 -1 2 -1t2 -1v-1l-1 -3
q-2 -3 -7 -8t-6 -5l-3 3zM311 835l-2 -2l-29 30l15 1z" />
    <glyph glyph-name="FL00D6h" unicode="&#xd6;" horiz-adv-x="614" 
d="M246 -40q-5 0 -5 -6q0 -7 5 -7q6 0 6 7q0 6 -6 6zM300 -6q-5 -4 -12 -5t-14 -2.5t-11.5 -4.5t-4.5 -11q0 -2 1 -5.5t1 -5.5q87 22 151.5 55t107.5 82.5t64 119t21 165.5q0 44 -9.5 90.5t-27.5 91.5t-45 85t-62.5 70t-78.5 47.5t-94 17.5q-32 0 -49 -12t-25.5 -26.5
t-12 -27.5t-8.5 -15q-19 -8 -32.5 -12.5t-27.5 -21.5q-63 -75 -96 -166t-33 -191q0 -38 9 -76.5t25.5 -74.5t40.5 -67t54 -53q23 -16 44 -24.5t43 -22.5h81zM564 257q0 -2 0.5 -8t0.5 -8q0 -33 -11.5 -68t-37.5 -57v4v2l14 34q2 6 7 20t10 30.5t10 30.5t7 20zM213 325
q0 62 26.5 114.5t60.5 101.5l7 7l1.5 0.5t2.5 0.5l3 -1q23 -18 37.5 -41.5t23 -49.5t11.5 -53.5t3 -54.5v-12q0 -8 -0.5 -17t-0.5 -17v-12q-7 -26 -18 -53.5t-29 -47.5q-3 -4 -8.5 -9.5t-11.5 -11t-10 -9.5l-4 -4l-8 -34l-4.5 10t-11 22.5l-13 25t-10.5 17.5
q-24 26 -35.5 59.5t-11.5 68.5zM44 257v21q6 -19 9.5 -38t3.5 -39v-11q-10 14 -11.5 32.5t-1.5 34.5zM361 521q0 3 5 10.5t9 9.5q3 2 8 -0.5t5 -6.5q14 -20 18.5 -36t4.5 -38q0 -4 -1 -11t-2 -9l-6 -7l-21 74q-2 5 -9.5 9.5t-10.5 4.5zM543 575q6 0 6 -7q0 -2 2 -15.5
t3.5 -29t2.5 -28t0 -12.5t-6 16.5t-10.5 37t-10 38t-4.5 19.5q0 1 2.5 -1.5t5.5 -6.5t5.5 -7.5t3.5 -3.5zM159 635l1 -2q0 -1 -0.5 -2.5l-0.5 -1.5q-2 -3 -7 -11t-7 -10h-3h-4q3 5 9 14t12 13zM199 670q8 0 15 -2t7 -14q-1 0 -4 0.5t-4 1.5l-7 3.5t-7 2.5q-1 0 -9.5 -3
t-10.5 -3h-3h-4q4 11 11 12.5t16 1.5zM94 143q-2 3 -6.5 9t-6.5 8q34 -21 58 -53l7 -8q-17 5 -29.5 18.5t-22.5 25.5zM172 827l10 -22h97q4 0 4.5 4t0.5 8q0 5 -9 5.5t-13 4.5l9 5l4 26q1 5 -4 9.5t-11.5 7.5t-13 5t-7.5 2v4q5 0 9 -2t7 -2q9 0 9 11q0 1 3.5 6l3.5 5
l-1.5 3.5t-3.5 3.5h-9l-14 2q-15 2 -30 5t-35 0l-17 -27l9.5 -5t9.5 -10q0 -14 -9 -17.5t-9 -1.5zM187 836q3 0 3 -4v-9q0 -3 2 -1.5t0 1.5q-1 0 -5 3.5t-4 5.5q0 4 4 4zM322 834l3 -23l113 -6q4 0 4.5 4t0.5 8q0 5 -5.5 3.5t-9.5 2.5l2 9l4 26q-17 12 -20 18t0 6q9 0 9 11
q0 1 3.5 6l3.5 5l-1.5 3.5t-3.5 3.5h-9l-33 7q-3 1 -8 1h-5q-7 0 -13.5 -2.5t-21.5 -4.5l-15 -21v-11q0 -7 0.5 -15t0.5 -16q0 -7 0.5 -11.5t0.5 -3.5zM366 873q3 0 3 -4v-9q0 -6 -2 -6q-1 0 -3 6.5t-2 8.5q0 4 4 4z" />
    <glyph glyph-name="FL00D7h" unicode="&#xd7;" horiz-adv-x="340" 
d="M35 386l54 -55l-7 -7l1 -10l-48 -48q3 -3 3 -10q-3 -4 -10.5 -15t-10.5 -14l1 -1q10 -11 21 -8.5t21.5 10.5t19.5 17.5t16 12.5l-29 -41q9 -7 5 -11q-2 -2 -6.5 -3t-7.5 -5q-1 -1 2 -4.5t6.5 -8t7 -8.5t3.5 -6q6 4 10.5 10.5t7.5 10t5 2.5t4 -12h9q14 12 28 27.5t36 29.5
l4 -3l9 1l49 -48q0 1 3.5 2.5t5.5 0.5q4 -3 15 -10t14 -10h1q10 10 12 15.5t-1 9t-8 7t-8 10.5l14 8q6 6 8.5 4.5t4.5 -5.5t5 -8t11 -3q-2 4 -9 10l-14 12t-12.5 12t-4.5 10l46 4v9q-6 7 -13 13.5t-14 13.5q-8 8 -16.5 18t-15.5 23l-2.5 2l-7.5 6l7 6q4 -5 15.5 0.5
t23.5 14.5t21 17.5t8 9.5l-31 55l-28 4q2 2 0 8t-5 12l-5.5 11t-1.5 5l1 8l-92 -89q-12 8 -11 9q5 5 -0.5 16.5t-14.5 23t-17.5 20.5t-9.5 8l-55 -30l-4 -29q-2 3 -8 1t-12 -5.5t-11 -6.5t-5 -1zM280 405l-9 -9l-1 -8l-7 -1l-8 26v9q7 -4 9.5 -5t4.5 -2t4 -3zM229 249l5 -16
v-8h-8l-26 58l21 -15q5 -3 5.5 -8.5t2.5 -5.5q4 -2 5.5 -3.5l8.5 -8.5z" />
    <glyph glyph-name="FL00D8h" unicode="&#xd8;" horiz-adv-x="600" 
d="M293 -6q-5 -4 -11.5 -5t-13.5 -2t-11.5 -4.5t-4.5 -11.5q0 -2 1 -5t1 -5q85 21 148 53t105 80.5t62.5 117t20.5 162.5q0 64 -20.5 133t-60 126.5t-97 95t-131.5 37.5q-32 0 -48.5 -12t-25 -26t-12 -26.5t-8.5 -13.5q-18 -9 -31.5 -13.5t-26.5 -20.5q-61 -73 -93.5 -162.5
t-32.5 -186.5q0 -37 8.5 -75t25 -72.5t40 -65t52.5 -52.5q23 -15 43 -23.5t42 -22.5h79zM381 342v-13q0 -8 -0.5 -16t-0.5 -16v-13q-8 -25 -18.5 -52t-27.5 -47q-4 -4 -12.5 -12t-14.5 -13.5t-7 -6.5l-8 -33q-1 2 -4.5 16.5t-9 33t-9.5 24.5q20 39 35 72t26 63.5t19.5 59.5
t16.5 60q8 -26 11.5 -53.5t3.5 -53.5zM217 297q-8 39 -10 78.5t5.5 72.5t26.5 55t54 26l7 7l1 0.5t3 0.5l3 -1q4 -3 7.5 -3.5t5.5 -0.5q6 0 11 -6q-13 -17 -25.5 -45t-26 -59.5t-29 -64.5t-33.5 -60zM551 251q0 -2 0.5 -7.5t0.5 -7.5q0 -33 -11 -67.5t-36 -54.5v6l13 33
q2 5 6.5 19t10 30t10 30t6.5 19zM388 509q8 -15 10.5 -28t2.5 -31q0 -4 -0.5 -10.5t-1.5 -9.5l-6 -7l-16 55q4 9 6 16.5t5 14.5zM531 562q6 0 6 -7q0 -2 2 -15t3.5 -28t2.5 -27t-1 -12q-1 0 -5.5 16t-10 36t-10 37t-4.5 19q0 1 2.5 -2t5.5 -6.5t5.5 -7t3.5 -3.5zM43 251v20
q12 -36 12 -74v-12q-9 15 -10.5 33t-1.5 33zM92 140q-2 3 -6.5 8.5t-6.5 7.5q17 -11 31.5 -23.5t25.5 -27.5l7 -8q-17 5 -29 18t-22 25zM194 654q8 0 15 -2t7 -13q-1 0 -4 1t-4 2q-2 0 -6.5 2.5t-7.5 2.5q-1 0 -9 -2.5t-10 -2.5h-7q4 11 11 11.5t15 0.5zM155 621l1 -2
q0 -1 -0.5 -2.5l-0.5 -1.5q-2 -3 -6.5 -10.5t-7.5 -9.5h-6q3 5 8.5 13t11.5 13zM240 -39q-4 0 -4 -6q0 -7 4 -7q6 0 6 7q0 6 -6 6z" />
    <glyph glyph-name="FL00D9h" unicode="&#xd9;" horiz-adv-x="614" 
d="M397 222q-6 18 -7 33t-1 34v7q0 5 0.5 10t0.5 10v7q2 6 5.5 7t7.5 1t9 -1t5 -7q0 -2 -3.5 -13.5t-3.5 -13.5q-1 -4 -2.5 -13.5t-2.5 -20t-1.5 -20.5t-0.5 -14zM379 50q9 0 16 -1.5t11 -12.5h-7q-2 0 -10.5 3t-9.5 3q-2 0 -7 -2.5l-7 -3.5q-1 -1 -4 -1.5t-4 -0.5
q0 12 7 14t15 2zM551 684q6 -4 12 -13t9 -14l-6 -55q-2 1 -4 12.5t-4.5 25t-4 25t-2.5 13.5l-0.5 1.5t-0.5 2.5zM526 188q0 -1 -1 -1v-1v2h1zM205 706l8 -50q5 -2 7 -7l-20 -68q0 1 1 12.5t2.5 25t2.5 25t1 12.5zM235 529q5 18 5.5 28.5t0.5 27.5v30q0 11 2.5 34t2.5 42
q0 13 -3 21l-17 67q-4 9 -7 2.5t-6.5 -18t-8.5 -22.5t-14 -11q-3 0 -2 6.5t2.5 14.5t2.5 14.5t-1 7.5h-118v-42q-2 -1 -3 -5.5t-2.5 -10.5t-3 -11t-2.5 -6q-1 13 -2.5 25.5t-6.5 22t-15 15.5t-27 6h-2q-2 -2 -4 -7t-3 -7v-7q4 -15 6 -37.5t3 -45.5t2.5 -44t4.5 -34
q-7 -17 -7 -41q0 -31 6.5 -71t6.5 -104q0 -96 17.5 -163.5t56 -114.5t99.5 -78t148 -53l2 11q0 8 -2.5 11t-6 4.5t-8.5 2.5t-10 5l61 -9q11 7 18.5 13t14.5 12t15 12.5t20 14.5q30 22 54 53t40.5 67t25.5 74.5t9 76.5l25 418v12q0 5 -1.5 10t-9.5 5h-3q-2 0 -6.5 -2.5
t-6.5 -4.5q-3 5 -13.5 15t-13.5 12l-2.5 0.5t-4.5 0.5q-3 0 -7 -6.5t-8 -14t-8 -14t-7 -6.5q-5 0 -8 6.5t-6 14t-6 14t-8 6.5q-11 0 -18 -7t-18 -7h-7l-61 7q-2 0 -3.5 0.5t-3.5 0.5v-285l-4 -178q0 -10 -3 -20v-2q-3 -11 -3.5 -22.5t-2 -23t-4.5 -21.5t-11 -19
q-5 -6 -15 -16.5t-17 -17t-8 -7.5h-7q-1 0 -5 4t-9.5 9t-11 11t-8.5 10q-12 13 -20.5 29.5t-15.5 33.5q2 8 2.5 13.5t0.5 7.5l-7 75l11 153q0 2 -0.5 12t-0.5 15zM107 249q-1 0 -3.5 -5.5t-5 -12t-3.5 -13t0 -8.5l11 -65l-8 4q-2 2 -4.5 8.5t-4.5 9.5q-8 21 -8.5 38t6.5 40
q-1 3 7 11h3q9 0 10 -7zM258 78l35 -39v-6q-13 11 -24.5 17.5t-19.5 13.5t-13 16t-5 26q0 2 0.5 8t0.5 8zM118 445q5 0 5 -7q0 -2 -2.5 -15.5t-6 -29t-6.5 -28t-4 -12.5q-2 0 -0.5 12.5t3 28t3.5 29t2 15.5q0 7 6 7zM269 890l9 -15h-1zM287 912l29 -52l-3 -3q-1 0 -6 5t-7 8
l-1 3q-2 2 -1.5 8t-1.5 10l-5 7q-2 3 -3 6t-3 6l-2 3zM311 915q-3 4 -7 4h-1q-4 0 -11.5 3t-12.5 3l-3 -1l-9 -7q-14 -9 -26.5 -15.5t-12.5 -23.5v-7q23 -33 43.5 -46t46.5 -23l5 -2v2q0 5 -4.5 8t-4.5 9l-1 1l1 1h2q3 0 6.5 -4t6.5 -9.5t5.5 -10t3.5 -5.5l12 8
q-4 5 -5.5 18t-6.5 20l2 1q1 0 1.5 1l0.5 1q1 1 1 3v2q-2 2 -5 9.5t-7 13.5q-5 5 -7.5 11t-4.5 8l-7 26z" />
    </font>
</defs>
</svg>
