<?xml version="1.0" standalone="no"?>
<!DOCTYPE svg PUBLIC "-//W3C//DTD SVG 1.1//EN" "http://www.w3.org/Graphics/SVG/1.1/DTD/svg11.dtd" >
<svg xmlns="http://www.w3.org/2000/svg" xmlns:xlink="http://www.w3.org/1999/xlink" version="1.1">
<metadata>
Created by FontForge 20170731 at Thu May 23 19:46:23 2019
 By Aleksey,,,
2019 Iconian Fonts
</metadata>
<defs>
<font id="Starcruiser" horiz-adv-x="785" >
  <font-face 
    font-family="Starcruiser"
    font-weight="400"
    font-stretch="normal"
    units-per-em="1000"
    panose-1="0 0 0 0 0 0 0 0 0 0"
    ascent="800"
    descent="-200"
    x-height="576"
    cap-height="576"
    bbox="-83 -169 1653 801"
    underline-thickness="50"
    underline-position="-175"
    unicode-range="U+0020-2122"
  />
<missing-glyph horiz-adv-x="500" 
 />
    <glyph glyph-name=".notdef" horiz-adv-x="500" 
 />
    <glyph glyph-name=".null" horiz-adv-x="0" 
 />
    <glyph glyph-name="nonmarkingreturn" horiz-adv-x="500" 
 />
    <glyph glyph-name="space" unicode=" " horiz-adv-x="324" 
 />
    <glyph glyph-name="space" unicode="&#xa0;" horiz-adv-x="324" 
 />
    <glyph glyph-name="FL0021h" unicode="!" horiz-adv-x="299" 
d="M71 0q-18 0 -28 14t-10 23v98q0 12 13 22t25 10h161q12 -2 23 -11.5t11 -20.5v-96q0 -15 -10 -27t-24 -12h-161zM269 208h-239v368h239v-368zM126 252v-16h10q0 12 -10 16zM102 285q-7 0 -7 -8q0 -9 7 -9q6 0 6 9q0 8 -6 8zM126 351v-8h16q-2 6 -8 8l-1.5 0.5t-2.5 0.5
l-1.5 -0.5t-2.5 -0.5zM102 367q-5 2 -5 -4q0 -5 4 -3.5t4 3.5t-3 4zM134 408q-6 0 -6 -8t6 -8t6 8t-6 8zM150 497q-4 1 -4 -5q0 -5 4 -3.5t4 3.5q0 4 -4 5zM110 544q-6 0 -6 -8t6 -8t6 8t-6 8zM191 82q-6 0 -6 -8t6 -8q7 0 7 8t-7 8zM216 114q1 4 -5 4q-5 0 -3.5 -4t3.5 -4
q4 0 5 4zM115 107q-6 0 -6 -8t6 -8t6 8t-6 8zM139 140q-4 1 -4 -5q0 -5 4 -3.5t4 3.5q0 4 -4 5zM181 443l5 -11q8 0 14 2t6 11q0 11 -13 11q-1 0 -3 -0.5t-4 -0.5zM200 317q-7 0 -7 -8t7 -8q6 0 6 8t-6 8zM220 356v1q0 3 -4 3t-4 -4q0 -5 4 -5q2 0 4 5zM217 260q0 -9 10 -16
l4 16h-14zM164 304q-4 1 -4 -5q0 -5 4 -3.5t4 3.5q0 4 -4 5zM93 48q-6 0 -6 -8t6 -8t6 8t-6 8zM117 81q-4 1 -4 -5q0 -5 4 -3.5t4 3.5q0 4 -4 5zM79 428v1q0 3 -4 3t-4 -4q0 -5 4 -5q2 0 4 5zM219 528v1q0 3 -4 3t-4 -4q0 -5 4 -5q2 0 4 5z" />
    <glyph glyph-name="FL0023h" unicode="&#x22;" horiz-adv-x="499" 
d="M68 270q-9 0 -16 4.5t-12 11.5t-7.5 13.5t-2.5 11.5v233q6 11 11.5 19t26.5 13h126q12 -2 20 -11t14 -21v-140q-16 -39 -45 -74.5t-71 -59.5h-44zM309 270q-9 0 -16 4.5t-12 11.5t-7.5 13.5t-2.5 11.5v233q6 11 11.5 19t26.5 13h126q12 -2 20 -11t14 -21v-140
q-16 -39 -45 -74.5t-71 -59.5h-44zM305 489q-6 0 -6 -8t6 -8q7 0 7 8t-7 8zM335 495q6 0 6 8t-6 8q-7 0 -7 -8t7 -8zM371 463q7 0 7 8t-7 8q-6 0 -6 -8t6 -8zM316 357q-6 0 -6 -8t6 -8q7 0 7 8t-7 8zM389 436q6 0 6 8t-6 8q-7 0 -7 -8t7 -8zM417 506q7 0 7 8t-7 8
q-6 0 -6 -8t6 -8zM352 407q7 0 7 8t-7 8q-6 0 -6 -8t6 -8zM123 364q-6 0 -6 -8t6 -8q7 0 7 8t-7 8zM153 370q6 0 6 8t-6 8q-7 0 -7 -8t7 -8zM98 513q7 0 7 8t-7 8q-6 0 -6 -8t6 -8zM120 429q-6 0 -6 -8t6 -8q7 0 7 8t-7 8zM116 486q6 0 6 8t-6 8q-7 0 -7 -8t7 -8zM76 389
q7 0 7 8t-7 8q-6 0 -6 -8t6 -8zM156 479q7 0 7 8t-7 8q-6 0 -6 -8t6 -8zM384 345q7 0 7 8t-7 8q-6 0 -6 -8t6 -8z" />
    <glyph glyph-name="FL0024h" unicode="#" horiz-adv-x="834" 
d="M463 311h-91v-47h91v47zM133 311h-103v158h103v107h239v-107h91v107h239v-107h102v-158h-102v-47h102v-158h-102v-106h-239v106h-91v-106h-239v106h-103v158h103v47zM431 409q-5 2 -5 -5q0 -5 4 -3.5t4 3.5q0 3 -3 5zM342 401q-3 0 -9 -3t-8 -5h25q0 2 -3 5t-5 3z
M293 384q-5 2 -5 -4q0 -5 4.5 -4t4.5 4q0 4 -4 4zM132 423q1 4 -4 4t-3.5 -4t3.5 -4q3 0 4 4zM189 399q1 4 -4 4q-6 0 -4 -4.5t4 -4.5t4 5zM173 358q-6 0 -6 -8q0 -7 6 -7t6 7q0 8 -6 8zM564 410v-18q11 0 17 10q-2 7 -9 8l-1.5 0.5t-2.5 0.5l-1.5 -0.5t-2.5 -0.5zM451 442
q-6 0 -6 -8t6 -8t6 8t-6 8zM581 458v-16h18q0 7 -4 12t-11 5zM637 450q-6 0 -6 -8t6 -8q7 0 7 8t-7 8zM511 356q1 3 -4 3t-4 -4t4 -4q2 0 4 5zM227 456v-8h8v8h-8zM687 374q-6 0 -6 -8t6 -8q7 0 7 8t-7 8zM323 176q-3 0 -3 -4t3 -4h4q5 0 11 0.5t6 2.5q0 3 -4 4zM118 215
q-6 0 -6 -8t6 -8q7 0 7 8t-7 8zM183 231q-6 0 -6 -8t6 -8q7 0 7 8t-7 8zM145 178q-7 0 -7 -8t7 -8q6 0 6 8t-6 8zM88 194q1 -4 5 -4q2 0 3.5 4t-3.5 4q-6 0 -5 -4zM260 266q-6 0 -6 -8t6 -8t6 8t-6 8zM534 76q-3 0 -3 -4t3 -4h4q5 0 11 0.5t6 2.5q0 3 -4 4zM554 528
q-6 0 -6 -8t6 -8q7 0 7 8t-7 8zM619 544q-6 0 -6 -8t6 -8q7 0 7 8t-7 8zM581 491q-7 0 -7 -8t7 -8q6 0 6 8t-6 8zM524 507q1 -4 5 -4q2 0 3.5 4t-3.5 4q-6 0 -5 -4zM471 166q-6 0 -6 -8t6 -8t6 8t-6 8zM544 213q7 0 7 8q0 9 -7 9q-6 0 -6 -9q0 -8 6 -8zM666 213q6 0 6 8
q0 9 -6 9t-6 -9q0 -8 6 -8zM666 173q6 0 6 8t-6 8t-6 -8t6 -8zM577 205q-2 5 -5 5q-2 0 -3.5 -4t3.5 -4q6 0 5 3zM183 58q7 0 7 8q0 9 -7 9q-6 0 -6 -9q0 -8 6 -8zM725 383q6 0 6 8q0 9 -6 9t-6 -9q0 -8 6 -8zM725 343q6 0 6 8t-6 8t-6 -8t6 -8zM216 50q-2 5 -5 5
q-2 0 -3.5 -4t3.5 -4q6 0 5 3zM256 515q-6 0 -6 -8t6 -8q7 0 7 8t-7 8zM281 436q-7 0 -7 -8t7 -8v16zM191 475l-1.5 0.5t-2.5 0.5l-1.5 -0.5t-2.5 -0.5v-18zM218 507q0 7 -4 12t-11 5l-3 -1v-16h18zM286 521q6 0 6 8t-6 8q-7 0 -7 -8t7 -8zM322 489q7 0 7 8t-7 8q-6 0 -6 -8
t6 -8zM584 56q-6 0 -6 -8t6 -8q7 0 7 8t-7 8zM293 100q-7 0 -7 -8t7 -8v16zM738 172l-1.5 0.5t-2.5 0.5l-1.5 -0.5t-2.5 -0.5v-18zM765 204q0 7 -4 12t-11 5l-3 -1v-16h18zM614 62q6 0 6 8t-6 8q-7 0 -7 -8t7 -8zM650 30q7 0 7 8t-7 8q-6 0 -6 -8t6 -8zM83 367q-6 0 -6 -8
t6 -8t6 8t-6 8zM99 408q-4 0 -4 -5t4 -3.5t4 3.5q0 4 -4 5zM625 304q-6 0 -6 -8t6 -8t6 8t-6 8zM596 317q-4 0 -4 -5t4 -3.5t4 3.5q0 4 -4 5z" />
    <glyph glyph-name="FL0025h" unicode="$" horiz-adv-x="768" 
d="M499 206h-64v-41h64v41zM333 411h-64v-112q24 38 64 54v58zM435 0v-116h-102v116h-303v165h303v41h-198q-18 0 -37 6t-34 17.5t-24.5 28.5t-9.5 38v190q0 21 9 38t23 28.5t32.5 17.5t36.5 6h202v114h102v-114h303v-165h-303v-40h198q18 0 37 -6t34 -17.5t24.5 -28.5
t9.5 -38v-191q0 -21 -9 -38t-23 -28.5t-32.5 -17.5t-36.5 -6h-202zM510 317h8v8zM608 317q-7 0 -7 -8t7 -8q6 0 6 8t-6 8zM551 309q-6 0 -6 -8t6 -8t6 8t-6 8zM551 134q-4 1 -4 -5q0 -5 4 -3.5t4 3.5q0 4 -4 5zM550 102q-5 0 -5 -5t4 -3.5t4 3.5q0 3 -3 5zM533 77
q-6 0 -6 -8t6 -8q7 0 7 8t-7 8zM485 61h10q0 12 -10 16v-16zM436 45h10q0 9 -10 16v-16zM163 95q10 7 10 16h-10v-16zM114 71h10q0 8 -10 14v-14zM211 63h9v8h-9v-8zM260 55h8l-8 8v-8zM82 63q-6 0 -6 -8q0 -9 6 -9t6 9q0 8 -6 8zM419 499q-5 2 -5 -5q0 -5 4 -3.5t4 3.5
q0 3 -3 5zM330 491q-3 0 -9 -3t-8 -5h25q0 2 -3 5t-5 3zM281 474q-5 2 -5 -4q0 -5 4.5 -4t4.5 4q0 4 -4 4zM120 513q1 4 -4 4t-3.5 -4t3.5 -4q3 0 4 4zM177 489q1 4 -4 4q-6 0 -4 -4.5t4 -4.5t4 5zM161 448q-6 0 -6 -8q0 -7 6 -7t6 7q0 8 -6 8zM115 400h8v8zM218 400
q-7 0 -7 -8t7 -8q6 0 6 8t-6 8zM161 392q-6 0 -6 -8t6 -8t6 8t-6 8zM475 256q-7 0 -7 -8t7 -8q6 0 6 8t-6 8zM442 240v8h-8zM563 226q0 -8 2 -18t12 -10q2 0 3.5 0.5l1.5 0.5q2 2 5 8t3 8q0 5 -8.5 8t-13.5 3h-5zM645 175q-5 2 -5 -5q0 -5 4 -3.5t4 3.5q0 3 -3 5zM566 167
q-3 0 -9 -3t-8 -5h25q0 2 -3 5t-5 3zM521 150q-5 2 -5 -4q0 -5 4.5 -4t4.5 4q0 4 -4 4zM552 500v-18q11 0 17 10q-2 7 -9 8l-1.5 0.5t-2.5 0.5l-1.5 -0.5t-2.5 -0.5zM439 532q-6 0 -6 -8t6 -8t6 8t-6 8zM569 548v-16h18q0 7 -4 12t-11 5zM625 540q-6 0 -6 -8t6 -8q7 0 7 8
t-7 8zM310 246l9 -8v8h-9zM335 287q-7 0 -7 -8t7 -8q6 0 6 8t-6 8zM375 303q-4 1 -4 -5q0 -5 4 -3.5t4 3.5q0 4 -4 5zM351 311q-5 2 -5 -4t4.5 -4t4.5 4q0 3 -4 4zM367 335v-8h8v8h-8zM414 61v-8h8v8h-8zM430 102q-6 0 -6 -8t6 -8t6 8t-6 8zM357 126q-4 1 -4 -4t4 -4t4 4
t-4 4zM137 352q-6 0 -6 -8t6 -8q7 0 7 8t-7 8zM132 392v-8h8v8h-8zM202 272q1 3 -5 3q-5 0 -3.5 -4t3.5 -4q3 0 5 5zM224 312q0 -9 10 -16v16h-10zM257 141v-8h8v8h-8zM243 99q1 3 -5 3q-5 0 -3.5 -4t3.5 -4q3 0 5 5zM275 99q1 3 -4 3t-4 -4t4 -4q2 0 4 5zM88 279v-8h8v8h-8
zM129 304q1 3 -5 3q-5 0 -3.5 -4t3.5 -4q3 0 5 5zM499 446q1 3 -4 3t-4 -4t4 -4q2 0 4 5zM215 546v-8h8v8h-8zM632 71v-8h8v8h-8zM673 96q1 3 -5 3q-5 0 -3.5 -4t3.5 -4q3 0 5 5zM675 464q-6 0 -6 -8t6 -8q7 0 7 8t-7 8zM662 257h8v8zM679 249v-8h8v8h-8zM77 327v-8h8v8h-8z
M378 -57v-8h8v8h-8zM395 -23v-8h8v8h-8zM382 659v-8h8v8h-8zM382 577q-6 0 -6 -8t6 -8q7 0 7 8t-7 8z" />
    <glyph glyph-name="FL0027h" unicode="%" horiz-adv-x="1222" 
d="M245 506l-8 -8v8h8zM247 277q6 0 6 -8q0 -9 -6 -9q-7 0 -7 9q0 8 7 8zM1084 231q6 0 6 -8q0 -9 -6 -9q-7 0 -7 9q0 8 7 8zM1136 178q6 0 6 -8q0 -9 -6 -9q-7 0 -7 9q0 8 7 8zM1045 321q6 0 6 -8q0 -9 -6 -9q-7 0 -7 9q0 8 7 8zM1097 268q6 0 6 -8q0 -9 -6 -9q-7 0 -7 9
q0 8 7 8zM1055 208v16q10 -4 10 -16h-10zM872 69q6 0 6 -8t-6 -8t-6 8t6 8zM799 93q4 -1 4 -4t-4 -4t-4 4t4 4zM827 95q7 0 7 -8q0 -9 -7 -9q-6 0 -6 9q0 8 6 8zM795 111v-8l-8 8h8zM827 135q7 0 7 -8t-7 -8q-6 0 -6 8t6 8zM842 252h-8v8zM813 214h-14l3 12zM891 241l-8 -8
v8h8zM851 291q0 14 13 14q6 0 7 -2t1 -7v-5q0 -8 -11 -8q-8 0 -9 2t-1 6zM1132 80v16h8v-16h-8zM1134 52v8h16v-8h-16zM1069 68q-1 0 -2 -0.5l-1 -0.5q-1 0 -3 0.5l-2 0.5q-6 2 -8 8q6 10 16 10v-18zM1109 113v17h10q0 -11 -10 -17zM325 548q6 0 6 -8q0 -9 -6 -9q-7 0 -7 9
q0 8 7 8zM377 495q6 0 6 -8q0 -9 -6 -9q-7 0 -7 9q0 8 7 8zM335 435v16q10 -4 10 -16h-10zM152 296q6 0 6 -8t-6 -8t-6 8t6 8zM79 320q4 -1 4 -4t-4 -4t-4 4t4 4zM107 322q7 0 7 -8q0 -9 -7 -9q-6 0 -6 9q0 8 6 8zM75 338v-8l-8 8h8zM107 362q7 0 7 -8t-7 -8q-6 0 -6 8t6 8z
M122 479h-8v8zM93 441h-14l3 12zM171 468l-8 -8v8h8zM139 519q0 14 13 14q6 0 7 -2t1 -7v-5q0 -8 -11 -8q-8 0 -9 2t-1 6zM419 307v16h8v-16h-8zM421 279v8h16v-8h-16zM356 295q-1 0 -2 -0.5l-1 -0.5q-1 0 -3 0.5l-2 0.5q-6 2 -8 8q6 10 16 10v-18zM396 340v17h10
q0 -11 -10 -17zM934 130v84h81v-84h-81zM757 299v-256q0 -17 13.5 -29t26.5 -14h352q13 0 21.5 5.5t13 13t6.5 15t2 11.5v245q0 26 -20.5 40t-42.5 14h-326q-6 0 -14 -4.5t-15 -11.5t-12 -15t-5 -14zM207 361v84h81v-84h-81zM30 530v-256q0 -17 13.5 -29t26.5 -14h352
q13 0 21.5 5.5t13 13t6.5 15t2 11.5v245q0 26 -20.5 40t-42.5 14h-326q-6 0 -14 -4.5t-15 -11.5t-12 -15t-5 -14zM862 576h-226l-272 -576h226zM659 296q0 1 0.5 2.5l0.5 1.5q2 6 8 8q2 0 5 -3t3 -5t-3 -8t-5 -8q-6 2 -8 8zM660 406q6 0 6 -9q0 -8 -6 -8q-7 0 -7 8q0 9 7 9z
M668 438h8l-8 -8v8zM656 511h8v-8h-8v8zM729 535q7 0 7 -8t-7 -8q-6 0 -6 8t6 8zM492 171q4 -1 4 -8t-4 -8q-2 -1 -3 2t-1 6t1 6t3 2zM525 260h8v-16h-8v16zM541 293h8v-8h-8v8zM520 58q-2 -5 -5 -5q-2 0 -3.5 4t3.5 4q6 0 5 -3zM563 82q6 0 6 -8t-6 -8t-6 8t6 8zM479 106
q6 0 13 -4t7 -12h-20v16zM547 123q6 0 6 -8q0 -9 -6 -9q-7 0 -7 9q0 8 7 8zM601 225q6 0 6 -8q0 -9 -6 -9q-7 0 -7 9q0 8 7 8zM628 265l8 8v-16zM629 340q6 0 6 -8t-6 -8t-6 8t6 8zM613 381q6 0 6 -8q0 -9 -6 -9q-7 0 -7 9q0 8 7 8zM653 421q-1 -4 -4 -4q-2 0 -4 4t4 4
q5 0 4 -4zM751 478q4 -1 4 -9q0 -7 -4 -8q-2 -1 -3 2t-1 6t1 6t3 3zM693 390q4 -1 4 -9q0 -7 -4 -8q-2 -1 -3 2t-1 6t1 6t3 3zM785 545q7 0 7 -8t-7 -8q-6 0 -6 8t6 8z" />
    <glyph glyph-name="FL0026h" unicode="&#x26;" horiz-adv-x="768" 
d="M269 166h183v45h-183v-45zM592 0h-463q-18 0 -36 5t-32 15.5t-22.5 26.5t-8.5 37v154q3 14 13.5 31t24.5 29q-10 11 -22 30t-16 45v119q0 21 8.5 37t22.5 26.5t32 15.5t36 5h516v-166h-376v-127q32 50 81 66.5t104 16.5h284v-158h-47v-124q0 -21 -8.5 -37t-22.5 -26.5
t-32 -15.5t-36 -5zM536 317h8v8zM634 317q-7 0 -7 -8t7 -8q6 0 6 8t-6 8zM577 309q-6 0 -6 -8t6 -8t6 8t-6 8zM595 134q-4 1 -4 -5q0 -5 4 -3.5t4 3.5q0 4 -4 5zM604 102q-5 0 -5 -5t4 -3.5t4 3.5q0 3 -3 5zM577 77q-6 0 -6 -8t6 -8q7 0 7 8t-7 8zM529 61h10q0 12 -10 16
v-16zM462 45h10q0 9 -10 16v-16zM189 95q10 7 10 16h-10v-16zM140 71h10q0 8 -10 14v-14zM237 63h9v8h-9v-8zM286 55h8l-8 8v-8zM108 63q-6 0 -6 -8q0 -9 6 -9t6 9q0 8 -6 8zM445 499q-5 2 -5 -5q0 -5 4 -3.5t4 3.5q0 3 -3 5zM356 491q-3 0 -9 -3t-8 -5h25q0 2 -3 5t-5 3z
M307 474q-5 2 -5 -4q0 -5 4.5 -4t4.5 4q0 4 -4 4zM144 513q1 4 -4 4t-3.5 -4t3.5 -4q3 0 4 4zM201 489q1 4 -4 4q-6 0 -4 -4.5t4 -4.5t4 5zM185 448q-6 0 -6 -8q0 -7 6 -7t6 7q0 8 -6 8zM139 400h8v8zM242 400q-7 0 -7 -8t7 -8q8 0 8 8t-8 8zM185 392q-6 0 -6 -8t6 -8t6 8
t-6 8zM501 256q-7 0 -7 -8t7 -8q6 0 6 8t-6 8zM468 240v8h-8zM579 226q0 -8 2 -18t12 -10q2 0 3.5 0.5l1.5 0.5q2 2 5 8t3 8q0 5 -8.5 8t-13.5 3h-5zM148 192l8 8h-8v-8zM81 372q-2 1 -8 0t-6 -5q0 -5 4 -3.5t4 3.5t4 3t2 2zM610 167q-3 0 -9 -3t-8 -5h25q0 2 -3 5t-5 3z
M561 150q-5 2 -5 -4q0 -5 4.5 -4t4.5 4q0 4 -4 4zM578 500v-18q11 0 17 10q-2 7 -9 8l-1.5 0.5t-2.5 0.5l-1.5 -0.5t-2.5 -0.5zM465 532q-6 0 -6 -8t6 -8t6 8t-6 8zM522 541v-16h18q0 7 -4 12t-11 5zM578 533q-6 0 -6 -8t6 -8q7 0 7 8t-7 8zM105 162l20 -22l-1 22h-19z
M361 285q-7 0 -7 -8t7 -8q6 0 6 8t-6 8zM401 301q-4 1 -4 -5q0 -5 4 -3.5t4 3.5q0 4 -4 5zM377 309q-5 2 -5 -4t4.5 -4t4.5 4q0 3 -4 4zM393 333v-8h8v8h-8zM440 61v-8h8v8h-8zM456 102q-6 0 -6 -8t6 -8t6 8t-6 8zM383 126q-4 1 -4 -4t4 -4t4 4t-4 4zM129 352q-6 0 -6 -8
t6 -8q7 0 7 8t-7 8zM156 392v-8h8v8h-8zM194 272q1 3 -5 3q-5 0 -3.5 -4t3.5 -4q3 0 5 5zM216 312q0 -9 10 -16v16h-10zM283 141v-8h8v8h-8zM269 99q1 3 -5 3q-5 0 -3.5 -4t3.5 -4q3 0 5 5zM301 99q1 3 -4 3t-4 -4t4 -4q2 0 4 5zM84 241v-8h8v8h-8zM121 304q1 3 -5 3
q-5 0 -3.5 -4t3.5 -4q3 0 5 5zM525 446q1 3 -4 3t-4 -4t4 -4q2 0 4 5zM239 546v-8h10v8h-10zM104 464q-6 0 -6 -8t6 -8q7 0 7 8t-7 8zM113 535q-6 0 -6 -8t6 -8q7 0 7 8t-7 8zM387 532q-6 0 -6 -8t6 -8q7 0 7 8t-7 8zM684 270q-6 0 -6 -8q0 -9 6 -9t6 9q0 8 -6 8z" />
    <glyph glyph-name="FL0022h" unicode="'" horiz-adv-x="283" 
d="M68 270q-9 0 -16 4.5t-12 11.5t-7.5 13.5t-2.5 11.5v233q6 11 11.5 19t26.5 13h151q12 -2 20 -11t14 -21v-140q-16 -39 -45 -74.5t-71 -59.5h-69zM78 471q-6 0 -6 -8t6 -8q7 0 7 8t-7 8zM108 477q6 0 6 8t-6 8q-7 0 -7 -8t7 -8zM144 445q7 0 7 8t-7 8q-6 0 -6 -8t6 -8z
M89 339q-6 0 -6 -8t6 -8q7 0 7 8t-7 8zM162 418q6 0 6 8t-6 8q-7 0 -7 -8t7 -8zM190 488q7 0 7 8t-7 8q-6 0 -6 -8t6 -8zM125 389q7 0 7 8t-7 8q-6 0 -6 -8t6 -8zM164 348q7 0 7 8t-7 8q-6 0 -6 -8t6 -8z" />
    <glyph glyph-name="FL0028h" unicode="(" horiz-adv-x="421" 
d="M272 491h119v166h-256q-18 0 -37 -6t-34 -17.5t-24.5 -28.5t-9.5 -38v-555q0 -21 9.5 -38t24.5 -28.5t34 -17.5t37 -6h256v166h-119v403zM73 125q7 13 7 8q0 -8 -7 -8zM96 594q-7 0 -7 8q0 9 7 9q6 0 6 -9q0 -8 -6 -8zM217 570l-8 8h8v-8zM96 546v8l8 -8h-8zM144 489v-1
q0 -3 -4 -3t-4 3q0 6 4 6q2 0 4 -5zM99 432v8h8zM131 432l8 8v-8h-8zM163 424v16h10q0 -10 -10 -16zM180 408q-7 0 -7 8t7 8q6 0 6 -8t-6 -8zM229 368q-6 2 -7.5 5.5t-1.5 8.5v6l1 12q3 -1 9.5 -7t6.5 -9v-1q0 -3 -2.5 -8t-5.5 -7zM123 384v8l8 -8h-8zM188 368h-2q-3 0 -3 4
t3 4q5 0 5 -4t-3 -4zM234 343v-1q0 -2 -4 -2t-4 3q0 5 4 5q2 0 4 -5zM218 319h-1q-3 0 -3 4t3 4q5 0 5 -4q0 -3 -4 -4zM115 319v-1q0 -3 -5 -3q-4 0 -4 3q0 5 4 5t5 -4zM147 303q-6 0 -6 8t6 8q7 0 7 -8t-7 -8zM204 311v-1q0 -3 -5 -3q-4 0 -4 3q0 5 4 5t5 -4zM96 217
q-6 0 -6 8t6 8q7 0 7 -8t-7 -8zM99 160q-6 0 -6 8t6 8q7 0 7 -8t-7 -8zM122 152q0 12 10 16v-16h-10zM194 179q10 0 11.5 -2.5t1.5 -12.5q-10 0 -11.5 2.5t-1.5 12.5zM209 231l3 1q1 0 3 -0.5l2 -0.5q5 -3 8 -8h-16v8zM146 552h9v-8zM171 593q6 0 6 -8t-6 -8q-7 0 -7 8t7 8z
M341 556q4 -1 4 -4q0 -2 -4.5 -4t-4.5 4t5 4zM357 580h8v-8h-8v8zM357 32h-2q-2 0 -2 4t3 4q5 0 5 -4q0 -3 -4 -4zM142 100q0 10 10 16v-16h-10zM176 75q-6 0 -6 8t6 8t6 -8t-6 -8zM192 35q-6 0 -6 8t6 8t6 -8t-6 -8zM200 -14v8h8v-8h-8zM107 -5v8h8zM139 -5l8 8v-8h-8z
M297 16l4 22l20 -15zM274 605v8h8v-8h-8z" />
    <glyph glyph-name="FL0029h" unicode=")" horiz-adv-x="421" 
d="M197 105q-7 0 -7 -8t7 -8q6 0 6 8t-6 8zM278 97q-7 0 -7 -8t7 -8q6 0 6 8t-6 8zM221 89q-6 0 -6 -8t6 -8t6 8t-6 8zM188 567q-6 0 -6 -8t6 -8t6 8t-6 8zM252 533q-7 0 -7 -8t7 -8q6 0 6 8t-6 8zM276 460q1 4 -5 4q-5 0 -3.5 -4t3.5 -4q4 0 5 4zM260 221q-6 0 -6 -8t6 -8
q7 0 7 8t-7 8zM317 237q1 4 -5 4q-5 0 -3.5 -4t3.5 -4q4 0 5 4zM195 310q-4 1 -4 -4t4 -4t4 4t-4 4zM277 359q-7 0 -7 -8t7 -8q6 0 6 8t-6 8zM220 375q-7 0 -7 -8t7 -8q6 0 6 8t-6 8zM274 395q0 -10 3 -14.5t14 -4.5q19 0 19 19t-19 19q-11 0 -14 -4.5t-3 -14.5zM333 399
q-6 0 -6 -8t6 -8q7 0 7 8t-7 8zM204 416q-5 0 -5 -5t4 -3.5t4 3.5q0 3 -3 5zM149 491h-119v166h256q18 0 37 -6t34 -17.5t24.5 -28.5t9.5 -38v-555q0 -21 -9.5 -38t-24.5 -28.5t-34 -17.5t-37 -6h-256v166h119v403zM176 7q6 0 6 8t-6 8q-7 0 -7 -8t7 -8zM111 -9q6 0 6 8
t-6 8q-7 0 -7 -8t7 -8zM95 -50q3 1 3 5q0 2 -4 3.5t-4 -3.5t5 -5zM86 46q4 1 4 4t-4 4t-4 -4t4 -4zM321 -3q6 0 6 8t-6 8q-7 0 -7 -8t7 -8zM256 -19q6 0 6 8t-6 8q-7 0 -7 -8t7 -8zM133 574q3 1 3 5q0 2 -4 3.5t-4 -3.5t5 -5zM231 46q4 1 4 4t-4 4t-4 -4t4 -4zM341 550l-8 8
v-8h8zM316 525l-8 8v-8h8zM108 611l-8 8v-8h8zM83 586l-8 8v-8h8zM268 608l-8 8v-8h8zM327 150l-8 8v-8h8z" />
    <glyph glyph-name="FL002Ah" unicode="*" horiz-adv-x="290" 
d="M265 548v-45q0 -8 -7 -8h-36l25 -25q1 -2 2 -3t1 -3t-1 -2.5t-2 -2.5l-34 -33q-1 -1 -4 -1q-5 0 -5 1l-26 26v-37q0 -6 -8 -6h-47q-9 0 -9 6v37l-26 -26q-1 -1 -5 -1t-5 1l-34 33q-1 4 -1.5 5.5l-0.5 1.5v-2l0.5 1.5l1.5 4.5l27 25h-39q-7 0 -7 8v45q0 8 7 8h40l-28 25
q-1 2 -1.5 3.5l-0.5 1.5v-2l0.5 1.5t1.5 5.5l34 33q4 1 5.5 1.5l1.5 0.5h-2q3 0 5 -2l26 -27v39q0 5 9 5h47q8 0 8 -5v-39l26 27q2 1 3.5 1.5l1.5 0.5l4 -2l34 -33q1 -2 2 -2.5t1 -2.5l-3 -5l-25 -25h36q7 0 7 -8zM114 556q-6 0 -6 -8t6 -8q7 0 7 8t-7 8zM144 562q6 0 6 8
t-6 8q-7 0 -7 -8t7 -8zM180 530q7 0 7 8t-7 8q-6 0 -6 -8t6 -8zM148 477q-6 0 -6 -8t6 -8q7 0 7 8t-7 8zM198 503q6 0 6 8t-6 8q-7 0 -7 -8t7 -8zM148 520q7 0 7 8t-7 8q-6 0 -6 -8t6 -8zM205 590q-6 0 -6 -8t6 -8q7 0 7 8t-7 8zM58 522q7 0 7 8t-7 8q-6 0 -6 -8t6 -8z" />
    <glyph glyph-name="FL002Bh" unicode="+" horiz-adv-x="482" 
d="M114 313q-6 0 -6 8q0 9 6 9q7 0 7 -9q0 -8 -7 -8zM131 281q-7 0 -7 8t7 8q6 0 6 -8t-6 -8zM169 264q-6 0 -6 8t6 8q7 0 7 -8t-7 -8zM243 295q4 1 4 -4t-4 -4t-4 4t4 4zM326 277q0 -5 -2 -8t-10 -3q-11 0 -11 11q0 12 11 12q8 0 10 -3t2 -9zM162 486v-120h-132v-158h132
v-120h158v120h132v158h-132v120h-158zM209 416q-2 -5 -5 -5q-2 0 -3.5 4t3.5 4q6 0 5 -3zM227 456h10v-16q-10 7 -10 16zM237 172q6 0 6 -8t-6 -8q-7 0 -7 8t7 8zM261 205q-2 -5 -5 -5q-2 0 -3.5 4t3.5 4q6 0 5 -3zM219 319q4 -1 4 -4t-4 -4t-4 4t4 4zM235 384q7 0 7 -8
t-7 -8q-6 0 -6 8t6 8zM235 416h8v-8h-8v8zM400 268q6 0 6 -8t-6 -8q-7 0 -7 8t7 8zM371 324q4 -1 4 -4t-4 -4t-4 4t4 4zM79 259q4 -1 4 -4t-4 -4t-4 4t4 4z" />
    <glyph glyph-name="FL002Ch" unicode="," horiz-adv-x="285" 
d="M68 -108q-9 0 -16 4.5t-12 11.5t-7.5 13.5t-2.5 11.5v215q6 11 11.5 19t26.5 13h153q12 -2 20 -11t14 -21v-122q-16 -39 -45 -74.5t-71 -59.5h-71zM82 111q-6 0 -6 -8t6 -8q7 0 7 8t-7 8zM112 117q6 0 6 8t-6 8q-7 0 -7 -8t7 -8zM148 85q7 0 7 8t-7 8q-6 0 -6 -8t6 -8z
M93 -21q-6 0 -6 -8t6 -8q7 0 7 8t-7 8zM166 58q6 0 6 8t-6 8q-7 0 -7 -8t7 -8zM194 128q7 0 7 8t-7 8q-6 0 -6 -8t6 -8zM129 29q7 0 7 8t-7 8q-6 0 -6 -8t6 -8z" />
    <glyph glyph-name="FL002Dh" unicode="-" horiz-adv-x="409" 
d="M30 366v-158h349v158h-349zM242 278q1 0 2.5 0.5l1.5 0.5q1 0 2.5 -0.5l1.5 -0.5q8 -2 9 -8q-6 -10 -17 -10v18zM129 317q6 0 6 -8t-6 -8t-6 8t6 8zM259 326l3 1q7 0 11 -5t4 -12h-18v16zM315 318q7 0 7 -8t-7 -8q-6 0 -6 8t6 8zM160 306q7 0 7 -8t-7 -8q-6 0 -6 8t6 8z
M83 292q6 0 6 -8t-6 -8t-6 8t6 8zM114 284q7 0 7 -8t-7 -8q-6 0 -6 8t6 8zM191 254q7 0 7 -8t-7 -8q-6 0 -6 8t6 8zM322 260l3 1q7 0 11 -5t4 -12h-18v16z" />
    <glyph glyph-name="FL002Eh" unicode="." horiz-adv-x="293" 
d="M68 0h161q14 0 24 12t10 27v109q0 11 -11 20.5t-23 11.5h-161q-12 0 -25 -10t-13 -22v-111q0 -9 10 -23t28 -14zM108 75q7 0 7 -8t-7 -8q-6 0 -6 8t6 8zM125 91h2q2 0 2 -4t-3 -4q-5 0 -5 4q0 3 4 4zM176 101l-7 -19l-8 19h15zM100 115h2q3 0 3 -4t-3 -4q-5 0 -5 4t3 4z
M205 144h2q2 0 2.5 -4t0.5 -6q0 -4 -3 -4q-5 0 -5 4q0 2 0.5 6t2.5 4zM204 37h2q2 0 2.5 -4t0.5 -6q0 -4 -3 -4q-5 0 -5 4q0 2 0.5 6t2.5 4z" />
    <glyph glyph-name="FL002Fh" unicode="/" horiz-adv-x="538" 
d="M523 576h-233l-275 -576h233zM321 289q0 1 0.5 2.5l0.5 1.5q2 6 8 8q2 0 5 -3t3 -5t-3 -8t-5 -8q-6 2 -8 8zM322 399q6 0 6 -9q0 -8 -6 -8q-7 0 -7 8q0 9 7 9zM330 431h8l-8 -8v8zM318 504h8v-8h-8v8zM391 528q7 0 7 -8t-7 -8q-6 0 -6 8t6 8zM154 164q4 -1 4 -8t-4 -8
q-2 -1 -3 2t-1 6t1 6t3 2zM146 204q4 -1 4 -5q0 -2 -4 -3.5t-4 3.5q0 6 4 5zM187 253h8v-16h-8v16zM203 286h8v-8h-8v8zM182 51q-2 -5 -5 -5q-2 0 -3.5 4t3.5 4q6 0 5 -3zM225 75q6 0 6 -8t-6 -8t-6 8t6 8zM141 99q6 0 13 -4t7 -12h-20v16zM209 116q6 0 6 -8q0 -9 -6 -9
q-7 0 -7 9q0 8 7 8zM263 218q6 0 6 -8q0 -9 -6 -9q-7 0 -7 9q0 8 7 8zM290 258l8 8v-16zM291 333q6 0 6 -8t-6 -8t-6 8t6 8zM275 374q6 0 6 -8q0 -9 -6 -9q-7 0 -7 9q0 8 7 8zM315 414q-1 -4 -4 -4q-2 0 -4 4t4 4q5 0 4 -4zM413 471q4 -1 4 -9q0 -7 -4 -8q-2 -1 -3 2t-1 6
t1 6t3 3zM355 383q4 -1 4 -9q0 -7 -4 -8q-2 -1 -3 2t-1 6t1 6t3 3zM447 538q7 0 7 -8t-7 -8q-6 0 -6 8t6 8z" />
    <glyph glyph-name="FL0030h" unicode="0" 
d="M349 217h89q13 0 21 10t8 23v82q0 10 -9 17.5t-20 9.5h-89q-10 0 -21 -8.5t-11 -18.5v-84q0 -8 8.5 -19.5t23.5 -11.5zM516 166h-247v244h247v-244zM755 486q0 21 -9.5 38t-24.5 28.5t-34 17.5t-37 6h-515q-18 0 -37 -6t-34 -17.5t-24.5 -28.5t-9.5 -38v-396
q0 -21 9.5 -38t24.5 -28.5t34 -17.5t37 -6h515q18 0 37 6t34 17.5t24.5 28.5t9.5 38v396zM206 316q6 0 6 -8t-6 -8q-7 0 -7 8t7 8zM141 332q6 0 6 -8t-6 -8q-7 0 -7 8t7 8zM125 373q3 -2 3 -5q0 -2 -4 -3.5t-4 3.5t5 5zM100 74q0 8 2 9.5t9 1.5q9 0 10.5 -1.5t1.5 -9.5
q0 -7 -1.5 -8.5t-10.5 -1.5q-7 0 -9 1t-2 9zM177 201q-6 0 -6 8t6 8t6 -8t-6 -8zM193 160q-4 0 -4 5t4 3.5t4 -3.5q0 -4 -4 -5zM253 67q-6 0 -6 8t6 8t6 -8t-6 -8zM212 116h8l-8 -8v8zM619 178q6 0 6 -8t-6 -8q-7 0 -7 8t7 8zM683 267q4 -1 4 -4t-4 -4t-4 4t4 4zM570 202v-8
h-8zM666 308q-6 0 -6 8t6 8t6 -8t-6 -8zM580 371q-4 0 -4 5t4 3.5t4 -3.5q0 -4 -4 -5zM588 477q-4 -1 -4 4t4 4t4 -4t-4 -4zM491 76q-7 0 -7 8t7 8q6 0 6 -8t-6 -8zM114 348q6 0 6 -8t-6 -8q-7 0 -7 8t7 8zM154 502q6 0 6 -8t-6 -8t-6 8t6 8zM94 522q4 -1 4 -5q0 -2 -4 -3.5
t-4 3.5t4 5zM178 437q4 -1 4 -4t-4 -4t-4 4t4 4zM674 115q7 0 7 -8t-7 -8q-6 0 -6 8t6 8zM650 80q6 0 6 -8t-6 -8q-7 0 -7 8t7 8zM628 419q0 8 1.5 12t10.5 4q11 0 11 -16q0 -14 -11 -14q-9 0 -10.5 3.5t-1.5 10.5zM691 421q-6 0 -6 8t6 8q7 0 7 -8t-7 -8zM635 461
q-7 0 -7 8t7 8q6 0 6 -8t-6 -8zM73 226h9v-8zM250 534q-4 0 -4 5t4 3.5t4 -3.5q0 -4 -4 -5zM374 276q7 0 7 -8t-7 -8q-6 0 -6 8t6 8zM391 292h2q2 0 2 -4t-3 -4q-5 0 -5 4q0 3 4 4zM431 300v-8l-8 8h8zM366 316h2q3 0 3 -4t-3 -4q-5 0 -5 4t3 4zM588 246v-8h-8zM301 116h14
l-5 -13zM429 60h13v-13zM400 460q-7 0 -7 8t7 8q6 0 6 -8t-6 -8zM444 509l15 4l-3 -14zM347 510q3 -2 3 -5q0 -2 -4 -3.5t-4 3.5t5 5zM538 525q-4 0 -4 5t4 3.5t4 -3.5q0 -4 -4 -5z" />
    <glyph glyph-name="FL0031h" unicode="1" horiz-adv-x="529" 
d="M30 576h354v-410h115v-166h-469v166h115v244h-115v166zM234 200v-16h10q0 12 -10 16zM210 233q-7 0 -7 -8q0 -9 7 -9q6 0 6 9q0 8 -6 8zM234 346v-8h16q-2 6 -8 8l-1.5 0.5t-2.5 0.5l-1.5 -0.5t-2.5 -0.5zM210 362q-5 2 -5 -4q0 -5 4 -3.5t4 3.5t-3 4zM242 403
q-6 0 -6 -8t6 -8t6 8t-6 8zM258 492q-4 1 -4 -5q0 -5 4 -3.5t4 3.5q0 4 -4 5zM218 540q-6 0 -6 -8t6 -8t6 8t-6 8zM299 77q-6 0 -6 -8t6 -8q7 0 7 8t-7 8zM324 109q1 4 -5 4q-5 0 -3.5 -4t3.5 -4q4 0 5 4zM223 122q-6 0 -6 -8t6 -8t6 8t-6 8zM247 155q-4 1 -4 -5
q0 -5 4 -3.5t4 3.5q0 4 -4 5zM289 438l5 -11q8 0 14 2t6 11q0 11 -13 11q-1 0 -3 -0.5t-4 -0.5zM308 312q-7 0 -7 -8t7 -8q6 0 6 8t-6 8zM328 351v1q0 3 -4 3t-4 -4q0 -5 4 -5q2 0 4 5zM305 161q-5 2 -5 -5q0 -5 4 -3.5t4 3.5q0 3 -3 5zM325 255q0 -9 10 -16l4 16h-14z
M272 299q-4 1 -4 -5q0 -5 4 -3.5t4 3.5q0 4 -4 5zM201 43q-6 0 -6 -8t6 -8t6 8t-6 8zM225 76q-4 1 -4 -5q0 -5 4 -3.5t4 3.5q0 4 -4 5zM187 423v1q0 3 -4 3t-4 -4q0 -5 4 -5q2 0 4 5zM327 524v1q0 3 -4 3t-4 -4q0 -5 4 -5q2 0 4 5zM116 474q-4 1 -4 -5q0 -5 4 -3.5t4 3.5
q0 4 -4 5zM69 522q-7 0 -7 -8t7 -8q6 0 6 8t-6 8zM182 530q-6 0 -6 -8t6 -8t6 8t-6 8zM109 554q-4 1 -4 -4t4 -4t4 4t-4 4zM86 56q-7 0 -7 -8t7 -8q6 0 6 8t-6 8zM126 72q-4 1 -4 -5q0 -5 4 -3.5t4 3.5q0 4 -4 5zM102 80q-5 2 -5 -4t4.5 -4t4.5 4q0 3 -4 4zM118 104v-8h8v8
h-8zM397 71q-7 0 -7 -8t7 -8q6 0 6 8t-6 8zM437 87q-4 1 -4 -5q0 -5 4 -3.5t4 3.5q0 4 -4 5zM413 95q-5 2 -5 -4t4.5 -4t4.5 4q0 3 -4 4zM429 119v-8h8v8h-8z" />
    <glyph glyph-name="FL0032h" unicode="2" horiz-adv-x="712" 
d="M30 411h413v-113q-16 25 -36.5 40t-44.5 22t-50.5 9t-53.5 2h-123q-18 0 -37 -6t-34 -17.5t-24.5 -28.5t-9.5 -38v-191q0 -21 9 -38t23 -28.5t32.5 -17.5t36.5 -6h551v165h-413v41h308q18 0 37 6t34 17.5t24.5 28.5t9.5 38v190q0 21 -9 38t-23 28.5t-32.5 17.5t-36.5 6
h-551v-165zM206 317h-8v8zM108 317q7 0 7 -8t-7 -8q-6 0 -6 8t6 8zM165 309q6 0 6 -8t-6 -8t-6 8t6 8zM175 134q4 1 4 -5q0 -5 -4 -3.5t-4 3.5q0 4 4 5zM166 102q5 0 5 -5t-4 -3.5t-4 3.5q0 3 3 5zM183 77q6 0 6 -8t-6 -8q-7 0 -7 8t7 8zM231 61h-10q0 12 10 16v-16zM280 45
h-10q0 9 10 16v-16zM553 95q-10 7 -10 16h10v-16zM602 71h-10q0 8 10 14v-14zM505 63h-9v8h9v-8zM456 55h-8l8 8v-8zM634 63q6 0 6 -8q0 -9 -6 -9t-6 9q0 8 6 8zM297 499q5 2 5 -5q0 -5 -4 -3.5t-4 3.5q0 3 3 5zM386 491q3 0 9 -3t8 -5h-25q0 2 3 5t5 3zM435 474q5 2 5 -4
q0 -5 -4.5 -4t-4.5 4q0 4 4 4zM596 513q-1 4 4 4t3.5 -4t-3.5 -4q-3 0 -4 4zM539 489q-1 4 4 4q6 0 4 -4.5t-4 -4.5t-4 5zM555 448q6 0 6 -8q0 -7 -6 -7t-6 7q0 8 6 8zM601 400h-8v8zM498 400q7 0 7 -8t-7 -8q-6 0 -6 8t6 8zM555 392q6 0 6 -8t-6 -8t-6 8t6 8zM241 256
q7 0 7 -8t-7 -8q-6 0 -6 8t6 8zM274 240v8h8zM163 226q0 -8 -2 -18t-12 -10q-2 0 -3.5 0.5l-1.5 0.5q-2 2 -5 8t-3 8q0 5 8.5 8t13.5 3h5zM233 199l-8 8h8v-8zM71 175q5 2 5 -5q0 -5 -4 -3.5t-4 3.5q0 3 3 5zM160 167q3 0 9 -3t8 -5h-25q0 2 3 5t5 3zM209 150q5 2 5 -4
q0 -5 -4.5 -4t-4.5 4q0 4 4 4zM164 500v-18q-11 0 -17 10q2 7 9 8l1.5 0.5t2.5 0.5l1.5 -0.5t2.5 -0.5zM277 532q6 0 6 -8t-6 -8t-6 8t6 8zM147 548v-16h-18q0 7 4 12t11 5zM91 540q6 0 6 -8t-6 -8q-7 0 -7 8t7 8zM406 246l-9 -8v8h9zM381 287q7 0 7 -8t-7 -8q-6 0 -6 8t6 8
zM341 303q4 1 4 -5q0 -5 -4 -3.5t-4 3.5q0 4 4 5zM365 311q5 2 5 -4t-4.5 -4t-4.5 4q0 3 4 4zM349 335v-8h-8v8h8zM302 61v-8h-8v8h8zM286 102q6 0 6 -8t-6 -8t-6 8t6 8zM359 126q4 1 4 -4t-4 -4t-4 4t4 4zM579 352q6 0 6 -8t-6 -8q-7 0 -7 8t7 8zM584 392v-8h-8v8h8z
M514 272q-2 3 5 3q5 0 3.5 -4t-3.5 -4q-3 0 -5 5zM492 312q0 -9 -10 -16v16h10zM459 141v-8h-8v8h8zM473 99q-2 3 5 3q5 0 3.5 -4t-3.5 -4q-3 0 -5 5zM441 99q-2 3 4 3q5 0 4 -4t-4 -4q-2 0 -4 5zM628 279v-8h-8v8h8zM587 304q-2 3 5 3q5 0 3.5 -4t-3.5 -4q-3 0 -5 5z
M217 446q-2 3 4 3q5 0 4 -4t-4 -4q-2 0 -4 5zM501 546v-8h-8v8h8z" />
    <glyph glyph-name="FL0037h" unicode="3" horiz-adv-x="694" 
d="M99 165h326v43h-314v158h314v45h-326l-84 165h561q37 0 62.5 -19t25.5 -62v-414q0 -43 -25.5 -62t-62.5 -19h-561zM322 34q1 -4 5 -4q2 0 3.5 4t-3.5 4q-6 0 -5 -4zM160 34q1 -4 5 -4q2 0 3.5 4t-3.5 4q-6 0 -5 -4zM91 70q-6 0 -6 -8t6 -8t6 8t-6 8zM150 88
q-20 0 -20 -20q20 0 20 20zM249 96q0 13 -10 13q-11 0 -11 -13q0 -11 11 -11q10 0 10 11zM338 117h-8v-8h8v8zM114 541l-3 1q-1 0 -3 -0.5l-2 -0.5q-5 -3 -8 -8h16v8zM322 141q-6 0 -6 -8t6 -8t6 8t-6 8zM407 493q-4 -1 -4 -5q0 -2 4 -3.5t4 3.5q0 6 -4 5zM617 493
q2 -5 5 -5q2 0 3.5 4t-3.5 4q-7 0 -5 -3zM595 533h-10v-16q10 7 10 16zM496 516l-8 -8h8v8zM239 298q-1 0 -2.5 0.5l-1.5 0.5q-1 0 -2.5 -0.5l-1.5 -0.5q-8 -2 -9 -8q6 -10 17 -10v18zM482 298q-7 0 -7 -8q0 -9 7 -9q6 0 6 9q0 8 -6 8zM522 314h-8v-8zM352 330q-6 0 -6 -8
t6 -8t6 8t-6 8zM482 338q-7 0 -7 -8t7 -8q6 0 6 8t-6 8zM222 346l-3 1q-7 0 -11 -5t-4 -12h18v16zM166 338q-7 0 -7 -8t7 -8q6 0 6 8t-6 8zM506 45q-4 -1 -4 -5q0 -2 4 -3.5t4 3.5q0 6 -4 5zM569 71h-8v-8h8v8zM602 95h-9v-8zM577 136q-6 0 -6 -8t6 -8q7 0 7 8t-7 8z
M561 160q-4 -1 -4 -4q0 -2 4.5 -4t4.5 4t-5 4zM545 184h-8v-8h8v8zM585 249q-6 0 -6 -8t6 -8q7 0 7 8t-7 8zM561 282q2 -5 5 -5q2 0 3.5 4t-3.5 4q-7 0 -5 -3zM530 372q-6 0 -6 -8t6 -8t6 8t-6 8zM603 396q-4 -1 -4 -4t4 -4t4 4t-4 4zM587 461q-7 0 -7 -8t7 -8q6 0 6 8t-6 8
zM587 493h-8v-8h8v8zM135 469q-6 0 -6 -8t6 -8t6 8t-6 8zM187 482q-10 0 -11.5 -2.5t-1.5 -12.5q10 0 11.5 2.5t1.5 12.5zM167 534l-3 1q-1 0 -3 -0.5l-2 -0.5q-5 -3 -8 -8h16v8zM328 465q-1 0 -2.5 0.5l-1.5 0.5q-1 0 -2.5 -0.5l-1.5 -0.5q-8 -2 -9 -8q6 -10 17 -10v18z
M311 513l-3 1q-7 0 -11 -5t-4 -12h18v16zM255 505q-7 0 -7 -8t7 -8q6 0 6 8t-6 8zM337 257q-4 -1 -4 -4t4 -4t4 4t-4 4zM418 306l-8 -8l8 -8v16zM321 322q-7 0 -7 -8t7 -8q6 0 6 8t-6 8zM448 76q-7 0 -7 -8t7 -8q6 0 6 8t-6 8zM448 108h-8v-8h8v8zM167 251h-10v-16
q10 7 10 16z" />
    <glyph glyph-name="FL0034h" unicode="4" horiz-adv-x="723" 
d="M269 576h-239v-370h424v-206h239v576h-239v-295q-32 51 -81 70.5t-104 19.5v205zM271 293q6 0 6 -8q0 -9 -6 -9t-6 9q0 8 6 8zM271 331q6 0 6 -8t-6 -8t-6 8t6 8zM396 248q-6 0 -6 8t6 8t6 -8t-6 -8zM149 293q7 0 7 -8q0 -9 -7 -9h-3v16q1 1 3 1zM356 296q-4 1 -4 5
q0 2 4 3.5t4 -3.5q0 -6 -4 -5zM182 301q-2 -5 -5 -5q-2 0 -3.5 4t3.5 4q6 0 5 -3zM546 195q-6 0 -6 8t6 8t6 -8t-6 -8zM77 527q1 0 2.5 0.5l1.5 0.5q1 0 2.5 -0.5l1.5 -0.5q6 -2 8 -8q-4 -10 -16 -10v18zM134 357q6 0 6 -8q0 -9 -6 -9q-7 0 -7 9q0 8 7 8zM59 413h18l-8 -16
q-10 7 -10 16zM166 527q6 0 6 -8t-6 -8t-6 8t6 8zM158 324q10 -4 10 -16h-10v16zM158 470q1 0 2.5 0.5l1.5 0.5q1 0 2.5 -0.5l1.5 -0.5q6 -2 8 -8h-16v8zM134 486q3 -2 3 -4t-4 -3.5t-4 3.5q0 6 5 4zM667 156q-1 0 -2.5 -0.5l-1.5 -0.5q-1 0 -2.5 0.5l-1.5 0.5q-6 2 -8 8v1
q2 5 4 7t8 2zM583 174q-6 0 -6 8t6 8t6 -8t-6 -8zM612 37q-6 0 -6 8t6 8t6 -8t-6 -8zM591 231q-1 0 -2.5 -0.5l-1.5 -0.5q-1 0 -2.5 0.5l-1.5 0.5q-6 2 -8 8h16v-8zM572 85q-4 1 -4 5q0 2 4 3.5t4 -3.5q0 -6 -4 -5zM615 215q-3 1 -3 4q0 2 4 3.5t4 -3.5q0 -6 -5 -4zM627 315
h8h-8zM616 478q-1 0 -2.5 -0.5l-1.5 -0.5q-1 0 -2.5 0.5l-1.5 0.5q-6 2 -8 8q4 10 16 10v-18zM527 477q-6 0 -6 8t6 8t6 -8t-6 -8zM551 341q-6 0 -6 8t6 8t6 -8t-6 -8zM535 534q-1 0 -2.5 -0.5l-1.5 -0.5q-1 0 -2.5 0.5l-1.5 0.5q-6 2 -8 8h16v-8zM511 389q-4 1 -4 5
q0 2 4 3.5t4 -3.5q0 -6 -4 -5zM559 518q-3 1 -3 4q0 2 4 3.5t4 -3.5q0 -6 -5 -4zM629 429q6 0 6 -8q0 -9 -6 -9q-7 0 -7 9q0 8 7 8zM653 396q10 -4 10 -16h-10v16zM79 271q7 0 7 -8q0 -9 -7 -9h-3v16q1 1 3 1zM112 279q-2 -5 -5 -5q-2 0 -3.5 4t3.5 4q6 0 5 -3zM88 302
q10 -4 10 -16h-10v16zM204 403q10 -4 10 -16h-10v16zM519 71q10 -4 10 -16h-10v16zM529 314q-4 1 -4 5q0 2 4 3.5t4 -3.5q0 -6 -4 -5zM307 261q10 -4 10 -16h-10v16z" />
    <glyph glyph-name="FL0035h" unicode="5" horiz-adv-x="712" 
d="M269 411v-112q16 25 36.5 39.5t44.5 21.5t50.5 9t53.5 2h123q18 0 37 -6t34 -17.5t24.5 -28.5t9.5 -38v-191q0 -21 -9 -38t-23 -28.5t-32.5 -17.5t-36.5 -6h-551v165h413v41h-308q-18 0 -37 6t-34 17.5t-24.5 28.5t-9.5 38v280h652v-165h-413zM506 317h8v8zM604 317
q-7 0 -7 -8t7 -8q6 0 6 8t-6 8zM547 309q-6 0 -6 -8t6 -8t6 8t-6 8zM537 134q-4 1 -4 -5q0 -5 4 -3.5t4 3.5q0 4 -4 5zM546 102q-5 0 -5 -5t4 -3.5t4 3.5q0 3 -3 5zM529 77q-6 0 -6 -8t6 -8q7 0 7 8t-7 8zM481 61h10q0 12 -10 16v-16zM432 45h10q0 9 -10 16v-16zM159 95
q10 7 10 16h-10v-16zM110 71h10q0 8 -10 14v-14zM207 63h9v8h-9v-8zM256 55h8l-8 8v-8zM78 63q-6 0 -6 -8q0 -9 6 -9t6 9q0 8 -6 8zM415 499q-5 2 -5 -5q0 -5 4 -3.5t4 3.5q0 3 -3 5zM326 491q-3 0 -9 -3t-8 -5h25q0 2 -3 5t-5 3zM277 474q-5 2 -5 -4q0 -5 4.5 -4t4.5 4
q0 4 -4 4zM116 513q1 4 -4 4t-3.5 -4t3.5 -4q3 0 4 4zM173 489q1 4 -4 4q-6 0 -4 -4.5t4 -4.5t4 5zM157 448q-6 0 -6 -8q0 -7 6 -7t6 7q0 8 -6 8zM111 400h8v8zM214 400q-7 0 -7 -8t7 -8q6 0 6 8t-6 8zM157 392q-6 0 -6 -8t6 -8t6 8t-6 8zM471 256q-7 0 -7 -8t7 -8q6 0 6 8
t-6 8zM438 240v8h-8zM549 226q0 -8 2 -18t12 -10q2 0 3.5 0.5l1.5 0.5q2 2 5 8t3 8q0 5 -8.5 8t-13.5 3h-5zM479 199l8 8h-8v-8zM641 175q-5 2 -5 -5q0 -5 4 -3.5t4 3.5q0 3 -3 5zM552 167q-3 0 -9 -3t-8 -5h25q0 2 -3 5t-5 3zM503 150q-5 2 -5 -4q0 -5 4.5 -4t4.5 4
q0 4 -4 4zM548 500v-18q11 0 17 10q-2 7 -9 8l-1.5 0.5t-2.5 0.5l-1.5 -0.5t-2.5 -0.5zM435 532q-6 0 -6 -8t6 -8t6 8t-6 8zM565 548v-16h18q0 7 -4 12t-11 5zM621 540q-6 0 -6 -8t6 -8q7 0 7 8t-7 8zM306 246l9 -8v8h-9zM331 287q-7 0 -7 -8t7 -8q6 0 6 8t-6 8zM371 303
q-4 1 -4 -5q0 -5 4 -3.5t4 3.5q0 4 -4 5zM347 311q-5 2 -5 -4t4.5 -4t4.5 4q0 3 -4 4zM363 335v-8h8v8h-8zM410 61v-8h8v8h-8zM426 102q-6 0 -6 -8t6 -8t6 8t-6 8zM353 126q-4 1 -4 -4t4 -4t4 4t-4 4zM133 352q-6 0 -6 -8t6 -8q7 0 7 8t-7 8zM128 392v-8h8v8h-8zM198 272
q1 3 -5 3q-5 0 -3.5 -4t3.5 -4q3 0 5 5zM220 312q0 -9 10 -16v16h-10zM253 141v-8h8v8h-8zM239 99q1 3 -5 3q-5 0 -3.5 -4t3.5 -4q3 0 5 5zM271 99q1 3 -4 3t-4 -4t4 -4q2 0 4 5zM86 279v-8h8v8h-8zM125 304q1 3 -5 3q-5 0 -3.5 -4t3.5 -4q3 0 5 5zM495 446q1 3 -4 3t-4 -4
t4 -4q2 0 4 5zM211 546v-8h8v8h-8zM76 464q-6 0 -6 -8t6 -8q7 0 7 8t-7 8zM85 535q-6 0 -6 -8t6 -8q7 0 7 8t-7 8z" />
    <glyph glyph-name="FL0036h" unicode="6" horiz-adv-x="712" 
d="M269 206v-41h222v41h-222zM682 411h-413v-113q16 25 36.5 40t44.5 22t50.5 9t53.5 2h123q18 0 37 -6t34 -17.5t24.5 -28.5t9.5 -38v-191q0 -21 -9 -38t-23 -28.5t-32.5 -17.5t-36.5 -6h-446q-18 0 -37 6t-34 17.5t-24.5 28.5t-9.5 38v396q0 21 9 38t23 28.5t32.5 17.5
t36.5 6h551v-165zM532 317h8v8zM630 317q-7 0 -7 -8t7 -8q6 0 6 8t-6 8zM573 309q-6 0 -6 -8t6 -8t6 8t-6 8zM581 134q-4 1 -4 -5q0 -5 4 -3.5t4 3.5q0 4 -4 5zM590 102q-5 0 -5 -5t4 -3.5t4 3.5q0 3 -3 5zM573 77q-6 0 -6 -8t6 -8q7 0 7 8t-7 8zM525 61h10q0 12 -10 16v-16
zM458 45h10q0 9 -10 16v-16zM185 95q10 7 10 16h-10v-16zM136 71h10q0 8 -10 14v-14zM233 63h9v8h-9v-8zM282 55h8l-8 8v-8zM104 63q-6 0 -6 -8q0 -9 6 -9t6 9q0 8 -6 8zM441 499q-5 2 -5 -5q0 -5 4 -3.5t4 3.5q0 3 -3 5zM352 491q-3 0 -9 -3t-8 -5h25q0 2 -3 5t-5 3z
M303 474q-5 2 -5 -4q0 -5 4.5 -4t4.5 4q0 4 -4 4zM142 513q1 4 -4 4t-3.5 -4t3.5 -4q3 0 4 4zM199 489q1 4 -4 4q-6 0 -4 -4.5t4 -4.5t4 5zM183 448q-6 0 -6 -8q0 -7 6 -7t6 7q0 8 -6 8zM137 400h8v8zM240 400q-7 0 -7 -8t7 -8q6 0 6 8t-6 8zM183 392q-6 0 -6 -8t6 -8t6 8
t-6 8zM497 256q-7 0 -7 -8t7 -8q6 0 6 8t-6 8zM464 240v8h-8zM575 226q0 -8 2 -18t12 -10q2 0 3.5 0.5l1.5 0.5q2 2 5 8t3 8q0 5 -8.5 8t-13.5 3h-5zM144 192l8 8h-8v-8zM79 372q-2 1 -8 0t-6 -5q0 -5 4 -3.5t4 3.5t4 3t2 2zM596 167q-3 0 -9 -3t-8 -5h25q0 2 -3 5t-5 3z
M547 150q-5 2 -5 -4q0 -5 4.5 -4t4.5 4q0 4 -4 4zM574 500v-18q11 0 17 10q-2 7 -9 8l-1.5 0.5t-2.5 0.5l-1.5 -0.5t-2.5 -0.5zM461 532q-6 0 -6 -8t6 -8t6 8t-6 8zM579 545v-16h18q0 7 -4 12t-11 5zM635 537q-6 0 -6 -8t6 -8q7 0 7 8t-7 8zM101 162l20 -22l-1 22h-19z
M357 285q-7 0 -7 -8t7 -8q6 0 6 8t-6 8zM397 301q-4 1 -4 -5q0 -5 4 -3.5t4 3.5q0 4 -4 5zM373 309q-5 2 -5 -4t4.5 -4t4.5 4q0 3 -4 4zM389 333v-8h8v8h-8zM436 61v-8h8v8h-8zM452 102q-6 0 -6 -8t6 -8t6 8t-6 8zM379 126q-4 1 -4 -4t4 -4t4 4t-4 4zM127 352q-6 0 -6 -8
t6 -8q7 0 7 8t-7 8zM154 392v-8h8v8h-8zM192 272q1 3 -5 3q-5 0 -3.5 -4t3.5 -4q3 0 5 5zM214 312q0 -9 10 -16v16h-10zM279 141v-8h8v8h-8zM265 99q1 3 -5 3q-5 0 -3.5 -4t3.5 -4q3 0 5 5zM297 99q1 3 -4 3t-4 -4t4 -4q2 0 4 5zM80 279v-8h8v8h-8zM119 304q1 3 -5 3
q-5 0 -3.5 -4t3.5 -4q3 0 5 5zM521 446q1 3 -4 3t-4 -4t4 -4q2 0 4 5zM237 546v-8h8v8h-8zM102 464q-6 0 -6 -8t6 -8q7 0 7 8t-7 8zM111 535q-6 0 -6 -8t6 -8q7 0 7 8t-7 8zM383 532q-6 0 -6 -8t6 -8q7 0 7 8t-7 8z" />
    <glyph glyph-name="FL003Ah" unicode="7" horiz-adv-x="710" 
d="M60 0l317 410h-347v166h650v-116l-361 -460h-259zM243 68q3 -3 7 4q3 5 -2 3.5t-6 -3.5q-2 -2 1 -4zM192 35q1 -1 1.5 -2t1.5 -2q1 1 1.5 2t1.5 2l1.5 4.5l0.5 1.5q-2 2 -4 2q-3 0 -5 -2q-1 -1 1 -6zM216 92q0 -1 -0.5 -2t-0.5 -2q1 -1 2 -1.5t3 -2.5h1q1 -1 2 -1
l1.5 0.5t2.5 0.5l5 8h-16zM163 84q1 0 2.5 -0.5l1.5 -0.5q2 0 3 1l4 4q0 3 -1 4h-12zM276 42q-5 -1 -6 -2l-5 -5v-3q0 -4 4 -5l1 -0.5t2 -0.5l2 0.5t3 0.5l2 10zM382 229q3 -3 7 4q3 5 -2 3.5t-6 -3.5q-2 -2 1 -4zM331 196q1 -1 1.5 -2t1.5 -2q1 1 1.5 2t1.5 2l1.5 4.5
l0.5 1.5q-2 2 -4 2q-3 0 -5 -2q-1 -1 1 -6zM302 245q1 0 2.5 -0.5l1.5 -0.5q2 0 3 1l5 4q0 3 -1 4h-16zM421 206q-8 -1 -17 -10v-3q0 -4 4 -5l1 -0.5t2 -0.5l2 0.5t3 0.5l8 13zM183 517q12 0 13 10l-13 8q-3 -3 -3 -8q0 -4 3 -10zM266 502q1 0 3 -0.5l2 -0.5q1 0 2 0.5
l1 0.5q4 1 4 5v3q-8 8 -17 10l-2 -5zM254 465q-4 3 -4 5q0 1 -6 1q-12 0 -12 -9q0 -4 2 -6t4 -7zM276 148q4 -1 6 5q4 5 -0.5 3.5t-6.5 -3.5q-1 -3 1 -5zM205 123q4 13 0 20l-12 -8q1 -12 12 -12zM395 260q5 0 5 8q0 9 -5 9q-6 0 -6 -9q0 -8 6 -8zM325 208q6 0 6 8q0 9 -6 9
t-6 -9q0 -8 6 -8zM285 202q5 0 5 9q0 4 -3 7.5t-5 3.5t-3 1.5t-1 -3.5v-9q0 -9 7 -9zM483 528q-6 0 -6 -8t6 -8q5 0 5 8t-5 8zM428 401q-3 0 -8.5 -5.5t-5.5 -9.5q0 -8 6 -8q3 0 8 5t5 10q0 8 -5 8zM646 521q-6 0 -6 -8t6 -8t6 8t-6 8zM428 361q-5 0 -5 -10q0 -8 5 -8
q7 0 7 8q0 10 -7 10zM569 408q-4 0 -10 -2t-6 -6q0 -5 6 -7.5t10 -2.5t4 10q0 8 -4 8zM542 468q2 -5 5 -5q1 0 1.5 6t1 12.5t-0.5 12.5t-3 6t-3 -5t-1 -11v-12v-4zM88 523l9 -19l12 20l-11 19zM456 500v8h-8zM415 459q6 0 6 8t-6 8t-6 -8t6 -8zM498 294q6 0 6 8t-6 8
q-7 0 -7 -8t7 -8zM364 122l-2 13h-8q-3 0 -6 -5q2 -6 8 -8l2 -0.5t3 -0.5l1 0.5t2 0.5zM493 343v8h-16v-8h16zM401 546q5 -2 5 4q0 5 -4 3.5t-4 -3.5q0 -3 3 -4zM445 303v8h-8v-8h8zM130 489q5 -2 5 4q0 5 -4 3.5t-4 -3.5q0 -3 3 -4zM358 500l9 8h-9v-8zM312 464q-6 0 -6 -8
t6 -8t6 8t-6 8z" />
    <glyph glyph-name="FL0038h" unicode="8" horiz-adv-x="758" 
d="M269 211v-45h220v45h-220zM489 366v44h-220v-127q32 50 81 66.5t104 16.5h35zM629 0h-500q-18 0 -36 5t-32 15.5t-22.5 26.5t-8.5 37v154q3 14 13.5 31t24.5 29q-10 11 -22 30t-16 45v119q0 21 8.5 37t22.5 26.5t32 15.5t36 5h500q18 0 36 -5t32 -15.5t22.5 -26.5
t8.5 -37v-119q-4 -26 -16 -45t-22 -30q14 -12 24.5 -29t13.5 -31v-154q0 -21 -8.5 -37t-22.5 -26.5t-32 -15.5t-36 -5zM225 275q-3 0 -3 -4t3 -4q5 0 5 4q0 3 -4 4h-1zM186 243q-7 0 -7 -8t7 -8q6 0 6 8t-6 8zM161 138q-6 0 -6 -9q0 -8 6 -8q7 0 7 8q0 9 -7 9zM75 507l8 -8
v8h-8zM115 536q-3 0 -4.5 -4.5t-1.5 -8.5q0 -8 6 -8q9 0 9 5q0 4 -2.5 10t-6.5 6zM520 201l9 -8v8h-9zM584 258q-3 0 -3 -5q0 -4 3 -4v9zM559 266q-3 0 -3 -4t3 -4q6 0 6 4q0 3 -4 4h-2zM545 242q-7 0 -7 -8t7 -8q6 0 6 8t-6 8zM393 285q0 2 -5 2q-4 0 -4 -3q0 -5 4 -5
q3 0 5 5v1zM415 324q0 -9 10 -16v16h-10zM477 329l5 -21l15 7zM157 75q-3 0 -3 -4t3 -4q5 0 5 4q0 3 -4 4h-1zM118 109q0 2 -5 2q-4 0 -4 -3q0 -5 4 -5q3 0 5 5v1zM110 222q0 3 -5 3q-4 0 -4 -3q0 -6 4 -6q3 0 5 5v1zM94 75q-7 0 -7 -8t7 -8q6 0 6 8t-6 8zM441 461
q-3 0 -3 -5q0 -4 3 -4q5 0 5 4t-4 5h-1zM321 510l5 -21l15 7zM483 48q-3 0 -3 -4t3 -4h4q5 0 11 0.5t6 2.5q0 3 -4 4zM615 137q-6 0 -6 -8t6 -8q7 0 7 8t-7 8zM640 58q-7 0 -7 -8t7 -8v16zM550 97l-1.5 0.5t-2.5 0.5l-1.5 -0.5t-2.5 -0.5v-18zM577 129q0 7 -4 12t-11 5
l-3 -1v-16h18zM632 517v8l-8 -8h8zM553 515q-3 5 -8 8l-2 0.5t-3 0.5l-3 -1v-8h16zM569 458q-6 0 -6 -8t6 -8t6 8t-6 8zM644 493q0 -6 8 -6t8 6q0 7 -8 7t-8 -7zM510 476q0 -20 20 -20q0 20 -20 20zM155 334l9 -8v8h-9zM235 488q-3 0 -3 -4t3 -4q5 0 5 4q0 3 -4 4h-1z
M253 449q0 2 -5 2q-4 0 -4 -3q0 -5 4 -5q3 0 5 5v1zM196 522q0 2 -5 2q-4 0 -4 -3q0 -5 4 -5q3 0 5 5v1zM146 294q-3 0 -3 -5q0 -4 3 -4q5 0 5 4t-4 5h-1zM219 391q-3 0 -3 -5q0 -4 3 -4q5 0 5 4t-4 5h-1zM194 399q-3 0 -3 -4t3 -4q6 0 6 4q0 3 -4 4h-2zM205 308l-17 2v-8
l17 -2v8zM228 438l-16 -15v-8h8zM172 488q-7 0 -7 -8t7 -8q6 0 6 8t-6 8zM180 375q-7 0 -7 -8t7 -8q6 0 6 8t-6 8zM270 89q-6 0 -6 -8t6 -8q7 0 7 8t-7 8zM335 105q-6 0 -6 -8t6 -8q7 0 7 8t-7 8zM297 52q-7 0 -7 -8t7 -8q6 0 6 8t-6 8zM240 68q1 -4 5 -4t4 5q0 3 -4 3
q-5 0 -5 -3v-1zM100 405q0 2 -5 2q-4 0 -4 -3q0 -5 4 -5q3 0 5 5v1zM615 327v8l-8 -8h8zM627 303q0 -6 8 -6t8 6q0 7 -8 7t-8 -7zM420 138q-6 0 -6 -8t6 -8t6 8t-6 8zM645 143q6 0 6 8t-6 8q-7 0 -7 -8t7 -8zM681 111q7 0 7 8t-7 8q-6 0 -6 -8t6 -8zM656 224q-1 -4 5 -4
q5 0 3.5 4t-3.5 4q-4 0 -5 -4zM347 249q0 2 -5 2q-4 0 -4 -3q0 -5 4 -5q3 0 5 5v1zM639 405q0 2 -5 2q-4 0 -4 -3q0 -5 4 -5q3 0 5 5v1zM403 544q0 2 -5 2q-4 0 -4 -3q0 -5 4 -5q3 0 5 5v1z" />
    <glyph glyph-name="FL0039h" unicode="9" horiz-adv-x="711" 
d="M681 486v-396q0 -21 -9.5 -38t-24.5 -28.5t-34 -17.5t-37 -6h-546v166h412v244h-173v-42h60l75 -158h-374v276q0 21 9.5 38t24.5 28.5t34 17.5t37 6h441q18 0 37 -6t34 -17.5t24.5 -28.5t9.5 -38zM180 259h-8v-8zM82 259q7 0 7 8t-7 8q-6 0 -6 -8t6 -8zM139 267q6 0 6 8
t-6 8t-6 -8t6 -8zM131 442q4 -1 4 5q0 5 -4 3.5t-4 -3.5q0 -4 4 -5zM122 474q5 0 5 5t-4 3.5t-4 -3.5q0 -4 3 -5zM139 499q6 0 6 8t-6 8q-7 0 -7 -8t7 -8zM187 515h-10q0 -12 10 -16v16zM254 531h-10q0 -9 10 -16v16zM527 481q-10 -7 -10 -16h10v16zM576 505h-10
q0 -8 10 -14v14zM479 513h-9v-8h9v8zM430 521h-8l8 -8v8zM608 513q6 0 6 8q0 9 -6 9t-6 -9q0 -8 6 -8zM271 77q5 -2 5 5q0 5 -4 3.5t-4 -3.5q0 -4 3 -5zM360 85q3 0 9 3t8 5h-25q0 -2 3 -5t5 -3zM409 102q5 -2 5 4q0 5 -4.5 4t-4.5 -4q0 -4 4 -4zM570 63q-1 -4 4 -4t3.5 4
t-3.5 4q-3 0 -4 -4zM513 87q-1 -4 4 -4q6 0 4 4.5t-4 4.5t-4 -5zM529 128q6 0 6 8q0 7 -6 7t-6 -7q0 -8 6 -8zM575 176h-8v-8zM472 176q7 0 7 8t-7 8q-6 0 -6 -8t6 -8zM529 184q6 0 6 8t-6 8t-6 -8t6 -8zM215 320q7 0 7 8t-7 8q-6 0 -6 -8t6 -8zM248 336v-8h8zM133 354v16
q0 8 -10 8q-2 0 -3.5 -0.5l-1.5 -0.5q-2 -2 -5 -8t-3 -8q0 -5 6.5 -6t11.5 -1h5zM568 384l-8 -8h8v8zM633 204q2 -1 8 0t6 5q0 5 -4 3.5t-4 -3.5t-4 -3t-2 -2zM116 409q3 0 9 3t8 5h-25q0 -2 3 -5t5 -3zM165 426h2q3 0 3 4t-4 4q-5 0 -5 -4t4 -4zM144 76v18q-11 0 -17 -10
q2 -7 9 -8l1.5 -0.5t2.5 -0.5l1.5 0.5t2.5 0.5zM251 44q6 0 6 8t-6 8t-6 -8t6 -8zM139 31v16h-18q0 -7 4 -12t11 -5zM83 39q6 0 6 8t-6 8q-7 0 -7 -8t7 -8zM611 414l-20 22l1 -22h19zM294 291q7 0 7 8t-7 8q-6 0 -6 -8t6 -8zM254 275q4 -1 4 5q0 5 -4 3.5t-4 -3.5q0 -4 4 -5
zM278 267q5 -2 5 4t-4.5 4t-4.5 -4q0 -3 4 -4zM262 243v8h-8v-8h8zM276 515v8h-8v-8h8zM260 474q6 0 6 8t-6 8t-6 -8t6 -8zM333 450q4 -1 4 4t-4 4t-4 -4t4 -4zM585 224q6 0 6 8t-6 8q-7 0 -7 -8t7 -8zM558 184v8h-8v-8h8zM520 304q-2 -3 5 -3q5 0 3.5 4t-3.5 4q-3 0 -5 -5z
M498 264q0 9 -10 16v-16h10zM433 435v8h-8v-8h8zM447 477v-1q0 -2 5 -2q4 0 4 3q0 5 -4 5q-3 0 -5 -5zM415 477v-1q0 -2 4 -2t4 3q0 5 -4 5q-2 0 -4 -5zM632 297v8h-8v-8h8zM593 272q-2 -3 5 -3q5 0 3.5 4t-3.5 4q-3 0 -5 -5zM191 130q-2 -3 4 -3q5 0 4 4t-4 4q-2 0 -4 -5z
M475 30v8h-8v-8h8zM610 112q6 0 6 8t-6 8q-7 0 -7 -8t7 -8zM601 41q6 0 6 8t-6 8q-7 0 -7 -8t7 -8zM329 44q6 0 6 8t-6 8q-7 0 -7 -8t7 -8z" />
    <glyph glyph-name="FL003Bh" unicode=":" horiz-adv-x="293" 
d="M68 0h161q14 0 24 12t10 27v109q0 11 -11 20.5t-23 11.5h-161q-12 0 -25 -10t-13 -22v-111q0 -9 10 -23t28 -14zM68 269h161q14 0 24 12t10 27v109q0 11 -11 20.5t-23 11.5h-162q-12 0 -24.5 -10t-12.5 -22v-111q0 -9 10 -23t28 -14zM110 77q7 0 7 -8t-7 -8q-6 0 -6 8
t6 8zM127 93h2q2 0 2 -4t-3 -4q-5 0 -5 4q0 3 4 4zM178 103l-7 -19l-8 19h15zM102 117h2q3 0 3 -4t-3 -4q-5 0 -5 4t3 4zM207 146h2q2 0 2.5 -4t0.5 -6q0 -4 -3 -4q-5 0 -5 4q0 2 0.5 6t2.5 4zM142 325q7 0 7 -8t-7 -8q-6 0 -6 8t6 8zM215 380h2q2 0 2 -4t-3 -4q-5 0 -5 4
q0 3 4 4zM181 365l-7 -19l-8 19h15zM190 404h2q3 0 3 -4t-3 -4q-5 0 -5 4t3 4zM87 365h2q2 0 2.5 -4t0.5 -6q0 -4 -3 -4q-5 0 -5 4q0 2 0.5 6t2.5 4zM188 51h2q2 0 2.5 -4t0.5 -6q0 -4 -3 -4q-5 0 -5 4q0 2 0.5 6t2.5 4zM124 387h2q3 0 3 -4t-3 -4q-5 0 -5 4t3 4z" />
    <glyph glyph-name="FL003Dh" unicode=";" horiz-adv-x="285" 
d="M129 29q-6 0 -6 8t6 8q7 0 7 -8t-7 -8zM194 128q-6 0 -6 8t6 8q7 0 7 -8t-7 -8zM166 58q-7 0 -7 8t7 8q6 0 6 -8t-6 -8zM93 -21q7 0 7 -8t-7 -8q-6 0 -6 8t6 8zM148 85q-6 0 -6 8t6 8q7 0 7 -8t-7 -8zM112 117q-7 0 -7 8t7 8q6 0 6 -8t-6 -8zM82 111q7 0 7 -8t-7 -8
q-6 0 -6 8t6 8zM68 -108h71q42 24 71 59.5t45 74.5v122q-6 12 -14 21t-20 11h-153q-21 -5 -26.5 -13t-11.5 -19v-215q0 -5 2.5 -11.5t7.5 -13.5t12 -11.5t16 -4.5zM68 269h153q14 0 24 12t10 27v109q0 11 -11 20.5t-23 11.5h-153q-12 0 -25 -10t-13 -22v-111q0 -9 10 -23
t28 -14zM140 326q7 0 7 -8t-7 -8q-6 0 -6 8t6 8zM213 381h2q2 0 2 -4t-3 -4q-5 0 -5 4q0 3 4 4zM179 366l-7 -19l-8 19h15zM188 405h2q3 0 3 -4t-3 -4q-5 0 -5 4t3 4zM85 366h2q2 0 2.5 -4t0.5 -6q0 -4 -3 -4q-5 0 -5 4q0 2 0.5 6t2.5 4zM122 388h2q3 0 3 -4t-3 -4
q-5 0 -5 4t3 4z" />
    <glyph glyph-name="FL003Ch" unicode="&#x3c;" horiz-adv-x="516" 
d="M240 576h261l-225 -288l225 -288h-261l-225 288zM380 75q3 4 -2 4t-7 -4.5t1 -4.5t8 5zM335 67q-6 0 -12 -8q-1 -1 -1 -4q0 -4 5 -4q6 0 9 8q3 3 3 6q0 2 -4 2zM181 295q-5 -3 -5 -7q0 -5 4 -9h10zM213 384l16 -16q4 4 4 9q0 -2 -0.5 0t-1.5 7h-18zM187 328q-4 0 -4 -2
q0 -3 3 -6q3 -9 10 -9q4 0 4 4t-1 5q-6 8 -12 8zM107 291q-3 2 -8 -5q-3 -5 1.5 -3.5t6.5 3.5l1 3zM266 219q-4 1 -6 -5q-4 -5 1 -3.5t7 3.5q2 4 -2 5zM225 135l5 8h-8l-5 -8h8zM271 124q4 4 4 9q0 4 -5 7l-9 -16h10zM307 194q-1 -5 -1.5 -7t-0.5 0q0 -5 4 -9l14 15z
M337 545q-6 0 -12 -8q-1 -1 -1 -5t4 -4q7 0 10 9q3 3 3 6q0 2 -4 2zM162 244q-2 -2 0 -5q2 -2 6.5 -3.5t1.5 3.5q-5 7 -8 5zM221 491l8 -8l8 8l-8 8zM337 499q-6 0 -6 -8t6 -8t6 8t-6 8zM261 524q-6 0 -6 -8t6 -8q7 0 7 8t-7 8zM266 438q-6 0 -6 -8t6 -8t6 8t-6 8zM191 218
q3 4 -2 4t-7 -4.5t1 -4.5t8 5z" />
    <glyph glyph-name="FL0040h" unicode="=" horiz-adv-x="469" 
d="M359 367l-3 -1v-16h18q0 7 -4 12t-11 5zM225 360q-6 0 -6 -8t6 -8q7 0 7 8t-7 8zM148 390q-6 0 -6 -8t6 -8q7 0 7 8t-7 8zM117 398q-6 0 -6 -8t6 -8t6 8t-6 8zM194 412q-6 0 -6 -8t6 -8q7 0 7 8t-7 8zM349 424q-6 0 -6 -8t6 -8q7 0 7 8t-7 8zM296 433l-3 -1v-16h18
q0 7 -4 12t-11 5zM163 423q-6 0 -6 -8t6 -8t6 8t-6 8zM276 384v-18q11 0 17 10q-1 6 -9 8l-1.5 0.5t-2.5 0.5l-1.5 -0.5t-2.5 -0.5zM30 106v158h409v-158h-409zM30 311v158h409v-158h-409zM97 189q0 -9 10 -16v16h-10zM164 181v-8h8zM238 197q-7 0 -7 -8t7 -8q6 0 6 8t-6 8z
M351 205q-6 0 -6 -8t6 -8t6 8t-6 8zM200 221q-7 0 -7 -8t7 -8q6 0 6 8t-6 8zM278 229q-4 1 -4 -4t4 -4t4 4t-4 4zM321 152q0 -5 2.5 -13t7.5 -12v16zM79 374v-8h8zM138 209q-7 0 -7 -8t7 -8q6 0 6 8t-6 8zM100 233q-7 0 -7 -8t7 -8q6 0 6 8t-6 8zM395 158q-4 1 -4 -4t4 -4
t4 4t-4 4z" />
    <glyph glyph-name="FL003Eh" unicode="&#x3e;" horiz-adv-x="515" 
d="M276 576l224 -288l-224 -288h-261l224 288l-224 288h261zM180 86q-3 -6 -3 -10q0 -5 3 -8l13 8q-1 10 -13 10zM259 86q5 1 8 3.5t7 6.5v3q0 4 -4 5l-1 0.5t-2 0.5l-2 -0.5t-3 -0.5l-6 -13zM215 403q-3 -2 -1 -4q1 -2 6 -3.5t2 3.5q-4 7 -7 4zM371 355q-4 -1 -2 -5
q2 -2 7 -3.5t1 3.5q-2 6 -6 5zM344 168l5 -8h8l-5 8h-8zM280 241q-5 -3 -5 -7q0 -5 4 -9h10zM312 330l16 -16q4 4 4 9q0 -2 -0.5 0t-1.5 7h-18zM286 274q-4 0 -4 -2q0 -3 3 -6q3 -9 10 -9q4 0 4 4t-1 5q-6 8 -12 8zM332 429q-12 0 -13 -10l13 -8q3 3 3 8q0 4 -3 10zM249 444
q-1 0 -3 0.5l-2 0.5q-1 0 -2 -0.5l-1 -0.5q-4 -1 -4 -5v-3q8 -8 17 -10l2 5zM257 481l6 -4.5t8 -1.5q12 0 12 9q0 4 -2 7.5t-4 8.5zM114 38l8 -8l8 8l-8 8zM162 119q-6 0 -6 -8t6 -8q7 0 7 8t-7 8zM172 537l5 -8h8l-5 8h-8zM161 498l8 -8l8 8l-8 8z" />
    <glyph glyph-name="FL003Fh" unicode="?" horiz-adv-x="712" 
d="M128 0h161q14 0 24 12t10 27v96q0 11 -11 20.5t-23 11.5h-161q-12 0 -25 -10t-13 -22v-98q0 -9 10 -23t28 -14zM30 576v-165h413v-113q-16 25 -36.5 40t-44.5 22t-50.5 9t-53.5 2h-63q-18 0 -37 -6t-34 -17.5t-24.5 -28.5t-9.5 -38v-75h487q18 0 37 6t34 17.5t24.5 28.5
t9.5 38v190q0 21 -9 38t-23 28.5t-32.5 17.5t-36.5 6h-551zM254 317h-8v8zM156 317q7 0 7 -8t-7 -8q-6 0 -6 8t6 8zM213 309q6 0 6 -8t-6 -8t-6 8t6 8zM175 113q4 1 4 -5q0 -5 -4 -3.5t-4 3.5q0 4 4 5zM166 81q5 0 5 -5t-4 -3.5t-4 3.5q0 3 3 5zM183 56q6 0 6 -8t-6 -8
q-7 0 -7 8t7 8zM231 40h-10q0 12 10 16v-16zM297 499q5 2 5 -5q0 -5 -4 -3.5t-4 3.5q0 3 3 5zM386 491q3 0 9 -3t8 -5h-25q0 2 3 5t5 3zM435 474q5 2 5 -4q0 -5 -4.5 -4t-4.5 4q0 4 4 4zM596 513q-1 4 4 4t3.5 -4t-3.5 -4q-3 0 -4 4zM539 489q-1 4 4 4q6 0 4 -4.5t-4 -4.5
t-4 5zM555 448q6 0 6 -8q0 -7 -6 -7t-6 7q0 8 6 8zM601 400h-8v8zM498 400q7 0 7 -8t-7 -8q-6 0 -6 8t6 8zM555 392q6 0 6 -8t-6 -8t-6 8t6 8zM241 256q7 0 7 -8t-7 -8q-6 0 -6 8t6 8zM274 240v8h8zM176 238l-8 8h8v-8zM267 89q3 0 9 -3t8 -5h-25q0 2 3 5t5 3zM209 129
q5 2 5 -4q0 -5 -4.5 -4t-4.5 4q0 4 4 4zM164 500v-18q-11 0 -17 10q2 7 9 8l1.5 0.5t2.5 0.5l1.5 -0.5t2.5 -0.5zM277 532q6 0 6 -8t-6 -8t-6 8t6 8zM147 548v-16h-18q0 7 4 12t11 5zM91 540q6 0 6 -8t-6 -8q-7 0 -7 8t7 8zM406 246l-9 -8v8h9zM381 287q7 0 7 -8t-7 -8
q-6 0 -6 8t6 8zM341 303q4 1 4 -5q0 -5 -4 -3.5t-4 3.5q0 4 4 5zM365 311q5 2 5 -4t-4.5 -4t-4.5 4q0 3 4 4zM349 335v-8h-8v8h8zM579 352q6 0 6 -8t-6 -8q-7 0 -7 8t7 8zM584 392v-8h-8v8h8zM514 272q-2 3 5 3q5 0 3.5 -4t-3.5 -4q-3 0 -5 5zM492 312q0 -9 -10 -16v16h10z
M628 279v-8h-8v8h8zM587 304q-2 3 5 3q5 0 3.5 -4t-3.5 -4q-3 0 -5 5zM217 450v1q0 2 4 2t4 -3q0 -5 -4 -5q-2 0 -4 5zM501 546v-8h-8v8h8z" />
    <glyph glyph-name="FL0041h" unicode="@" horiz-adv-x="1071" 
d="M945 587v8h-17q2 -7 9 -8l1.5 -0.5t2.5 -0.5l1.5 0.5t2.5 0.5zM540 569q7 0 7 8t-7 8q-6 0 -6 -8t6 -8zM459 577q7 0 7 8t-7 8q-6 0 -6 -8t6 -8zM516 585q6 0 6 8t-6 8t-6 -8t6 -8zM806 573h-8l8 -8v8zM717 573h-9v-8zM765 524q6 0 6 8t-6 8t-6 -8t6 -8zM969 530l7 8
q-7 0 -7 -8zM700 603v18q-10 0 -16 -10q2 -6 8 -8l2 -0.5t3 -0.5l1 0.5t2 0.5zM765 595v-8h16v8h-16zM635 555q5 -2 5 4q0 5 -4 3.5t-4 -3.5q0 -3 3 -4zM725 555v-8h8v8h-8zM599 23v8h-17q2 -7 9 -8l1.5 -0.5t2.5 -0.5l1.5 0.5t2.5 0.5zM194 5q7 0 7 8t-7 8q-6 0 -6 -8t6 -8
zM113 13q7 0 7 8t-7 8q-6 0 -6 -8t6 -8zM170 21q6 0 6 8t-6 8t-6 -8t6 -8zM460 9h-8l8 -8v8zM371 9h-9v-8zM419 -40q6 0 6 8t-6 8t-6 -8t6 -8zM623 -46q3 -3 4 -3q4 0 4 7q0 4 -1 4l-3 1q-4 0 -4 -6v-3zM354 39v18q-10 0 -16 -10q2 -6 8 -8l2 -0.5t3 -0.5l1 0.5t2 0.5z
M419 31v-8h16v8h-16zM289 -9q5 -2 5 4q0 5 -4 3.5t-4 -3.5q0 -3 3 -4zM379 -9v-8h8v8h-8zM799 491h-527v-403h664v-166h-801q-18 0 -37 6t-34 17.5t-24.5 28.5t-9.5 38v555q0 21 9.5 38t24.5 28.5t34 17.5t37 6h801q18 0 37 -6t34 -17.5t24.5 -28.5t9.5 -38v-358
q0 -21 -9.5 -38t-24.5 -28.5t-34 -17.5t-37 -6h-578q-13 2 -26.5 14t-13.5 29v251q0 6 5 14t12 15t15 11.5t14 4.5h326q22 0 42.5 -14t20.5 -40v-156h46v243zM495 328v-79h81v79h-81zM101 357h9l-9 8v-8zM124 541l8 8h-8v-8zM187 279h8l-8 8v-8zM98 574q1 4 -4 4q-6 0 -4 -4
t4 -4q3 0 4 4zM187 566h8l-8 8v-8zM149 323q-6 0 -6 -8t6 -8t6 8t-6 8zM207 260q0 -5 1 -9t6 -8l8 8q-5 9 -15 9zM130 295q-7 0 -7 -8t7 -8q6 0 6 8t-6 8zM170 449q-6 0 -6 -8t6 -8q3 0 8 -0.5t5 3.5t-5 8.5t-8 4.5zM186 490q-4 0 -4 -5t4 -3.5t4 3.5q0 4 -4 5zM209 384
q-4 1 -4 -4t4 -4t4 4t-4 4zM228 297q-7 0 -7 -8q0 -5 7 8zM67 470h8v8h-8v-8zM144 265q-4 0 -4 -5t4 -3.5t4 3.5q0 4 -4 5zM980 502q-7 0 -7 -8t7 -8q6 0 6 8t-6 8zM955 383q-6 0 -6 -9q0 -8 6 -8q7 0 7 8q0 9 -7 9zM951 320q-3 0 -3 -4t3 -4q5 0 5 4q0 3 -4 4h-1zM912 354
q0 2 -5 2q-4 0 -4 -3q0 -5 4 -5q3 0 5 5v1zM904 481q0 3 -5 3q-4 0 -4 -3q0 -6 4 -6q3 0 5 5v1zM888 320q-7 0 -7 -8t7 -8q6 0 6 8t-6 8zM940 553q-3 0 -3 -5q0 -4 3 -4q5 0 5 4t-4 5h-1zM702 221v-17q10 6 10 17h-10zM662 159v18q-10 0 -16 -10q2 -6 8 -8l2 -0.5t3 -0.5
l1 0.5t2 0.5zM727 151v-8h16v8h-16zM725 187v-16h8v16h-8zM427 382q0 -4 1 -6t9 -2q11 0 11 8v5q0 5 -1 7t-7 2q-13 0 -13 -14zM459 324l8 8h-8v-8zM375 305h14l-11 12zM410 343h8l-8 8v-8zM403 226q-6 0 -6 -8t6 -8q7 0 7 8t-7 8zM371 194v8h-8zM403 186q-6 0 -6 -8
q0 -9 6 -9q7 0 7 9q0 8 -7 8zM375 184q-4 1 -4 -4t4 -4t4 4t-4 4zM448 160q-6 0 -6 -8t6 -8t6 8t-6 8zM298 576q-4 1 -4 -5q0 -5 4 -3.5t4 3.5q0 4 -4 5zM356 582q-5 2 -5 -5q0 -5 4 -3.5t4 3.5q0 3 -3 5zM631 315v-16h10q0 12 -10 16zM673 359q-7 0 -7 -8q0 -9 7 -9
q6 0 6 9q0 8 -6 8zM796 25q-4 1 -4 -5q0 -5 4 -3.5t4 3.5q0 4 -4 5zM854 31q-5 2 -5 -5q0 -5 4 -3.5t4 3.5q0 3 -3 5zM923 188q-4 1 -4 -5q0 -5 4 -3.5t4 3.5q0 4 -4 5zM951 221q-5 2 -5 -5q0 -5 4 -3.5t4 3.5q0 3 -3 5zM209 128h-8l8 -8v8zM168 150v-8h16v8h-16zM799 180
q-6 0 -6 -9q0 -8 6 -8q7 0 7 8q0 9 -7 9zM621 412q-7 0 -7 -8q0 -9 7 -9q6 0 6 9q0 8 -6 8zM759 9q-7 0 -7 -8q0 -9 7 -9q6 0 6 9q0 8 -6 8z" />
    <glyph glyph-name="A" unicode="A" horiz-adv-x="859" 
d="M528 538q-7 0 -7 -8t7 -8q6 0 6 8t-6 8zM609 530q-7 0 -7 -8t7 -8q6 0 6 8t-6 8zM552 522q-6 0 -6 -8t6 -8t6 8t-6 8zM633 506q-6 0 -6 -8t6 -8t6 8t-6 8zM554 295q-7 0 -7 -8q0 -9 7 -9q6 0 6 9q0 8 -6 8zM570 254q-6 0 -6 -8t6 -8t6 8t-6 8zM497 230q1 3 -5 3
q-5 0 -3.5 -4t3.5 -4q3 0 5 5zM767 108h16v8h-16v-8zM702 221v-17q10 6 10 17h-10zM735 443l8 -8l8 8l-8 8zM630 435q6 0 6 8t-6 8t-6 -8t6 -8zM703 362q6 0 6 8t-6 8q-7 0 -7 -8t7 -8zM678 338q-5 9 -16 9v-19q12 0 16 10zM743 248h5h3v18q-10 0 -16 -9q1 -7 8 -9zM662 159
v18q-10 0 -16 -10q2 -6 8 -8l2 -0.5t3 -0.5l1 0.5t2 0.5zM727 151v-8h16v8h-16zM687 111v-8h8v8h-8zM758 487q4 -1 4 4t-4 4t-4 -4t4 -4zM782 422q6 0 6 8t-6 8t-6 -8t6 -8zM766 381q4 0 4 5t-4 3.5t-4 -3.5q0 -4 4 -5zM782 244q6 0 6 8t-6 8t-6 -8t6 -8zM725 187v-16h8v16
h-8zM726 498q6 0 6 8t-6 8q-7 0 -7 -8t7 -8zM669 482q-1 -4 5 -4q5 0 3.5 4t-3.5 4q-4 0 -5 -4zM378 391q-2 0 -3 -3t-1 -6t1 -6t3 -2q4 1 4 8q0 8 -4 9zM434 479q-2 0 -3 -3t-1 -6t1 -6t3 -2q4 1 4 8q0 8 -4 9zM338 422q1 4 -4 4q-6 0 -4 -4t4 -4q3 0 4 4zM298 382
q-7 0 -7 -8q0 -9 7 -9q6 0 6 9q0 8 -6 8zM314 341q-6 0 -6 -8t6 -8t6 8t-6 8zM321 274l-8 -8l8 -8v16zM265 226q-7 0 -7 -8q0 -9 7 -9q6 0 6 9q0 8 -6 8zM393 536q-6 0 -6 -8t6 -8q7 0 7 8t-7 8zM328 512h-8v-8h8v8zM361 439h-8v-8zM345 407q-7 0 -7 -9q0 -8 7 -8q6 0 6 8
q0 9 -6 9zM344 297l1 -4q2 -6 8 -8q2 2 5 8t3 8t-3 5t-5 3q-6 -2 -8 -8l-0.5 -1.5t-0.5 -2.5zM829 504v-504h-240v150h-183l85 166h98v94h-109l-211 -410h-254l292 576h439q12 0 26.5 -7t27 -17.5t21 -23t8.5 -24.5zM172 88q-3 -6 -3 -10q0 -5 3 -8l13 8q-1 10 -13 10z
M251 88q5 1 8 3.5t7 6.5v3q0 4 -4 5l-1 0.5t-2 0.5l-2 -0.5t-3 -0.5l-6 -13zM106 40l8 -8l8 8l-8 8zM154 121q-6 0 -6 -8t6 -8q7 0 7 8t-7 8zM204 251q-5 -3 -5 -7q0 -5 4 -9h10zM236 340l16 -16q4 4 4 9q0 -2 -0.5 0t-1.5 7h-18zM210 284q-4 0 -4 -2q0 -3 3 -6q3 -9 10 -9
q4 0 4 4t-1 5q-6 8 -12 8zM731 74q-6 0 -6 -8t6 -8q7 0 7 8t-7 8zM633 40q-6 0 -6 -8t6 -8t6 8t-6 8zM657 73q-4 1 -4 -5q0 -5 4 -3.5t4 3.5q0 4 -4 5zM538 192l8 -8l8 8l-8 8z" />
    <glyph glyph-name="B" unicode="B" horiz-adv-x="775" 
d="M30 0v576h562q12 0 23 -5.5t19.5 -13.5t13.5 -17.5t5 -18.5v-152q33 -31 51.5 -53t27.5 -37.5t11 -26.5t2 -21v-186q-3 -15 -17.5 -28.5t-31.5 -16.5h-666zM269 410v-127l5 9q26 30 56.5 52t81.5 22v44h-143zM506 166v45h-237v-45h237zM221 275q-3 0 -3 -4t3 -4q5 0 5 4
q0 3 -4 4h-1zM182 243q-7 0 -7 -8t7 -8q6 0 6 8t-6 8zM157 138q-6 0 -6 -9q0 -8 6 -8q7 0 7 8q0 9 -7 9zM59 512l8 -8v8h-8zM99 541q-3 0 -4.5 -4.5t-1.5 -8.5q0 -8 6 -8q9 0 9 5q0 4 -2.5 10t-6.5 6zM153 75q-3 0 -3 -4t3 -4q5 0 5 4q0 3 -4 4h-1zM114 109q0 2 -5 2
q-4 0 -4 -3q0 -5 4 -5q3 0 5 5v1zM106 222q0 3 -5 3q-4 0 -4 -3q0 -6 4 -6q3 0 5 5v1zM90 75q-7 0 -7 -8t7 -8q6 0 6 8t-6 8zM151 334l9 -8v8h-9zM192 522q0 2 -5 2q-4 0 -4 -3q0 -5 4 -5q3 0 5 5v1zM142 294q-3 0 -3 -5q0 -4 3 -4q5 0 5 4t-4 5h-1zM215 391q-3 0 -3 -5
q0 -4 3 -4q5 0 5 4t-4 5h-1zM190 399q-3 0 -3 -4t3 -4q6 0 6 4q0 3 -4 4h-2zM201 308l-17 2v-8l17 -2v8zM224 438l-16 -15v-8h8zM168 488q-7 0 -7 -8t7 -8q6 0 6 8t-6 8zM176 375q-7 0 -7 -8t7 -8q6 0 6 8t-6 8zM96 405q0 2 -5 2q-4 0 -4 -3q0 -5 4 -5q3 0 5 5v1zM483 48
q-3 0 -3 -4t3 -4h4q5 0 11 0.5t6 2.5q0 3 -4 4zM615 137q-6 0 -6 -8t6 -8q7 0 7 8t-7 8zM640 58q-7 0 -7 -8t7 -8v16zM550 97l-1.5 0.5t-2.5 0.5l-1.5 -0.5t-2.5 -0.5v-18zM577 129q0 7 -4 12t-11 5l-3 -1v-16h18zM270 89q-6 0 -6 -8t6 -8q7 0 7 8t-7 8zM335 105q-6 0 -6 -8
t6 -8q7 0 7 8t-7 8zM297 52q-7 0 -7 -8t7 -8q6 0 6 8t-6 8zM240 68q1 -4 5 -4q2 0 3.5 4t-3.5 4q-6 0 -5 -4zM420 138q-6 0 -6 -8t6 -8t6 8t-6 8zM645 143q6 0 6 8t-6 8q-7 0 -7 -8t7 -8zM584 258q-3 0 -3 -5q0 -4 3 -4v9zM559 266q-3 0 -3 -4t3 -4q6 0 6 4q0 3 -4 4h-2z
M545 242q-7 0 -7 -8t7 -8q6 0 6 8t-6 8zM393 285q0 2 -5 2q-4 0 -4 -3q0 -5 4 -5q3 0 5 5v1zM415 324q0 -9 10 -16v16h-10zM477 329l5 -21l15 7zM615 327v8l-8 -8h8zM627 303q0 -6 8 -6t8 6q0 7 -8 7t-8 -7zM347 249q0 2 -5 2q-4 0 -4 -3q0 -5 4 -5q3 0 5 5v1zM656 224
q-1 -4 5 -4q5 0 3.5 4t-3.5 4q-4 0 -5 -4zM441 461q-3 0 -3 -5q0 -4 3 -4q5 0 5 4t-4 5h-1zM321 510l5 -21l15 7zM553 515q-3 5 -8 8l-2 0.5t-3 0.5l-3 -1v-8h16zM569 458q-6 0 -6 -8t6 -8t6 8t-6 8zM510 476q0 -20 20 -20q0 20 -20 20zM403 544q0 2 -5 2q-4 0 -4 -3
q0 -5 4 -5q3 0 5 5v1zM680 100q6 0 6 8t-6 8q-7 0 -7 -8t7 -8z" />
    <glyph glyph-name="FL0043h" unicode="C" horiz-adv-x="769" 
d="M30 486q0 21 9.5 38t24.5 28.5t34 17.5t37 6h499q18 0 37 -6t34 -17.5t24.5 -28.5t9.5 -38v-152h-239v76h-231v-244h231v77h239v-153q0 -21 -9.5 -38t-24.5 -28.5t-34 -17.5t-37 -6h-499q-18 0 -37 6t-34 17.5t-24.5 28.5t-9.5 38v396zM85 390q6 0 6 8t-6 8q-7 0 -7 -8
t7 -8zM128 349q7 0 7 8t-7 8q-6 0 -6 -8t6 -8zM153 487q6 0 6 8t-6 8q-7 0 -7 -8t7 -8zM193 333q7 0 7 8t-7 8q-6 0 -6 -8t6 -8zM96 471q-1 -4 5 -4q5 0 3.5 4t-3.5 4q-4 0 -5 -4zM218 398q4 -1 4 4t-4 4t-4 -4t4 -4zM506 483q-7 0 -7 -8t7 -8q6 0 6 8t-6 8zM562 443
q-6 0 -6 -8t6 -8q7 0 7 8t-7 8zM627 459q-6 0 -6 -8t6 -8q7 0 7 8t-7 8zM589 406q-7 0 -7 -8t7 -8q6 0 6 8t-6 8zM532 422q1 -4 5 -4q2 0 3.5 4t-3.5 4q-6 0 -5 -4zM652 467q-4 -1 -4 -4t4 -4t4 4t-4 4zM396 115q6 0 6 8t-6 8q-7 0 -7 -8t7 -8zM185 131q6 0 6 8t-6 8t-6 -8
t6 -8zM339 99q-1 -4 5 -4q5 0 3.5 4t-3.5 4q-4 0 -5 -4zM137 180h-9v-8zM226 180h-8l8 -8v8zM563 157q-6 0 -6 -8t6 -8t6 8t-6 8zM547 198q-4 -1 -4 -5q0 -2 4 -3.5t4 3.5t-4 5zM539 92q-4 -1 -4 -4t4 -4t4 4t-4 4zM107 323q-6 0 -6 -8t6 -8t6 8t-6 8zM91 364q-4 -1 -4 -5
q0 -2 4 -3.5t4 3.5t-4 5zM83 258q-4 -1 -4 -4t4 -4t4 4t-4 4zM162 100q-6 0 -6 -8t6 -8q7 0 7 8t-7 8zM211 124v-8h8zM292 470q-10 -7 -10 -17h20q0 10 -10 17zM349 478q-7 0 -7 -8t7 -8q6 0 6 8t-6 8zM462 494v-8h8v8h-8zM357 518q1 4 -5 4q-5 0 -3.5 -4t3.5 -4q4 0 5 4z
M615 65v-8l8 8h-8zM655 65q-6 0 -6 -8t6 -8q7 0 7 8t-7 8zM607 138q-6 0 -6 -8t6 -8t6 8t-6 8zM639 146q-4 1 -4 -4t4 -3.5t4 3.5q0 3 -4 4zM372 59q-7 0 -7 -8q0 -9 7 -9q6 0 6 9q0 8 -6 8zM315 75v-8h8v8h-8zM469 75l8 -8v8h-8zM372 99q-7 0 -7 -8t7 -8q6 0 6 8t-6 8z
M178 63q1 4 -4 4t-3.5 -4.5t3.5 -4.5t4 5zM89 120v-17h8v17h-8zM537 496q-6 0 -6 -8t6 -8q7 0 7 8t-7 8zM626 521v-9h9v9h-9zM562 537l8 -8v8h-8zM689 204q-1 -4 5 -4q5 0 3.5 4t-3.5 4q-4 0 -5 -4zM91 508q-1 -4 5 -4q5 0 3.5 4t-3.5 4q-4 0 -5 -4zM194 518q-4 -1 -4 -4
t4 -4t4 4t-4 4zM705 369v-8h8v8h-8z" />
    <glyph glyph-name="D" unicode="D" 
d="M516 410h-486v166h620q18 0 37 -6t34 -17.5t24.5 -28.5t9.5 -38v-396q0 -21 -9.5 -38t-24.5 -28.5t-34 -17.5t-37 -6h-620v352h239v-186h247v244zM589 463q0 -9 2.5 -11t10.5 -2q10 0 12 2.5t2 10.5q0 9 -2 11t-12 2q-8 0 -10.5 -1.5t-2.5 -11.5zM543 356q-7 0 -7 -8
t7 -8q6 0 6 8t-6 8zM624 178q-7 0 -7 -8t7 -8q6 0 6 8t-6 8zM664 332q-6 0 -6 -8t6 -8t6 8t-6 8zM680 373q-4 0 -4 -5t4 -3.5t4 3.5q0 4 -4 5zM687 267q-4 1 -4 -4t4 -4t4 4t-4 4zM567 194h8v8zM156 40q6 0 6 8t-6 8q-7 0 -7 -8t7 -8zM218 218q6 0 6 8t-6 8q-7 0 -7 -8t7 -8
zM277 64q6 0 6 8t-6 8t-6 -8t6 -8zM293 30q4 1 4 5q0 2 -4 3.5t-4 -3.5t4 -5zM301 129q4 1 4 4t-4 4t-4 -4t4 -4zM181 194v8h-8zM103 113q0 -7 2 -10.5t11 -3.5q6 0 12 4t6 10q0 5 -6 9t-12 4q-9 0 -11 -3.5t-2 -9.5zM213 458q7 0 7 8t-7 8q-6 0 -6 -8t6 -8zM157 498
q6 0 6 8t-6 8q-7 0 -7 -8t7 -8zM92 482q6 0 6 8t-6 8q-7 0 -7 -8t7 -8zM578 277q7 0 7 8t-7 8q-6 0 -6 -8t6 -8zM76 441q3 1 3 5q0 2 -4 3.5t-4 -3.5t5 -5zM635 261q-1 4 -5 4q-2 0 -3.5 -4t3.5 -4q6 0 5 4zM67 547q4 1 4 4t-4 4t-4 -4t4 -4zM312 516q-6 0 -6 -8t6 -8t6 8
t-6 8zM334 467h9v8zM271 467h8l-8 8v-8zM528 55q6 0 6 8t-6 8q-7 0 -7 -8t7 -8zM649 79q6 0 6 8t-6 8t-6 -8t6 -8zM665 38q4 1 4 5q0 2 -4 3.5t-4 -3.5t4 -5zM664 150q4 1 4 4t-4 4t-4 -4t4 -4zM348 513q-6 0 -6 -8t6 -8t6 8t-6 8zM387 554q-4 0 -4 -5t4 -3.5t4 3.5
q0 4 -4 5zM387 448q-4 1 -4 -4t4 -4t4 4t-4 4zM625 511q0 -6 1.5 -7.5t9.5 -1.5q6 0 7 2t1 7t-1 8t-7 3q-8 0 -9.5 -3t-1.5 -8zM690 497q7 0 7 8t-7 8q-6 0 -6 -8t6 -8zM634 537q6 0 6 8zM627 545q0 -8 7 -8zM569 521q6 0 6 8t-6 8q-7 0 -7 -8t7 -8zM553 480q3 1 3 5
q0 2 -4 3.5t-4 -3.5t5 -5zM105 240q-7 0 -7 -8t7 -8q6 0 6 8t-6 8zM89 281q-5 0 -5 -5t4 -3.5t4 3.5q0 3 -3 5zM174 178q-6 0 -6 -8t6 -8q7 0 7 8t-7 8zM219 194q1 4 -5 4q-5 0 -3.5 -4t3.5 -4q4 0 5 4zM418 92q-6 0 -6 -8t6 -8q7 0 7 8t-7 8zM475 108q1 4 -5 4
q-5 0 -3.5 -4t3.5 -4q4 0 5 4z" />
    <glyph glyph-name="E" unicode="E" 
d="M30 90v396q0 21 9.5 38t24.5 28.5t34 17.5t37 6h515q18 0 37 -6t34 -17.5t24.5 -28.5t9.5 -38v-276h-416l75 158h102v42h-247v-244h486v-166h-620q-18 0 -37 6t-34 17.5t-24.5 28.5t-9.5 38zM279 451q6 0 6 8t-6 8q-7 0 -7 -8t7 -8zM262 483q7 0 7 8q0 9 -7 9q-6 0 -6 -9
q0 -8 6 -8zM327 524v8h-8v-8h8zM662 383q4 1 4 4q0 2 -4 3.5t-4 -3.5t4 -4zM630 391q6 0 6 8t-6 8t-6 -8t6 -8zM678 480q-6 0 -6 -8q0 -9 6 8zM646 464l-8 8v-8h8zM111 236v8l-8 -8h8zM176 252v9h-9v-9h9zM78 277q7 0 7 8t-7 8q-6 0 -6 -8t6 -8zM111 325q-2 5 -5 5
q-2 0 -3.5 -4t3.5 -4q6 0 5 3zM78 414v9l-8 -9h8zM536 100q6 0 6 9q0 8 -6 8q-7 0 -7 -8q0 -9 7 -9zM584 92q7 0 7 8q0 9 -7 9q-6 0 -6 -9q0 -8 6 -8zM475 58q7 0 7 8t-7 8q-6 0 -6 -8t6 -8zM706 92q6 0 6 8q0 9 -6 9t-6 -9q0 -8 6 -8zM706 52q6 0 6 8t-6 8t-6 -8t6 -8z
M617 84q-2 5 -5 5q-2 0 -3.5 -4t3.5 -4q6 0 5 3zM232 99q7 0 7 8t-7 8q-6 0 -6 -8t6 -8zM161 277q7 0 7 8t-7 8q-6 0 -6 -8t6 -8zM121 123q6 0 6 8t-6 8t-6 -8t6 -8zM97 188q4 -1 4 4t-4 4t-4 -4t4 -4zM105 82q4 0 4 5t-4 3.5t-4 -3.5q0 -4 4 -5zM210 253l8 8h-8v-8z
M632 261q0 7 -2 10t-12 3q-13 0 -13 -13t13 -13q10 0 12 3t2 10zM159 481q0 17 -14 17q-9 0 -11.5 -4.5t-2.5 -12.5t2.5 -12t11.5 -4q14 0 14 16zM694 366q-6 0 -6 -8t6 -8q7 0 7 8t-7 8zM573 342q-6 0 -6 -8t6 -8t6 8t-6 8zM549 277q-4 -1 -4 -4t4 -4t4 4t-4 4zM557 383
q-4 -1 -4 -5q0 -2 4 -3.5t4 3.5t-4 5zM509 451q6 0 6 8t-6 8q-7 0 -7 -8t7 -8zM565 528q6 0 6 8t-6 8q-7 0 -7 -8t7 -8zM538 491q7 0 7 8t-7 8q-6 0 -6 -8t6 -8zM508 512q-1 -4 5 -4q5 0 3.5 4t-3.5 4q-4 0 -5 -4zM326 81q-7 0 -7 -8t7 -8q6 0 6 8t-6 8zM263 60q1 -4 5 -4
q2 0 3.5 4t-3.5 4q-6 0 -5 -4zM394 472q6 0 6 8q0 9 -6 9t-6 -9q0 -8 6 -8zM475 246q7 0 7 8t-7 8q-6 0 -6 -8t6 -8zM162 393q6 0 6 8q0 9 -6 9t-6 -9q0 -8 6 -8zM407 106q6 0 6 8t-6 8q-7 0 -7 -8t7 -8zM437 263q6 0 6 8t-6 8q-7 0 -7 -8t7 -8zM420 295q7 0 7 8q0 9 -7 9
q-6 0 -6 -9q0 -8 6 -8zM705 274v8h-8v-8h8z" />
    <glyph glyph-name="F" unicode="F" horiz-adv-x="710" 
d="M30 0v576h650v-166h-411v-44h335l-75 -158h-260v-208h-239zM235 303q1 4 -5 4q-5 0 -3.5 -4t3.5 -4q4 0 5 4zM97 328q-6 0 -6 -9q0 -8 6 -8q7 0 7 8q0 9 -7 9zM219 400v-8h8v8h-8zM122 433q-7 0 -7 -8t7 -8q6 0 6 8t-6 8zM228 441q-6 0 -6 -8t6 -8t6 8t-6 8zM162 465
q-4 1 -4 -4t4 -4t4 4t-4 4zM84 514v-16l8 8zM178 530q-6 0 -6 -8t6 -8q7 0 7 8t-7 8zM169 396v-8h8v8h-8zM513 470q-4 1 -4 -5q0 -5 4 -3.5t4 3.5q0 4 -4 5zM303 470q1 3 -5 3q-5 0 -3.5 -4t3.5 -4q3 0 5 5zM325 510q0 -9 10 -16v16h-10zM392 502v-8h8zM181 130q-6 0 -6 -9
q0 -8 6 -8q7 0 7 8q0 9 -7 9zM133 138v-8h8v8h-8zM206 235q-7 0 -7 -8t7 -8q6 0 6 8t-6 8zM133 259q-7 0 -7 -8t7 -8q6 0 6 8t-6 8zM457 275v-18q11 0 17 10q-2 7 -9 8l-1.5 0.5t-2.5 0.5l-1.5 -0.5t-2.5 -0.5zM344 307q-6 0 -6 -8t6 -8t6 8t-6 8zM474 323v-16h18q0 7 -4 12
t-11 5zM530 315q-6 0 -6 -8t6 -8q7 0 7 8t-7 8zM86 56q-7 0 -7 -8t7 -8q6 0 6 8t-6 8zM404 275q-4 1 -4 -5q0 -5 4 -3.5t4 3.5q0 4 -4 5zM380 283q-5 2 -5 -4t4.5 -4t4.5 4q0 3 -4 4zM118 104v-8h8v8h-8zM78 169q-7 0 -7 -8t7 -8q6 0 6 8t-6 8zM102 202q1 3 -5 3
q-5 0 -3.5 -4t3.5 -4q3 0 5 5zM466 518q-7 0 -7 -8t7 -8q6 0 6 8t-6 8zM579 526q-6 0 -6 -8t6 -8t6 8t-6 8zM428 542q-7 0 -7 -8t7 -8q6 0 6 8t-6 8zM506 550q-4 1 -4 -4t4 -4t4 4t-4 4zM214 54v-8h8z" />
    <glyph glyph-name="G" unicode="G" 
d="M269 410h486v166h-620q-18 0 -37 -6t-34 -17.5t-24.5 -28.5t-9.5 -38v-396q0 -21 9.5 -38t24.5 -28.5t34 -17.5t37 -6h620v352h-239v-187h-247v245zM281 125q6 0 6 -8t-6 -8q-7 0 -7 8t7 8zM264 93q7 0 7 -8q0 -9 -7 -9q-6 0 -6 9q0 8 6 8zM329 52v-8h-8v8h8zM664 193
q4 -1 4 -4q0 -2 -4 -3.5t-4 3.5t4 4zM632 185q6 0 6 -8t-6 -8t-6 8t6 8zM680 96q-6 0 -6 8t6 -8zM648 112l-8 -8v8h8zM113 340v-8l-8 8h8zM178 324v-9h-9v9h9zM80 299q7 0 7 -8t-7 -8q-6 0 -6 8t6 8zM113 251q-2 -5 -5 -5q-2 0 -3.5 4t3.5 4q6 0 5 -3zM80 162v-9l-8 9h8z
M538 476q6 0 6 -9q0 -8 -6 -8q-7 0 -7 8q0 9 7 9zM586 484q7 0 7 -8q0 -9 -7 -9q-6 0 -6 9q0 8 6 8zM477 518q7 0 7 -8t-7 -8q-6 0 -6 8t6 8zM708 484q6 0 6 -8q0 -9 -6 -9t-6 9q0 8 6 8zM708 524q6 0 6 -8t-6 -8t-6 8t6 8zM619 492q-2 -5 -5 -5q-2 0 -3.5 4t3.5 4q6 0 5 -3
zM234 477q7 0 7 -8t-7 -8q-6 0 -6 8t6 8zM163 299q7 0 7 -8t-7 -8q-6 0 -6 8t6 8zM123 453q6 0 6 -8t-6 -8t-6 8t6 8zM99 388q4 1 4 -4t-4 -4t-4 4t4 4zM107 494q4 0 4 -5t-4 -3.5t-4 3.5q0 4 4 5zM212 323l8 -8h-8v8zM634 315q0 -7 -2 -10t-12 -3q-13 0 -13 13t13 13
q10 0 12 -3t2 -10zM161 95q0 -17 -14 -17q-9 0 -11.5 4.5t-2.5 12.5t2.5 12t11.5 4q14 0 14 -16zM696 210q-6 0 -6 8t6 8q7 0 7 -8t-7 -8zM575 234q-6 0 -6 8t6 8t6 -8t-6 -8zM551 299q-4 1 -4 4t4 4t4 -4t-4 -4zM559 193q-4 1 -4 5q0 2 4 3.5t4 -3.5t-4 -5zM511 125
q6 0 6 -8t-6 -8q-7 0 -7 8t7 8zM567 48q6 0 6 -8t-6 -8q-7 0 -7 8t7 8zM540 85q7 0 7 -8t-7 -8q-6 0 -6 8t6 8zM510 64q-1 4 5 4q5 0 3.5 -4t-3.5 -4q-4 0 -5 4zM328 495q-7 0 -7 8t7 8q6 0 6 -8t-6 -8zM265 516q1 4 5 4q2 0 3.5 -4t-3.5 -4q-6 0 -5 4zM396 104q6 0 6 -8
q0 -9 -6 -9t-6 9q0 8 6 8zM689 293q7 0 7 -8t-7 -8q-6 0 -6 8t6 8zM164 183q6 0 6 -8q0 -9 -6 -9t-6 9q0 8 6 8zM388 477q6 0 6 -8t-6 -8q-7 0 -7 8t7 8z" />
    <glyph glyph-name="H" unicode="H" horiz-adv-x="757" 
d="M727 576v-576h-239v206h-219v-206h-239v576h239v-294q32 51 79 70t102 19h38v205h239zM465 293q-6 0 -6 -8q0 -9 6 -9t6 9q0 8 -6 8zM465 331q-6 0 -6 -8t6 -8t6 8t-6 8zM340 248q6 0 6 8t-6 8t-6 -8t6 -8zM587 293q-7 0 -7 -8q0 -9 7 -9h3v16q-1 1 -3 1zM380 296
q4 1 4 5q0 2 -4 3.5t-4 -3.5q0 -6 4 -5zM554 301q2 -5 5 -5q2 0 3.5 4t-3.5 4q-7 0 -5 -3zM185 195q6 0 6 8t-6 8t-6 -8t6 -8zM659 527q-1 0 -2.5 0.5l-1.5 0.5q-1 0 -2.5 -0.5l-1.5 -0.5q-6 -2 -8 -8q4 -10 16 -10v18zM602 357q-6 0 -6 -8q0 -9 6 -9q7 0 7 9q0 8 -7 8z
M677 413h-18l8 -16q10 7 10 16zM570 527q-6 0 -6 -8t6 -8t6 8t-6 8zM578 324q-10 -4 -10 -16h10v16zM578 470q-1 0 -2.5 0.5l-1.5 0.5q-1 0 -2.5 -0.5l-1.5 -0.5q-6 -2 -8 -8h16v8zM610 251h-8v-8h8v8zM602 486q-3 -2 -3 -4t4 -3.5t4 3.5q0 6 -5 4zM64 156q1 0 2.5 -0.5
l1.5 -0.5q1 0 2.5 0.5l1.5 0.5q6 2 8 8v1q-2 5 -4 7t-8 2zM148 174q6 0 6 8t-6 8t-6 -8t6 -8zM124 37q6 0 6 8t-6 8t-6 -8t6 -8zM140 231q1 0 2.5 -0.5l1.5 -0.5q1 0 2.5 0.5l1.5 0.5q6 2 8 8h-16v-8zM164 85q4 1 4 5q0 2 -4 3.5t-4 -3.5q0 -6 4 -5zM116 215q3 1 3 4
q0 2 -4 3.5t-4 -3.5q0 -6 5 -4zM638 110q6 0 6 8q0 9 -6 9q-7 0 -7 -9q0 -8 7 -8zM563 54h18l-8 16q-10 -7 -10 -16zM662 143q10 4 10 16h-10v-16zM630 216h8v8h-8v-8zM541 167q3 1 3 5q0 2 -4 3.5t-4 -3.5q0 -7 5 -5zM109 315h-8h8zM120 478q1 0 2.5 -0.5l1.5 -0.5
q1 0 2.5 0.5l1.5 0.5q6 2 8 8q-4 10 -16 10v-18zM209 478q6 0 6 8t-6 8t-6 -8t6 -8zM185 341q6 0 6 8t-6 8t-6 -8t6 -8zM201 535q1 0 2.5 -0.5l1.5 -0.5q1 0 2.5 0.5l1.5 0.5q6 2 8 8h-16v-8zM225 389q4 1 4 5q0 2 -4 3.5t-4 -3.5q0 -6 4 -5zM177 519q3 1 3 4q0 2 -4 3.5
t-4 -3.5q0 -6 5 -4zM101 429q-6 0 -6 -8q0 -9 6 -9q7 0 7 9q0 8 -7 8zM77 396q-10 -4 -10 -16h10v16z" />
    <glyph glyph-name="I" unicode="I" horiz-adv-x="529" 
d="M30 576h469v-166h-115v-244h115v-166h-469v166h115v244h-115v166zM234 200v-16h10q0 12 -10 16zM210 233q-7 0 -7 -8q0 -9 7 -9q6 0 6 9q0 8 -6 8zM234 346v-8h16q-2 6 -8 8l-1.5 0.5t-2.5 0.5l-1.5 -0.5t-2.5 -0.5zM210 362q-5 2 -5 -4q0 -5 4 -3.5t4 3.5t-3 4zM242 403
q-6 0 -6 -8t6 -8t6 8t-6 8zM258 492q-4 1 -4 -5q0 -5 4 -3.5t4 3.5q0 4 -4 5zM218 540q-6 0 -6 -8t6 -8t6 8t-6 8zM299 77q-6 0 -6 -8t6 -8q7 0 7 8t-7 8zM324 109q1 4 -5 4q-5 0 -3.5 -4t3.5 -4q4 0 5 4zM223 122q-6 0 -6 -8t6 -8t6 8t-6 8zM247 155q-4 1 -4 -5
q0 -5 4 -3.5t4 3.5q0 4 -4 5zM289 438l5 -11q8 0 14 2t6 11q0 11 -13 11q-1 0 -3 -0.5t-4 -0.5zM308 312q-7 0 -7 -8t7 -8q6 0 6 8t-6 8zM328 351v1q0 3 -4 3t-4 -4q0 -5 4 -5q2 0 4 5zM305 161q-5 2 -5 -5q0 -5 4 -3.5t4 3.5q0 3 -3 5zM325 255q0 -9 10 -16l4 16h-14z
M272 299q-4 1 -4 -5q0 -5 4 -3.5t4 3.5q0 4 -4 5zM201 43q-6 0 -6 -8t6 -8t6 8t-6 8zM225 76q-4 1 -4 -5q0 -5 4 -3.5t4 3.5q0 4 -4 5zM187 423v1q0 3 -4 3t-4 -4q0 -5 4 -5q2 0 4 5zM327 524v1q0 3 -4 3t-4 -4q0 -5 4 -5q2 0 4 5zM116 474q-4 1 -4 -5q0 -5 4 -3.5t4 3.5
q0 4 -4 5zM69 522q-7 0 -7 -8t7 -8q6 0 6 8t-6 8zM182 530q-6 0 -6 -8t6 -8t6 8t-6 8zM109 554q-4 1 -4 -4t4 -4t4 4t-4 4zM381 473v-18q11 0 17 10q-2 7 -9 8l-1.5 0.5t-2.5 0.5l-1.5 -0.5t-2.5 -0.5zM398 521v-16h18q0 7 -4 12t-11 5zM454 513q-6 0 -6 -8t6 -8q7 0 7 8
t-7 8zM86 56q-7 0 -7 -8t7 -8q6 0 6 8t-6 8zM126 72q-4 1 -4 -5q0 -5 4 -3.5t4 3.5q0 4 -4 5zM102 80q-5 2 -5 -4t4.5 -4t4.5 4q0 3 -4 4zM118 104v-8h8v8h-8zM397 71q-7 0 -7 -8t7 -8q6 0 6 8t-6 8zM437 87q-4 1 -4 -5q0 -5 4 -3.5t4 3.5q0 4 -4 5zM413 95q-5 2 -5 -4
t4.5 -4t4.5 4q0 3 -4 4zM429 119v-8h8v8h-8z" />
    <glyph glyph-name="J" unicode="J" horiz-adv-x="666" 
d="M135 53h-8v-8h8v8zM420 77h-8l8 -8v8zM331 77h-9v-8zM379 28q6 0 6 8t-6 8t-6 -8t6 -8zM314 107v18q-10 0 -16 -10q2 -6 8 -8l2 -0.5t3 -0.5l1 0.5t2 0.5zM379 99v-8h16v8h-16zM249 59q5 -2 5 4q0 5 -4 3.5t-4 -3.5q0 -3 3 -4zM339 59v-8h8v8h-8zM498 186v-8h8zM514 234
l-8 -8h8v8zM474 234v-8l8 8h-8zM486 533h-8v-8h8v8zM576 525q-5 2 -5 -4q0 -5 4 -3.5t4 3.5t-3 4zM446 493h-16v-8h16v8zM511 477v-18q10 0 16 10q-2 6 -8 8l-2 0.5t-3 0.5l-1 -0.5t-2 -0.5zM533 37v1q0 5 -4 5t-4 -5q0 -3 4 -3t4 2zM585 78q6 0 6 8t-6 8t-6 -8t6 -8z
M444 118l-1 -3l1 -5q2 1 5 3.5t3 4.5l0.5 2t0.5 3l-0.5 1.5t-0.5 2.5q-7 -2 -8 -9zM567 225v-8h8v8h-8zM559 266q6 0 6 8t-6 8t-6 -8t6 -8zM543 306q6 0 6 8t-6 8t-6 -8t6 -8zM509 331h10v16q-10 -6 -10 -16zM559 403q4 1 4 5t-5 4q-3 0 -3 -4q0 -5 4 -5zM552 180h2q4 1 4 4
q0 4 -5 4q-3 0 -3 -4t2 -4zM636 576v-486q0 -21 -9.5 -38t-24.5 -28.5t-34 -17.5t-37 -6h-396q-18 0 -37 6t-34 17.5t-24.5 28.5t-9.5 38v187h239v-112h128v411h239zM123 142q-6 0 -6 -8t6 -8q7 0 7 8t-7 8zM188 158q-6 0 -6 -8t6 -8q7 0 7 8t-7 8zM150 105q-7 0 -7 -8t7 -8
q6 0 6 8t-6 8zM93 121q1 -4 5 -4q2 0 3.5 4t-3.5 4q-6 0 -5 -4zM213 166q-4 -1 -4 -4t4 -4t4 4t-4 4zM98 195q-6 0 -6 -8t6 -8q7 0 7 8t-7 8zM187 220v-9h9v9h-9zM123 236l8 -8v8h-8zM441 390q6 0 6 8t-6 8q-7 0 -7 -8t7 -8zM463 323q-6 0 -6 -8t6 -8t6 8t-6 8zM447 364
q-4 -1 -4 -5q0 -2 4 -3.5t4 3.5t-4 5z" />
    <glyph glyph-name="K" unicode="K" horiz-adv-x="754" 
d="M269 576v-210h118l98 91v119h239v-176l-140 -122l140 -103v-175h-241v121l-96 86h-119v-207h-238v576h239zM168 44q-5 2 -5 -4q0 -5 4 -3.5t4 3.5t-3 4zM179 176h14q-2 7 -6 8l-1.5 0.5t-2.5 0.5l-1.5 -0.5t-2.5 -0.5v-8zM187 241q-6 0 -6 -8t6 -8t6 8t-6 8zM98 223
q12 0 16 10q-2 6 -8 8l-1.5 0.5t-2.5 0.5l-1.5 -0.5t-2.5 -0.5v-18zM97 86q1 4 -5 4q-5 0 -3.5 -4t3.5 -4q4 0 5 4zM212 192q-4 1 -4 -5q0 -5 4 -3.5t4 3.5q0 4 -4 5zM186 157q-6 0 -6 -8t6 -8t6 8t-6 8zM72 54q-6 0 -6 -8t6 -8q7 0 7 8t-7 8zM164 439l9 -8v16zM140 496
q-6 0 -6 -8t6 -8t6 8t-6 8zM83 537q1 3 -4 3t-4 -4t4 -4q4 0 4 5zM147 226v-8h8zM91 372l8 -8v8h-8zM99 420v-8h8zM165 313q-4 1 -4 -5q0 -5 4 -3.5t4 3.5q0 4 -4 5zM157 360q-6 0 -6 -8t6 -8q7 0 7 8t-7 8zM214 360q-6 0 -6 -8t6 -8t6 8t-6 8zM186 522l-8 -8h8v8zM531 56
q-9 -5 -1 -16h10zM561 145l16 -16q7 7 2 16h-18zM537 89q-7 0 -1 -8q3 -9 10 -9q6 0 3 9q-6 8 -12 8zM674 49l1 -3q1 -7 8 -9q0 1 0.5 2.5l0.5 1.5q0 1 -0.5 3l-0.5 2q0 2 -3 4.5t-5 3.5q0 -1 -0.5 -2.5t-0.5 -2.5zM645 186q-6 0 -6 -8t6 -8t6 8t-6 8zM485 338q-9 -5 -1 -16
h10zM517 427l16 -16q7 7 2 16h-18zM491 371q-7 0 -1 -8q3 -9 10 -9q6 0 3 9q-6 8 -12 8zM581 367l1 -3q1 -7 8 -9q0 1 0.5 2.5l0.5 1.5q0 1 -0.5 3l-0.5 2q0 2 -3 4.5t-5 3.5q0 -1 -0.5 -2.5t-0.5 -2.5zM636 92q-6 0 -6 -8t6 -8t6 8t-6 8zM546 487q-6 0 -6 -8t6 -8t6 8t-6 8
zM530 528q-4 -1 -4 -5q0 -2 4 -3.5t4 3.5t-4 5zM590 468q-6 0 -6 -8t6 -8t6 8t-6 8zM622 476q-4 1 -4 -4t4 -3.5t4 3.5q0 3 -4 4zM665 534q-1 -4 5 -4q5 0 3.5 4t-3.5 4q-4 0 -5 -4zM309 285q-7 0 -7 -8q0 -9 7 -9q6 0 6 9q0 8 -6 8zM430 309l-8 -8h8v8zM309 333v-8l8 8h-8z
M395 248q-6 0 -6 -8t6 -8t6 8t-6 8zM466 245q-4 1 -6 -5q-4 -5 1 -3.5t7 3.5q2 4 -2 5zM224 79l5 8h-8l-5 -8h8zM130 127q4 4 4 9q0 4 -5 7l-9 -16h10zM507 220q-1 -5 -1.5 -7t-0.5 0q0 -5 4 -9l14 15z" />
    <glyph glyph-name="L" unicode="L" horiz-adv-x="676" 
d="M216 46v10l9 -10h-9zM119 150q3 -2 3 -5q0 -2 -4 -3.5t-4 3.5q0 7 5 5zM504 39v8h8zM325 50q6 0 6 -8t-6 -8t-6 8t6 8zM443 73q6 0 6 -8t-6 -8t-6 8t6 8zM486 119h-8v8h8v-8zM163 186q4 -1 4 -4t-4 -4t-4 4t4 4zM187 211q7 0 7 -9q0 -8 -7 -8q-6 0 -6 8q0 9 6 9zM147 211
h-8v8zM212 235q3 -2 3 -5q0 -2 -4 -3.5t-4 3.5q0 7 5 5zM171 243q4 -1 4 -5q0 -2 -4 -3.5t-4 3.5q0 6 4 5zM301 113q6 0 6 -8t-6 -8t-6 8t6 8zM333 121q7 0 7 -8t-7 -8q-6 0 -6 8t6 8zM154 86q3 0 3 -4q0 -2 -4 -3.5t-4 3.5q0 6 5 4zM93 87h-8v16h8v-16zM656 0l-84 165h-303
v411h-239v-490q0 -43 28.5 -64.5t65.5 -21.5h532zM577 54q6 0 6 -8t-6 -8t-6 8t6 8zM522 116q5 0 5 -5t-4 -3.5t-4 3.5q0 3 3 5zM551 53q7 0 7 -8t-7 -8q-6 0 -6 8t6 8zM525 79q5 0 5 -5t-4 -3.5t-4 3.5q0 3 3 5zM189 441l-8 -8v8h8zM207 379h8v-8h-8v8zM90 537l-13 -5v13z
M81 497l-4 -12l-8 12h12zM116 391l-8 -8v8h8zM124 343v-8l-8 8h8zM92 335h-8v8zM149 503q6 0 6 -8t-6 -8q-7 0 -7 8t7 8zM213 536v-25q-8 3 -9 10t-1 13v2h10zM106 427q0 -6 -1.5 -9t-8.5 -3q-13 0 -13 12q0 13 13 13q7 0 8.5 -3.5t1.5 -9.5zM99 269l-11 -12v16z" />
    <glyph glyph-name="M" unicode="M" horiz-adv-x="921" 
d="M891 486q0 21 -9.5 38t-24.5 28.5t-34 17.5t-37 6h-756v-576h239v411h73v-411h237v411h73v-411h239v486zM235 533q-7 0 -7 8t7 8q6 0 6 -8t-6 -8zM275 541v-8h-8zM354 506q-4 -1 -4 4t4 4t4 -4t-4 -4zM206 80q7 0 7 -8q0 -9 -7 -9q-6 0 -6 9q0 8 6 8zM85 104l8 -8h-8v8z
M206 128v-8l-8 8h8zM158 185v1q0 3 4 3t4 -3q0 -6 -4 -6q-2 0 -4 5zM198 242v-8h-8zM166 242l-8 -8v8h8zM542 213l1 -15h-10q0 10 9 15zM77 361h1q3 0 3 -4t-3 -4q-5 0 -5 4q0 3 4 4zM182 355v1q0 3 5 3q4 0 4 -3q0 -5 -4 -5t-5 4zM150 371q6 0 6 -8t-6 -8q-7 0 -7 8t7 8z
M93 369v1q0 3 5 3q4 0 4 -3q0 -5 -4 -5t-5 4zM421 182q4 0 4 -5q0 -4 -3 -4q-5 0 -5 4t4 5zM471 254q0 -10 -10 -16v16h10zM437 279q6 0 6 -8t-6 -8t-6 8t6 8zM421 319q6 0 6 -8t-6 -8t-6 8t6 8zM413 368v-8h-8v8h8zM201 457q6 0 6 -8t-6 -8q-7 0 -7 8t7 8zM209 514
q6 0 6 -8t-6 -8q-7 0 -7 8t7 8zM186 522q0 -12 -10 -16v16h10zM366 450l-9 -8v16zM537 470l-1 -3q-1 -7 -8 -9q0 1 -0.5 2.5l-0.5 1.5q0 1 0.5 3l0.5 2q0 2 3 4.5t5 3.5zM390 507q6 0 6 -8t-6 -8t-6 8t6 8zM447 548v1q0 2 4 2t4 -3q0 -5 -4 -5t-4 5zM833 50v-8h-8zM801 50
l-8 -8v8h8zM769 58v-16h-10q0 10 10 16zM752 74q7 0 7 -8t-7 -8q-6 0 -6 8t6 8zM769 90h2q2 0 2 -4t-3 -4q-5 0 -5 4q0 3 4 4zM809 98v-8l-8 8h8zM744 114h2q3 0 3 -4t-3 -4q-5 0 -5 4t3 4zM661 546q6 0 6 -8t-6 -8t-6 8t6 8zM610 497h-9v8zM702 497h-8l8 8v-8zM810 472
q4 0 4 -5t-4 -3.5t-4 3.5q0 4 4 5zM775 362q-3 0 -3 4q0 2 4 3.5t4 -3.5q0 -6 -5 -4zM848 305l-8 -8l-8 8l8 8zM727 297q-6 0 -6 8t6 8t6 -8t-6 -8zM678 224h-8v16h8v-16zM800 224q-7 0 -7 8t7 8q6 0 6 -8t-6 -8zM775 200q-4 -10 -16 -10v19q11 0 16 -9zM469 108
q-1 0 -2 -0.5l-1 -0.5q-1 0 -3 0.5l-2 0.5q-6 2 -8 8q6 10 16 10v-18zM542 92h-16v8h16v-8zM404 60q-3 1 -3 4q0 2 4 3.5t4 -3.5q0 -6 -5 -4zM502 52h-8v8h8v-8zM506 359v-8h-8zM474 359l-8 -8v8h8zM482 407v-8l-8 8h8zM108 495q-10 0 -11.5 2.5t-1.5 12.5q10 0 11.5 -2.5
t1.5 -12.5zM88 443l-3 -1q-1 0 -3 0.5l-2 0.5q-5 3 -8 8h16v-8zM855 162q-10 0 -11 2t-1 12q10 0 11 -2t1 -12zM156 122h-9v8zM131 81q-6 0 -6 8t6 8q7 0 7 -8t-7 -8zM115 57q-4 1 -4 4q0 2 4.5 4t4.5 -4t-5 -4zM99 33h-8v8h8v-8zM841 423v-8h-8zM809 423l-8 -8v8h8z
M117 266q7 0 7 -8t-7 -8q-6 0 -6 8t6 8zM134 282h2q2 0 2 -4t-3 -4q-5 0 -5 4q0 3 4 4zM174 290v-8l-8 8h8zM109 306h2q3 0 3 -4t-3 -4q-5 0 -5 4t3 4z" />
    <glyph glyph-name="N" unicode="N" 
d="M30 576v-576h239v411h247v-411h239v486q0 21 -9.5 38t-24.5 28.5t-34 17.5t-37 6h-620zM405 471v8h8v-8h-8zM315 479q-3 1 -3 4q0 2 4 3.5t4 -3.5q0 -6 -5 -4zM445 511v8h16v-8h-16zM380 527q-1 0 -2 -0.5l-1 -0.5q-1 0 -3 0.5l-2 0.5q-6 2 -8 8q6 10 16 10v-18zM599 416
q1 4 5 4q2 0 3.5 -4t-3.5 -4q-6 0 -5 4zM656 432q-7 0 -7 8t7 8q6 0 6 -8t-6 -8zM445 448q-6 0 -6 8t6 8t6 -8t-6 -8zM388 497h9l-9 -8v8zM478 497h8v-8zM213 182q-3 1 -3 5q0 2 4 3.5t4 -3.5t-5 -5zM73 199q-7 0 -7 8t7 8q6 0 6 -8t-6 -8zM135 203q0 -10 -3 -14.5t-14 -4.5
q-19 0 -19 19t19 19q11 0 14 -4.5t3 -14.5zM197 223q-6 0 -6 8t6 8q7 0 7 -8t-7 -8zM132 239q-6 0 -6 8t6 8q7 0 7 -8t-7 -8zM222 288q-4 1 -4 4t4 4t4 -4t-4 -4zM100 361q1 4 5 4q2 0 3.5 -4t-3.5 -4q-6 0 -5 4zM157 377q-7 0 -7 8t7 8q6 0 6 -8t-6 -8zM655 105v16h8v-16
h-8zM712 178q-6 0 -6 8t6 8t6 -8t-6 -8zM696 315q-4 1 -4 5q0 2 4 3.5t4 -3.5t-4 -5zM712 356q-6 0 -6 8t6 8t6 -8t-6 -8zM688 421q-4 1 -4 4t4 4t4 -4t-4 -4zM617 37v8h8v-8h-8zM657 77v8h16v-8h-16zM592 93q-1 0 -2 -0.5l-1 -0.5q-1 0 -3 0.5l-2 0.5q-6 2 -8 8q6 10 16 10
v-18zM678 182h-5q-7 2 -8 9q6 9 16 9v-18h-3zM608 272q-4 -10 -16 -10v19q11 0 16 -9zM633 296q-7 0 -7 8t7 8q6 0 6 -8t-6 -8zM560 369q-6 0 -6 8t6 8t6 -8t-6 -8zM673 369l-8 8l8 8l8 -8zM141 138q1 4 5 4q2 0 3.5 -4t-3.5 -4q-6 0 -5 4zM165 65q-6 0 -6 8t6 8q7 0 7 -8
t-7 -8zM109 65l-8 8h8v-8zM84 40l-8 8h8v-8zM220 31q-6 0 -6 8t6 8t6 -8t-6 -8zM196 509q-6 0 -6 8t6 8t6 -8t-6 -8zM139 501q-6 0 -6 8t6 8q7 0 7 -8t-7 -8zM220 493q-6 0 -6 8t6 8q7 0 7 -8t-7 -8zM625 511q-1 0 -2.5 -0.5l-1.5 -0.5q-1 0 -2.5 0.5l-1.5 0.5q-7 1 -9 8h17
v-8zM632 138v17h10q0 -11 -10 -17zM713 42h-16v8h16v-8zM101 441q-4 -10 -16 -10v19q11 0 16 -9z" />
    <glyph glyph-name="FL004Fh" unicode="O" 
d="M516 167h-247v243h247v-243zM755 486q0 21 -9.5 38t-24.5 28.5t-34 17.5t-37 6h-515q-18 0 -37 -6t-34 -17.5t-24.5 -28.5t-9.5 -38v-396q0 -21 9.5 -38t24.5 -28.5t34 -17.5t37 -6h515q18 0 37 6t34 17.5t24.5 28.5t9.5 38v396zM206 316q6 0 6 -8t-6 -8q-7 0 -7 8t7 8z
M141 332q6 0 6 -8t-6 -8q-7 0 -7 8t7 8zM125 373q3 -2 3 -5q0 -2 -4 -3.5t-4 3.5t5 5zM100 74q0 8 2 9.5t9 1.5q9 0 10.5 -1.5t1.5 -9.5q0 -7 -1.5 -8.5t-10.5 -1.5q-7 0 -9 1t-2 9zM177 201q-6 0 -6 8t6 8t6 -8t-6 -8zM193 160q-4 0 -4 5t4 3.5t4 -3.5q0 -4 -4 -5zM253 67
q-6 0 -6 8t6 8t6 -8t-6 -8zM212 116h8l-8 -8v8zM619 178q6 0 6 -8t-6 -8q-7 0 -7 8t7 8zM683 267q4 -1 4 -4t-4 -4t-4 4t4 4zM570 202v-8h-8zM666 308q-6 0 -6 8t6 8t6 -8t-6 -8zM580 371q-4 0 -4 5t4 3.5t4 -3.5q0 -4 -4 -5zM588 477q-4 -1 -4 4t4 4t4 -4t-4 -4zM491 76
q-7 0 -7 8t7 8q6 0 6 -8t-6 -8zM114 348q6 0 6 -8t-6 -8q-7 0 -7 8t7 8zM154 502q6 0 6 -8t-6 -8t-6 8t6 8zM94 522q4 -1 4 -5q0 -2 -4 -3.5t-4 3.5t4 5zM178 437q4 -1 4 -4t-4 -4t-4 4t4 4zM674 115q7 0 7 -8t-7 -8q-6 0 -6 8t6 8zM650 80q6 0 6 -8t-6 -8q-7 0 -7 8t7 8z
M626 419q0 8 2.5 12t11.5 4q7 0 14 -4.5t7 -11.5q0 -6 -7 -10.5t-14 -4.5q-9 0 -11.5 4t-2.5 11zM691 421q-6 0 -6 8t6 8q7 0 7 -8t-7 -8zM635 461q-7 0 -7 8t7 8q6 0 6 -8t-6 -8zM73 226h9v-8zM250 534q-4 0 -4 5t4 3.5t4 -3.5q0 -4 -4 -5zM588 246v-8h-8zM301 116h14
l-5 -13zM429 60h13v-13zM580 371q-4 0 -4 5t4 3.5t4 -3.5q0 -4 -4 -5zM580 371q-4 0 -4 5t4 3.5t4 -3.5q0 -4 -4 -5zM400 460q-7 0 -7 8t7 8q6 0 6 -8t-6 -8zM444 509l15 4l-3 -14zM347 510q3 -2 3 -5q0 -2 -4 -3.5t-4 3.5t5 5zM538 525q-4 0 -4 5t4 3.5t4 -3.5q0 -4 -4 -5z
" />
    <glyph glyph-name="P" unicode="P" horiz-adv-x="758" 
d="M629 151h-360v-151h-239v576h599q18 0 36 -5t32 -15.5t22.5 -26.5t8.5 -37v-257q0 -21 -8.5 -37t-22.5 -26.5t-32 -15.5t-36 -5zM489 410h-220v-183q32 51 81 70t104 19h35v94zM657 482q-6 0 -6 -8t6 -8q7 0 7 8t-7 8zM641 336q-6 0 -6 -8t6 -8q7 0 7 8t-7 8zM657 514
q-6 0 -6 -8t6 -8q7 0 7 8t-7 8zM625 352q1 4 -4 4q-6 0 -4 -4t4 -4q3 0 4 4zM625 287q-4 1 -4 -4t4 -3.5t4 3.5q0 3 -4 4zM625 385v-9l8 9h-8zM145 501q-7 0 -7 -8t7 -8q6 0 6 8t-6 8zM82 538q-6 0 -6 -8q0 -9 6 -9t6 9q0 8 -6 8zM267 517q-6 0 -6 -8q0 -9 6 -9t6 9
q0 8 -6 8zM228 538v-8h8v8h-8zM147 317q-6 0 -6 -8t6 -8t6 8t-6 8zM90 423v-8h8v8h-8zM179 350q-4 1 -4 -5q0 -5 4 -3.5t4 3.5q0 4 -4 5zM106 382q1 4 -4 4t-4 -4t4 -4t4 4zM237 197q-6 0 -6 -8q0 -9 6 -9q7 0 7 9q0 8 -7 8zM172 221q-6 0 -6 -8t6 -8q7 0 7 8t-7 8zM181 148
q-5 2 -5 -4t4 -4t4 4t-3 4zM205 245q-5 2 -5 -4q0 -5 4 -3.5t4 3.5t-3 4zM434 223q-6 0 -6 -8t6 -8t6 8t-6 8zM445 246q-4 1 -4 -5q0 -5 4 -3.5t4 3.5q0 4 -4 5zM424 258q1 4 -4 4t-4 -4t4 -4t4 4zM343 447v-8h8v8h-8zM408 463q-6 0 -6 -8t6 -8t6 8t-6 8zM384 463q0 4 -5 4
t-3.5 -4t3.5 -4q4 0 5 4zM286 488q-6 0 -6 -8q0 -9 6 -9q7 0 7 9q0 8 -7 8zM303 520q-7 0 -7 -8t7 -8q6 0 6 8t-6 8zM550 218q-6 0 -6 -9q0 -8 6 -8t6 8q0 9 -6 9zM639 218q-6 0 -6 -9q0 -8 6 -8t6 8q0 9 -6 9zM70 63q-10 -7 -10 -17h20q0 10 -10 17zM127 71q-7 0 -7 -8
t7 -8q6 0 6 8t-6 8zM135 111q1 4 -5 4q-5 0 -3.5 -4t3.5 -4q4 0 5 4zM561 457q-7 0 -7 -8q0 -9 7 -9q6 0 6 9q0 8 -6 8zM504 473v-8h8v8h-8zM561 497q-7 0 -7 -8t7 -8q6 0 6 8t-6 8zM228 40v-8h8v8h-8zM318 228v-8h8v8h-8z" />
    <glyph glyph-name="FL0051h" unicode="Q" 
d="M341 81h-8l8 8v-8zM390 65q6 0 6 -8t-6 -8q-7 0 -7 8t7 8zM641 33h-8v8zM731 33h-9l9 8v-8zM642 207q-1 -4 -5 -4q-2 0 -3.5 4t3.5 4q6 0 5 -4zM674 82q6 0 6 -8t-6 -8t-6 8t6 8zM364 268q7 0 7 -8t-7 -8q-6 0 -6 8t6 8zM151 178q-4 -1 -4 4t4 4t4 -4t-4 -4zM160 72
q-5 0 -5 5t4 3.5t4 -3.5q0 -4 -3 -5zM176 113q-7 0 -7 8t7 8q6 0 6 -8t-6 -8zM241 129q-7 0 -7 8t7 8q6 0 6 -8t-6 -8zM297 89q-6 0 -6 8t6 8q7 0 7 -8t-7 -8zM412 472q-7 0 -7 8t7 8q6 0 6 -8t-6 -8zM458 451q-7 0 -7 8t7 8q6 0 6 -8t-6 -8zM311 481h-8l8 8v-8zM424 554
q4 -1 4 -4t-4 -4t-4 4t4 4zM360 465q6 0 6 -8t-6 -8q-7 0 -7 8t7 8zM559 374q4 -1 4 -4t-4 -4t-4 4t4 4zM681 301q-1 -4 -5 -4q-2 0 -3.5 4t3.5 4q6 0 5 -4zM568 480q3 -2 3 -5q0 -2 -4 -3.5t-4 3.5t5 5zM624 285q7 0 7 -8t-7 -8q-6 0 -6 8t6 8zM584 439q6 0 6 -8t-6 -8
q-7 0 -7 8t7 8zM649 423q6 0 6 -8t-6 -8q-7 0 -7 8t7 8zM705 463q7 0 7 -8t-7 -8q-6 0 -6 8t6 8zM413 246l-8 -8v8h8zM624 165v-8l-8 8h8zM503 246v-8l-9 8h9zM446 197q-6 0 -6 8t6 8t6 -8t-6 -8zM673 181q-7 0 -7 8t7 8q6 0 6 -8t-6 -8zM100 436q-4 -1 -4 4t4 4t4 -4t-4 -4
zM222 509q1 -4 -5 -4q-5 0 -3.5 4t3.5 4q4 0 5 -4zM109 330q-5 0 -5 5t4 3.5t4 -3.5q0 -4 -3 -5zM165 525q-6 0 -6 8t6 8q7 0 7 -8t-7 -8zM125 371q-7 0 -7 8t7 8q6 0 6 -8t-6 -8zM190 387q-7 0 -7 8t7 8q6 0 6 -8t-6 -8zM246 347q-6 0 -6 8t6 8q7 0 7 -8t-7 -8zM378 166
h-109v244h247v-119h-235zM755 486q0 21 -9.5 38t-24.5 28.5t-34 17.5t-37 6h-515q-18 0 -37 -6t-34 -17.5t-24.5 -28.5t-9.5 -38v-396q0 -21 9.5 -38t24.5 -28.5t34 -17.5t37 -6h672l-52 68v418zM537 73q6 0 6 -9q0 -8 -6 -8q-7 0 -7 8q0 9 7 9zM553 97q4 -1 4 -5
q0 -2 -4.5 -3.5t-4.5 3.5q0 7 5 5zM529 137q6 0 6 -8t-6 -8q-7 0 -7 8t7 8zM515 99h-8l8 8v-8zM584 486h8v-8h-8v8zM632 458q7 0 7 -8t-7 -8q-6 0 -6 8t6 8zM544 526h8v-8zM168 245h8v-8h-8v8zM135 251q7 0 7 -8t-7 -8q-6 0 -6 8t6 8zM134 285h8v-8zM87 108q6 0 6 -8t-6 -8
q-7 0 -7 8t7 8zM192 459q0 -7 -2 -10t-12 -3q-13 0 -13 13t13 13q10 0 12 -3t2 -10z" />
    <glyph glyph-name="R" unicode="R" horiz-adv-x="786" 
d="M657 151h-34l162 -151h-276l-220 182h-20v-182h-239v576h627q18 0 36 -5t32 -15.5t22.5 -26.5t8.5 -37v-257q0 -21 -8.5 -37t-22.5 -26.5t-32 -15.5t-36 -5zM517 410h-248v-181q32 51 81 69t104 18h63v94zM627 533q-4 1 -4 -5q0 -5 4 -3.5t4 3.5q0 4 -4 5zM668 525
q-7 0 -7 -8t7 -8q6 0 6 8t-6 8zM659 500q-4 1 -4 -4t4 -3.5t4 3.5q0 4 -4 4zM611 484q-6 0 -6 -8t6 -8t6 8t-6 8zM539 160q2 -6 8 -8q6 2 8 8l1 4q0 1 -0.5 3l-0.5 2q-2 6 -8 8q-6 -2 -8 -8l-0.5 -2t-0.5 -3zM656 37q-6 0 -6 -8t6 -8q7 0 7 8t-7 8zM523 96q-7 0 -7 -8
q0 -9 7 -9q6 0 6 9q0 8 -6 8zM583 287q1 4 -5 4q-5 0 -11.5 -4t-4.5 -4t11 1t10 3zM419 271h16v8h-16v-8zM387 255q-10 -6 -10 -17h10v17zM425 223h17q-2 7 -9 8l-1.5 0.5t-2.5 0.5l-1.5 -0.5t-2.5 -0.5v-8zM379 191h8v8h-8v-8zM109 207v8h-8zM142 199q-6 0 -6 -9q0 -8 6 -8
t6 8q0 9 -6 9zM239 158q1 4 -4 4t-4 -4t4 -4t4 4zM190 166q-6 0 -6 -8t6 -8q7 0 7 8t-7 8zM100 126q0 -5 1 -9.5t8 -4.5q12 0 14 2.5t2 10.5q0 7 -2 11.5t-10 4.5q-13 0 -13 -15zM575 427q-4 1 -4 -5q0 -5 4 -3.5t4 3.5q0 4 -4 5zM551 386q1 4 -5 4q-5 0 -3.5 -4t3.5 -4
q4 0 5 4zM566 330q-6 0 -6 -8q0 -9 6 -9t6 9q0 8 -6 8zM591 305v8h7zM574 257h8l3 8h-8zM109 519h8v16h-8v-16zM188 510q2 -6 8 -8q6 2 8 8l1 4q0 1 -0.5 3l-0.5 2q-2 6 -8 8q-6 -2 -8 -8l-0.5 -2t-0.5 -3zM77 494h8v8h-8v-8zM212 470q-6 0 -6 -8t6 -8q7 0 7 8t-7 8zM68 470
q-2 1 -3 -2.5t-1 -5.5q0 -9 4 -8t4 8t-4 8zM172 446q-7 0 -7 -8q0 -9 7 -9q6 0 6 9q0 8 -6 8zM118 293h8v8h-8v-8zM397 450v-8h8v8h-8zM462 466q-6 0 -6 -8t6 -8t6 8t-6 8zM438 466q0 4 -5 4t-3.5 -4t3.5 -4q4 0 5 4zM340 491q-6 0 -6 -8q0 -9 6 -9q7 0 7 9q0 8 -7 8z
M357 523q-7 0 -7 -8t7 -8q6 0 6 8t-6 8zM636 349v-8l8 8h-8zM676 349q-6 0 -6 -8t6 -8q7 0 7 8t-7 8zM701 374q-7 0 -7 -9q0 -8 7 -8q6 0 6 8q0 9 -6 9zM121 45v-16h8v16h-8zM154 62q-5 2 -5 -5q0 -5 4 -3.5t4 3.5q0 3 -3 5zM170 107q-6 0 -6 -8t6 -8t6 8t-6 8zM663 214
q1 4 -4 4t-3.5 -4.5t3.5 -4.5t4 5zM477 128v-17h8v17h-8zM558 38h8v8h-8v-8zM193 357q-4 1 -4 -4t4 -3.5t4 3.5q0 4 -4 4zM123 352q-7 0 -7 -8t7 -8t7 8t-7 8zM505 509q-6 0 -6 -8q0 -9 6 -9q7 0 7 9q0 8 -7 8zM522 541q-7 0 -7 -8t7 -8q6 0 6 8t-6 8z" />
    <glyph glyph-name="S" unicode="S" horiz-adv-x="768" 
d="M269 411v-112q16 25 36.5 39.5t44.5 21.5t50.5 9t53.5 2h179q18 0 37 -6t34 -17.5t24.5 -28.5t9.5 -38v-191q0 -21 -9 -38t-23 -28.5t-32.5 -17.5t-36.5 -6h-607v165h469v41h-364q-18 0 -37 6t-34 17.5t-24.5 28.5t-9.5 38v190q0 21 9 38t23 28.5t32.5 17.5t36.5 6h607
v-165h-469zM509 317h8v8zM607 317q-7 0 -7 -8t7 -8q6 0 6 8t-6 8zM550 309q-6 0 -6 -8t6 -8t6 8t-6 8zM550 134q-4 1 -4 -5q0 -5 4 -3.5t4 3.5q0 4 -4 5zM549 102q-5 0 -5 -5t4 -3.5t4 3.5q0 3 -3 5zM532 77q-6 0 -6 -8t6 -8q7 0 7 8t-7 8zM484 61h10q0 12 -10 16v-16z
M435 45h10q0 9 -10 16v-16zM162 95q10 7 10 16h-10v-16zM113 71h10q0 8 -10 14v-14zM210 63h9v8h-9v-8zM259 55h8l-8 8v-8zM81 63q-6 0 -6 -8q0 -9 6 -9t6 9q0 8 -6 8zM418 499q-5 2 -5 -5q0 -5 4 -3.5t4 3.5q0 3 -3 5zM329 491q-3 0 -9 -3t-8 -5h25q0 2 -3 5t-5 3zM280 474
q-5 2 -5 -4q0 -5 4.5 -4t4.5 4q0 4 -4 4zM119 513q1 4 -4 4t-3.5 -4t3.5 -4q3 0 4 4zM176 489q1 4 -4 4q-6 0 -4 -4.5t4 -4.5t4 5zM160 448q-6 0 -6 -8q0 -7 6 -7t6 7q0 8 -6 8zM114 400h8v8zM217 400q-7 0 -7 -8t7 -8q6 0 6 8t-6 8zM160 392q-6 0 -6 -8t6 -8t6 8t-6 8z
M474 256q-7 0 -7 -8t7 -8q6 0 6 8t-6 8zM441 240v8h-8zM562 226q0 -8 2 -18t12 -10q2 0 3.5 0.5l1.5 0.5q2 2 5 8t3 8q0 5 -8.5 8t-13.5 3h-5zM644 175q-5 2 -5 -5q0 -5 4 -3.5t4 3.5q0 3 -3 5zM565 167q-3 0 -9 -3t-8 -5h25q0 2 -3 5t-5 3zM520 150q-5 2 -5 -4q0 -5 4.5 -4
t4.5 4q0 4 -4 4zM551 500v-18q11 0 17 10q-2 7 -9 8l-1.5 0.5t-2.5 0.5l-1.5 -0.5t-2.5 -0.5zM438 532q-6 0 -6 -8t6 -8t6 8t-6 8zM568 548v-16h18q0 7 -4 12t-11 5zM624 540q-6 0 -6 -8t6 -8q7 0 7 8t-7 8zM309 246l9 -8v8h-9zM334 287q-7 0 -7 -8t7 -8q6 0 6 8t-6 8z
M374 303q-4 1 -4 -5q0 -5 4 -3.5t4 3.5q0 4 -4 5zM350 311q-5 2 -5 -4t4.5 -4t4.5 4q0 3 -4 4zM366 335v-8h8v8h-8zM413 61v-8h8v8h-8zM429 102q-6 0 -6 -8t6 -8t6 8t-6 8zM356 126q-4 1 -4 -4t4 -4t4 4t-4 4zM136 352q-6 0 -6 -8t6 -8q7 0 7 8t-7 8zM131 392v-8h8v8h-8z
M201 272q1 3 -5 3q-5 0 -3.5 -4t3.5 -4q3 0 5 5zM223 312q0 -9 10 -16v16h-10zM256 141v-8h8v8h-8zM242 99q1 3 -5 3q-5 0 -3.5 -4t3.5 -4q3 0 5 5zM274 99q1 3 -4 3t-4 -4t4 -4q2 0 4 5zM87 279v-8h8v8h-8zM128 304q1 3 -5 3q-5 0 -3.5 -4t3.5 -4q3 0 5 5zM498 446
q1 3 -4 3t-4 -4t4 -4q2 0 4 5zM214 546v-8h8v8h-8zM631 71v-8h8v8h-8zM672 96q1 3 -5 3q-5 0 -3.5 -4t3.5 -4q3 0 5 5zM674 464q-6 0 -6 -8t6 -8q7 0 7 8t-7 8zM661 257h8v8zM678 249v-8h8v8h-8zM76 327v-8h8v8h-8z" />
    <glyph glyph-name="T" unicode="T" horiz-adv-x="710" 
d="M680 576h-650v-166h172v-320q0 -21 9.5 -38t24.5 -28.5t34 -17.5t37 -6h233v165h-99v245h239v166zM330 479q6 0 6 -8q0 -9 -6 -9t-6 9q0 8 6 8zM278 457h-8v8zM581 553q1 0 2.5 0.5l1.5 0.5q1 0 2.5 -0.5l1.5 -0.5q6 -2 8 -8q-4 -10 -16 -10v18zM620 516q6 0 6 -8
q0 -9 -6 -9t-6 9q0 8 6 8zM520 510v-8h-9v8h9zM568 494h-8v8zM449 544q6 0 6 -8t-6 -8q-7 0 -7 8t7 8zM67 454q6 0 6 -8q0 -9 -6 -9t-6 9q0 8 6 8zM592 499v-8h-9v8h9zM638 440h-8v8zM562 477q6 0 6 -8t-6 -8q-7 0 -7 8t7 8zM106 509q-2 3 5 3q5 0 3.5 -4t-3.5 -4q-3 0 -5 5
zM75 541q6 0 6 -8t-6 -8t-6 8t6 8zM219 505q6 0 6 -8t-6 -8q-7 0 -7 8t7 8zM139 501q6 0 6 -8q0 -9 -6 -9q-7 0 -7 9q0 8 7 8zM162 493q7 0 7 -9q0 -4 -2 -11.5t-6 -7.5q-3 0 -4 7.5t-1 11.5q0 9 6 9zM415 439q4 -1 4 -5q0 -2 -4 -3.5t-4 3.5q0 6 4 5zM364 441q3 -2 3 -4
q0 -3 -4 -4t-4 4q0 6 5 4zM404 458h8l-8 -9v9zM388 514q10 -4 10 -16h-20q0 12 10 16zM299 548h-8v8zM262 362l5 -17q0 -6 -2.5 -8.5t-11.5 -2.5q-14 0 -12 6.5t2 18.5zM379 73q4 1 4 -5q0 -5 -4 -3.5t-4 3.5q0 4 4 5zM314 105l-8 -8v8h8zM443 113q5 2 5 -4q0 -5 -4 -3.5
t-4 3.5q0 4 3 4zM311 204q4 1 4 -4t-4 -3.5t-4 3.5q0 4 4 4zM254 261l-8 -8l-8 8l8 8zM286 342q7 0 7 -8t-7 -8q-6 0 -6 8t6 8zM319 375q6 0 6 -9q0 -8 -6 -8q-7 0 -7 8q0 9 7 9zM336 118q6 0 6 -8t-6 -8q-7 0 -7 8t7 8zM279 134q-1 4 5 4q5 0 3.5 -4t-3.5 -4q-4 0 -5 4z
M364 295v-8h-8zM376 239q-1 4 5 4q5 0 3.5 -4t-3.5 -4q-4 0 -5 4zM417 45q3 -2 3 -5q0 -2 -4 -3.5t-4 3.5q0 7 5 5zM433 134l-8 -16q-10 7 -10 16h18zM473 58q10 -4 10 -16h-10v16zM449 91q6 0 6 -8q0 -9 -6 -9q-7 0 -7 9q0 8 7 8zM276 54h-8v8z" />
    <glyph glyph-name="U" unicode="U" 
d="M755 0v576h-239v-411h-247v411h-239v-486q0 -21 9.5 -38t24.5 -28.5t34 -17.5t37 -6h620zM379 105v-8h-8v8h8zM469 97q3 -2 3 -4t-4 -3.5t-4 3.5q0 6 5 4zM339 65v-8h-16v8h16zM404 49q1 0 2 0.5l1 0.5q1 0 3 -0.5l2 -0.5q6 -2 8 -8q-6 -10 -16 -10v18zM185 160
q-1 -4 -5 -4q-2 0 -3.5 4t3.5 4q6 0 5 -4zM128 144q7 0 7 -8t-7 -8q-6 0 -6 8t6 8zM339 128q6 0 6 -8t-6 -8t-6 8t6 8zM396 79h-9l9 8v-8zM306 79h-8v8zM571 394q3 -2 3 -5q0 -2 -4 -3.5t-4 3.5t5 5zM708 377q7 0 7 -8t-7 -8q-6 0 -6 8t6 8zM587 353q6 0 6 -8t-6 -8
q-7 0 -7 8t7 8zM652 337q6 0 6 -8t-6 -8q-7 0 -7 8t7 8zM562 288q4 -1 4 -4t-4 -4t-4 4t4 4zM684 215q-1 -4 -5 -4q-2 0 -3.5 4t3.5 4q6 0 5 -4zM627 199q7 0 7 -8t-7 -8q-6 0 -6 8t6 8zM129 471v-16h-8v16h8zM72 398q6 0 6 -8t-6 -8t-6 8t6 8zM88 261q4 -1 4 -5
q0 -2 -4 -3.5t-4 3.5t4 5zM72 220q6 0 6 -8t-6 -8t-6 8t6 8zM96 155q4 -1 4 -4t-4 -4t-4 4t4 4zM167 539v-8h-8v8h8zM127 499v-8h-16v8h16zM192 483q1 0 2 0.5l1 0.5q1 0 3 -0.5l2 -0.5q6 -2 8 -8q-6 -10 -16 -10v18zM106 394h5q7 -2 8 -9q-6 -9 -16 -9v18h3zM176 304
q4 10 16 10v-19q-12 0 -16 9zM151 280q7 0 7 -8t-7 -8q-6 0 -6 8t6 8zM224 207q6 0 6 -8t-6 -8t-6 8t6 8zM111 207l8 -8l-8 -8l-8 8zM643 438q-1 -4 -5 -4q-2 0 -3.5 4t3.5 4q6 0 5 -4zM619 511q6 0 6 -8t-6 -8q-7 0 -7 8t7 8zM675 511l8 -8h-8v8zM700 536l8 -8h-8v8z
M555 545q6 0 6 -8t-6 -8t-6 8t6 8zM588 67q6 0 6 -8t-6 -8t-6 8t6 8zM645 75q6 0 6 -8t-6 -8q-7 0 -7 8t7 8zM564 83q6 0 6 -8t-6 -8q-7 0 -7 8t7 8zM159 65q1 0 2.5 0.5l1.5 0.5q1 0 2.5 -0.5l1.5 -0.5q7 -1 9 -8h-17v8zM152 438v-17h-10q0 11 10 17zM71 534h16v-8h-16v8z
M651 371q0 9 2.5 13t13.5 4q18 0 18 -17t-18 -17q-11 0 -13.5 4t-2.5 13z" />
    <glyph glyph-name="V" unicode="V" horiz-adv-x="837" 
d="M807 67v509h-240v-410h-86l-213 410h-253l290 -576h425q12 0 25.5 6t25 15.5t19 21.5t7.5 24zM528 38q-7 0 -7 8t7 8q6 0 6 -8t-6 -8zM601 46q-7 0 -7 8t7 8q6 0 6 -8t-6 -8zM552 54q-6 0 -6 8t6 8t6 -8t-6 -8zM625 70q-6 0 -6 8t6 8t6 -8t-6 -8zM758 468h15v-8h-15v8z
M693 355v17q10 -6 10 -17h-10zM727 133l8 8l8 -8l-8 -8zM622 141q6 0 6 -8t-6 -8t-6 8t6 8zM695 214q6 0 6 -8t-6 -8q-7 0 -7 8t7 8zM670 238q-5 -9 -16 -9v19q12 0 16 -10zM726 328h5h3v-18q-10 0 -16 9q1 7 8 9zM653 417v-18q-10 0 -16 10q2 6 8 8l2 0.5t3 0.5l1 -0.5
t2 -0.5zM718 425v8h16v-8h-16zM678 465v8h8v-8h-8zM750 89q4 1 4 -4t-4 -4t-4 4t4 4zM774 154q6 0 6 -8t-6 -8t-6 8t6 8zM758 195q4 0 4 -5t-4 -3.5t-4 3.5q0 4 4 5zM765 332q6 0 6 -8t-6 -8t-6 8t6 8zM716 389v16h8v-16h-8zM718 78q6 0 6 -8t-6 -8q-7 0 -7 8t7 8zM661 94
q-1 4 5 4q5 0 3.5 -4t-3.5 -4q-4 0 -5 4zM378 185q-2 0 -3 3t-1 6t1 6t3 2q4 -1 4 -8q0 -8 -4 -9zM434 97q-2 0 -3 3t-1 6t1 6t3 2q4 -1 4 -8q0 -8 -4 -9zM338 154q1 -4 -4 -4q-6 0 -4 4t4 4q3 0 4 -4zM298 194q-7 0 -7 8q0 9 7 9q6 0 6 -9q0 -8 -6 -8zM314 235q-6 0 -6 8
t6 8t6 -8t-6 -8zM321 302l-8 8l8 8v-16zM265 350q-7 0 -7 8q0 9 7 9q6 0 6 -9q0 -8 -6 -8zM393 40q-6 0 -6 8t6 8q7 0 7 -8t-7 -8zM328 64h-8v8h8v-8zM361 137h-8v8zM345 169q-7 0 -7 9q0 8 7 8q6 0 6 -8q0 -9 -6 -9zM344 279l1 4q2 6 8 8q2 -2 5 -8t3 -8t-3 -5t-5 -3
q-6 2 -8 8l-0.5 1.5t-0.5 2.5zM172 488q-3 6 -3 10q0 5 3 8l13 -8q-1 -10 -13 -10zM251 488q5 -1 8 -3.5t7 -6.5v-3q0 -4 -4 -5l-1 -0.5t-2 -0.5l-2 0.5t-3 0.5l-6 13zM106 536l8 8l8 -8l-8 -8zM154 455q-6 0 -6 8t6 8q7 0 7 -8t-7 -8zM204 325q-5 3 -5 7q0 5 4 9h10z
M236 236l16 16q4 -4 4 -9q0 2 -0.5 0t-1.5 -7h-18zM210 292q-4 0 -4 2q0 3 3 6q3 9 10 9q4 0 4 -4t-1 -5q-6 -8 -12 -8zM722 502q-6 0 -6 8t6 8q7 0 7 -8t-7 -8zM624 536q-6 0 -6 8t6 8t6 -8t-6 -8zM648 503q-4 -1 -4 5q0 5 4 3.5t4 -3.5q0 -4 -4 -5zM280 414l-8 8l8 8v-16z
M620 269q-7 0 -7 8t7 8q6 0 6 -8t-6 -8zM644 285q-6 0 -6 8t6 8t6 -8t-6 -8z" />
    <glyph glyph-name="W" unicode="W" horiz-adv-x="1084" 
d="M714 302l-115 274h-236l63 -142l-56 -132l-114 274h-241l251 -576h208l69 157l67 -157h208l251 576h-241zM534 289q0 1 0.5 2.5l0.5 1.5q2 6 8 8q2 0 5 -3t3 -5t-3 -8t-5 -8q-6 2 -8 8zM535 399q6 0 6 -9q0 -8 -6 -8q-7 0 -7 8q0 9 7 9zM543 431h8l-8 -8v8zM510 504h8v-8
h-8v8zM573 528q7 0 7 -8t-7 -8q-6 0 -6 8t6 8zM218 366q6 0 6 -8t-6 -8t-6 8t6 8zM202 407q6 0 6 -8q0 -9 -6 -9q-7 0 -7 9q0 8 7 8zM242 447q-1 -4 -4 -4q-2 0 -4 4t4 4q5 0 4 -4zM210 480q6 0 6 -9q0 -8 -6 -8q-7 0 -7 8q0 9 7 9zM226 504q4 -1 4 -5q0 -2 -4.5 -3.5
t-4.5 3.5q0 7 5 5zM202 544q6 0 6 -8t-6 -8q-7 0 -7 8t7 8zM346 164q4 -1 4 -8t-4 -8q-2 -1 -3 2t-1 6t1 6t3 2zM281 189h8v-9h-8v9zM338 221q4 -1 4 -5q0 -2 -4 -3.5t-4 3.5q0 6 4 5zM379 253h8v-16h-8v16zM395 286h8v-8h-8v8zM374 51q-2 -5 -5 -5q-2 0 -3.5 4t3.5 4
q6 0 5 -3zM447 75q6 0 6 -8t-6 -8t-6 8t6 8zM333 99q6 0 13 -4t7 -12h-20v16zM431 116q6 0 6 -8q0 -9 -6 -9q-7 0 -7 9q0 8 7 8zM455 218q6 0 6 -8q0 -9 -6 -9q-7 0 -7 9q0 8 7 8zM503 258l8 8v-16zM151 388h18q0 -18 -18 -18v18zM127 453q-2 -5 -4 -5t-4 4t4 4q5 0 4 -3z
M151 510q4 -1 4 -9q0 -7 -4 -8q-2 -1 -3 2t-1 6t1 6t3 3zM225 272h8v-8h-8v8zM285 304q6 0 6 -8t-6 -8t-6 8t6 8zM269 345q6 0 6 -8q0 -9 -6 -9q-7 0 -7 9q0 8 7 8zM504 333q6 0 6 -8t-6 -8t-6 8t6 8zM488 374q6 0 6 -8q0 -9 -6 -9q-7 0 -7 9q0 8 7 8zM528 414q-1 -4 -4 -4
q-2 0 -4 4t4 4q5 0 4 -4zM614 471q4 -1 4 -9q0 -7 -4 -8q-2 -1 -3 2t-1 6t1 6t3 3zM273 153q4 -1 4 -9q0 -7 -4 -8q-2 -1 -3 2t-1 6t1 6t3 3zM568 383q4 -1 4 -9q0 -7 -4 -8q-2 -1 -3 2t-1 6t1 6t3 3zM75 538l8 8v-16zM856 297q0 1 0.5 2.5l0.5 1.5q2 6 8 8q2 0 5 -3t3 -5
t-3 -8t-5 -8q-6 2 -8 8zM857 407q6 0 6 -9q0 -8 -6 -8q-7 0 -7 8q0 9 7 9zM865 439h8l-8 -8v8zM832 512h8v-8h-8v8zM905 536q7 0 7 -8t-7 -8q-6 0 -6 8t6 8zM769 83q6 0 6 -8t-6 -8t-6 8t6 8zM753 124q6 0 6 -8q0 -9 -6 -9q-7 0 -7 9q0 8 7 8zM777 226q6 0 6 -8q0 -9 -6 -9
q-7 0 -7 9q0 8 7 8zM825 266l8 8v-16zM826 341q6 0 6 -8t-6 -8t-6 8t6 8zM810 382q6 0 6 -8q0 -9 -6 -9q-7 0 -7 9q0 8 7 8zM850 422q-1 -4 -4 -4q-2 0 -4 4t4 4q5 0 4 -4zM946 479q4 -1 4 -9q0 -7 -4 -8q-2 -1 -3 2t-1 6t1 6t3 3zM890 391q4 -1 4 -9q0 -7 -4 -8q-2 -1 -3 2
t-1 6t1 6t3 3zM441 538q6 0 6 -8t-6 -8t-6 8t6 8zM676 163q6 0 6 -9q0 -8 -6 -8q-7 0 -7 8q0 9 7 9zM692 187q4 -1 4 -5q0 -2 -4.5 -3.5t-4.5 3.5q0 7 5 5zM668 227q6 0 6 -8t-6 -8q-7 0 -7 8t7 8zM617 193q4 -1 4 -9q0 -7 -4 -8q-2 -1 -3 2t-1 6t1 6t3 3zM652 72q6 0 6 -8
t-6 -8t-6 8t6 8zM636 113q6 0 6 -8q0 -9 -6 -9q-7 0 -7 9q0 8 7 8zM839 195h8v-8h-8v8z" />
    <glyph glyph-name="X" unicode="X" horiz-adv-x="763" 
d="M269 457l98 -91h29l98 91v119h239v-176l-140 -122l140 -103v-175h-239v121l-98 86h-29l-99 -86v-121h-238v175l140 103l-140 122v176h239v-119zM531 56q-9 -5 -1 -16h10zM561 145l16 -16q7 7 2 16h-18zM537 89q-7 0 -1 -8q3 -9 10 -9q6 0 3 9q-6 8 -12 8zM674 49l1 -3
q1 -7 8 -9q0 1 0.5 2.5l0.5 1.5q0 1 -0.5 3l-0.5 2q0 2 -3 4.5t-5 3.5q0 -1 -0.5 -2.5t-0.5 -2.5zM645 186q-6 0 -6 -8t6 -8t6 8t-6 8zM485 338q-9 -5 -1 -16h10zM517 427l16 -16q7 7 2 16h-18zM491 371q-7 0 -1 -8q3 -9 10 -9q6 0 3 9q-6 8 -12 8zM581 367l1 -3q1 -7 8 -9
q0 1 0.5 2.5l0.5 1.5q0 1 -0.5 3l-0.5 2q0 2 -3 4.5t-5 3.5q0 -1 -0.5 -2.5t-0.5 -2.5zM636 92q-6 0 -6 -8t6 -8t6 8t-6 8zM546 487q-6 0 -6 -8t6 -8t6 8t-6 8zM530 528q-4 -1 -4 -5q0 -2 4 -3.5t4 3.5t-4 5zM590 468q-6 0 -6 -8t6 -8t6 8t-6 8zM622 476q-4 1 -4 -4t4 -3.5
t4 3.5q0 3 -4 4zM665 534q-1 -4 5 -4q5 0 3.5 4t-3.5 4q-4 0 -5 -4zM309 285q-7 0 -7 -8q0 -9 7 -9q6 0 6 9q0 8 -6 8zM430 309l-8 -8h8v8zM309 333v-8l8 8h-8zM395 248q-6 0 -6 -8t6 -8t6 8t-6 8zM466 245q-4 1 -6 -5q-4 -5 1 -3.5t7 3.5q2 4 -2 5zM507 220q-1 -5 -1.5 -7
t-0.5 0q0 -5 4 -9l14 15zM662 398l1 -3q1 -7 8 -9q0 1 0.5 2.5l0.5 1.5q0 1 -0.5 3l-0.5 2q0 2 -3 4.5t-5 3.5q0 -1 -0.5 -2.5t-0.5 -2.5zM168 44q-5 2 -5 -4q0 -5 4 -3.5t4 3.5t-3 4zM179 176h14q-2 7 -6 8l-1.5 0.5t-2.5 0.5l-1.5 -0.5t-2.5 -0.5v-8zM187 241q-6 0 -6 -8
t6 -8t6 8t-6 8zM97 86q1 4 -5 4q-5 0 -3.5 -4t3.5 -4q4 0 5 4zM212 192q-4 1 -4 -5q0 -5 4 -3.5t4 3.5q0 4 -4 5zM186 157q-6 0 -6 -8t6 -8t6 8t-6 8zM72 54q-6 0 -6 -8t6 -8q7 0 7 8t-7 8zM164 439l9 -8v16zM140 496q-6 0 -6 -8t6 -8t6 8t-6 8zM83 537q1 3 -4 3t-4 -4t4 -4
q4 0 4 5zM147 221v-8h8zM91 389l8 -8v8h-8zM99 437v-8h8zM254 327q-4 1 -4 -5q0 -5 4 -3.5t4 3.5q0 4 -4 5zM157 360q-6 0 -6 -8t6 -8q7 0 7 8t-7 8zM214 360q-6 0 -6 -8t6 -8t6 8t-6 8zM186 522l-8 -8h8v8zM224 79l5 8h-8l-5 -8h8zM130 127q4 4 4 9q0 4 -5 7l-9 -16h10z
M346 272q-6 0 -6 -8t6 -8t6 8t-6 8z" />
    <glyph glyph-name="Y" unicode="Y" horiz-adv-x="769" 
d="M668 231q-4 2 -8 -5q-2 -5 2.5 -3.5t5.5 3.5q3 3 0 5zM625 198q-5 0 -10 -8t1 -8t11 8t-2 8zM684 303q-1 1 -1.5 2t-1.5 2q-1 -1 -1.5 -2t-1.5 -2q-5 -9 1.5 -7t4.5 7zM513 125q-3 -2 0 -5q1 -2 5.5 -3.5t2.5 3.5q-4 7 -8 5zM556 92q-7 0 -2 -8t11 -8t1 8t-10 8zM630 69
l15 23l-15 25l-15 -24zM220 400v-16h10q0 12 -10 16zM196 433q-7 0 -7 -8q0 -9 7 -9q6 0 6 9q0 8 -6 8zM120 523q5 -2 5 4q0 5 -4 3.5t-4 -3.5q0 -3 3 -4zM72 393q4 -1 4 5q0 5 -4 3.5t-4 -3.5q0 -4 4 -5zM96 539v8h-16q2 -6 8 -8l1.5 -0.5t2.5 -0.5l1.5 0.5t2.5 0.5z
M112 345q6 0 6 8t-6 8t-6 -8t6 -8zM88 482q6 0 6 8t-6 8t-6 -8t6 -8zM177 482v18q-12 0 -16 -10q2 -6 8 -8l1.5 -0.5t2.5 -0.5l1.5 0.5t2.5 0.5zM619 483q-5 2 -5 -4q0 -5 4 -3.5t4 3.5t-3 4zM643 467v-8h16q-2 6 -8 8l-1.5 0.5t-2.5 0.5l-1.5 -0.5t-2.5 -0.5zM651 524
q-6 0 -6 -8t6 -8t6 8t-6 8zM562 410h-18q0 -9 10 -16zM619 354q-7 0 -7 -8q0 -9 7 -9q6 0 6 9q0 8 -6 8zM562 524v-18q12 0 16 10q-2 6 -8 8l-1.5 0.5t-2.5 0.5l-1.5 -0.5t-2.5 -0.5zM97 30h-8v-8h8v8zM121 103v-16h10q0 12 -10 16zM97 136q-7 0 -7 -8q0 -9 7 -9q6 0 6 9
q0 8 -6 8zM145 80q1 3 -5 3q-5 0 -3.5 -4t3.5 -4q3 0 5 5zM319 75q4 -1 4 5q0 5 -4 3.5t-4 -3.5q0 -4 4 -5zM112 72q-2 0 -3 -1v-16h3q7 0 7 9q0 8 -7 8zM359 27q6 0 6 8t-6 8t-6 -8t6 -8zM234 110q-6 0 -6 -8t6 -8t6 8t-6 8zM234 72q-6 0 -6 -8q0 -9 6 -9t6 9q0 8 -6 8z
M380 253v-8h8zM347 262q-6 0 -6 -9q0 -8 6 -8t6 8q0 9 -6 9zM452 278v-8h9v8h-9zM203 269v-8h8v8h-8zM309 286v-18q11 0 17 10q-2 7 -9 8l-1.5 0.5t-2.5 0.5l-1.5 -0.5t-2.5 -0.5zM478 331v-16h18q0 7 -4 12t-11 5zM382 326q-6 0 -6 -8t6 -8q7 0 7 8t-7 8zM140 352v-8h8v8
h-8zM93 270q-7 0 -7 -8t7 -8q6 0 6 8t-6 8zM133 286q-4 1 -4 -5q0 -5 4 -3.5t4 3.5q0 4 -4 5zM109 294q-5 2 -5 -4t4.5 -4t4.5 4q0 3 -4 4zM125 318v-8h8v8h-8zM276 105q-7 0 -7 -8t7 -8q6 0 6 8t-6 8zM316 137q-4 1 -4 -4t4 -4t4 4t-4 4zM323 68v-8h8v8h-8zM446 85
q-6 0 -6 -8t6 -8t6 8t-6 8zM585 266v-18q11 0 17 10q-2 7 -9 8l-1.5 0.5t-2.5 0.5l-1.5 -0.5t-2.5 -0.5zM135 206q-18 0 -37 6t-34 17.5t-24.5 28.5t-9.5 38v280h239v-278q16 25 36.5 40t44.5 22t50.5 9t53.5 2h46v205h239v-486q0 -21 -9 -38t-23 -28.5t-32.5 -17.5
t-36.5 -6h-608v165h470v41h-365z" />
    <glyph glyph-name="Z" unicode="Z" horiz-adv-x="710" 
d="M553 509q-3 3 -7 -4q-3 -5 2 -3.5t6 3.5q2 2 -1 4zM604 542q-1 1 -1.5 2t-1.5 2q-1 -1 -1.5 -2t-1.5 -2l-1.5 -4.5l-0.5 -1.5q2 -2 4 -2q3 0 5 2q1 1 -1 6zM580 485q0 1 0.5 2t0.5 2q-1 1 -2 1.5t-3 2.5h-1q-1 1 -2 1l-1.5 -0.5t-2.5 -0.5l-5 -8h16zM633 493
q-1 0 -2.5 0.5l-1.5 0.5q-2 0 -3 -1l-4 -4q0 -3 1 -4h12zM436 535q-3 -6 -3 -10q0 -5 3 -8l13 8q-1 10 -13 10zM520 535q5 1 6 2l5 5v3q0 4 -4 5l-1 0.5t-2 0.5l-2 -0.5t-3 -0.5l-2 -10zM414 348q-3 3 -7 -4q-3 -5 2 -3.5t6 3.5q2 2 -1 4zM465 381q-1 1 -1.5 2t-1.5 2
q-1 -1 -1.5 -2t-1.5 -2l-1.5 -4.5l-0.5 -1.5q2 -2 4 -2q3 0 5 2q1 1 -1 6zM494 332q-1 0 -2.5 0.5l-1.5 0.5q-2 0 -3 -1l-5 -4q0 -3 1 -4h16zM375 371q8 1 17 10v3q0 4 -4 5l-1 0.5t-2 0.5l-2 -0.5t-3 -0.5l-8 -13zM613 60q-12 0 -13 -10l13 -8q3 3 3 8q0 4 -3 10zM530 75
q-1 0 -3 0.5l-2 0.5q-1 0 -2 -0.5l-1 -0.5q-4 -1 -4 -5v-3q8 -8 17 -10l2 5zM542 112q4 -3 4 -5q0 -1 6 -1q12 0 12 9q0 4 -2 6t-4 7zM520 429q-4 1 -6 -5q-4 -5 0.5 -3.5t6.5 3.5q1 3 -1 5zM591 454q-4 -13 0 -20l12 8q-2 12 -12 12zM401 317q-5 0 -5 -8q0 -9 5 -9q6 0 6 9
q0 8 -6 8zM471 369q-6 0 -6 -8q0 -9 6 -9t6 9q0 8 -6 8zM511 375q-5 0 -5 -9q0 -4 3 -7.5t5 -3.5t3 -1.5t1 3.5v9q0 9 -7 9zM293 501q-4 1 -6 -5q-4 -5 0.5 -3.5t6.5 3.5q1 3 -1 5zM364 526q-4 -13 0 -20l12 8q-2 12 -12 12zM89 478q-5 0 -5 -8q0 -9 5 -9q6 0 6 9q0 8 -6 8z
M176 476q-6 0 -6 -8q0 -9 6 -9t6 9q0 8 -6 8zM216 482q-5 0 -5 -9q0 -4 3 -11.5t5 -7.5q4 0 4 9v10q0 9 -7 9zM145 484q2 -5 5 -5q2 0 5 6t3 11t-2 5q-4 0 -7.5 -7.5t-3.5 -9.5zM313 49q6 0 6 8t-6 8q-5 0 -5 -8t5 -8zM184 137q3 0 8.5 5.5t5.5 9.5q0 8 -6 8q-3 0 -8 -5
t-5 -10q0 -8 5 -8zM143 56q6 0 6 8t-6 8t-6 -8t6 -8zM184 177q5 0 5 10q0 8 -5 8q-7 0 -7 -8q0 -10 7 -10zM227 169q4 0 10 2t6 6q0 5 -6 7.5t-10 2.5t-4 -10q0 -8 4 -8zM254 109q-2 5 -5 5q-1 0 -1.5 -6t-1 -12.5t0.5 -12.5t3 -6t3 5t1 11v12v4zM109 139l-9 19l-12 -20
l11 -19zM30 0v166l328 244h-328v166h650v-165l-328 -245h328v-166h-650zM340 77v-8h8zM381 118q-6 0 -6 -8t6 -8t6 8t-6 8zM298 283q-6 0 -6 -8t6 -8q7 0 7 8t-7 8zM114 535q1 4 -5 4q-5 0 -3.5 -4t3.5 -4q4 0 5 4zM432 455l2 -13h8q3 0 6 5q-2 6 -8 8l-2 0.5t-3 0.5
l-1 -0.5t-2 -0.5zM303 234v-8h16v8h-16zM395 32q-5 2 -5 -4q0 -5 4 -3.5t4 3.5t-3 4zM351 274v-8h8v8h-8zM74 58q-5 2 -5 -4q0 -5 4 -3.5t4 3.5t-3 4zM438 77l-9 -8h9v8z" />
    <glyph glyph-name="FL005Bh" unicode="[" horiz-adv-x="421" 
d="M272 491h119v166h-361v-735h361v166h-119v403zM67 125q7 13 7 8q0 -8 -7 -8zM90 594q-7 0 -7 8q0 9 7 9q6 0 6 -9q0 -8 -6 -8zM211 570l-8 8h8v-8zM90 546v8l8 -8h-8zM138 489v-1q0 -3 -4 -3t-4 3q0 6 4 6q2 0 4 -5zM93 432v8h8zM125 432l8 8v-8h-8zM157 424v16h10
q0 -10 -10 -16zM174 408q-7 0 -7 8t7 8q6 0 6 -8t-6 -8zM223 368q-6 2 -7.5 5.5t-1.5 8.5v6l1 12q3 -1 9.5 -7t6.5 -9v-1q0 -3 -2.5 -8t-5.5 -7zM117 384v8l8 -8h-8zM182 368h-2q-3 0 -3 4t3 4q5 0 5 -4t-3 -4zM228 343v-1q0 -2 -4 -2t-4 3q0 5 4 5q2 0 4 -5zM212 319h-1
q-3 0 -3 4t3 4q5 0 5 -4q0 -3 -4 -4zM109 319v-1q0 -3 -5 -3q-4 0 -4 3q0 5 4 5t5 -4zM141 303q-6 0 -6 8t6 8q7 0 7 -8t-7 -8zM198 311v-1q0 -3 -5 -3q-4 0 -4 3q0 5 4 5t5 -4zM90 217q-6 0 -6 8t6 8q7 0 7 -8t-7 -8zM93 160q-6 0 -6 8t6 8q7 0 7 -8t-7 -8zM116 152
q0 12 10 16v-16h-10zM188 179q10 0 11.5 -2.5t1.5 -12.5q-10 0 -11.5 2.5t-1.5 12.5zM203 231l3 1q1 0 3 -0.5l2 -0.5q5 -3 8 -8h-16v8zM140 552h9v-8zM165 593q6 0 6 -8t-6 -8q-7 0 -7 8t7 8zM335 556q4 -1 4 -4q0 -2 -4.5 -4t-4.5 4t5 4zM351 580h8v-8h-8v8zM351 32h-2
q-2 0 -2 4t3 4q5 0 5 -4q0 -3 -4 -4zM136 100q0 10 10 16v-16h-10zM170 75q-6 0 -6 8t6 8t6 -8t-6 -8zM186 35q-6 0 -6 8t6 8t6 -8t-6 -8zM194 -14v8h8v-8h-8zM101 -5v8h8zM133 -5l8 8v-8h-8zM291 16l4 22l20 -15zM268 605v8h8v-8h-8z" />
    <glyph glyph-name="FL005Ch" unicode="\" horiz-adv-x="538" 
d="M15 576h233l275 -576h-233zM492 48q3 4 -2 4t-7 -4.5t1 -4.5t8 5zM447 40q-6 0 -12 -8q-1 -1 -1 -4q0 -4 5 -4q6 0 9 8q3 3 3 6q0 2 -4 2zM359 268q-5 -3 -5 -7q0 -5 4 -9h10zM165 477l16 -16q4 4 4 9q0 -2 -0.5 0t-1.5 7h-18zM102 535q-4 0 -4 -2q0 -3 3 -6q3 -9 10 -9
q4 0 4 4t-1 5q-6 8 -12 8zM335 58q-3 2 -8 -5q-3 -5 1.5 -3.5t6.5 3.5l1 3zM348 192q-4 1 -6 -5q-4 -5 1 -3.5t7 3.5q2 4 -2 5zM337 108l5 8h-8l-5 -8h8zM383 97q4 4 4 9q0 4 -5 7l-9 -16h10zM389 167q-1 -5 -1.5 -7t-0.5 0q0 -5 4 -9l14 15zM175 403q-3 -2 -1 -4
q1 -2 6 -3.5t2 3.5q-4 7 -7 4zM322 217q-2 -2 0 -5q2 -2 6.5 -3.5t1.5 3.5q-5 7 -8 5zM303 355q-4 -1 -2 -5q2 -2 7 -3.5t1 3.5q-2 6 -6 5zM304 168l5 -8h8l-5 8h-8zM240 241q-5 -3 -5 -7q0 -5 4 -9h10zM244 330l16 -16q4 4 4 9q0 -2 -0.5 0t-1.5 7h-18zM246 274q-4 0 -4 -2
q0 -3 3 -6q3 -9 10 -9q4 0 4 4t-1 5q-6 8 -12 8zM292 429q-12 0 -13 -10l13 -8q3 3 3 8q0 4 -3 10zM209 444q-1 0 -3 0.5l-2 0.5q-1 0 -2 -0.5l-1 -0.5q-4 -1 -4 -5v-3q8 -8 17 -10l2 5zM217 481l6 -4.5t8 -1.5q12 0 12 9q0 4 -2 7.5t-4 8.5zM132 537l5 -8h8l-5 8h-8z
M121 498l8 -8l8 8l-8 8z" />
    <glyph glyph-name="FL005Dh" unicode="]" horiz-adv-x="421" 
d="M149 491h-119v166h361v-735h-361v166h119v403zM205 105q-7 0 -7 -8t7 -8q6 0 6 8t-6 8zM286 97q-7 0 -7 -8t7 -8q6 0 6 8t-6 8zM229 89q-6 0 -6 -8t6 -8t6 8t-6 8zM190 567q-6 0 -6 -8t6 -8t6 8t-6 8zM254 533q-7 0 -7 -8t7 -8q6 0 6 8t-6 8zM278 460q1 4 -5 4
q-5 0 -3.5 -4t3.5 -4q4 0 5 4zM262 221q-6 0 -6 -8t6 -8q7 0 7 8t-7 8zM319 237q1 4 -5 4q-5 0 -3.5 -4t3.5 -4q4 0 5 4zM197 310q-4 1 -4 -4t4 -4t4 4t-4 4zM279 359q-7 0 -7 -8t7 -8q6 0 6 8t-6 8zM222 375q-7 0 -7 -8t7 -8q6 0 6 8t-6 8zM335 399q-6 0 -6 -8t6 -8
q7 0 7 8t-7 8zM206 416q-5 0 -5 -5t4 -3.5t4 3.5q0 3 -3 5zM178 7q6 0 6 8t-6 8q-7 0 -7 -8t7 -8zM113 -9q6 0 6 8t-6 8q-7 0 -7 -8t7 -8zM94 -46q3 1 3 5q0 2 -4 3.5t-4 -3.5t5 -5zM88 46q4 1 4 4t-4 4t-4 -4t4 -4zM323 -3q6 0 6 8t-6 8q-7 0 -7 -8t7 -8zM258 -19q6 0 6 8
t-6 8q-7 0 -7 -8t7 -8zM135 574q3 1 3 5q0 2 -4 3.5t-4 -3.5t5 -5zM233 46q4 1 4 4t-4 4t-4 -4t4 -4zM343 550l-8 8v-8h8zM318 525l-8 8v-8h8zM110 611l-8 8v-8h8zM85 586l-8 8v-8h8zM270 608l-8 8v-8h8zM329 150l-8 8v-8h8zM239 325q-7 0 -7 -8t7 -8q6 0 6 8t-6 8zM263 309
q-6 0 -6 -8t6 -8t6 8t-6 8z" />
    <glyph glyph-name="FL005Eh" unicode="^" horiz-adv-x="859" 
d="M331 538q7 0 7 -8t-7 -8q-6 0 -6 8t6 8zM250 530q7 0 7 -8t-7 -8q-6 0 -6 8t6 8zM307 522q6 0 6 -8t-6 -8t-6 8t6 8zM226 506q6 0 6 -8t-6 -8t-6 8t6 8zM305 295q7 0 7 -8q0 -9 -7 -9q-6 0 -6 9q0 8 6 8zM289 254q6 0 6 -8t-6 -8t-6 8t6 8zM362 230q-2 3 5 3q5 0 3.5 -4
t-3.5 -4q-3 0 -5 5zM92 108h-16v8h16v-8zM157 221v-17q-10 6 -10 17h10zM124 443l-8 -8l-8 8l8 8zM229 435q-6 0 -6 8t6 8t6 -8t-6 -8zM156 362q-6 0 -6 8t6 8q7 0 7 -8t-7 -8zM181 338q4 9 16 9v-19q-12 0 -16 10zM116 248h-5h-3v18q10 0 16 -9q-1 -7 -8 -9zM197 159v18
q10 0 16 -10q-2 -6 -8 -8l-2 -0.5t-3 -0.5l-1 0.5t-2 0.5zM132 151v-8h-16v8h16zM172 111v-8h-8v8h8zM101 487q-4 -1 -4 4t4 4t4 -4t-4 -4zM77 422q-6 0 -6 8t6 8t6 -8t-6 -8zM93 381q-4 0 -4 5t4 3.5t4 -3.5q0 -4 -4 -5zM77 244q-6 0 -6 8t6 8t6 -8t-6 -8zM134 187v-16h-8
v16h8zM133 498q-6 0 -6 8t6 8q7 0 7 -8t-7 -8zM190 482q1 -4 -5 -4q-5 0 -3.5 4t3.5 4q4 0 5 -4zM481 391q2 0 3 -3t1 -6t-1 -6t-3 -2q-4 1 -4 8q0 8 4 9zM425 479q2 0 3 -3t1 -6t-1 -6t-3 -2q-4 1 -4 8q0 8 4 9zM521 422q-1 4 4 4q6 0 4 -4t-4 -4q-3 0 -4 4zM561 382
q7 0 7 -8q0 -9 -7 -9q-6 0 -6 9q0 8 6 8zM545 341q6 0 6 -8t-6 -8t-6 8t6 8zM538 274l8 -8l-8 -8v16zM594 226q7 0 7 -8q0 -9 -7 -9q-6 0 -6 9q0 8 6 8zM466 536q6 0 6 -8t-6 -8q-7 0 -7 8t7 8zM531 512h8v-8h-8v8zM498 439h8v-8zM514 407q7 0 7 -9q0 -8 -7 -8q-6 0 -6 8
q0 9 6 9zM515 297l-1 -4q-2 -6 -8 -8q-2 2 -5 8t-3 8t3 5t5 3q6 -2 8 -8l0.5 -1.5t0.5 -2.5zM30 504v-504h240v150h183l-85 166h-98v94h109l211 -410h254l-292 576h-439q-12 0 -26.5 -7t-27 -17.5t-21 -23t-8.5 -24.5zM687 88q3 -6 3 -10q0 -5 -3 -8l-13 8q1 10 13 10z
M608 88q-5 1 -8 3.5t-7 6.5v3q0 4 4 5l1 0.5t2 0.5l2 -0.5t3 -0.5l6 -13zM753 40l-8 -8l-8 8l8 8zM705 121q6 0 6 -8t-6 -8q-7 0 -7 8t7 8zM655 251q5 -3 5 -7q0 -5 -4 -9h-10zM623 340l-16 -16q-4 4 -4 9q0 -2 0.5 0t1.5 7h18zM649 284q4 0 4 -2q0 -3 -3 -6q-3 -9 -10 -9
q-4 0 -4 4t1 5q6 8 12 8zM128 74q6 0 6 -8t-6 -8q-7 0 -7 8t7 8zM226 40q6 0 6 -8t-6 -8t-6 8t6 8zM202 73q4 1 4 -5q0 -5 -4 -3.5t-4 3.5q0 4 4 5zM321 192l-8 -8l-8 8l8 8z" />
    <glyph glyph-name="FL005Fh" unicode="_" horiz-adv-x="490" 
d="M30 118v-148h430v148h-430zM156 69v-8h-8v8h8zM246 61q3 -2 3 -4t-4 -3.5t-4 3.5q0 6 5 4zM116 29v-8h-16v8h16zM181 13q1 0 2 0.5l1 0.5q1 0 3 -0.5l2 -0.5q6 -2 8 -8q-6 -10 -16 -10v18zM116 92q6 0 6 -8t-6 -8t-6 8t6 8zM173 43h-9l9 8v-8zM83 43h-8v8zM365 31
q6 0 6 -8t-6 -8t-6 8t6 8zM341 47q6 0 6 -8t-6 -8q-7 0 -7 8t7 8zM373 69v-8h-8v8h8zM390 43h-9l9 8v-8zM297 89q6 0 6 -8t-6 -8t-6 8t6 8z" />
    <glyph glyph-name="FL0060h" unicode="`" horiz-adv-x="228" 
d="M172 608h-10q-42 0 -76.5 20.5t-54.5 41.5l-47 51l-1 13q0 11 3 17.5t9 11.5l81 34q7 4 20 4q9 0 17 -3.5t16 -7.5l75 -110q4 -7 4 -22q0 -9 -1.5 -18.5t-9.5 -14.5zM82 722q-6 0 -6 -8t6 -8q3 0 8 -0.5t5 3.5t-5 8.5t-8 4.5zM98 763q-4 0 -4 -5t4 -3.5t4 3.5q0 4 -4 5z
M121 657q-4 1 -4 -4t4 -4t4 4t-4 4zM36 738q-4 1 -4 -4t4 -4t4 4t-4 4zM168 662q-4 1 -4 -4t4 -4t4 4t-4 4z" />
    <glyph glyph-name="a" unicode="a" 
d="M323 544q-6 0 -6 -8t6 -8q7 0 7 8t-7 8zM453 536q-6 0 -6 -8t6 -8t6 8t-6 8zM291 512v8h-8zM323 504q-6 0 -6 -8q0 -9 6 -9q7 0 7 9q0 8 -7 8zM295 502q-4 1 -4 -4t4 -4t4 4t-4 4zM182 494q-7 0 -7 -8t7 -8q6 0 6 8t-6 8zM368 478q-6 0 -6 -8t6 -8t6 8t-6 8zM255 470
q-7 0 -7 -8t7 -8q6 0 6 8t-6 8zM352 429h8v8h-8v-8zM117 444q-7 0 -7 -8t7 -8q6 0 6 8t-6 8zM157 371h8v8h-8v-8zM141 355q-5 2 -5 -4t4.5 -4t4.5 4q0 3 -4 4zM165 347q-4 1 -4 -5q0 -5 4 -3.5t4 3.5q0 4 -4 5zM125 331q-7 0 -7 -8t7 -8q6 0 6 8t-6 8zM109 282v8h-9z
M133 258h8v8h-8v-8zM92 250q-4 1 -4 -5q0 -5 4 -3.5t4 3.5q0 4 -4 5zM149 161l8 8l-8 8v-16zM474 274q0 -4 1 -6t9 -2q11 0 11 8v5q0 5 -1 7t-7 2q-13 0 -13 -14zM360 249h9l-9 8v-8zM506 216l8 8h-8v-8zM422 197h14l-11 12zM109 507q0 -2 1 -5t6 -3q4 0 7.5 3t3.5 5
q0 9 -8 9q-10 0 -10 -9zM589 240h9l-9 8v-8zM612 424l8 8h-8v-8zM675 162h8l-8 8v-8zM192 288q-4 1 -4 -4q0 -6 4 -4t4 4q0 3 -4 4zM233 207v8h-8zM201 207q-5 2 -5 -4t4 -4t4 4t-3 4zM209 175h8v8h-8v-8zM176 167h8l-8 8v-8zM184 119l6 15h-14zM160 71h8l-8 9v-9zM610 506
h9l-9 8v-8zM505 473q10 7 10 18q-12 0 -18 -10zM586 457q1 4 -4 4q-6 0 -4 -4t4 -4q3 0 4 4zM675 449h8l-8 8v-8zM637 206q-6 0 -6 -8t6 -8t6 8t-6 8zM715 50q-5 2 -5 -5q0 -5 4 -3.5t4 3.5q0 3 -3 5zM695 143q0 -5 1 -9t6 -8l8 8q-5 9 -15 9zM665 87h14q0 15 -11 15l-3 -1
v-14zM606 96q0 -12 10 -16v16h-10zM755 0h-239v151h-247v-151h-239v486q0 21 9.5 38t24.5 28.5t34 17.5t37 6h515q18 0 37 -6t34 -17.5t24.5 -28.5t9.5 -38v-486zM516 410h-247v-184q32 51 81 70.5t104 19.5h62v94zM618 178q-7 0 -7 -8t7 -8q6 0 6 8t-6 8zM658 332
q-6 0 -6 -8t6 -8q3 0 8 -0.5t5 3.5t-5 8.5t-8 4.5zM674 373q-4 0 -4 -5t4 -3.5t4 3.5q0 4 -4 5zM697 267q-4 1 -4 -4t4 -4t4 4t-4 4zM716 180q-7 0 -7 -8q0 -5 7 8zM230 114q-6 0 -6 -8t6 -8q7 0 7 8t-7 8zM236 146v-8h8v8h-8zM63 42q-4 1 -4 -4q0 -6 4 -4t4 4q0 3 -4 4z
M179 46q-7 0 -7 -8t7 -8q6 0 6 8t-6 8zM81 85v-18q11 0 17 10q-2 7 -9 8l-1.5 0.5t-2.5 0.5l-1.5 -0.5t-2.5 -0.5zM154 125q-6 0 -6 -8t6 -8q7 0 7 8t-7 8zM362 209q-5 2 -5 -5q0 -5 4.5 -3.5t4.5 3.5q0 4 -4 5zM593 40q-6 0 -6 -8q0 -9 6 -9q7 0 7 9q0 8 -7 8zM556 54l8 -8
v8h-8zM586 72q-6 0 -6 -8q0 -7 6 -7q7 0 7 7q0 8 -7 8zM684 531q-7 0 -7 -8t7 -8q6 0 6 8t-6 8zM318 215q-7 0 -7 -8t7 -8q6 0 6 8t-6 8zM457 235h8l-8 8v-8zM555 353h8v8h-8v-8zM222 339h8l-8 8v-8zM632 148q-4 0 -4 -5t4 -3.5t4 3.5q0 4 -4 5z" />
    <glyph glyph-name="b" unicode="b" horiz-adv-x="758" 
d="M225 275q-3 0 -3 -4t3 -4q5 0 5 4q0 3 -4 4h-1zM186 243q-7 0 -7 -8t7 -8q6 0 6 8t-6 8zM161 138q-6 0 -6 -9q0 -8 6 -8q7 0 7 8q0 9 -7 9zM63 512l8 -8v8h-8zM103 541q-3 0 -4.5 -4.5t-1.5 -8.5q0 -8 6 -8q9 0 9 5q0 4 -2.5 10t-6.5 6zM520 201l9 -8v8h-9zM584 258
q-3 0 -3 -5q0 -4 3 -4v9zM559 266q-3 0 -3 -4t3 -4q6 0 6 4q0 3 -4 4h-2zM545 242q-7 0 -7 -8t7 -8q6 0 6 8t-6 8zM393 285q0 2 -5 2q-4 0 -4 -3q0 -5 4 -5q3 0 5 5v1zM415 324q0 -9 10 -16v16h-10zM477 329l5 -21l15 7zM157 75q-3 0 -3 -4t3 -4q5 0 5 4q0 3 -4 4h-1z
M118 109q0 2 -5 2q-4 0 -4 -3q0 -5 4 -5q3 0 5 5v1zM110 222q0 3 -5 3q-4 0 -4 -3q0 -6 4 -6q3 0 5 5v1zM94 75q-7 0 -7 -8t7 -8q6 0 6 8t-6 8zM441 461q-3 0 -3 -5q0 -4 3 -4q5 0 5 4t-4 5h-1zM321 510l5 -21l15 7zM483 48q-3 0 -3 -4t3 -4h4q5 0 11 0.5t6 2.5q0 3 -4 4z
M615 137q-6 0 -6 -8t6 -8q7 0 7 8t-7 8zM640 58q-7 0 -7 -8t7 -8v16zM550 97l-1.5 0.5t-2.5 0.5l-1.5 -0.5t-2.5 -0.5v-18zM577 129q0 7 -4 12t-11 5l-3 -1v-16h18zM632 517v8l-8 -8h8zM553 515q-3 5 -8 8l-2 0.5t-3 0.5l-3 -1v-8h16zM569 458q-6 0 -6 -8t6 -8t6 8t-6 8z
M644 493q0 -6 8 -6t8 6q0 7 -8 7t-8 -7zM510 476q0 -20 20 -20q0 20 -20 20zM155 334l9 -8v8h-9zM235 488q-3 0 -3 -4t3 -4q5 0 5 4q0 3 -4 4h-1zM253 449q0 2 -5 2q-4 0 -4 -3q0 -5 4 -5q3 0 5 5v1zM196 522q0 2 -5 2q-4 0 -4 -3q0 -5 4 -5q3 0 5 5v1zM146 294q-3 0 -3 -5
q0 -4 3 -4q5 0 5 4t-4 5h-1zM219 391q-3 0 -3 -5q0 -4 3 -4q5 0 5 4t-4 5h-1zM194 399q-3 0 -3 -4t3 -4q6 0 6 4q0 3 -4 4h-2zM205 308l-17 2v-8l17 -2v8zM228 438l-16 -15v-8h8zM172 488q-7 0 -7 -8t7 -8q6 0 6 8t-6 8zM180 375q-7 0 -7 -8t7 -8q6 0 6 8t-6 8zM30 0v576
h599q18 0 36 -5t32 -15.5t22.5 -26.5t8.5 -37v-119q-4 -26 -16 -45t-22 -30q14 -12 24.5 -29t13.5 -31v-154q0 -21 -8.5 -37t-22.5 -26.5t-32 -15.5t-36 -5h-599zM269 410v-126q32 50 81 66t104 16h35v44h-220zM489 166v45h-220v-45h220zM270 89q-6 0 -6 -8t6 -8q7 0 7 8
t-7 8zM335 105q-6 0 -6 -8t6 -8q7 0 7 8t-7 8zM297 52q-7 0 -7 -8t7 -8q6 0 6 8t-6 8zM240 68q1 -4 5 -4q2 0 3.5 4t-3.5 4q-6 0 -5 -4zM100 405q0 2 -5 2q-4 0 -4 -3q0 -5 4 -5q3 0 5 5v1zM615 327v8l-8 -8h8zM627 303q0 -6 8 -6t8 6q0 7 -8 7t-8 -7zM420 138q-6 0 -6 -8
t6 -8t6 8t-6 8zM645 143q6 0 6 8t-6 8q-7 0 -7 -8t7 -8zM681 111q7 0 7 8t-7 8q-6 0 -6 -8t6 -8zM656 224q-1 -4 5 -4q5 0 3.5 4t-3.5 4q-4 0 -5 -4zM347 249q0 2 -5 2q-4 0 -4 -3q0 -5 4 -5q3 0 5 5v1zM639 405q0 2 -5 2q-4 0 -4 -3q0 -5 4 -5q3 0 5 5v1zM403 544q0 2 -5 2
q-4 0 -4 -3q0 -5 4 -5q3 0 5 5v1z" />
    <glyph glyph-name="c" unicode="c" horiz-adv-x="769" 
d="M30 486q0 21 9.5 38t24.5 28.5t34 17.5t37 6h499q18 0 37 -6t34 -17.5t24.5 -28.5t9.5 -38v-152h-239v76h-231v-244h231v77h239v-153q0 -21 -9.5 -38t-24.5 -28.5t-34 -17.5t-37 -6h-499q-18 0 -37 6t-34 17.5t-24.5 28.5t-9.5 38v396zM85 390q6 0 6 8t-6 8q-7 0 -7 -8
t7 -8zM128 349q7 0 7 8t-7 8q-6 0 -6 -8t6 -8zM153 487q6 0 6 8t-6 8q-7 0 -7 -8t7 -8zM193 333q7 0 7 8t-7 8q-6 0 -6 -8t6 -8zM96 471q-1 -4 5 -4q5 0 3.5 4t-3.5 4q-4 0 -5 -4zM218 398q4 -1 4 4t-4 4t-4 -4t4 -4zM506 483q-7 0 -7 -8t7 -8q6 0 6 8t-6 8zM562 443
q-6 0 -6 -8t6 -8q7 0 7 8t-7 8zM627 459q-6 0 -6 -8t6 -8q7 0 7 8t-7 8zM589 406q-7 0 -7 -8t7 -8q6 0 6 8t-6 8zM532 422q1 -4 5 -4q2 0 3.5 4t-3.5 4q-6 0 -5 -4zM652 467q-4 -1 -4 -4t4 -4t4 4t-4 4zM396 115q6 0 6 8t-6 8q-7 0 -7 -8t7 -8zM185 131q6 0 6 8t-6 8t-6 -8
t6 -8zM339 99q-1 -4 5 -4q5 0 3.5 4t-3.5 4q-4 0 -5 -4zM137 180h-9v-8zM226 180h-8l8 -8v8zM563 157q-6 0 -6 -8t6 -8t6 8t-6 8zM547 198q-4 -1 -4 -5q0 -2 4 -3.5t4 3.5t-4 5zM539 92q-4 -1 -4 -4t4 -4t4 4t-4 4zM107 323q-6 0 -6 -8t6 -8t6 8t-6 8zM91 364q-4 -1 -4 -5
q0 -2 4 -3.5t4 3.5t-4 5zM83 258q-4 -1 -4 -4t4 -4t4 4t-4 4zM162 100q-6 0 -6 -8t6 -8q7 0 7 8t-7 8zM211 124v-8h8zM292 470q-10 -7 -10 -17h20q0 10 -10 17zM349 478q-7 0 -7 -8t7 -8q6 0 6 8t-6 8zM462 494v-8h8v8h-8zM357 518q1 4 -5 4q-5 0 -3.5 -4t3.5 -4q4 0 5 4z
M615 65v-8l8 8h-8zM655 65q-6 0 -6 -8t6 -8q7 0 7 8t-7 8zM607 138q-6 0 -6 -8t6 -8t6 8t-6 8zM639 146q-4 1 -4 -4t4 -3.5t4 3.5q0 3 -4 4zM372 59q-7 0 -7 -8q0 -9 7 -9q6 0 6 9q0 8 -6 8zM315 75v-8h8v8h-8zM469 75l8 -8v8h-8zM372 99q-7 0 -7 -8t7 -8q6 0 6 8t-6 8z
M178 63q1 4 -4 4t-3.5 -4.5t3.5 -4.5t4 5zM89 120v-17h8v17h-8zM537 496q-6 0 -6 -8t6 -8q7 0 7 8t-7 8zM626 521v-9h9v9h-9zM562 537l8 -8v8h-8zM689 204q-1 -4 5 -4q5 0 3.5 4t-3.5 4q-4 0 -5 -4zM91 508q-1 -4 5 -4q5 0 3.5 4t-3.5 4q-4 0 -5 -4zM194 518q-4 -1 -4 -4
t4 -4t4 4t-4 4zM705 369v-8h8v8h-8z" />
    <glyph glyph-name="d" unicode="d" 
d="M755 90q0 -21 -9.5 -38t-24.5 -28.5t-34 -17.5t-37 -6h-620v576h620q18 0 37 -6t34 -17.5t24.5 -28.5t9.5 -38v-396zM513 410h-244v-244h244v244zM589 463q0 -9 2.5 -11t10.5 -2q10 0 12 2.5t2 10.5q0 9 -2 11t-12 2q-8 0 -10.5 -1.5t-2.5 -11.5zM543 356q-7 0 -7 -8
t7 -8q6 0 6 8t-6 8zM624 178q-7 0 -7 -8t7 -8q6 0 6 8t-6 8zM664 332q-6 0 -6 -8t6 -8t6 8t-6 8zM680 373q-4 0 -4 -5t4 -3.5t4 3.5q0 4 -4 5zM687 267q-4 1 -4 -4t4 -4t4 4t-4 4zM567 194h8v8zM156 40q6 0 6 8t-6 8q-7 0 -7 -8t7 -8zM218 218q6 0 6 8t-6 8q-7 0 -7 -8t7 -8
zM277 64q6 0 6 8t-6 8t-6 -8t6 -8zM293 30q4 1 4 5q0 2 -4 3.5t-4 -3.5t4 -5zM301 129q4 1 4 4t-4 4t-4 -4t4 -4zM181 194v8h-8zM103 113q0 -7 2 -10.5t11 -3.5q6 0 12 4t6 10q0 5 -6 9t-12 4q-9 0 -11 -3.5t-2 -9.5zM213 458q7 0 7 8t-7 8q-6 0 -6 -8t6 -8zM157 498
q6 0 6 8t-6 8q-7 0 -7 -8t7 -8zM92 482q6 0 6 8t-6 8q-7 0 -7 -8t7 -8zM128 376q7 0 7 8t-7 8q-6 0 -6 -8t6 -8zM76 441q3 1 3 5q0 2 -4 3.5t-4 -3.5t5 -5zM185 360q-1 4 -5 4q-2 0 -3.5 -4t3.5 -4q6 0 5 4zM67 547q4 1 4 4t-4 4t-4 -4t4 -4zM312 516q-6 0 -6 -8t6 -8t6 8
t-6 8zM334 467h9v8zM271 467h8l-8 8v-8zM528 55q6 0 6 8t-6 8q-7 0 -7 -8t7 -8zM649 79q6 0 6 8t-6 8t-6 -8t6 -8zM665 38q4 1 4 5q0 2 -4 3.5t-4 -3.5t4 -5zM664 150q4 1 4 4t-4 4t-4 -4t4 -4zM348 513q-6 0 -6 -8t6 -8t6 8t-6 8zM387 554q-4 0 -4 -5t4 -3.5t4 3.5
q0 4 -4 5zM387 448q-4 1 -4 -4t4 -4t4 4t-4 4zM625 511q0 -6 1.5 -7.5t9.5 -1.5q6 0 7 2t1 7t-1 8t-7 3q-8 0 -9.5 -3t-1.5 -8zM690 497q7 0 7 8t-7 8q-6 0 -6 -8t6 -8zM634 537q6 0 6 8zM627 545q0 -8 7 -8zM569 521q6 0 6 8t-6 8q-7 0 -7 -8t7 -8zM553 480q3 1 3 5
q0 2 -4 3.5t-4 -3.5t5 -5zM105 240q-7 0 -7 -8t7 -8q6 0 6 8t-6 8zM89 281q-5 0 -5 -5t4 -3.5t4 3.5q0 3 -3 5zM174 178q-6 0 -6 -8t6 -8q7 0 7 8t-7 8zM219 194q1 4 -5 4q-5 0 -3.5 -4t3.5 -4q4 0 5 4zM418 92q-6 0 -6 -8t6 -8q7 0 7 8t-7 8zM475 108q1 4 -5 4
q-5 0 -3.5 -4t3.5 -4q4 0 5 4z" />
    <glyph glyph-name="e" unicode="e" horiz-adv-x="710" 
d="M680 0v166h-411v42h260l75 158h-335v44h411v166h-650v-576h650zM368 32q-1 -4 -5 -4q-2 0 -3.5 4t3.5 4q6 0 5 -4zM530 32q-1 -4 -5 -4q-2 0 -3.5 4t3.5 4q6 0 5 -4zM611 69q6 0 6 -8t-6 -8t-6 8t6 8zM552 87q20 0 20 -20q-20 0 -20 20zM441 96q0 13 10 13q11 0 11 -13
q0 -11 -11 -11q-10 0 -10 11zM352 117h8v-8h-8v8zM579 134l3 1q1 0 3 -0.5l2 -0.5q5 -3 8 -8h-16v8zM368 141q6 0 6 -8t-6 -8t-6 8t6 8zM283 493q4 -1 4 -5q0 -2 -4 -3.5t-4 3.5q0 6 4 5zM73 493q-2 -5 -5 -5q-2 0 -3.5 4t3.5 4q6 0 5 -3zM95 533h10v-16q-10 7 -10 16z
M194 516l12 -8l-15 -4zM451 293q1 0 2.5 0.5l1.5 0.5q1 0 2.5 -0.5l1.5 -0.5q8 -2 9 -8q-6 -10 -17 -10v18zM208 298q7 0 7 -8q0 -9 -7 -9q-6 0 -6 9q0 8 6 8zM168 314h8v-8zM338 330q6 0 6 -8t-6 -8t-6 8t6 8zM208 338q7 0 7 -8t-7 -8q-6 0 -6 8t6 8zM468 341l3 1
q7 0 11 -5t4 -12h-18v16zM524 338q7 0 7 -8t-7 -8q-6 0 -6 8t6 8zM80 55q4 -1 4 -5q0 -2 -4 -3.5t-4 3.5q0 6 4 5zM121 71h8v-8h-8v8zM88 95h9v-8zM113 136q6 0 6 -8t-6 -8q-7 0 -7 8t7 8zM129 160q4 -1 4 -4q0 -2 -4.5 -4t-4.5 4t5 4zM145 184h8v-8h-8v8zM105 249q6 0 6 -8
t-6 -8q-7 0 -7 8t7 8zM129 282q-2 -5 -5 -5q-2 0 -3.5 4t3.5 4q6 0 5 -3zM160 372q6 0 6 -8t-6 -8t-6 8t6 8zM87 396q4 -1 4 -4t-4 -4t-4 4t4 4zM103 461q7 0 7 -8t-7 -8q-6 0 -6 8t6 8zM103 493h8v-8h-8v8zM627 468q6 0 6 -8t-6 -8t-6 8t6 8zM575 481q10 0 11.5 -2.5
t1.5 -12.5q-10 0 -11.5 2.5t-1.5 12.5zM595 533l3 1q1 0 3 -0.5l2 -0.5q5 -3 8 -8h-16v8zM362 465q1 0 2.5 0.5l1.5 0.5q1 0 2.5 -0.5l1.5 -0.5q8 -2 9 -8q-6 -10 -17 -10v18zM379 513l3 1q7 0 11 -5t4 -12h-18v16zM435 505q7 0 7 -8t-7 -8q-6 0 -6 8t6 8zM353 257
q4 -1 4 -4t-4 -4t-4 4t4 4zM272 306l8 -8l-8 -8v16zM369 322q7 0 7 -8t-7 -8q-6 0 -6 8t6 8zM242 76q7 0 7 -8t-7 -8q-6 0 -6 8t6 8zM242 108h8v-8h-8v8z" />
    <glyph glyph-name="f" unicode="f" horiz-adv-x="694" 
d="M595 411h-326v-45h314v-158h-314v-208h-239v495q0 43 25.5 62t62.5 19h561zM235 303q1 4 -5 4q-5 0 -3.5 -4t3.5 -4q4 0 5 4zM97 328q-6 0 -6 -9q0 -8 6 -8q7 0 7 8q0 9 -7 9zM219 400v-8h8v8h-8zM122 433q-7 0 -7 -8t7 -8q6 0 6 8t-6 8zM228 441q-6 0 -6 -8t6 -8t6 8
t-6 8zM162 465q-4 1 -4 -4t4 -4t4 4t-4 4zM84 514v-16l8 8zM178 530q-6 0 -6 -8t6 -8q7 0 7 8t-7 8zM169 396v-8h8v8h-8zM513 470q-4 1 -4 -5q0 -5 4 -3.5t4 3.5q0 4 -4 5zM303 470q1 3 -5 3q-5 0 -3.5 -4t3.5 -4q3 0 5 5zM325 510q0 -9 10 -16v16h-10zM392 502v-8h8z
M181 130q-6 0 -6 -9q0 -8 6 -8q7 0 7 8q0 9 -7 9zM133 138v-8h8v8h-8zM206 235q-7 0 -7 -8t7 -8q6 0 6 8t-6 8zM133 259q-7 0 -7 -8t7 -8q6 0 6 8t-6 8zM457 275v-18q11 0 17 10q-2 7 -9 8l-1.5 0.5t-2.5 0.5l-1.5 -0.5t-2.5 -0.5zM344 307q-6 0 -6 -8t6 -8t6 8t-6 8z
M474 323v-16h18q0 7 -4 12t-11 5zM530 315q-6 0 -6 -8t6 -8q7 0 7 8t-7 8zM86 56q-7 0 -7 -8t7 -8q6 0 6 8t-6 8zM126 72q-4 1 -4 -5q0 -5 4 -3.5t4 3.5q0 4 -4 5zM102 80q-5 2 -5 -4t4.5 -4t4.5 4q0 3 -4 4zM118 104v-8h8v8h-8zM78 169q-7 0 -7 -8t7 -8q6 0 6 8t-6 8z
M102 202q1 3 -5 3q-5 0 -3.5 -4t3.5 -4q3 0 5 5zM466 518q-7 0 -7 -8t7 -8q6 0 6 8t-6 8zM579 526q-6 0 -6 -8t6 -8t6 8t-6 8zM428 542q-7 0 -7 -8t7 -8q6 0 6 8t-6 8zM506 550q-4 1 -4 -4t4 -4t4 4t-4 4zM214 54v-8h8z" />
    <glyph glyph-name="g" unicode="g" 
d="M281 125q6 0 6 -8t-6 -8q-7 0 -7 8t7 8zM264 93q7 0 7 -8q0 -9 -7 -9q-6 0 -6 9q0 8 6 8zM329 52v-8h-8v8h8zM664 193q4 -1 4 -4q0 -2 -4 -3.5t-4 3.5t4 4zM632 185q6 0 6 -8t-6 -8t-6 8t6 8zM680 96q-6 0 -6 8t6 -8zM648 112l-8 -8v8h8zM113 340v-8l-8 8h8zM178 324v-9
h-9v9h9zM80 299q7 0 7 -8t-7 -8q-6 0 -6 8t6 8zM113 251q-2 -5 -5 -5q-2 0 -3.5 4t3.5 4q6 0 5 -3zM80 162v-9l-8 9h8zM30 90q0 -21 9.5 -38t24.5 -28.5t34 -17.5t37 -6h515q18 0 37 6t34 17.5t24.5 28.5t9.5 38v276h-367l75 -157h53v-43h-247v244h486v166h-620
q-18 0 -37 -6t-34 -17.5t-24.5 -28.5t-9.5 -38v-396zM538 476q6 0 6 -9q0 -8 -6 -8q-7 0 -7 8q0 9 7 9zM586 484q7 0 7 -8q0 -9 -7 -9q-6 0 -6 9q0 8 6 8zM477 518q7 0 7 -8t-7 -8q-6 0 -6 8t6 8zM708 484q6 0 6 -8q0 -9 -6 -9t-6 9q0 8 6 8zM708 524q6 0 6 -8t-6 -8t-6 8
t6 8zM619 492q-2 -5 -5 -5q-2 0 -3.5 4t3.5 4q6 0 5 -3zM234 477q7 0 7 -8t-7 -8q-6 0 -6 8t6 8zM163 299q7 0 7 -8t-7 -8q-6 0 -6 8t6 8zM123 453q6 0 6 -8t-6 -8t-6 8t6 8zM99 388q4 1 4 -4t-4 -4t-4 4t4 4zM107 494q4 0 4 -5t-4 -3.5t-4 3.5q0 4 4 5zM212 323l8 -8h-8v8z
M634 315q0 -7 -2 -10t-12 -3q-13 0 -13 13t13 13q10 0 12 -3t2 -10zM161 95q0 -17 -14 -17q-9 0 -11.5 4.5t-2.5 12.5t2.5 12t11.5 4q14 0 14 -16zM696 210q-6 0 -6 8t6 8q7 0 7 -8t-7 -8zM575 234q-6 0 -6 8t6 8t6 -8t-6 -8zM551 299q-4 1 -4 4t4 4t4 -4t-4 -4zM559 193
q-4 1 -4 5q0 2 4 3.5t4 -3.5t-4 -5zM511 125q6 0 6 -8t-6 -8q-7 0 -7 8t7 8zM567 48q6 0 6 -8t-6 -8q-7 0 -7 8t7 8zM540 85q7 0 7 -8t-7 -8q-6 0 -6 8t6 8zM510 64q-1 4 5 4q5 0 3.5 -4t-3.5 -4q-4 0 -5 4zM328 495q-7 0 -7 8t7 8q6 0 6 -8t-6 -8zM265 516q1 4 5 4
q2 0 3.5 -4t-3.5 -4q-6 0 -5 4zM396 104q6 0 6 -8q0 -9 -6 -9t-6 9q0 8 6 8zM477 330q7 0 7 -8t-7 -8q-6 0 -6 8t6 8zM164 183q6 0 6 -8q0 -9 -6 -9t-6 9q0 8 6 8zM409 470q6 0 6 -8t-6 -8q-7 0 -7 8t7 8z" />
    <glyph glyph-name="h" unicode="h" horiz-adv-x="757" 
d="M269 0v206h219v-206h239v576h-239v-294q-32 51 -79 70t-102 19h-38v205h-239v-576h239zM291 293q6 0 6 -8q0 -9 -6 -9t-6 9q0 8 6 8zM291 331q6 0 6 -8t-6 -8t-6 8t6 8zM416 248q-6 0 -6 8t6 8t6 -8t-6 -8zM169 293q7 0 7 -8q0 -9 -7 -9h-3v16q1 1 3 1zM376 296
q-4 1 -4 5q0 2 4 3.5t4 -3.5q0 -6 -4 -5zM202 301q-2 -5 -5 -5q-2 0 -3.5 4t3.5 4q6 0 5 -3zM571 195q-6 0 -6 8t6 8t6 -8t-6 -8zM97 527q1 0 2.5 0.5l1.5 0.5q1 0 2.5 -0.5l1.5 -0.5q6 -2 8 -8q-4 -10 -16 -10v18zM154 357q6 0 6 -8q0 -9 -6 -9q-7 0 -7 9q0 8 7 8zM79 413
h18l-8 -16q-10 7 -10 16zM186 527q6 0 6 -8t-6 -8t-6 8t6 8zM178 324q10 -4 10 -16h-10v16zM178 470q1 0 2.5 0.5l1.5 0.5q1 0 2.5 -0.5l1.5 -0.5q6 -2 8 -8h-16v8zM146 251h8v-8h-8v8zM154 486q3 -2 3 -4t-4 -3.5t-4 3.5q0 6 5 4zM692 156q-1 0 -2.5 -0.5l-1.5 -0.5
q-1 0 -2.5 0.5l-1.5 0.5q-6 2 -8 8v1q2 5 4 7t8 2zM608 174q-6 0 -6 8t6 8t6 -8t-6 -8zM632 37q-6 0 -6 8t6 8t6 -8t-6 -8zM616 231q-1 0 -2.5 -0.5l-1.5 -0.5q-1 0 -2.5 0.5l-1.5 0.5q-6 2 -8 8h16v-8zM592 85q-4 1 -4 5q0 2 4 3.5t4 -3.5q0 -6 -4 -5zM640 215q-3 1 -3 4
q0 2 4 3.5t4 -3.5q0 -6 -5 -4zM118 110q-6 0 -6 8q0 9 6 9q7 0 7 -9q0 -8 -7 -8zM193 54h-18l8 16q10 -7 10 -16zM94 143q-10 4 -10 16h10v-16zM126 216h-8v8h8v-8zM215 167q-3 1 -3 5q0 2 4 3.5t4 -3.5q0 -7 -5 -5zM647 315h8h-8zM636 478q-1 0 -2.5 -0.5l-1.5 -0.5
q-1 0 -2.5 0.5l-1.5 0.5q-6 2 -8 8q4 10 16 10v-18zM547 478q-6 0 -6 8t6 8t6 -8t-6 -8zM571 341q-6 0 -6 8t6 8t6 -8t-6 -8zM555 535q-1 0 -2.5 -0.5l-1.5 -0.5q-1 0 -2.5 0.5l-1.5 0.5q-6 2 -8 8h16v-8zM531 389q-4 1 -4 5q0 2 4 3.5t4 -3.5q0 -6 -4 -5zM579 519
q-3 1 -3 4q0 2 4 3.5t4 -3.5q0 -6 -5 -4zM655 429q6 0 6 -8q0 -9 -6 -9q-7 0 -7 9q0 8 7 8zM679 396q10 -4 10 -16h-10v16z" />
    <glyph glyph-name="i" unicode="i" horiz-adv-x="299" 
d="M269 0h-239v576h239v-576zM126 205v-16h10q0 12 -10 16zM102 238q-7 0 -7 -8q0 -9 7 -9q6 0 6 9q0 8 -6 8zM126 351v-8h16q-2 6 -8 8l-1.5 0.5t-2.5 0.5l-1.5 -0.5t-2.5 -0.5zM102 367q-5 2 -5 -4q0 -5 4 -3.5t4 3.5t-3 4zM134 408q-6 0 -6 -8t6 -8t6 8t-6 8zM150 497
q-4 1 -4 -5q0 -5 4 -3.5t4 3.5q0 4 -4 5zM110 545q-6 0 -6 -8t6 -8t6 8t-6 8zM191 82q-6 0 -6 -8t6 -8q7 0 7 8t-7 8zM216 114q1 4 -5 4q-5 0 -3.5 -4t3.5 -4q4 0 5 4zM115 127q-6 0 -6 -8t6 -8t6 8t-6 8zM139 160q-4 1 -4 -5q0 -5 4 -3.5t4 3.5q0 4 -4 5zM181 443l5 -11
q8 0 14 2t6 11q0 11 -13 11q-1 0 -3 -0.5t-4 -0.5zM200 317q-7 0 -7 -8t7 -8q6 0 6 8t-6 8zM220 356v1q0 3 -4 3t-4 -4q0 -5 4 -5q2 0 4 5zM197 166q-5 2 -5 -5q0 -5 4 -3.5t4 3.5q0 3 -3 5zM217 260q0 -9 10 -16l4 16h-14zM164 304q-4 1 -4 -5q0 -5 4 -3.5t4 3.5q0 4 -4 5z
M93 48q-6 0 -6 -8t6 -8t6 8t-6 8zM117 81q-4 1 -4 -5q0 -5 4 -3.5t4 3.5q0 4 -4 5zM79 428v1q0 3 -4 3t-4 -4q0 -5 4 -5q2 0 4 5zM219 529v1q0 3 -4 3t-4 -4q0 -5 4 -5q2 0 4 5z" />
    <glyph glyph-name="j" unicode="j" horiz-adv-x="616" 
d="M104 165l-84 -165h465q18 0 36.5 6t32.5 17.5t23 28.5t9 38v486h-239v-411h-243zM202 50v-8h-8zM104 50l9 -8h-9v8zM161 91q6 0 6 -8t-6 -8t-6 8t6 8zM372 107q6 0 6 -8t-6 -8q-7 0 -7 8t7 8zM315 123q-1 4 5 4q5 0 3.5 -4t-3.5 -4q-4 0 -5 4zM463 53q7 0 7 -8t-7 -8
q-6 0 -6 8t6 8zM528 69q7 0 7 -8t-7 -8q-6 0 -6 8t6 8zM464 85q0 -8 -2.5 -12.5t-10.5 -4.5q-15 0 -15 17q0 18 15 18q8 0 10.5 -5t2.5 -13zM407 93q6 0 6 -8t-6 -8q-7 0 -7 8t7 8zM544 110q5 0 5 -5t-4 -3.5t-4 3.5q0 3 3 5zM421 400l5 -17q0 -6 -2.5 -8.5t-11.5 -2.5
q-14 0 -12 6.5t2 18.5zM477 501q4 1 4 -5q0 -5 -4 -3.5t-4 3.5q0 4 4 5zM412 533l-8 -8v8h8zM541 541q5 2 5 -4q0 -5 -4 -3.5t-4 3.5q0 4 3 4zM470 242q4 1 4 -4t-4 -3.5t-4 3.5q0 4 4 4zM413 299l-8 -8l-8 8l8 8zM445 380q7 0 7 -8t-7 -8q-6 0 -6 8t6 8zM478 413q6 0 6 -9
q0 -8 -6 -8q-7 0 -7 8q0 9 7 9zM497 156q6 0 6 -8t-6 -8q-7 0 -7 8t7 8zM440 172q-1 4 5 4q5 0 3.5 -4t-3.5 -4q-4 0 -5 4zM523 333v-8h-8zM296 31v-8h-8zM199 121q5 0 5 -5t-4 -3.5t-4 3.5q0 3 3 5zM135 90q7 0 7 -8t-7 -8q-6 0 -6 8t6 8zM151 131q5 0 5 -5t-4 -3.5t-4 3.5
q0 3 3 5zM537 277q-1 4 5 4q5 0 3.5 -4t-3.5 -4q-4 0 -5 4z" />
    <glyph glyph-name="k" unicode="k" horiz-adv-x="758" 
d="M168 44q-5 2 -5 -4q0 -5 4 -3.5t4 3.5t-3 4zM179 176h14q-2 7 -6 8l-1.5 0.5t-2.5 0.5l-1.5 -0.5t-2.5 -0.5v-8zM187 241q-6 0 -6 -8t6 -8t6 8t-6 8zM98 223q12 0 16 10q-2 6 -8 8l-1.5 0.5t-2.5 0.5l-1.5 -0.5t-2.5 -0.5v-18zM97 86q1 4 -5 4q-5 0 -3.5 -4t3.5 -4
q4 0 5 4zM212 192q-4 1 -4 -5q0 -5 4 -3.5t4 3.5q0 4 -4 5zM186 157q-6 0 -6 -8t6 -8t6 8t-6 8zM72 54q-6 0 -6 -8t6 -8q7 0 7 8t-7 8zM505 494q-5 2 -5 -5q0 -5 4 -3.5t4 3.5q0 3 -3 5zM594 437h8v8h-8v-8zM626 502h10q0 12 -10 16v-16zM602 551q-7 0 -7 -8q0 -9 7 -9
q6 0 6 9q0 8 -6 8zM436 249q-4 -1 -2 -5q2 -2 7 -3.5t1 3.5q-2 6 -6 5zM529 56q-9 -5 -1 -16h10zM561 145l16 -16q7 7 2 16h-18zM535 89q-7 0 -1 -8q3 -9 10 -9q6 0 3 9q-6 8 -12 8zM396 294q-4 1 -4 -5q0 -5 4 -3.5t4 3.5q0 4 -4 5zM356 342q-6 0 -6 -8t6 -8t6 8t-6 8z
M485 298q-4 -7 -4 -9t-5 -10l10 -17l11 17q-5 8 -6.5 10t-5.5 9zM629 365q18 0 36 -5t32 -15.5t22.5 -26.5t8.5 -37v-281h-239v200h-35q-27 0 -53.5 3.5t-50.5 13t-44.5 25.5t-36.5 42v-284h-239v576h239v-242h20l164 242h276l-139 -211h39zM380 327q-6 0 -6 -8t6 -8t6 8
t-6 8zM445 360q-7 0 -7 -8q0 -9 7 -9q6 0 6 9q0 8 -6 8zM388 376v-8h8v8h-8zM445 400q-7 0 -7 -8t7 -8q6 0 6 8t-6 8zM164 439l9 -8v16zM674 49l1 -3q1 -7 8 -9q0 1 0.5 2.5l0.5 1.5q0 1 -0.5 3l-0.5 2q0 2 -3 4.5t-5 3.5q0 -1 -0.5 -2.5t-0.5 -2.5zM140 496q-6 0 -6 -8
t6 -8t6 8t-6 8zM83 537q1 3 -4 3t-4 -4t4 -4q4 0 4 5zM559 223q-7 0 -7 -8q0 -9 7 -9q6 0 6 9q0 8 -6 8zM680 247l-8 -8h8v8zM559 271v-8l8 8h-8zM607 328q1 4 -4 4q-6 0 -4 -4.5t4 -4.5t4 5zM147 226v-8h8zM91 372l8 -8v8h-8zM99 420v-8h8zM165 313q-4 1 -4 -5q0 -5 4 -3.5
t4 3.5q0 4 -4 5zM157 360q-6 0 -6 -8t6 -8q7 0 7 8t-7 8zM214 360q-6 0 -6 -8t6 -8t6 8t-6 8zM186 522l-8 -8h8v8zM501 460v-16h10q0 9 -10 16zM423 464l8 -8v8h-8zM549 476q-4 1 -4 -4q0 -6 4 -4t4 4q0 3 -4 4zM645 186q-6 0 -6 -8t6 -8t6 8t-6 8zM683 94l9 -8v16z" />
    <glyph glyph-name="l" unicode="l" horiz-adv-x="616" 
d="M99 269l-11 -12v16zM225 46h-9v10zM119 150q3 -2 3 -5q0 -2 -4 -3.5t-4 3.5q0 7 5 5zM512 47l-8 -8v8h8zM189 441l-8 -8v8h8zM325 50q6 0 6 -8t-6 -8t-6 8t6 8zM207 379h8v-8h-8v8zM90 537l-13 -5v13zM81 497l-4 -12l-8 12h12zM116 391l-8 -8v8h8zM124 343v-8l-8 8h8z
M92 335h-8v8zM269 165v411h-239v-490q0 -43 28.5 -64.5t65.5 -21.5h472l-84 165h-243zM443 73q6 0 6 -8t-6 -8t-6 8t6 8zM478 127h8v-8h-8v8zM163 186q4 -1 4 -4t-4 -4t-4 4t4 4zM187 211q7 0 7 -9q0 -8 -7 -8q-6 0 -6 8q0 9 6 9zM139 219l8 -8h-8v8zM212 235q3 -2 3 -5
q0 -2 -4 -3.5t-4 3.5q0 7 5 5zM171 243q4 -1 4 -5q0 -2 -4 -3.5t-4 3.5q0 6 4 5zM149 503q6 0 6 -8t-6 -8q-7 0 -7 8t7 8zM213 536v-25q-8 3 -9 10t-1 13v2h10zM301 113q6 0 6 -8t-6 -8t-6 8t6 8zM333 121q7 0 7 -8t-7 -8q-6 0 -6 8t6 8zM154 86q3 0 3 -4q0 -2 -4 -3.5
t-4 3.5q0 6 5 4zM85 103h8v-16h-8v16zM106 427q0 -6 -1.5 -9t-8.5 -3q-13 0 -13 12q0 13 13 13q7 0 8.5 -3.5t1.5 -9.5z" />
    <glyph glyph-name="m" unicode="m" horiz-adv-x="923" 
d="M716 341l-8 -8v8h8zM158 51l-8 -8v8h8zM284 371v-8h-8v8h8zM623 396l-13 5q0 9 2 11t11 2v-18zM583 339v-16q-10 4 -10 16h10zM118 362v-8l-8 8h8zM151 354q10 -7 10 -16h-10v16zM122 328q-1 -4 -4 -4q-2 0 -4 4t4 4q5 0 4 -4zM108 104q3 -2 3 -5q0 -2 -4 -3.5t-4 3.5
q0 7 5 5zM91 72q7 0 7 -9q0 -8 -7 -8q-6 0 -6 8q0 9 6 9zM808 297l-8 -8v8h8zM800 249q6 0 6 -8q0 -9 -6 -9q-7 0 -7 9q0 8 7 8zM245 529l-8 -8v8h8zM91 529v-8h-8v8h8zM140 513q6 0 6 -8q0 -9 -6 -9t-6 9q0 8 6 8zM855 52q6 0 6 -8t-6 -8t-6 8t6 8zM506 210v-8l-8 8h8z
M586 209v-9h-9v9h9zM488 184q7 0 7 -8t-7 -8q-6 0 -6 8t6 8zM521 136q-2 -5 -5 -5q-2 0 -3.5 4t3.5 4q6 0 5 -3zM752 137v-16q-10 4 -10 16h10zM760 99q7 0 7 -8q0 -7 -7 -7q-6 0 -6 7q0 8 6 8zM727 72q7 0 7 -8t-7 -8q-6 0 -6 8t6 8zM398 266h-8v8zM390 226v-8l-8 8h8z
M446 72h-8v8zM198 282l-8 -8v8h8zM311 250h-8l8 8v-8zM190 234q6 0 6 -8q0 -9 -6 -9q-7 0 -7 9q0 8 7 8zM246 488q4 -1 4 -4q0 -2 -4 -4t-4 4q0 5 4 4zM198 472q10 -7 10 -16h-10v16zM700 522q3 -2 3 -5q0 -2 -4 -3.5t-4 3.5q0 7 5 5zM683 490q4 0 8 -4t4 -9q0 -4 -4.5 -9
t-8.5 -5q-3 0 -7 5t-4 9q0 5 4.5 9t7.5 4zM772 473q4 -1 4 -4q0 -2 -4 -3.5t-4 3.5t4 4zM805 465q3 -2 3 -4t-4 -3.5t-4 3.5q0 6 5 4zM748 457v-8h-8v8h8zM30 576v-576h241v197l113 -197h162l116 197v-197h241v576h-273l-165 -300l-162 300h-273zM828 175q7 0 7 -8t-7 -8
q-6 0 -6 8t6 8zM93 177q4 -1 4 -4q0 -2 -4 -4t-4 4q0 5 4 4zM128 474q6 0 6 -8q0 -9 -6 -9q-7 0 -7 9q0 8 7 8zM377 134v-8h-8v8h8zM467 58q7 0 7 -8t-7 -8q-6 0 -6 8t6 8zM763 406q7 0 7 -8t-7 -8q-6 0 -6 8t6 8zM851 531v-8h-8v8h8zM334 333q2 -1 6.5 -2t4.5 -3t-5.5 -5.5
t-7.5 -3.5t-2.5 3.5t-0.5 5.5q0 5 3 5h2zM220 119l-8 -8v8h8zM436 165q4 0 8 -4t4 -9q0 -4 -4.5 -9t-8.5 -5q-3 0 -7 5t-4 9q0 5 4.5 9t7.5 4z" />
    <glyph glyph-name="n" unicode="n" horiz-adv-x="770" 
d="M546 543q-6 0 -6 -8t6 -8t6 8t-6 8zM135 227q0 8 -3 10.5t-10 2.5q-9 0 -11 -2.5t-2 -10.5t2 -11t11 -3q13 0 13 14zM238 576l263 -249v249h239v-576h-208l-263 249v-249h-239v576h208zM586 365v-3q0 -5 0.5 -6t5.5 -1l9 2q2 0 2 2v4v2l-3 7h-3q-8 0 -9.5 -0.5t-1.5 -3.5
v-3zM636 404v-17h8v17h-8zM692 493v-8h8v8h-8zM603 501q-7 0 -7 -8t7 -8q6 0 6 8t-6 8zM627 533v-8h8v8h-8zM113 417q-6 0 -6 -8t6 -8t6 8t-6 8zM178 450q-7 0 -7 -8q0 -9 7 -9q6 0 6 9q0 8 -6 8zM121 466v-8h8v8h-8zM275 466l8 -8v8h-8zM161 490q-7 0 -7 -8t7 -8q6 0 6 8
t-6 8zM694 147l8 -8l9 8h-17zM523 167l1 -3q1 -7 8 -9q0 1 0.5 2.5l0.5 1.5q0 1 -0.5 3l-0.5 2q-2 6 -8 8q0 -1 -0.5 -2.5t-0.5 -2.5zM605 245l8 -9v9h-8zM392 277q-7 0 -7 -8q0 -9 7 -9q6 0 6 9q0 8 -6 8zM370 350q-7 0 -7 -8t7 -8q6 0 6 8t-6 8zM184 334v-8h8v8h-8z
M249 350q-6 0 -6 -8t6 -8t6 8t-6 8zM225 350q0 4 -5 4q-4 0 -4 -3q0 -5 4 -5t5 4zM106 83q-6 0 -6 -8q0 -9 6 -9q7 0 7 9q0 8 -7 8zM644 90q-7 0 -7 -8t7 -8q6 0 6 8t-6 8zM97 538l8 -8v8h-8zM137 153q-6 0 -6 -8t6 -8t6 8t-6 8zM113 282v-8h8zM207 57q-6 0 -6 -8t6 -8
q7 0 7 8t-7 8zM232 86q-7 0 -7 -9q0 -8 7 -8q6 0 6 8q0 9 -6 9zM192 231l1 -3q1 -7 8 -9q0 1 0.5 2.5l0.5 1.5q0 1 -0.5 3l-0.5 2q-2 6 -8 8q0 -1 -0.5 -2.5t-0.5 -2.5zM508 257q-6 0 -6 -8t6 -8t6 8t-6 8zM678 288l8 -8v8h-8zM543 62q1 4 -5 4q-5 0 -3.5 -4t3.5 -4q4 0 5 4
zM494 208q-6 0 -6 -8t6 -8q7 0 7 8t-7 8zM462 273q-6 0 -6 -8t6 -8t6 8t-6 8zM459 170q-6 0 -6 -8t6 -8t6 8t-6 8zM467 219v-8h8v8h-8zM83 137q-6 0 -6 -8t6 -8t6 8t-6 8zM651 192v-8h8v8h-8zM562 443q-6 0 -6 -8t6 -8q7 0 7 8t-7 8zM303 303q-6 0 -6 -8t6 -8q7 0 7 8t-7 8z
M686 49v-8h8v8h-8z" />
    <glyph glyph-name="o" unicode="o" 
d="M516 167h-247v243h247v-243zM755 486q0 21 -9.5 38t-24.5 28.5t-34 17.5t-37 6h-515q-18 0 -37 -6t-34 -17.5t-24.5 -28.5t-9.5 -38v-396q0 -21 9.5 -38t24.5 -28.5t34 -17.5t37 -6h515q18 0 37 6t34 17.5t24.5 28.5t9.5 38v396zM206 316q6 0 6 -8t-6 -8q-7 0 -7 8t7 8z
M141 332q6 0 6 -8t-6 -8q-7 0 -7 8t7 8zM125 373q3 -2 3 -5q0 -2 -4 -3.5t-4 3.5t5 5zM100 74q0 8 2 9.5t9 1.5q9 0 10.5 -1.5t1.5 -9.5q0 -7 -1.5 -8.5t-10.5 -1.5q-7 0 -9 1t-2 9zM177 201q-6 0 -6 8t6 8t6 -8t-6 -8zM193 160q-4 0 -4 5t4 3.5t4 -3.5q0 -4 -4 -5zM253 67
q-6 0 -6 8t6 8t6 -8t-6 -8zM301 116h14l-5 -13zM212 116h8l-8 -8v8zM619 178q6 0 6 -8t-6 -8q-7 0 -7 8t7 8zM683 267q4 -1 4 -4t-4 -4t-4 4t4 4zM570 202v-8h-8zM666 308q-6 0 -6 8t6 8t6 -8t-6 -8zM580 371q-4 0 -4 5t4 3.5t4 -3.5q0 -4 -4 -5zM588 477q-4 -1 -4 4t4 4
t4 -4t-4 -4zM491 76q-7 0 -7 8t7 8q6 0 6 -8t-6 -8zM429 60h14l-1 -13zM114 348q6 0 6 -8t-6 -8q-7 0 -7 8t7 8zM154 502q6 0 6 -8t-6 -8t-6 8t6 8zM94 522q4 -1 4 -5q0 -2 -4 -3.5t-4 3.5t4 5zM178 437q4 -1 4 -4t-4 -4t-4 4t4 4zM674 115q7 0 7 -8t-7 -8q-6 0 -6 8t6 8z
M650 80q6 0 6 -8t-6 -8q-7 0 -7 8t7 8zM626 419q0 8 2.5 12t11.5 4q7 0 14 -4.5t7 -11.5q0 -6 -7 -10.5t-14 -4.5q-9 0 -11.5 4t-2.5 11zM691 421q-6 0 -6 8t6 8q7 0 7 -8t-7 -8zM635 461q-7 0 -7 8t7 8q6 0 6 -8t-6 -8zM73 226h9v-8zM250 534q-4 0 -4 5t4 3.5t4 -3.5
q0 -4 -4 -5zM588 246v-8h-8zM400 460q-7 0 -7 8t7 8q6 0 6 -8t-6 -8zM444 509l15 4l-3 -14zM347 510q3 -2 3 -5q0 -2 -4 -3.5t-4 3.5t5 5zM538 525q-4 0 -4 5t4 3.5t4 -3.5q0 -4 -4 -5z" />
    <glyph glyph-name="p" unicode="p" horiz-adv-x="758" 
d="M629 151h-360v-151h-239v576h599q18 0 36 -5t32 -15.5t22.5 -26.5t8.5 -37v-257q0 -21 -8.5 -37t-22.5 -26.5t-32 -15.5t-36 -5zM489 410h-220v-183q32 51 81 70t104 19h35v94zM657 482q-6 0 -6 -8t6 -8q7 0 7 8t-7 8zM641 336q-6 0 -6 -8t6 -8q7 0 7 8t-7 8zM657 514
q-6 0 -6 -8t6 -8q7 0 7 8t-7 8zM625 352q1 4 -4 4q-6 0 -4 -4t4 -4q3 0 4 4zM625 287q-4 1 -4 -4t4 -3.5t4 3.5q0 3 -4 4zM625 385v-9l8 9h-8zM145 501q-7 0 -7 -8t7 -8q6 0 6 8t-6 8zM82 538q-6 0 -6 -8q0 -9 6 -9t6 9q0 8 -6 8zM267 517q-6 0 -6 -8q0 -9 6 -9t6 9
q0 8 -6 8zM228 538v-8h8v8h-8zM147 317q-6 0 -6 -8t6 -8t6 8t-6 8zM90 423v-8h8v8h-8zM179 350q-4 1 -4 -5q0 -5 4 -3.5t4 3.5q0 4 -4 5zM106 382q1 4 -4 4t-4 -4t4 -4t4 4zM237 197q-6 0 -6 -8q0 -9 6 -9q7 0 7 9q0 8 -7 8zM172 221q-6 0 -6 -8t6 -8q7 0 7 8t-7 8zM181 148
q-5 2 -5 -4t4 -4t4 4t-3 4zM205 245q-5 2 -5 -4q0 -5 4 -3.5t4 3.5t-3 4zM434 223q-6 0 -6 -8t6 -8t6 8t-6 8zM445 246q-4 1 -4 -5q0 -5 4 -3.5t4 3.5q0 4 -4 5zM424 258q1 4 -4 4t-4 -4t4 -4t4 4zM343 447v-8h8v8h-8zM408 463q-6 0 -6 -8t6 -8t6 8t-6 8zM384 463q0 4 -5 4
t-3.5 -4t3.5 -4q4 0 5 4zM286 488q-6 0 -6 -8q0 -9 6 -9q7 0 7 9q0 8 -7 8zM303 520q-7 0 -7 -8t7 -8q6 0 6 8t-6 8zM550 218q-6 0 -6 -9q0 -8 6 -8t6 8q0 9 -6 9zM639 218q-6 0 -6 -9q0 -8 6 -8t6 8q0 9 -6 9zM70 63q-10 -7 -10 -17h20q0 10 -10 17zM127 71q-7 0 -7 -8
t7 -8q6 0 6 8t-6 8zM135 111q1 4 -5 4q-5 0 -3.5 -4t3.5 -4q4 0 5 4zM561 457q-7 0 -7 -8q0 -9 7 -9q6 0 6 9q0 8 -6 8zM504 473v-8h8v8h-8zM561 497q-7 0 -7 -8t7 -8q6 0 6 8t-6 8zM228 40v-8h8v8h-8zM318 228v-8h8v8h-8z" />
    <glyph glyph-name="q" unicode="q" 
d="M341 81h-8l8 8v-8zM390 65q6 0 6 -8t-6 -8q-7 0 -7 8t7 8zM641 33h-8v8zM731 33h-9l9 8v-8zM642 207q-1 -4 -5 -4q-2 0 -3.5 4t3.5 4q6 0 5 -4zM674 82q6 0 6 -8t-6 -8t-6 8t6 8zM364 268q7 0 7 -8t-7 -8q-6 0 -6 8t6 8zM151 178q-4 -1 -4 4t4 4t4 -4t-4 -4zM160 72
q-5 0 -5 5t4 3.5t4 -3.5q0 -4 -3 -5zM176 113q-7 0 -7 8t7 8q6 0 6 -8t-6 -8zM241 129q-7 0 -7 8t7 8q6 0 6 -8t-6 -8zM297 89q-6 0 -6 8t6 8q7 0 7 -8t-7 -8zM412 472q-7 0 -7 8t7 8q6 0 6 -8t-6 -8zM458 451q-7 0 -7 8t7 8q6 0 6 -8t-6 -8zM311 481h-8l8 8v-8zM424 554
q4 -1 4 -4t-4 -4t-4 4t4 4zM360 465q6 0 6 -8t-6 -8q-7 0 -7 8t7 8zM559 374q4 -1 4 -4t-4 -4t-4 4t4 4zM681 301q-1 -4 -5 -4q-2 0 -3.5 4t3.5 4q6 0 5 -4zM568 480q3 -2 3 -5q0 -2 -4 -3.5t-4 3.5t5 5zM624 285q7 0 7 -8t-7 -8q-6 0 -6 8t6 8zM584 439q6 0 6 -8t-6 -8
q-7 0 -7 8t7 8zM649 423q6 0 6 -8t-6 -8q-7 0 -7 8t7 8zM705 463q7 0 7 -8t-7 -8q-6 0 -6 8t6 8zM413 246l-8 -8v8h8zM624 165v-8l-8 8h8zM503 246v-8l-9 8h9zM446 197q-6 0 -6 8t6 8t6 -8t-6 -8zM673 181q-7 0 -7 8t7 8q6 0 6 -8t-6 -8zM100 436q-4 -1 -4 4t4 4t4 -4t-4 -4
zM222 509q1 -4 -5 -4q-5 0 -3.5 4t3.5 4q4 0 5 -4zM109 330q-5 0 -5 5t4 3.5t4 -3.5q0 -4 -3 -5zM165 525q-6 0 -6 8t6 8q7 0 7 -8t-7 -8zM125 371q-7 0 -7 8t7 8q6 0 6 -8t-6 -8zM190 387q-7 0 -7 8t7 8q6 0 6 -8t-6 -8zM246 347q-6 0 -6 8t6 8q7 0 7 -8t-7 -8zM378 166
h-109v244h247v-119h-235zM755 486q0 21 -9.5 38t-24.5 28.5t-34 17.5t-37 6h-515q-18 0 -37 -6t-34 -17.5t-24.5 -28.5t-9.5 -38v-396q0 -21 9.5 -38t24.5 -28.5t34 -17.5t37 -6h672l-52 68v418zM537 73q6 0 6 -9q0 -8 -6 -8q-7 0 -7 8q0 9 7 9zM553 97q4 -1 4 -5
q0 -2 -4.5 -3.5t-4.5 3.5q0 7 5 5zM529 137q6 0 6 -8t-6 -8q-7 0 -7 8t7 8zM515 99h-8l8 8v-8zM584 486h8v-8h-8v8zM632 458q7 0 7 -8t-7 -8q-6 0 -6 8t6 8zM544 526h8v-8zM168 245h8v-8h-8v8zM135 251q7 0 7 -8t-7 -8q-6 0 -6 8t6 8zM134 285h8v-8zM87 108q6 0 6 -8t-6 -8
q-7 0 -7 8t7 8zM192 459q0 -7 -2 -10t-12 -3q-13 0 -13 13t13 13q10 0 12 -3t2 -10z" />
    <glyph glyph-name="r" unicode="r" horiz-adv-x="758" 
d="M627 533q-4 1 -4 -5q0 -5 4 -3.5t4 3.5q0 4 -4 5zM668 525q-7 0 -7 -8t7 -8q6 0 6 8t-6 8zM659 500q-4 1 -4 -4t4 -3.5t4 3.5q0 4 -4 4zM611 484q-6 0 -6 -8t6 -8t6 8t-6 8zM539 160q2 -6 8 -8q6 2 8 8l1 4q0 1 -0.5 3l-0.5 2q-2 6 -8 8q-6 -2 -8 -8l-0.5 -2t-0.5 -3z
M656 37q-6 0 -6 -8t6 -8q7 0 7 8t-7 8zM523 96q-7 0 -7 -8q0 -9 7 -9q6 0 6 9q0 8 -6 8zM549 287q1 4 -5 4q-5 0 -3.5 -4t3.5 -4q4 0 5 4zM419 271h16v8h-16v-8zM387 255q-10 -6 -10 -17h10v17zM425 223h17q-2 7 -9 8l-1.5 0.5t-2.5 0.5l-1.5 -0.5t-2.5 -0.5v-8zM379 191h8
v8h-8v-8zM109 207v8h-8zM142 199q-6 0 -6 -9q0 -8 6 -8t6 8q0 9 -6 9zM239 158q1 4 -4 4t-4 -4t4 -4t4 4zM190 166q-6 0 -6 -8t6 -8q7 0 7 8t-7 8zM100 126q0 -5 1 -9.5t8 -4.5q12 0 14 2.5t2 10.5q0 7 -2 11.5t-10 4.5q-13 0 -13 -15zM559 427q-4 1 -4 -5q0 -5 4 -3.5
t4 3.5q0 4 -4 5zM535 386q1 4 -5 4q-5 0 -3.5 -4t3.5 -4q4 0 5 4zM535 330q-6 0 -6 -8q0 -9 6 -9t6 9q0 8 -6 8zM575 305v8h-8zM559 257h8v8h-8v-8zM109 519h8v16h-8v-16zM188 510q2 -6 8 -8q6 2 8 8l1 4q0 1 -0.5 3l-0.5 2q-2 6 -8 8q-6 -2 -8 -8l-0.5 -2t-0.5 -3zM77 494
h8v8h-8v-8zM212 470q-6 0 -6 -8t6 -8q7 0 7 8t-7 8zM68 470q-2 1 -3 -2.5t-1 -5.5q0 -9 4 -8t4 8t-4 8zM172 446q-7 0 -7 -8q0 -9 7 -9q6 0 6 9q0 8 -6 8zM118 293h8v8h-8v-8zM629 151h-34l162 -151h-276l-192 182h-20v-182h-239v576h599q18 0 36 -5t32 -15.5t22.5 -26.5
t8.5 -37v-257q0 -21 -8.5 -37t-22.5 -26.5t-32 -15.5t-36 -5zM489 410h-220v-181q32 51 81 69t104 18h35v94zM397 450v-8h8v8h-8zM462 466q-6 0 -6 -8t6 -8t6 8t-6 8zM438 466q0 4 -5 4t-3.5 -4t3.5 -4q4 0 5 4zM340 491q-6 0 -6 -8q0 -9 6 -9q7 0 7 9q0 8 -7 8zM357 523
q-7 0 -7 -8t7 -8q6 0 6 8t-6 8zM626 349v-8l8 8h-8zM665 349q-6 0 -6 -8t6 -8q7 0 7 8t-7 8zM690 374q-7 0 -7 -9q0 -8 7 -8q6 0 6 8q0 9 -6 9zM121 45v-16h8v16h-8zM154 62q-5 2 -5 -5q0 -5 4 -3.5t4 3.5q0 3 -3 5zM170 107q-6 0 -6 -8t6 -8t6 8t-6 8zM663 214q1 4 -4 4
t-3.5 -4.5t3.5 -4.5t4 5zM477 128v-17h8v17h-8zM558 38h8v8h-8v-8zM193 357q-4 1 -4 -4t4 -3.5t4 3.5q0 4 -4 4zM123 352q-7 0 -7 -8t7 -8t7 8t-7 8z" />
    <glyph glyph-name="s" unicode="s" horiz-adv-x="714" 
d="M506 317h8v8zM604 317q-7 0 -7 -8t7 -8q6 0 6 8t-6 8zM547 309q-6 0 -6 -8t6 -8t6 8t-6 8zM537 134q-4 1 -4 -5q0 -5 4 -3.5t4 3.5q0 4 -4 5zM546 102q-5 0 -5 -5t4 -3.5t4 3.5q0 3 -3 5zM529 77q-6 0 -6 -8t6 -8q7 0 7 8t-7 8zM481 61h10q0 12 -10 16v-16zM432 45h10
q0 9 -10 16v-16zM159 95q10 7 10 16h-10v-16zM110 71h10q0 8 -10 14v-14zM207 63h9v8h-9v-8zM256 55h8l-8 8v-8zM78 63q-6 0 -6 -8q0 -9 6 -9t6 9q0 8 -6 8zM415 499q-5 2 -5 -5q0 -5 4 -3.5t4 3.5q0 3 -3 5zM326 491q-3 0 -9 -3t-8 -5h25q0 2 -3 5t-5 3zM277 474
q-5 2 -5 -4q0 -5 4.5 -4t4.5 4q0 4 -4 4zM116 513q1 4 -4 4t-3.5 -4t3.5 -4q3 0 4 4zM173 489q1 4 -4 4q-6 0 -4 -4.5t4 -4.5t4 5zM157 448q-6 0 -6 -8q0 -7 6 -7t6 7q0 8 -6 8zM111 400h8v8zM214 400q-7 0 -7 -8t7 -8q6 0 6 8t-6 8zM157 392q-6 0 -6 -8t6 -8t6 8t-6 8z
M471 256q-7 0 -7 -8t7 -8q6 0 6 8t-6 8zM438 240v8h-8zM549 226q0 -8 2 -18t12 -10q2 0 3.5 0.5l1.5 0.5q2 2 5 8t3 8q0 5 -8.5 8t-13.5 3h-5zM479 199l8 8h-8v-8zM641 175q-5 2 -5 -5q0 -5 4 -3.5t4 3.5q0 3 -3 5zM552 167q-3 0 -9 -3t-8 -5h25q0 2 -3 5t-5 3zM503 150
q-5 2 -5 -4q0 -5 4.5 -4t4.5 4q0 4 -4 4zM269 411v-112q16 25 37 39.5t45 22t50.5 9t54.5 1.5h123q18 0 37 -6t34 -17.5t24.5 -28.5t9.5 -38v-191q0 -21 -9 -38t-23 -28.5t-32.5 -17.5t-36.5 -6h-553v165h415v41h-310q-18 0 -37 6t-34 17.5t-24.5 28.5t-9.5 38v190
q0 21 9 38t23 28.5t32.5 17.5t36.5 6h553v-165h-415zM548 500v-18q11 0 17 10q-2 7 -9 8l-1.5 0.5t-2.5 0.5l-1.5 -0.5t-2.5 -0.5zM435 532q-6 0 -6 -8t6 -8t6 8t-6 8zM565 548v-16h18q0 7 -4 12t-11 5zM621 540q-6 0 -6 -8t6 -8q7 0 7 8t-7 8zM306 246l9 -8v8h-9zM331 287
q-7 0 -7 -8t7 -8q6 0 6 8t-6 8zM371 303q-4 1 -4 -5q0 -5 4 -3.5t4 3.5q0 4 -4 5zM347 311q-5 2 -5 -4t4.5 -4t4.5 4q0 3 -4 4zM363 335v-8h8v8h-8zM410 61v-8h8v8h-8zM426 102q-6 0 -6 -8t6 -8t6 8t-6 8zM353 126q-4 1 -4 -4t4 -4t4 4t-4 4zM133 352q-6 0 -6 -8t6 -8
q7 0 7 8t-7 8zM128 392v-8h8v8h-8zM198 272q1 3 -5 3q-5 0 -3.5 -4t3.5 -4q3 0 5 5zM220 312q0 -9 10 -16v16h-10zM253 141v-8h8v8h-8zM239 99q1 3 -5 3q-5 0 -3.5 -4t3.5 -4q3 0 5 5zM271 99q1 3 -4 3t-4 -4t4 -4q2 0 4 5zM84 279v-8h8v8h-8zM125 304q1 3 -5 3
q-5 0 -3.5 -4t3.5 -4q3 0 5 5zM495 446q1 3 -4 3t-4 -4t4 -4q2 0 4 5zM211 546v-8h8v8h-8z" />
    <glyph glyph-name="t" unicode="t" horiz-adv-x="711" 
d="M330 479q6 0 6 -8q0 -9 -6 -9t-6 9q0 8 6 8zM278 457h-8v8zM286 424q7 0 7 -8t-7 -8q-6 0 -6 8t6 8zM306 193q4 -1 4 -5q0 -2 -4 -3.5t-4 3.5q0 6 4 5zM358 79q3 -2 3 -5q0 -2 -4 -3.5t-4 3.5q0 7 5 5zM374 168l-8 -16q-10 7 -10 16h18zM304 267q12 0 18 -10l-8 -8
q-10 7 -10 18zM581 553q1 0 2.5 0.5l1.5 0.5q1 0 2.5 -0.5l1.5 -0.5q6 -2 8 -8q-4 -10 -16 -10v18zM620 516q6 0 6 -8q0 -9 -6 -9t-6 9q0 8 6 8zM520 510v-8h-9v8h9zM568 494h-8v8zM449 544q6 0 6 -8t-6 -8q-7 0 -7 8t7 8zM67 448q6 0 6 -8q0 -9 -6 -9t-6 9q0 8 6 8z
M592 499v-8h-9v8h9zM638 440h-8v8zM562 477q6 0 6 -8t-6 -8q-7 0 -7 8t7 8zM106 509q-2 3 5 3q5 0 3.5 -4t-3.5 -4q-3 0 -5 5zM75 541q6 0 6 -8t-6 -8t-6 8t6 8zM219 505q6 0 6 -8t-6 -8q-7 0 -7 8t7 8zM139 501q6 0 6 -8q0 -9 -6 -9q-7 0 -7 9q0 8 7 8zM162 493q7 0 7 -9
q0 -4 -2 -11.5t-6 -7.5q-3 0 -4 7.5t-1 11.5q0 9 6 9zM390 254q3 -2 3 -4t-4 -3.5t-4 3.5q0 6 5 4zM438 384q4 -1 4 -5q0 -2 -4 -3.5t-4 3.5q0 6 4 5zM415 439q4 -1 4 -5q0 -2 -4 -3.5t-4 3.5q0 6 4 5zM414 238q1 0 2.5 0.5l1.5 0.5q1 0 2.5 -0.5l1.5 -0.5q6 -2 8 -8h-16v8z
M414 92q10 -4 10 -16h-10v16zM422 295q6 0 6 -8t-6 -8t-6 8t6 8zM391 406q6 0 6 -8t-6 -8t-6 8t6 8zM395 350q6 0 6 -8t-6 -8t-6 8t6 8zM390 125q6 0 6 -8q0 -9 -6 -9q-7 0 -7 9q0 8 7 8zM30 576v-166h205v-410h239v410h207v166h-651zM357 306q-2 -5 -5 -5q-2 0 -3.5 4
t3.5 4q6 0 5 -3zM381 314q7 0 7 -8t-7 -8q-6 0 -6 8t6 8zM341 346q3 -2 3 -4t-4 -4t-4 4t5 4zM364 441q3 -2 3 -4q0 -3 -4 -4t-4 4q0 6 5 4zM404 458h8l-8 -9v9zM388 514q10 -4 10 -16h-20q0 12 10 16zM279 46q6 0 6 -8t-6 -8q-7 0 -7 8t7 8zM277 114q6 0 6 -8q0 -9 -6 -9
t-6 9q0 8 6 8zM309 138q10 -6 10 -16h-10v16zM299 548h-8v8z" />
    <glyph glyph-name="u" unicode="u" 
d="M379 105v-8h-8v8h8zM469 97q3 -2 3 -4t-4 -3.5t-4 3.5q0 6 5 4zM339 65v-8h-16v8h16zM404 49q1 0 2 0.5l1 0.5q1 0 3 -0.5l2 -0.5q6 -2 8 -8q-6 -10 -16 -10v18zM185 160q-1 -4 -5 -4q-2 0 -3.5 4t3.5 4q6 0 5 -4zM128 144q7 0 7 -8t-7 -8q-6 0 -6 8t6 8zM339 128
q6 0 6 -8t-6 -8t-6 8t6 8zM396 79h-9l9 8v-8zM306 79h-8v8zM571 394q3 -2 3 -5q0 -2 -4 -3.5t-4 3.5t5 5zM708 377q7 0 7 -8t-7 -8q-6 0 -6 8t6 8zM651 371q0 9 2.5 13t13.5 4q18 0 18 -17t-18 -17q-11 0 -13.5 4t-2.5 13zM587 353q6 0 6 -8t-6 -8q-7 0 -7 8t7 8zM652 337
q6 0 6 -8t-6 -8q-7 0 -7 8t7 8zM562 288q4 -1 4 -4t-4 -4t-4 4t4 4zM684 215q-1 -4 -5 -4q-2 0 -3.5 4t3.5 4q6 0 5 -4zM627 199q7 0 7 -8t-7 -8q-6 0 -6 8t6 8zM129 471v-16h-8v16h8zM72 398q6 0 6 -8t-6 -8t-6 8t6 8zM88 261q4 -1 4 -5q0 -2 -4 -3.5t-4 3.5t4 5zM72 220
q6 0 6 -8t-6 -8t-6 8t6 8zM96 155q4 -1 4 -4t-4 -4t-4 4t4 4zM167 539v-8h-8v8h8zM127 499v-8h-16v8h16zM192 483q1 0 2 0.5l1 0.5q1 0 3 -0.5l2 -0.5q6 -2 8 -8q-6 -10 -16 -10v18zM106 394h5q7 -2 8 -9q-6 -9 -16 -9v18h3zM176 304q4 10 16 10v-19q-12 0 -16 9zM151 280
q7 0 7 -8t-7 -8q-6 0 -6 8t6 8zM224 207q6 0 6 -8t-6 -8t-6 8t6 8zM111 207l8 -8l-8 -8l-8 8zM755 576h-239v-411h-247v411h-239v-486q0 -21 9.5 -38t24.5 -28.5t34 -17.5t37 -6h515q18 0 37 6t34 17.5t24.5 28.5t9.5 38v486zM643 438q-1 -4 -5 -4q-2 0 -3.5 4t3.5 4
q6 0 5 -4zM619 511q6 0 6 -8t-6 -8q-7 0 -7 8t7 8zM675 511l8 -8h-8v8zM700 536l8 -8h-8v8zM669 51q6 0 6 -8t-6 -8t-6 8t6 8zM588 67q6 0 6 -8t-6 -8t-6 8t6 8zM645 75q6 0 6 -8t-6 -8q-7 0 -7 8t7 8zM564 83q6 0 6 -8t-6 -8q-7 0 -7 8t7 8zM159 65q1 0 2.5 0.5l1.5 0.5
q1 0 2.5 -0.5l1.5 -0.5q7 -1 9 -8h-17v8zM152 438v-17h-10q0 11 10 17zM71 534h16v-8h-16v8z" />
    <glyph glyph-name="v" unicode="v" horiz-adv-x="740" 
d="M256 576h-241l251 -576h208l251 576h-241l-114 -273zM534 289q0 1 0.5 2.5l0.5 1.5q2 6 8 8q2 0 5 -3t3 -5t-3 -8t-5 -8q-6 2 -8 8zM535 399q6 0 6 -9q0 -8 -6 -8q-7 0 -7 8q0 9 7 9zM543 431h8l-8 -8v8zM510 504h8v-8h-8v8zM583 528q7 0 7 -8t-7 -8q-6 0 -6 8t6 8z
M218 366q6 0 6 -8t-6 -8t-6 8t6 8zM202 407q6 0 6 -8q0 -9 -6 -9q-7 0 -7 9q0 8 7 8zM242 447q-1 -4 -4 -4q-2 0 -4 4t4 4q5 0 4 -4zM210 480q6 0 6 -9q0 -8 -6 -8q-7 0 -7 8q0 9 7 9zM226 504q4 -1 4 -5q0 -2 -4.5 -3.5t-4.5 3.5q0 7 5 5zM202 544q6 0 6 -8t-6 -8
q-7 0 -7 8t7 8zM346 164q4 -1 4 -8t-4 -8q-2 -1 -3 2t-1 6t1 6t3 2zM281 189h8v-9h-8v9zM338 221q4 -1 4 -5q0 -2 -4 -3.5t-4 3.5q0 6 4 5zM379 253h8v-16h-8v16zM395 286h8v-8h-8v8zM374 51q-2 -5 -5 -5q-2 0 -3.5 4t3.5 4q6 0 5 -3zM447 75q6 0 6 -8t-6 -8t-6 8t6 8z
M333 99q6 0 13 -4t7 -12h-20v16zM431 116q6 0 6 -8q0 -9 -6 -9q-7 0 -7 9q0 8 7 8zM455 218q6 0 6 -8q0 -9 -6 -9q-7 0 -7 9q0 8 7 8zM503 258l8 8v-16zM151 388h18q0 -18 -18 -18v18zM127 453q-2 -5 -4 -5t-4 4t4 4q5 0 4 -3zM151 510q4 -1 4 -9q0 -7 -4 -8q-2 -1 -3 2
t-1 6t1 6t3 3zM225 272h8v-8h-8v8zM285 304q6 0 6 -8t-6 -8t-6 8t6 8zM269 345q6 0 6 -8q0 -9 -6 -9q-7 0 -7 9q0 8 7 8zM504 333q6 0 6 -8t-6 -8t-6 8t6 8zM488 374q6 0 6 -8q0 -9 -6 -9q-7 0 -7 9q0 8 7 8zM528 414q-1 -4 -4 -4q-2 0 -4 4t4 4q5 0 4 -4zM624 471
q4 -1 4 -9q0 -7 -4 -8q-2 -1 -3 2t-1 6t1 6t3 3zM273 153q4 -1 4 -9q0 -7 -4 -8q-2 -1 -3 2t-1 6t1 6t3 3zM568 383q4 -1 4 -9q0 -7 -4 -8q-2 -1 -3 2t-1 6t1 6t3 3zM75 538l8 8v-16z" />
    <glyph glyph-name="w" unicode="w" horiz-adv-x="921" 
d="M685 43q7 0 7 -8t-7 -8q-6 0 -6 8t6 8zM645 35v8h8zM566 70q4 1 4 -4t-4 -4t-4 4t4 4zM891 90v486h-239v-411h-73v411h-237v-411h-73v411h-239v-486q0 -21 9.5 -38t24.5 -28.5t34 -17.5t37 -6h651q18 0 37 6t34 17.5t24.5 28.5t9.5 38zM714 496q-7 0 -7 8q0 9 7 9
q6 0 6 -9q0 -8 -6 -8zM835 472l-8 8h8v-8zM714 448v8l8 -8h-8zM762 391v-1q0 -3 -4 -3t-4 3q0 6 4 6q2 0 4 -5zM722 334v8h8zM754 334l8 8v-8h-8zM786 326v16h10q0 -10 -10 -16zM803 310q-7 0 -7 8t7 8q6 0 6 -8t-6 -8zM494 171h-2q-2 0 -2 4t3 4q5 0 5 -4q0 -3 -4 -4z
M854 270q-6 2 -7.5 5.5t-1.5 8.5v6l1 12q3 -1 9.5 -7t6.5 -9v-1q0 -3 -2.5 -8t-5.5 -7zM746 286v8l8 -8h-8zM811 270h-2q-3 0 -3 4t3 4q5 0 5 -4t-3 -4zM859 245v-1q0 -2 -4 -2t-4 3q0 5 4 5q2 0 4 -5zM843 221h-1q-3 0 -3 4t3 4q5 0 5 -4q0 -3 -4 -4zM738 221v-1
q0 -3 -5 -3q-4 0 -4 3q0 5 4 5t5 -4zM770 205q-6 0 -6 8t6 8q7 0 7 -8t-7 -8zM827 213v-1q0 -3 -5 -3q-4 0 -4 3q0 5 4 5t5 -4zM499 394q-4 0 -4 5q0 4 3 4q5 0 5 -4t-4 -5zM449 322q0 10 10 16v-16h-10zM483 297q-6 0 -6 8t6 8t6 -8t-6 -8zM499 257q-6 0 -6 8t6 8t6 -8
t-6 -8zM507 208v8h8v-8h-8zM719 119q-6 0 -6 8t6 8q7 0 7 -8t-7 -8zM711 62q-6 0 -6 8t6 8q7 0 7 -8t-7 -8zM734 54q0 12 10 16v-16h-10zM554 126l9 8v-16zM383 106l1 3q1 7 8 9q0 -1 0.5 -2.5l0.5 -1.5q0 -1 -0.5 -3l-0.5 -2q0 -2 -3 -4.5t-5 -3.5zM530 69q-6 0 -6 8t6 8
t6 -8t-6 -8zM473 28v-1q0 -2 -4 -2t-4 3q0 5 4 5t4 -5zM87 526v8h8zM119 526l8 8v-8h-8zM151 518v16h10q0 -10 -10 -16zM168 502q-7 0 -7 8t7 8q6 0 6 -8t-6 -8zM151 486h-2q-2 0 -2 4t3 4q5 0 5 -4q0 -3 -4 -4zM111 478v8l8 -8h-8zM176 462h-2q-3 0 -3 4t3 4q5 0 5 -4
t-3 -4zM259 30q-6 0 -6 8t6 8t6 -8t-6 -8zM310 79h9v-8zM218 79h8l-8 -8v8zM110 104q-4 0 -4 5t4 3.5t4 -3.5q0 -4 -4 -5zM145 214q3 0 3 -4q0 -2 -4 -3.5t-4 3.5q0 6 5 4zM72 271l8 8l8 -8l-8 -8zM193 279q6 0 6 -8t-6 -8t-6 8t6 8zM242 352h8v-16h-8v16zM120 352q7 0 7 -8
t-7 -8q-6 0 -6 8t6 8zM145 376q4 10 16 10v-19q-12 0 -16 9zM451 468q1 0 2 0.5l1 0.5q1 0 3 -0.5l2 -0.5q6 -2 8 -8q-6 -10 -16 -10v18zM370 484h16v-8h-16v8zM516 516q3 -2 3 -4t-4 -3.5t-4 3.5q0 6 5 4zM418 524h8v-8h-8v8zM414 217v8h8zM446 217l8 8v-8h-8zM438 169v8
l8 -8h-8zM812 81q10 0 11.5 -2.5t1.5 -12.5q-10 0 -11.5 2.5t-1.5 12.5zM832 133l3 1q1 0 3 -0.5l2 -0.5q5 -3 8 -8h-16v8zM65 414q10 0 11 -2t1 -12q-10 0 -11 2t-1 12zM764 454h9v-8zM789 495q6 0 6 -8t-6 -8q-7 0 -7 8t7 8zM805 519q4 -1 4 -4q0 -2 -4.5 -4t-4.5 4t5 4z
M821 543h8v-8h-8v8zM79 153v8h8zM111 153l8 8v-8h-8z" />
    <glyph glyph-name="x" unicode="x" horiz-adv-x="740" 
d="M632 48q3 4 -2 4t-7 -4.5t1 -4.5t8 5zM587 40q-6 0 -12 -8q-1 -1 -1 -4q0 -4 5 -4q6 0 9 8q3 3 3 6q0 2 -4 2zM433 268q-5 -3 -5 -7q0 -5 4 -9h10zM465 357l16 -16q4 4 4 9q0 -2 -0.5 0t-1.5 7h-18zM439 301q-4 0 -4 -2q0 -3 3 -6q3 -9 10 -9q4 0 4 4t-1 5q-6 8 -12 8z
M475 58q-3 2 -8 -5q-3 -5 1.5 -3.5t6.5 3.5l1 3zM518 192q-4 1 -6 -5q-4 -5 1 -3.5t7 3.5q2 4 -2 5zM477 108l5 8h-8l-5 -8h8zM523 97q4 4 4 9q0 4 -5 7l-9 -16h10zM559 167q-1 -5 -1.5 -7t-0.5 0q0 -5 4 -9l14 15zM589 518q-6 0 -12 -8q-1 -1 -1 -5t4 -4q7 0 10 9q3 3 3 6
q0 2 -4 2zM180 86q-3 -6 -3 -10q0 -5 3 -8l13 8q-1 10 -13 10zM259 86q5 1 8 3.5t7 6.5v3q0 4 -4 5l-1 0.5t-2 0.5l-2 -0.5t-3 -0.5l-6 -13zM215 403q-3 -2 -1 -4q1 -2 6 -3.5t2 3.5q-4 7 -7 4zM414 217q-2 -2 0 -5q2 -2 6.5 -3.5t1.5 3.5q-5 7 -8 5zM371 355q-4 -1 -2 -5
q2 -2 7 -3.5t1 3.5q-2 6 -6 5zM344 168l5 -8h8l-5 8h-8zM280 241q-5 -3 -5 -7q0 -5 4 -9h10zM312 330l16 -16q4 4 4 9q0 -2 -0.5 0t-1.5 7h-18zM286 274q-4 0 -4 -2q0 -3 3 -6q3 -9 10 -9q4 0 4 4t-1 5q-6 8 -12 8zM332 429q-12 0 -13 -10l13 -8q3 3 3 8q0 4 -3 10zM249 444
q-1 0 -3 0.5l-2 0.5q-1 0 -2 -0.5l-1 -0.5q-4 -1 -4 -5v-3q8 -8 17 -10l2 5zM257 481l6 -4.5t8 -1.5q12 0 12 9q0 4 -2 7.5t-4 8.5zM464 576h261l-223 -288l223 -288h-261l-94 119l-94 -119h-261l222 288l-222 288h261l94 -120zM468 464l8 -8l8 8l-8 8zM589 472q-6 0 -6 -8
t6 -8t6 8t-6 8zM516 545q-6 0 -6 -8t6 -8q7 0 7 8t-7 8zM114 38l8 -8l8 8l-8 8zM162 119q-6 0 -6 -8t6 -8q7 0 7 8t-7 8zM172 537l5 -8h8l-5 8h-8zM161 498l8 -8l8 8l-8 8z" />
    <glyph glyph-name="y" unicode="y" horiz-adv-x="769" 
d="M668 231q-4 2 -8 -5q-2 -5 2.5 -3.5t5.5 3.5q3 3 0 5zM625 198q-5 0 -10 -8t1 -8t11 8t-2 8zM684 303q-1 1 -1.5 2t-1.5 2q-1 -1 -1.5 -2t-1.5 -2q-5 -9 1.5 -7t4.5 7zM513 125q-3 -2 0 -5q1 -2 5.5 -3.5t2.5 3.5q-4 7 -8 5zM556 92q-7 0 -2 -8t11 -8t1 8t-10 8zM630 69
l15 23l-15 25l-15 -24zM220 400v-16h10q0 12 -10 16zM196 433q-7 0 -7 -8q0 -9 7 -9q6 0 6 9q0 8 -6 8zM120 523q5 -2 5 4q0 5 -4 3.5t-4 -3.5q0 -3 3 -4zM72 393q4 -1 4 5q0 5 -4 3.5t-4 -3.5q0 -4 4 -5zM96 539v8h-16q2 -6 8 -8l1.5 -0.5t2.5 -0.5l1.5 0.5t2.5 0.5z
M112 345q6 0 6 8t-6 8t-6 -8t6 -8zM88 482q6 0 6 8t-6 8t-6 -8t6 -8zM177 482v18q-12 0 -16 -10q2 -6 8 -8l1.5 -0.5t2.5 -0.5l1.5 0.5t2.5 0.5zM619 483q-5 2 -5 -4q0 -5 4 -3.5t4 3.5t-3 4zM643 467v-8h16q-2 6 -8 8l-1.5 0.5t-2.5 0.5l-1.5 -0.5t-2.5 -0.5zM651 524
q-6 0 -6 -8t6 -8t6 8t-6 8zM562 410h-18q0 -9 10 -16zM619 354q-7 0 -7 -8q0 -9 7 -9q6 0 6 9q0 8 -6 8zM562 524v-18q12 0 16 10q-2 6 -8 8l-1.5 0.5t-2.5 0.5l-1.5 -0.5t-2.5 -0.5zM97 30h-8v-8h8v8zM121 103v-16h10q0 12 -10 16zM97 136q-7 0 -7 -8q0 -9 7 -9q6 0 6 9
q0 8 -6 8zM145 80q1 3 -5 3q-5 0 -3.5 -4t3.5 -4q3 0 5 5zM319 75q4 -1 4 5q0 5 -4 3.5t-4 -3.5q0 -4 4 -5zM112 72q-2 0 -3 -1v-16h3q7 0 7 9q0 8 -7 8zM359 27q6 0 6 8t-6 8t-6 -8t6 -8zM234 110q-6 0 -6 -8t6 -8t6 8t-6 8zM234 72q-6 0 -6 -8q0 -9 6 -9t6 9q0 8 -6 8z
M500 206h-365q-18 0 -37 6t-34 17.5t-24.5 28.5t-9.5 38v280h239v-205h46q28 0 54 -2.5t49.5 -10t44 -21.5t37.5 -38v277h239v-486q0 -21 -9 -38t-23 -28.5t-32.5 -17.5t-36.5 -6h-608v165h470v41zM362 253v-8h8zM329 262q-6 0 -6 -9q0 -8 6 -8t6 8q0 9 -6 9zM434 278v-8h9
v8h-9zM256 326v-8h8v8h-8zM291 286v-18q11 0 17 10q-2 7 -9 8l-1.5 0.5t-2.5 0.5l-1.5 -0.5t-2.5 -0.5zM308 334v-16h18q0 7 -4 12t-11 5zM364 326q-6 0 -6 -8t6 -8q7 0 7 8t-7 8zM140 352v-8h8v8h-8zM93 270q-7 0 -7 -8t7 -8q6 0 6 8t-6 8zM133 286q-4 1 -4 -5q0 -5 4 -3.5
t4 3.5q0 4 -4 5zM109 294q-5 2 -5 -4t4.5 -4t4.5 4q0 3 -4 4zM125 318v-8h8v8h-8zM276 105q-7 0 -7 -8t7 -8q6 0 6 8t-6 8zM316 137q-4 1 -4 -4t4 -4t4 4t-4 4zM323 68v-8h8v8h-8zM446 85q-6 0 -6 -8t6 -8t6 8t-6 8zM585 266v-18q11 0 17 10q-2 7 -9 8l-1.5 0.5t-2.5 0.5
l-1.5 -0.5t-2.5 -0.5z" />
    <glyph glyph-name="z" unicode="z" horiz-adv-x="710" 
d="M553 509q-3 3 -7 -4q-3 -5 2 -3.5t6 3.5q2 2 -1 4zM604 542q-1 1 -1.5 2t-1.5 2q-1 -1 -1.5 -2t-1.5 -2l-1.5 -4.5l-0.5 -1.5q2 -2 4 -2q3 0 5 2q1 1 -1 6zM580 485q0 1 0.5 2t0.5 2q-1 1 -2 1.5t-3 2.5h-1q-1 1 -2 1l-1.5 -0.5t-2.5 -0.5l-5 -8h16zM633 493
q-1 0 -2.5 0.5l-1.5 0.5q-2 0 -3 -1l-4 -4q0 -3 1 -4h12zM436 535q-3 -6 -3 -10q0 -5 3 -8l13 8q-1 10 -13 10zM520 535q5 1 6 2l5 5v3q0 4 -4 5l-1 0.5t-2 0.5l-2 -0.5t-3 -0.5l-2 -10zM414 348q-3 3 -7 -4q-3 -5 2 -3.5t6 3.5q2 2 -1 4zM465 381q-1 1 -1.5 2t-1.5 2
q-1 -1 -1.5 -2t-1.5 -2l-1.5 -4.5l-0.5 -1.5q2 -2 4 -2q3 0 5 2q1 1 -1 6zM494 332q-1 0 -2.5 0.5l-1.5 0.5q-2 0 -3 -1l-5 -4q0 -3 1 -4h16zM375 371q8 1 17 10v3q0 4 -4 5l-1 0.5t-2 0.5l-2 -0.5t-3 -0.5l-8 -13zM613 60q-12 0 -13 -10l13 -8q3 3 3 8q0 4 -3 10zM530 75
q-1 0 -3 0.5l-2 0.5q-1 0 -2 -0.5l-1 -0.5q-4 -1 -4 -5v-3q8 -8 17 -10l2 5zM542 112q4 -3 4 -5q0 -1 6 -1q12 0 12 9q0 4 -2 6t-4 7zM520 429q-4 1 -6 -5q-4 -5 0.5 -3.5t6.5 3.5q1 3 -1 5zM591 454q-4 -13 0 -20l12 8q-2 12 -12 12zM401 317q-5 0 -5 -8q0 -9 5 -9q6 0 6 9
q0 8 -6 8zM471 369q-6 0 -6 -8q0 -9 6 -9t6 9q0 8 -6 8zM511 375q-5 0 -5 -9q0 -4 3 -7.5t5 -3.5t3 -1.5t1 3.5v9q0 9 -7 9zM293 501q-4 1 -6 -5q-4 -5 0.5 -3.5t6.5 3.5q1 3 -1 5zM364 526q-4 -13 0 -20l12 8q-2 12 -12 12zM89 478q-5 0 -5 -8q0 -9 5 -9q6 0 6 9q0 8 -6 8z
M176 476q-6 0 -6 -8q0 -9 6 -9t6 9q0 8 -6 8zM216 482q-5 0 -5 -9q0 -4 3 -11.5t5 -7.5q4 0 4 9v10q0 9 -7 9zM145 484q2 -5 5 -5q2 0 5 6t3 11t-2 5q-4 0 -7.5 -7.5t-3.5 -9.5zM313 49q6 0 6 8t-6 8q-5 0 -5 -8t5 -8zM184 137q3 0 8.5 5.5t5.5 9.5q0 8 -6 8q-3 0 -8 -5
t-5 -10q0 -8 5 -8zM143 56q6 0 6 8t-6 8t-6 -8t6 -8zM184 177q5 0 5 10q0 8 -5 8q-7 0 -7 -8q0 -10 7 -10zM227 169q4 0 10 2t6 6q0 5 -6 7.5t-10 2.5t-4 -10q0 -8 4 -8zM254 109q-2 5 -5 5q-1 0 -1.5 -6t-1 -12.5t0.5 -12.5t3 -6t3 5t1 11v12v4zM109 139l-9 19l-12 -20
l11 -19zM30 0v166l328 244h-328v166h650v-165l-328 -245h328v-166h-650zM340 77v-8h8zM381 118q-6 0 -6 -8t6 -8t6 8t-6 8zM298 283q-6 0 -6 -8t6 -8q7 0 7 8t-7 8zM114 535q1 4 -5 4q-5 0 -3.5 -4t3.5 -4q4 0 5 4zM432 455l2 -13h8q3 0 6 5q-2 6 -8 8l-2 0.5t-3 0.5
l-1 -0.5t-2 -0.5zM303 234v-8h16v8h-16zM395 31q-5 2 -5 -4q0 -5 4 -3.5t4 3.5t-3 4zM351 274v-8h8v8h-8zM74 58q-5 2 -5 -4q0 -5 4 -3.5t4 3.5t-3 4zM438 77l-9 -8h9v8z" />
    <glyph glyph-name="FL007Bh" unicode="{" horiz-adv-x="421" 
d="M114 310v8l-8 -8h8zM176 152q-7 0 -7 -8t7 -8q6 0 6 8t-6 8zM200 187q-6 0 -6 -8t6 -8q7 0 7 8t-7 8zM106 443q4 1 4 5q0 2 -4 3.5t-4 -3.5t4 -5zM192 380q6 0 6 8t-6 8t-6 -8t6 -8zM96 266v8l-8 -8h8zM209 339q-4 1 -4 -4t4 -4t4 4t-4 4zM145 250q-7 0 -7 -8t7 -8
q6 0 6 8t-6 8zM391 410h-119v-244h119v-166h-256q-18 0 -37 6t-34 17.5t-24.5 28.5t-9.5 38v396q0 21 9.5 38t24.5 28.5t34 17.5t37 6h256v-166zM210 101q-6 0 -6 -8t6 -8q7 0 7 8t-7 8zM275 117q-6 0 -6 -8t6 -8q7 0 7 8t-7 8zM237 64q-7 0 -7 -8t7 -8q6 0 6 8t-6 8z
M180 80q1 -4 5 -4q2 0 3.5 4t-3.5 4q-6 0 -5 -4zM300 125q-4 -1 -4 -4t4 -4t4 4t-4 4zM212 493q-6 0 -6 -8t6 -8q7 0 7 8t-7 8zM277 509q-6 0 -6 -8t6 -8q7 0 7 8t-7 8zM239 456q-7 0 -7 -8t7 -8q6 0 6 8t-6 8zM182 472q1 -4 5 -4q2 0 3.5 4t-3.5 4q-6 0 -5 -4zM302 517
q-4 -1 -4 -4t4 -4t4 4t-4 4zM91 99q4 1 4 5q0 2 -4 3.5t-4 -3.5t4 -5zM87 484q-7 0 -7 -8t7 -8q6 0 6 8t-6 8z" />
    <glyph glyph-name="FL007Ch" unicode="|" horiz-adv-x="302" 
d="M272 687h-242v-795h242v795zM70 154q7 0 7 -8t-7 -8q-6 0 -6 8t6 8zM93 607q-7 0 -7 8q0 9 7 9q6 0 6 -9q0 -8 -6 -8zM214 583l-8 8h8v-8zM93 559v8l8 -8h-8zM141 502v-1q0 -3 -4 -3t-4 3q0 6 4 6q2 0 4 -5zM101 445v8h8zM133 445l8 8v-8h-8zM165 437v16h10
q0 -10 -10 -16zM182 421q-7 0 -7 8t7 8q6 0 6 -8t-6 -8zM231 381q-6 2 -7.5 5.5t-1.5 8.5v6l1 12q3 -1 9.5 -7t6.5 -9v-1q0 -3 -2.5 -8t-5.5 -7zM125 397v8l8 -8h-8zM190 381h-2q-3 0 -3 4t3 4q5 0 5 -4t-3 -4zM236 356v-1q0 -2 -4 -2t-4 3q0 5 4 5q2 0 4 -5zM220 332h-1
q-3 0 -3 4t3 4q5 0 5 -4q0 -3 -4 -4zM117 332v-1q0 -3 -5 -3q-4 0 -4 3q0 5 4 5t5 -4zM149 316q-6 0 -6 8t6 8q7 0 7 -8t-7 -8zM206 324v-1q0 -3 -5 -3q-4 0 -4 3q0 5 4 5t5 -4zM98 230q-6 0 -6 8t6 8q7 0 7 -8t-7 -8zM96 173q-6 0 -6 8t6 8q7 0 7 -8t-7 -8zM119 165
q0 12 10 16v-16h-10zM191 192q10 0 11.5 -2.5t1.5 -12.5q-10 0 -11.5 2.5t-1.5 12.5zM211 244l3 1q1 0 3 -0.5l2 -0.5q5 -3 8 -8h-16v8zM143 565h9v-8zM168 606q6 0 6 -8t-6 -8q-7 0 -7 8t7 8zM184 630q4 -1 4 -4q0 -2 -4.5 -4t-4.5 4t5 4zM200 654h8v-8h-8v8zM184 -38h-2
q-2 0 -2 4t3 4q5 0 5 -4q0 -3 -4 -4zM139 113q0 10 10 16v-16h-10zM173 88q-6 0 -6 8t6 8t6 -8t-6 -8zM189 48q-6 0 -6 8t6 8t6 -8t-6 -8zM197 -1v8h8v-8h-8zM104 8v8h8zM136 8l8 8v-8h-8zM124 -54l4 22l20 -15z" />
    <glyph glyph-name="FL007Dh" unicode="}" horiz-adv-x="421" 
d="M30 410h119v-244h-119v-166h256q18 0 37 6t34 17.5t24.5 28.5t9.5 38v396q0 21 -9.5 38t-24.5 28.5t-34 17.5t-37 6h-256v-166zM316 307q6 0 6 -8t-6 -8q-7 0 -7 8t7 8zM251 323q6 0 6 -8t-6 -8q-7 0 -7 8t7 8zM235 364q3 -2 3 -5q0 -2 -4 -3.5t-4 3.5t5 5zM287 192
q-6 0 -6 8t6 8t6 -8t-6 -8zM303 151q-4 0 -4 5t4 3.5t4 -3.5q0 -4 -4 -5zM224 339q6 0 6 -8t-6 -8q-7 0 -7 8t7 8zM264 493q6 0 6 -8t-6 -8t-6 8t6 8zM204 513q4 -1 4 -5q0 -2 -4 -3.5t-4 3.5t4 5zM288 428q4 -1 4 -4t-4 -4t-4 4t4 4zM183 217h9v-8zM233 140q6 0 6 -8t-6 -8
q-7 0 -7 8t7 8zM268 55q6 0 6 -8t-6 -8q-7 0 -7 8t7 8zM252 96q3 -2 3 -5q0 -2 -4 -3.5t-4 3.5t5 5zM75 497q-6 0 -6 8t6 8t6 -8t-6 -8zM91 456q-4 0 -4 5t4 3.5t4 -3.5q0 -4 -4 -5zM241 71q6 0 6 -8t-6 -8q-7 0 -7 8t7 8zM144 103q6 0 6 -8t-6 -8t-6 8t6 8zM84 123
q4 -1 4 -5q0 -2 -4 -3.5t-4 3.5t4 5zM307 509q4 -1 4 -4t-4 -4t-4 4t4 4zM112 475h9v-8z" />
    <glyph glyph-name="FL007Eh" unicode="~" horiz-adv-x="508" 
d="M361 375l-25 -111l-33 111h-238l-45 -175h128l24 111l34 -111h238l44 175h-127zM255 262q-6 0 -6 8t6 8t6 -8t-6 -8zM263 319q-1 0 -2.5 -0.5l-1.5 -0.5q-1 0 -2.5 0.5l-1.5 0.5q-6 2 -8 8h16v-8zM287 303q-3 1 -3 4q0 2 4 3.5t4 -3.5q0 -6 -5 -4zM105 328q-6 0 -6 8t6 8
t6 -8t-6 -8zM304 245q-1 0 -2.5 -0.5l-1.5 -0.5q-1 0 -2.5 0.5l-1.5 0.5q-6 2 -8 8h16v-8zM87 285q-3 1 -3 4q0 2 4 3.5t4 -3.5q0 -6 -5 -4zM418 280q-6 0 -6 8t6 8t6 -8t-6 -8zM426 337q-1 0 -2.5 -0.5l-1.5 -0.5q-1 0 -2.5 0.5l-1.5 0.5q-6 2 -8 8h16v-8zM375 241
q-3 1 -3 4q0 2 4 3.5t4 -3.5q0 -6 -5 -4zM99 237q-6 0 -6 8t6 8t6 -8t-6 -8z" />
    <glyph glyph-name="FL007Fh" horiz-adv-x="209" 
 />
    <glyph glyph-name="FL00A1h" unicode="&#xa1;" horiz-adv-x="299" 
d="M71 576q-18 0 -28 -14t-10 -23v-98q0 -12 13 -22t25 -10h161q12 2 23 11.5t11 20.5v96q0 15 -10 27t-24 12h-161zM269 368h-239v-368h239v368zM126 323v16h10q0 -12 -10 -16zM102 290q-7 0 -7 8q0 9 7 9q6 0 6 -9q0 -8 -6 -8zM126 225v8h16q-2 -6 -8 -8l-1.5 -0.5
t-2.5 -0.5l-1.5 0.5t-2.5 0.5zM102 209q-5 -2 -5 4q0 5 4 3.5t4 -3.5q0 -3 -3 -4zM134 168q-6 0 -6 8t6 8t6 -8t-6 -8zM150 79q-4 -1 -4 5q0 5 4 3.5t4 -3.5q0 -4 -4 -5zM110 32q-6 0 -6 8t6 8t6 -8t-6 -8zM191 494q-6 0 -6 8t6 8q7 0 7 -8t-7 -8zM216 462q1 -4 -5 -4
q-5 0 -3.5 4t3.5 4q4 0 5 -4zM115 469q-6 0 -6 8t6 8t6 -8t-6 -8zM139 442q-4 -1 -4 5q0 5 4 3.5t4 -3.5q0 -4 -4 -5zM181 133l5 11q8 0 14 -2t6 -11q0 -11 -13 -11q-1 0 -3 0.5t-4 0.5zM200 259q-7 0 -7 8t7 8q6 0 6 -8t-6 -8zM220 220v-1q0 -3 -4 -3t-4 4q0 5 4 5
q2 0 4 -5zM213 315q0 9 10 16l4 -16h-14zM164 272q-4 -1 -4 5q0 5 4 3.5t4 -3.5q0 -4 -4 -5zM93 528q-6 0 -6 8t6 8t6 -8t-6 -8zM117 495q-4 -1 -4 5q0 5 4 3.5t4 -3.5q0 -4 -4 -5zM79 148v-1q0 -3 -4 -3t-4 4q0 5 4 5q2 0 4 -5zM219 48v-1q0 -3 -4 -3t-4 4q0 5 4 5
q2 0 4 -5z" />
    <glyph glyph-name="FL00A2h" unicode="&#xa2;" horiz-adv-x="769" 
d="M269 166h64v244h-64v-244zM30 486q0 21 9.5 38t24.5 28.5t34 17.5t37 6h198v114h102v-114h199q18 0 37 -6t34 -17.5t24.5 -28.5t9.5 -38v-152h-239v76h-65v-244h65v77h239v-153q0 -21 -9.5 -38t-24.5 -28.5t-34 -17.5t-37 -6h-199v-117h-102v117h-198q-18 0 -37 6
t-34 17.5t-24.5 28.5t-9.5 38v396zM85 390q6 0 6 8t-6 8q-7 0 -7 -8t7 -8zM128 349q7 0 7 8t-7 8q-6 0 -6 -8t6 -8zM153 487q6 0 6 8t-6 8q-7 0 -7 -8t7 -8zM193 333q7 0 7 8t-7 8q-6 0 -6 -8t6 -8zM96 471q-1 -4 5 -4q5 0 3.5 4t-3.5 4q-4 0 -5 -4zM218 398q4 -1 4 4t-4 4
t-4 -4t4 -4zM506 483q-7 0 -7 -8t7 -8q6 0 6 8t-6 8zM562 443q-6 0 -6 -8t6 -8q7 0 7 8t-7 8zM627 459q-6 0 -6 -8t6 -8q7 0 7 8t-7 8zM589 406q-7 0 -7 -8t7 -8q6 0 6 8t-6 8zM532 422q1 -4 5 -4q2 0 3.5 4t-3.5 4q-6 0 -5 -4zM652 467q-4 -1 -4 -4t4 -4t4 4t-4 4zM396 115
q6 0 6 8t-6 8q-7 0 -7 -8t7 -8zM185 131q6 0 6 8t-6 8t-6 -8t6 -8zM339 99q-1 -4 5 -4q5 0 3.5 4t-3.5 4q-4 0 -5 -4zM137 180h-9v-8zM226 180h-8l8 -8v8zM563 157q-6 0 -6 -8t6 -8t6 8t-6 8zM547 198q-4 -1 -4 -5q0 -2 4 -3.5t4 3.5t-4 5zM539 92q-4 -1 -4 -4t4 -4t4 4
t-4 4zM107 323q-6 0 -6 -8t6 -8t6 8t-6 8zM91 364q-4 -1 -4 -5q0 -2 4 -3.5t4 3.5t-4 5zM83 258q-4 -1 -4 -4t4 -4t4 4t-4 4zM162 100q-6 0 -6 -8t6 -8q7 0 7 8t-7 8zM211 124v-8h8zM292 470q-10 -7 -10 -17h20q0 10 -10 17zM349 478q-7 0 -7 -8t7 -8q6 0 6 8t-6 8zM462 494
v-8h8v8h-8zM357 518q1 4 -5 4q-5 0 -3.5 -4t3.5 -4q4 0 5 4zM615 65v-8l8 8h-8zM655 65q-6 0 -6 -8t6 -8q7 0 7 8t-7 8zM607 138q-6 0 -6 -8t6 -8t6 8t-6 8zM639 146q-4 1 -4 -4t4 -3.5t4 3.5q0 3 -4 4zM372 59q-7 0 -7 -8q0 -9 7 -9q6 0 6 9q0 8 -6 8zM315 75v-8h8v8h-8z
M469 75l8 -8v8h-8zM372 99q-7 0 -7 -8t7 -8q6 0 6 8t-6 8zM178 63q1 4 -4 4t-3.5 -4.5t3.5 -4.5t4 5zM89 120v-17h8v17h-8zM537 496q-6 0 -6 -8t6 -8q7 0 7 8t-7 8zM626 521v-9h9v9h-9zM562 537l8 -8v8h-8zM689 204q-1 -4 5 -4q5 0 3.5 4t-3.5 4q-4 0 -5 -4zM91 508
q-1 -4 5 -4q5 0 3.5 4t-3.5 4q-4 0 -5 -4zM194 518q-4 -1 -4 -4t4 -4t4 4t-4 4zM705 369v-8h8v8h-8zM375 303q-4 1 -4 -5q0 -5 4 -3.5t4 3.5q0 4 -4 5zM367 335v-8h8v8h-8zM378 -57v-8h8v8h-8zM395 -23v-8h8v8h-8zM382 659v-8h8v8h-8zM382 577q-6 0 -6 -8t6 -8q7 0 7 8t-7 8
z" />
    <glyph glyph-name="FL00A3h" unicode="&#xa3;" horiz-adv-x="747" 
d="M461 110q-6 0 -6 -8t6 -8q7 0 7 8t-7 8zM445 45q-4 1 -4 -4t4 -4t4 4t-4 4zM616 126q-6 0 -6 -8t6 -8q7 0 7 8t-7 8zM560 113h18q0 7 -4 12t-11 5l-3 -1v-16zM430 118q-6 0 -6 -8t6 -8t6 8t-6 8zM543 63q11 0 17 10q-1 6 -9 8l-1.5 0.5t-2.5 0.5l-1.5 -0.5t-2.5 -0.5v-18
zM544 519q-6 0 -6 -8t6 -8q7 0 7 8t-7 8zM488 506h18q0 7 -4 12t-11 5l-3 -1v-16zM471 456q11 0 17 10q-1 6 -9 8l-1.5 0.5t-2.5 0.5l-1.5 -0.5t-2.5 -0.5v-18zM30 208v158h129v129q0 43 25.5 62t62.5 19h383l-84 -165h-148v-45h136v-158h-136v-43h253l81 -165h-702v165h129
v43h-129zM252 205v-16h10q0 12 -10 16zM228 238q-7 0 -7 -8q0 -9 7 -9q6 0 6 9q0 8 -6 8zM252 351v-8h16q-2 6 -8 8l-1.5 0.5t-2.5 0.5l-1.5 -0.5t-2.5 -0.5zM228 367q-5 2 -5 -4q0 -5 4 -3.5t4 3.5t-3 4zM260 408q-6 0 -6 -8t6 -8t6 8t-6 8zM276 497q-4 1 -4 -5
q0 -5 4 -3.5t4 3.5q0 4 -4 5zM236 545q-6 0 -6 -8t6 -8t6 8t-6 8zM317 82q-6 0 -6 -8t6 -8q7 0 7 8t-7 8zM342 114q1 4 -5 4q-5 0 -3.5 -4t3.5 -4q4 0 5 4zM241 127q-6 0 -6 -8t6 -8t6 8t-6 8zM265 160q-4 1 -4 -5q0 -5 4 -3.5t4 3.5q0 4 -4 5zM307 443l5 -11q8 0 14 2t6 11
q0 11 -13 11q-1 0 -3 -0.5t-4 -0.5zM326 317q-7 0 -7 -8t7 -8q6 0 6 8t-6 8zM346 356v1q0 3 -4 3t-4 -4q0 -5 4 -5q2 0 4 5zM323 166q-5 2 -5 -5q0 -5 4 -3.5t4 3.5q0 3 -3 5zM343 260q0 -9 10 -16l4 16h-14zM290 304q-4 1 -4 -5q0 -5 4 -3.5t4 3.5q0 4 -4 5zM219 48
q-6 0 -6 -8t6 -8t6 8t-6 8zM243 81q-4 1 -4 -5q0 -5 4 -3.5t4 3.5q0 4 -4 5zM205 428v1q0 3 -4 3t-4 -4q0 -5 4 -5q2 0 4 5zM345 529v1q0 3 -4 3t-4 -4q0 -5 4 -5q2 0 4 5zM163 273q1 3 -4 3t-4 -4t4 -4q2 0 4 5zM126 334q1 4 -4 4t-3.5 -4t3.5 -4q3 0 4 4zM77 278
q-6 0 -6 -8t6 -8t6 8t-6 8zM93 319q-4 0 -4 -5t4 -3.5t4 3.5q0 4 -4 5zM467 319q1 4 -4 4t-3.5 -4t3.5 -4q3 0 4 4zM418 263q-6 0 -6 -8t6 -8t6 8t-6 8zM434 304q-4 0 -4 -5t4 -3.5t4 3.5q0 4 -4 5zM168 70q1 3 -4 3t-4 -4t4 -4q2 0 4 5zM131 131q1 4 -4 4t-3.5 -4t3.5 -4
q3 0 4 4zM82 75q-6 0 -6 -8t6 -8t6 8t-6 8zM98 116q-4 0 -4 -5t4 -3.5t4 3.5q0 4 -4 5z" />
    <glyph glyph-name="FL00A4h" unicode="&#xa4;" horiz-adv-x="740" 
d="M725 576l-138 -178v-220l138 -178h-261l-93 118h-2l-93 -118h-261l137 177v221l-137 178h261l89 -114h9l90 114h261zM329 332v-84h81v84h-81zM624 48q3 4 -2 4t-7 -4.5t1 -4.5t8 5zM579 40q-6 0 -12 -8q-1 -1 -1 -4q0 -4 5 -4q6 0 9 8q3 3 3 6q0 2 -4 2zM437 268
q-5 -3 -5 -7q0 -5 4 -9h10zM457 357l16 -16q4 4 4 9q0 -2 -0.5 0t-1.5 7h-18zM443 301q-4 0 -4 -2q0 -3 3 -6q3 -9 10 -9q4 0 4 4t-1 5q-6 8 -12 8zM467 58q-3 2 -8 -5q-3 -5 1.5 -3.5t6.5 3.5l1 3zM510 192q-4 1 -6 -5q-4 -5 1 -3.5t7 3.5q2 4 -2 5zM469 108l5 8h-8l-5 -8
h8zM515 97q4 4 4 9q0 4 -5 7l-9 -16h10zM551 167q-1 -5 -1.5 -7t-0.5 0q0 -5 4 -9l14 15zM581 518q-6 0 -12 -8q-1 -1 -1 -5t4 -4q7 0 10 9q3 3 3 6q0 2 -4 2zM179 85q-3 -6 -3 -10q0 -5 3 -8l13 8q-1 10 -13 10zM251 86q5 1 8 3.5t7 6.5v3q0 4 -4 5l-1 0.5t-2 0.5l-2 -0.5
t-3 -0.5l-6 -13zM207 403q-3 -2 -1 -4q1 -2 6 -3.5t2 3.5q-4 7 -7 4zM406 217q-2 -2 0 -5q2 -2 6.5 -3.5t1.5 3.5q-5 7 -8 5zM513 244q-4 -1 -2 -5q2 -2 7 -3.5t1 3.5q-2 6 -6 5zM336 168l5 -8h8l-5 8h-8zM272 241q-5 -3 -5 -7q0 -5 4 -9h10zM210 308l16 -16q4 4 4 9
q0 -2 -0.5 0t-1.5 7h-18zM278 274q-4 0 -4 -2q0 -3 3 -6q3 -9 10 -9q4 0 4 4t-1 5q-6 8 -12 8zM324 429q-12 0 -13 -10l13 -8q3 3 3 8q0 4 -3 10zM241 444q-1 0 -3 0.5l-2 0.5q-1 0 -2 -0.5l-1 -0.5q-4 -1 -4 -5v-3q8 -8 17 -10l2 5zM249 481l6 -4.5t8 -1.5q12 0 12 9
q0 4 -2 7.5t-4 8.5zM460 464l8 -8l8 8l-8 8zM581 472q-6 0 -6 -8t6 -8t6 8t-6 8zM508 545q-6 0 -6 -8t6 -8q7 0 7 8t-7 8zM113 37l8 -8l8 8l-8 8zM161 118q-6 0 -6 -8t6 -8q7 0 7 8t-7 8zM164 537l5 -8h8l-5 8h-8zM153 498l8 -8l8 8l-8 8z" />
    <glyph glyph-name="FL00A5h" unicode="&#xa5;" horiz-adv-x="740" 
d="M725 576l-193 -248h62v-158h-105v-47h105v-158h-105v-76h-239v76h-105v158h105v47h-105v158h62l-192 248h261l94 -120l94 120h261zM433 268q-5 -3 -5 -7q0 -5 4 -9h10zM465 357l16 -16q4 4 4 9q0 -2 -0.5 0t-1.5 7h-18zM439 301q-4 0 -4 -2q0 -3 3 -6q3 -9 10 -9q4 0 4 4
t-1 5q-6 8 -12 8zM589 518q-6 0 -12 -8q-1 -1 -1 -5t4 -4q7 0 10 9q3 3 3 6q0 2 -4 2zM215 403q-3 -2 -1 -4q1 -2 6 -3.5t2 3.5q-4 7 -7 4zM371 355q-4 -1 -2 -5q2 -2 7 -3.5t1 3.5q-2 6 -6 5zM280 241q-5 -3 -5 -7q0 -5 4 -9h10zM312 330l16 -16q4 4 4 9q0 -2 -0.5 0
t-1.5 7h-18zM286 274q-4 0 -4 -2q0 -3 3 -6q3 -9 10 -9q4 0 4 4t-1 5q-6 8 -12 8zM332 429q-12 0 -13 -10l13 -8q3 3 3 8q0 4 -3 10zM249 444q-1 0 -3 0.5l-2 0.5q-1 0 -2 -0.5l-1 -0.5q-4 -1 -4 -5v-3q8 -8 17 -10l2 5zM257 481l6 -4.5t8 -1.5q12 0 12 9q0 4 -2 7.5t-4 8.5
zM468 464l8 -8l8 8l-8 8zM589 472q-6 0 -6 -8t6 -8t6 8t-6 8zM516 545q-6 0 -6 -8t6 -8q7 0 7 8t-7 8zM172 537l5 -8h8l-5 8h-8zM161 498l8 -8l8 8l-8 8zM369 197v-16h10q0 12 -10 16zM345 230q-7 0 -7 -8q0 -9 7 -9q6 0 6 9q0 8 -6 8zM434 74q-6 0 -6 -8t6 -8q7 0 7 8t-7 8
zM459 106q1 4 -5 4q-5 0 -3.5 -4t3.5 -4q4 0 5 4zM358 127q-6 0 -6 -8t6 -8t6 8t-6 8zM382 160q-4 1 -4 -5q0 -5 4 -3.5t4 3.5q0 4 -4 5zM440 158q-5 2 -5 -5q0 -5 4 -3.5t4 3.5q0 3 -3 5zM336 48q-6 0 -6 -8t6 -8t6 8t-6 8zM360 81q-4 1 -4 -5q0 -5 4 -3.5t4 3.5q0 4 -4 5z
M261 56q-6 0 -12 -8q-1 -1 -1 -5t4 -4q7 0 10 9q3 3 3 6q0 2 -4 2zM261 10q-6 0 -6 -8t6 -8t6 8t-6 8zM188 83q-6 0 -6 -8t6 -8q7 0 7 8t-7 8zM502 18q-5 -3 -5 -7q0 -5 4 -9h10zM534 91l16 -16q4 4 4 9q0 -2 -0.5 0t-1.5 7h-18zM508 51q-4 0 -4 -2q0 -3 3 -6q3 -9 10 -9
q4 0 4 4t-1 5q-6 8 -12 8zM438 -58q-4 0 -4 -2q0 -3 3 -6q3 -9 10 -9q4 0 4 4t-1 5q-6 8 -12 8zM370 -4q-4 -1 -2 -5q2 -2 7 -3.5t1 3.5q-2 6 -6 5zM311 -29l16 -16q4 4 4 9q0 -2 -0.5 0t-1.5 7h-18zM207 254q-5 -3 -5 -7q0 -5 4 -9h10zM213 287q-4 0 -4 -2q0 -3 3 -6
q3 -9 10 -9q4 0 4 4t-1 5q-6 8 -12 8zM517 235q-5 -3 -5 -7q0 -5 4 -9h10zM523 268q-4 0 -4 -2q0 -3 3 -6q3 -9 10 -9q4 0 4 4t-1 5q-6 8 -12 8z" />
    <glyph glyph-name="FL00A6h" unicode="&#xa6;" horiz-adv-x="302" 
d="M29 311h243v376h-242zM30 -108h242v372h-242v-372zM70 143q7 0 7 -8t-7 -8q-6 0 -6 8t6 8zM93 607q-7 0 -7 8q0 9 7 9q6 0 6 -9q0 -8 -6 -8zM214 583l-8 8h8v-8zM93 559v8l8 -8h-8zM141 502v-1q0 -3 -4 -3t-4 3q0 6 4 6q2 0 4 -5zM101 445v8h8zM133 445l8 8v-8h-8z
M165 437v16h10q0 -10 -10 -16zM182 421q-7 0 -7 8t7 8q6 0 6 -8t-6 -8zM231 381q-6 2 -7.5 5.5t-1.5 8.5v6l1 12q3 -1 9.5 -7t6.5 -9v-1q0 -3 -2.5 -8t-5.5 -7zM125 397v8l8 -8h-8zM190 381h-2q-3 0 -3 4t3 4q5 0 5 -4t-3 -4zM236 356v-1q0 -2 -4 -2t-4 3q0 5 4 5q2 0 4 -5z
M117 356v-1q0 -3 -5 -3q-4 0 -4 3q0 5 4 5t5 -4zM98 219q-6 0 -6 8t6 8q7 0 7 -8t-7 -8zM96 162q-6 0 -6 8t6 8q7 0 7 -8t-7 -8zM119 154q0 12 10 16v-16h-10zM191 181q10 0 11.5 -2.5t1.5 -12.5q-10 0 -11.5 2.5t-1.5 12.5zM211 233l3 1q1 0 3 -0.5l2 -0.5q5 -3 8 -8h-16v8
zM143 565h9v-8zM168 606q6 0 6 -8t-6 -8q-7 0 -7 8t7 8zM184 630q4 -1 4 -4q0 -2 -4.5 -4t-4.5 4t5 4zM200 654h8v-8h-8v8zM184 -49h-2q-2 0 -2 4t3 4q5 0 5 -4q0 -3 -4 -4zM139 102q0 10 10 16v-16h-10zM173 77q-6 0 -6 8t6 8t6 -8t-6 -8zM189 37q-6 0 -6 8t6 8t6 -8t-6 -8
zM197 -12v8h8v-8h-8zM104 -3v8h8zM136 -3l8 8v-8h-8zM124 -65l4 22l20 -15z" />
    <glyph glyph-name="FL00A7h" unicode="&#xa7;" horiz-adv-x="740" 
d="M725 576l-138 -178v-235q0 -4 -2 -11.5t-6.5 -15t-13 -13t-21.5 -5.5h-175l-93 -118h-261l137 177v240q0 6 5 14t12 15t15 11.5t14 4.5h176l90 114h261zM329 332v-84h81v84h-81zM437 268q-5 -3 -5 -7q0 -5 4 -9h10zM457 357l16 -16q4 4 4 9q0 -2 -0.5 0t-1.5 7h-18z
M443 301q-4 0 -4 -2q0 -3 3 -6q3 -9 10 -9q4 0 4 4t-1 5q-6 8 -12 8zM503 192q-4 1 -6 -5q-4 -5 1 -3.5t7 3.5q2 4 -2 5zM544 167q-1 -5 -1.5 -7t-0.5 0q0 -5 4 -9l14 15zM581 518q-6 0 -12 -8q-1 -1 -1 -5t4 -4q7 0 10 9q3 3 3 6q0 2 -4 2zM179 85q-3 -6 -3 -10q0 -5 3 -8
l13 8q-1 10 -13 10zM251 86q5 1 8 3.5t7 6.5v3q0 4 -4 5l-1 0.5t-2 0.5l-2 -0.5t-3 -0.5l-6 -13zM207 403q-3 -2 -1 -4q1 -2 6 -3.5t2 3.5q-4 7 -7 4zM406 217q-2 -2 0 -5q2 -2 6.5 -3.5t1.5 3.5q-5 7 -8 5zM513 244q-4 -1 -2 -5q2 -2 7 -3.5t1 3.5q-2 6 -6 5zM336 168l5 -8
h8l-5 8h-8zM272 241q-5 -3 -5 -7q0 -5 4 -9h10zM210 308l16 -16q4 4 4 9q0 -2 -0.5 0t-1.5 7h-18zM278 274q-4 0 -4 -2q0 -3 3 -6q3 -9 10 -9q4 0 4 4t-1 5q-6 8 -12 8zM324 429q-12 0 -13 -10l13 -8q3 3 3 8q0 4 -3 10zM241 434q-1 0 -3 0.5l-2 0.5q-1 0 -2 -0.5l-1 -0.5
q-4 -1 -4 -5v-3q8 -8 17 -10l2 5zM460 464l8 -8l8 8l-8 8zM581 472q-6 0 -6 -8t6 -8t6 8t-6 8zM508 545q-6 0 -6 -8t6 -8q7 0 7 8t-7 8zM113 37l8 -8l8 8l-8 8zM161 118q-6 0 -6 -8t6 -8q7 0 7 8t-7 8z" />
    <glyph glyph-name="FL00A8h" unicode="&#xa8;" horiz-adv-x="507" 
d="M202 608q17 8 24 17.5t10 25.5v100q-6 12 -14 21t-20 11h-134q-21 -5 -26.5 -13t-11.5 -19v-102q0 -5 2.5 -11.5t7.5 -13.5t12 -11.5t16 -4.5h134zM443 608q17 8 24 17.5t10 25.5v100q-6 12 -14 21t-20 11h-134q-21 -5 -26.5 -13t-11.5 -19v-102q0 -5 2.5 -11.5
t7.5 -13.5t12 -11.5t16 -4.5h134zM121 660q7 0 7 -8t-7 -8q-6 0 -6 8t6 8zM194 715h2q2 0 2 -4t-3 -4q-5 0 -5 4q0 3 4 4zM160 700l-7 -19l-8 19h15zM169 739h2q3 0 3 -4t-3 -4q-5 0 -5 4t3 4zM66 700h2q2 0 2.5 -4t0.5 -6q0 -4 -3 -4q-5 0 -5 4q0 2 0.5 6t2.5 4zM103 722h2
q3 0 3 -4t-3 -4q-5 0 -5 4t3 4zM357 664q7 0 7 -8t-7 -8q-6 0 -6 8t6 8zM430 719h2q2 0 2 -4t-3 -4q-5 0 -5 4q0 3 4 4zM396 704l-7 -19l-8 19h15zM405 743h2q3 0 3 -4t-3 -4q-5 0 -5 4t3 4zM302 704h2q2 0 2.5 -4t0.5 -6q0 -4 -3 -4q-5 0 -5 4q0 2 0.5 6t2.5 4zM339 726h2
q3 0 3 -4t-3 -4q-5 0 -5 4t3 4z" />
    <glyph glyph-name="FL00BAh" unicode="&#xa9;" horiz-adv-x="477" 
d="M148 487q0 -17 11 -33t28 -16h142v42h-122q-5 0 -5 6v56q1 1 1 5q0 2 4 2h122v43h-142q-17 0 -28 -16.5t-11 -33.5v-55zM30 574q0 18 6.5 37t18.5 34t28.5 25t36.5 10h238q20 0 36.5 -10t28 -25t18 -34t6.5 -37v-119q0 -18 -6.5 -37t-18 -34t-28 -25t-36.5 -10h-238
q-20 0 -36.5 10t-28.5 25t-18.5 34t-6.5 37v119zM118 554q1 3 -4 3t-4 -4t4 -4q2 0 4 5zM81 615q1 4 -4 4t-3.5 -4t3.5 -4q3 0 4 4zM106 408q-6 0 -6 -8t6 -8t6 8t-6 8zM122 449q-4 0 -4 -5t4 -3.5t4 3.5q0 4 -4 5zM189 406q1 3 -4 3t-4 -4t4 -4q2 0 4 5zM418 464q1 4 -4 4
t-3.5 -4t3.5 -4q3 0 4 4zM367 560q-6 0 -6 -8t6 -8t6 8t-6 8zM383 601q-4 0 -4 -5t4 -3.5t4 3.5q0 4 -4 5zM343 388q1 3 -4 3t-4 -4t4 -4q2 0 4 5zM262 647q1 4 -4 4t-3.5 -4t3.5 -4q3 0 4 4zM298 519q-6 0 -6 -8t6 -8t6 8t-6 8zM229 632q-4 0 -4 -5t4 -3.5t4 3.5q0 4 -4 5z
M85 526q-6 0 -6 -8t6 -8t6 8t-6 8zM65 504q-4 0 -4 -5t4 -3.5t4 3.5q0 4 -4 5z" />
    <glyph glyph-name="FLE003h" unicode="&#xaa;" 
d="M755 486v-396q0 -21 -9.5 -38t-24.5 -28.5t-34 -17.5t-37 -6h-515q-18 0 -37 6t-34 17.5t-24.5 28.5t-9.5 38v276h416l-75 -158h-102v-42h247v244h-486v166h620q18 0 37 -6t34 -17.5t24.5 -28.5t9.5 -38zM506 125q-6 0 -6 -8t6 -8q7 0 7 8t-7 8zM523 93q-7 0 -7 -8
q0 -9 7 -9q6 0 6 9q0 8 -6 8zM458 52v-8h8v8h-8zM123 193q-4 -1 -4 -4q0 -2 4 -3.5t4 3.5t-4 4zM155 185q-6 0 -6 -8t6 -8t6 8t-6 8zM107 96q6 0 6 8t-6 -8zM139 112l8 -8v8h-8zM674 340v-8l8 8h-8zM609 324v-9h9v9h-9zM707 299q-7 0 -7 -8t7 -8q6 0 6 8t-6 8zM674 251
q2 -5 5 -5q2 0 3.5 4t-3.5 4q-7 0 -5 -3zM707 162v-9l8 9h-8zM249 476q-6 0 -6 -9q0 -8 6 -8q7 0 7 8q0 9 -7 9zM201 484q-7 0 -7 -8q0 -9 7 -9q6 0 6 9q0 8 -6 8zM310 518q-7 0 -7 -8t7 -8q6 0 6 8t-6 8zM79 484q-6 0 -6 -8q0 -9 6 -9t6 9q0 8 -6 8zM79 524q-6 0 -6 -8
t6 -8t6 8t-6 8zM168 492q2 -5 5 -5q2 0 3.5 4t-3.5 4q-7 0 -5 -3zM553 477q-7 0 -7 -8t7 -8q6 0 6 8t-6 8zM624 299q-7 0 -7 -8t7 -8q6 0 6 8t-6 8zM664 453q-6 0 -6 -8t6 -8t6 8t-6 8zM688 388q-4 1 -4 -4t4 -4t4 4t-4 4zM680 494q-4 0 -4 -5t4 -3.5t4 3.5q0 4 -4 5z
M575 323l-8 -8h8v8zM153 315q0 -7 2 -10t12 -3q13 0 13 13t-13 13q-10 0 -12 -3t-2 -10zM626 95q0 -17 14 -17q9 0 11.5 4.5t2.5 12.5t-2.5 12t-11.5 4q-14 0 -14 -16zM91 210q6 0 6 8t-6 8q-7 0 -7 -8t7 -8zM212 234q6 0 6 8t-6 8t-6 -8t6 -8zM236 299q4 1 4 4t-4 4t-4 -4
t4 -4zM228 193q4 1 4 5q0 2 -4 3.5t-4 -3.5t4 -5zM276 125q-6 0 -6 -8t6 -8q7 0 7 8t-7 8zM220 48q-6 0 -6 -8t6 -8q7 0 7 8t-7 8zM247 85q-7 0 -7 -8t7 -8q6 0 6 8t-6 8zM277 64q1 4 -5 4q-5 0 -3.5 -4t3.5 -4q4 0 5 4zM459 495q7 0 7 8t-7 8q-6 0 -6 -8t6 -8zM522 516
q-1 4 -5 4q-2 0 -3.5 -4t3.5 -4q6 0 5 4zM391 104q-6 0 -6 -8q0 -9 6 -9t6 9q0 8 -6 8zM310 330q-7 0 -7 -8t7 -8q6 0 6 8t-6 8zM623 183q-6 0 -6 -8q0 -9 6 -9t6 9q0 8 -6 8zM378 470q-6 0 -6 -8t6 -8q7 0 7 8t-7 8zM348 313q-6 0 -6 -8t6 -8q7 0 7 8t-7 8zM365 281
q-7 0 -7 -8q0 -9 7 -9q6 0 6 9q0 8 -6 8zM80 302v-8h8v8h-8z" />
    <glyph glyph-name="FL00ABh" unicode="&#xab;" horiz-adv-x="459" 
d="M205 54v184l-131 51l131 46v185l-175 -68v-328zM61 152l8 8v-8h-8zM61 192h8l-8 -8v8zM143 201h8v-8h-8v8zM102 209q0 -6 -8 -6t-8 6t8 6t8 -6zM166 223q0 -6 -8 -6t-8 6t8 6t8 -6zM165 358v-10h-16q6 10 16 10zM115 365q-1 -4 -5 -4t-4 5q0 3 4 3q5 0 5 -4zM106 426
q0 -6 -8 -6t-8 6q0 7 8 7t8 -7zM173 404q0 6 8 6t8 -6t-8 -6t-8 6zM132 420q1 4 5 4q2 0 3.5 -4t-3.5 -4t-5 4zM66 337q-1 -4 -5 -4t-4 5q0 3 4 3q5 0 5 -4zM146 118q0 -6 -8 -6t-8 6q0 7 8 7t8 -7zM157 466q0 6 8 6t8 -6t-8 -6t-8 6zM171 112q1 4 5 4t4 -5q0 -3 -4 -3
q-5 0 -5 4zM429 54v184l-131 51l131 46v185l-175 -68v-328zM285 152l8 8v-8h-8zM285 192h8l-8 -8v8zM367 201h8v-8h-8v8zM326 209q0 -6 -8 -6t-8 6t8 6t8 -6zM390 223q0 -6 -8 -6t-8 6t8 6t8 -6zM389 358v-10h-16q6 10 16 10zM339 365q-1 -4 -5 -4t-4 5q0 3 4 3q5 0 5 -4z
M330 426q0 -6 -8 -6t-8 6q0 7 8 7t8 -7zM397 404q0 6 8 6t8 -6t-8 -6t-8 6zM356 420q1 4 5 4q2 0 3.5 -4t-3.5 -4t-5 4zM290 337q-1 -4 -5 -4t-4 5q0 3 4 3q5 0 5 -4zM370 118q0 -6 -8 -6t-8 6q0 7 8 7t8 -7zM381 466q0 6 8 6t8 -6t-8 -6t-8 6zM395 112q1 4 5 4t4 -5
q0 -3 -4 -3q-5 0 -5 4z" />
    <glyph glyph-name="FL00ACh" unicode="&#xac;" horiz-adv-x="482" 
d="M30 366v-158h264v-120h158v278h-422zM114 313q-6 0 -6 8q0 9 6 9q7 0 7 -9q0 -8 -7 -8zM131 281q-7 0 -7 8t7 8q6 0 6 -8t-6 -8zM169 264q-6 0 -6 8t6 8q7 0 7 -8t-7 -8zM243 295q4 1 4 -4t-4 -4t-4 4t4 4zM326 277q0 -5 -2 -8t-10 -3q-11 0 -11 11q0 12 11 12q8 0 10 -3
t2 -9zM369 147q6 0 6 -8t-6 -8q-7 0 -7 8t7 8zM393 180q-2 -5 -5 -5q-2 0 -3.5 4t3.5 4q6 0 5 -3zM219 319q4 -1 4 -4t-4 -4t-4 4t4 4zM400 268q6 0 6 -8t-6 -8q-7 0 -7 8t7 8zM371 324q4 -1 4 -4t-4 -4t-4 4t4 4zM79 259q4 -1 4 -4t-4 -4t-4 4t4 4z" />
    <glyph glyph-name="FL00ADh" unicode="&#xad;" horiz-adv-x="346" 
d="M316 208v158h-286v-158h286zM228 278q1 0 2.5 0.5l1.5 0.5q1 0 2.5 -0.5l1.5 -0.5q8 -2 9 -8q-6 -10 -17 -10v18zM115 317q6 0 6 -8t-6 -8t-6 8t6 8zM245 326l3 1q7 0 11 -5t4 -12h-18v16zM288 318q7 0 7 -8t-7 -8q-6 0 -6 8t6 8zM146 306q7 0 7 -8t-7 -8q-6 0 -6 8t6 8z
M69 292q6 0 6 -8t-6 -8t-6 8t6 8zM100 284q7 0 7 -8t-7 -8q-6 0 -6 8t6 8zM177 254q7 0 7 -8t-7 -8q-6 0 -6 8t6 8zM181 339l3 1q7 0 11 -5t4 -12h-18v16z" />
    <glyph glyph-name="FL0566h" unicode="&#xae;" horiz-adv-x="470" 
d="M26 574q0 18 6.5 37t18.5 34t28.5 25t36.5 10h238q20 0 36.5 -10t28 -25t18 -34t6.5 -37v-119q0 -18 -6.5 -37t-18 -34t-28 -25t-36.5 -10h-238q-20 0 -36.5 10t-28.5 25t-18.5 34t-6.5 37v119zM144 437h54v105q1 1 1 5q0 2 4 2h122v43h-142q-17 0 -28 -16.5t-11 -33.5
v-105zM253 480q1 3 -4 3t-4 -4t4 -4q2 0 4 5zM81 615q1 4 -4 4t-3.5 -4t3.5 -4q3 0 4 4zM106 408q-6 0 -6 -8t6 -8t6 8t-6 8zM122 449q-4 0 -4 -5t4 -3.5t4 3.5q0 4 -4 5zM189 406q1 3 -4 3t-4 -4t4 -4q2 0 4 5zM418 464q1 4 -4 4t-3.5 -4t3.5 -4q3 0 4 4zM367 560
q-6 0 -6 -8t6 -8t6 8t-6 8zM383 601q-4 0 -4 -5t4 -3.5t4 3.5q0 4 -4 5zM343 388q1 3 -4 3t-4 -4t4 -4q2 0 4 5zM262 647q1 4 -4 4t-3.5 -4t3.5 -4q3 0 4 4zM298 519q-6 0 -6 -8t6 -8t6 8t-6 8zM229 632q-4 0 -4 -5t4 -3.5t4 3.5q0 4 -4 5zM85 526q-6 0 -6 -8t6 -8t6 8t-6 8
zM65 504q-4 0 -4 -5t4 -3.5t4 3.5q0 4 -4 5zM311 444q1 4 -4 4t-3.5 -4t3.5 -4q3 0 4 4zM278 429q-4 0 -4 -5t4 -3.5t4 3.5q0 4 -4 5z" />
    <glyph glyph-name="FL00AFh" unicode="&#xaf;" horiz-adv-x="490" 
d="M30 608v-148h430v148h-430zM156 559v-8h-8v8h8zM246 551q3 -2 3 -4t-4 -3.5t-4 3.5q0 6 5 4zM116 519v-8h-16v8h16zM181 503q1 0 2 0.5l1 0.5q1 0 3 -0.5l2 -0.5q6 -2 8 -8q-6 -10 -16 -10v18zM116 582q6 0 6 -8t-6 -8t-6 8t6 8zM173 533h-9l9 8v-8zM83 533h-8v8z
M365 521q6 0 6 -8t-6 -8t-6 8t6 8zM341 537q6 0 6 -8t-6 -8q-7 0 -7 8t7 8zM373 559v-8h-8v8h8zM390 533h-9l9 8v-8zM297 579q6 0 6 -8t-6 -8t-6 8t6 8z" />
    <glyph glyph-name="FL00B0h" unicode="&#xb0;" horiz-adv-x="266" 
d="M68 608q-9 0 -16 4.5t-12 11.5t-7.5 13.5t-2.5 11.5v102q6 11 11.5 19t26.5 13h134q12 -2 20 -11t14 -21v-100q-3 -16 -10 -25.5t-24 -17.5h-134zM154 670q10 5 11 15v27q-4 10 -11 11h-40q-8 -2 -9.5 -4.5t-3.5 -6.5v-28q0 -3 3.5 -8.5t9.5 -5.5h40zM165 644v-17h8v17
h-8zM192 745v-8h8v8h-8zM80 729q-7 0 -7 -8t7 -8q6 0 6 8t-6 8zM104 761v-8h8v8h-8zM83 653q-7 0 -7 -8t7 -8q6 0 6 8t-6 8zM199 692v-8h8v8h-8z" />
    <glyph glyph-name="FL00B1h" unicode="&#xb1;" horiz-adv-x="482" 
d="M452 0h-422v158h422v-158zM320 576v-111h132v-158h-132v-111h-158v111h-132v158h132v111h158zM379 349v-16h10q0 12 -10 16zM355 382q-7 0 -7 -8q0 -9 7 -9q6 0 6 9q0 8 -6 8zM169 348v-8h16q-2 6 -8 8l-1.5 0.5t-2.5 0.5l-1.5 -0.5t-2.5 -0.5zM177 405q-6 0 -6 -8t6 -8
t6 8t-6 8zM193 494q-4 1 -4 -5q0 -5 4 -3.5t4 3.5q0 4 -4 5zM240 108q-6 0 -6 -8t6 -8t6 8t-6 8zM224 440l5 -11q8 0 14 2t6 11q0 11 -13 11q-1 0 -3 -0.5t-4 -0.5zM273 294q-7 0 -7 -8t7 -8q6 0 6 8t-6 8zM263 353v1q0 3 -4 3t-4 -4q0 -5 4 -5q2 0 4 5zM290 237
q0 -9 10 -16l4 16h-14zM237 281q-4 1 -4 -5q0 -5 4 -3.5t4 3.5q0 4 -4 5zM398 132v1q0 3 -4 3t-4 -4q0 -5 4 -5q2 0 4 5zM262 526v1q0 3 -4 3t-4 -4q0 -5 4 -5q2 0 4 5zM414 441q-4 1 -4 -5q0 -5 4 -3.5t4 3.5q0 4 -4 5zM91 90q-7 0 -7 -8t7 -8q6 0 6 8t-6 8zM204 98
q-6 0 -6 -8t6 -8t6 8t-6 8zM131 122q-4 1 -4 -4t4 -4t4 4t-4 4zM62 351v-18q11 0 17 10q-2 7 -9 8l-1.5 0.5t-2.5 0.5l-1.5 -0.5t-2.5 -0.5zM79 399v-16h18q0 7 -4 12t-11 5zM135 391q-6 0 -6 -8t6 -8q7 0 7 8t-7 8zM412 66q-6 0 -6 -8t6 -8t6 8t-6 8zM263 48q-7 0 -7 -8
t7 -8q6 0 6 8t-6 8zM376 56q-6 0 -6 -8t6 -8t6 8t-6 8zM303 80q-4 1 -4 -4t4 -4t4 4t-4 4z" />
    <glyph glyph-name="FL00B2h" unicode="&#xb2;" horiz-adv-x="450" 
d="M419 298h-326q-22 0 -42.5 14t-20.5 40v99q0 4 2 13t6.5 18t13 16t21.5 7h170v20h-212v117h326q22 0 42.5 -14t20.5 -40v-99q0 -4 -2 -13t-6.5 -18t-13 -16t-21.5 -7h-170v-20h212v-117zM172 349v-16h10q0 12 -10 16zM148 382q-7 0 -7 -8q0 -9 7 -9q6 0 6 9q0 8 -6 8z
M289 343v-8h16q-2 6 -8 8l-1.5 0.5t-2.5 0.5l-1.5 -0.5t-2.5 -0.5zM265 359q-5 2 -5 -4q0 -5 4 -3.5t4 3.5t-3 4zM297 400q-6 0 -6 -8t6 -8t6 8t-6 8zM346 544l5 -11q8 0 14 2t6 11q0 11 -13 11q-1 0 -3 -0.5t-4 -0.5zM383 348v1q0 3 -4 3t-4 -4q0 -5 4 -5q2 0 4 5zM217 559
q-6 0 -6 -8t6 -8t6 8t-6 8zM311 599v1q0 3 -4 3t-4 -4q0 -5 4 -5q2 0 4 5zM285 486v1q0 3 -4 3t-4 -4q0 -5 4 -5q2 0 4 5zM102 572q-7 0 -7 -8t7 -8q6 0 6 8t-6 8zM142 588q-4 1 -4 -5q0 -5 4 -3.5t4 3.5q0 4 -4 5zM118 596q-5 2 -5 -4t4.5 -4t4.5 4q0 3 -4 4zM134 620v-8h8
v8h-8zM70 391q-7 0 -7 -8t7 -8q6 0 6 8t-6 8zM110 407q-4 1 -4 -5q0 -5 4 -3.5t4 3.5q0 4 -4 5zM86 415q-5 2 -5 -4t4.5 -4t4.5 4q0 3 -4 4zM102 439v-8h8v8h-8z" />
    <glyph glyph-name="FL00B3h" unicode="&#xb3;" horiz-adv-x="437" 
d="M61 409h169v25h-158v69h162v21h-169l-50 117h339q22 0 37.5 -11t15.5 -37v-248q0 -26 -15.5 -37t-37.5 -11h-339zM300 341v-16h10q0 12 -10 16zM276 374q-7 0 -7 -8q0 -9 7 -9q6 0 6 9q0 8 -6 8zM303 464v-8h16q-2 6 -8 8l-1.5 0.5t-2.5 0.5l-1.5 -0.5t-2.5 -0.5z
M279 480q-5 2 -5 -4q0 -5 4 -3.5t4 3.5t-3 4zM311 521q-6 0 -6 -8t6 -8t6 8t-6 8zM264 597q-6 0 -6 -8t6 -8t6 8t-6 8zM95 336q-7 0 -7 -8t7 -8q6 0 6 8t-6 8zM115 375v1q0 3 -4 3t-4 -4q0 -5 4 -5q2 0 4 5zM341 417q-4 1 -4 -5q0 -5 4 -3.5t4 3.5q0 4 -4 5zM361 584v1
q0 3 -4 3t-4 -4q0 -5 4 -5q2 0 4 5zM183 454v1q0 3 -4 3t-4 -4q0 -5 4 -5q2 0 4 5zM118 483q-4 1 -4 -5q0 -5 4 -3.5t4 3.5q0 4 -4 5zM115 579q-7 0 -7 -8t7 -8q6 0 6 8t-6 8zM228 587q-6 0 -6 -8t6 -8t6 8t-6 8zM155 611q-4 1 -4 -4t4 -4t4 4t-4 4zM145 374v-16h18
q0 7 -4 12t-11 5zM201 366q-6 0 -6 -8t6 -8q7 0 7 8t-7 8z" />
    <glyph glyph-name="FL00B4h" unicode="&#xb4;" horiz-adv-x="228" 
d="M56 608h10q42 0 76.5 20.5t54.5 41.5l47 51l1 13q0 11 -3 17.5t-9 11.5l-81 34q-7 4 -20 4q-9 0 -17 -3.5t-16 -7.5l-75 -110q-4 -7 -4 -22q0 -9 1.5 -18.5t9.5 -14.5zM146 722q6 0 6 -8t-6 -8q-3 0 -8 -0.5t-5 3.5t5 8.5t8 4.5zM130 763q4 0 4 -5t-4 -3.5t-4 3.5
q0 4 4 5zM107 657q4 1 4 -4t-4 -4t-4 4t4 4zM192 738q4 1 4 -4t-4 -4t-4 4t4 4zM60 662q4 1 4 -4t-4 -4t-4 4t4 4z" />
    <glyph glyph-name="FL00B5h" unicode="&#xb5;" 
d="M269 -141v141h381q18 0 37 6t34 17.5t24.5 28.5t9.5 38v486h-239v-411h-247v411h-239v-717h239zM379 105v-8h-8v8h8zM469 97q3 -2 3 -4t-4 -3.5t-4 3.5q0 6 5 4zM339 65v-8h-16v8h16zM404 49q1 0 2 0.5l1 0.5q1 0 3 -0.5l2 -0.5q6 -2 8 -8q-6 -10 -16 -10v18zM185 160
q-1 -4 -5 -4q-2 0 -3.5 4t3.5 4q6 0 5 -4zM128 144q7 0 7 -8t-7 -8q-6 0 -6 8t6 8zM339 128q6 0 6 -8t-6 -8t-6 8t6 8zM396 79h-9l9 8v-8zM306 79h-8v8zM571 394q3 -2 3 -5q0 -2 -4 -3.5t-4 3.5t5 5zM708 377q7 0 7 -8t-7 -8q-6 0 -6 8t6 8zM653 370q0 8 2.5 12.5t12.5 4.5
q17 0 17 -17q0 -16 -17 -16q-10 0 -12.5 4t-2.5 12zM587 353q6 0 6 -8t-6 -8q-7 0 -7 8t7 8zM652 337q6 0 6 -8t-6 -8q-7 0 -7 8t7 8zM562 288q4 -1 4 -4t-4 -4t-4 4t4 4zM684 215q-1 -4 -5 -4q-2 0 -3.5 4t3.5 4q6 0 5 -4zM627 199q7 0 7 -8t-7 -8q-6 0 -6 8t6 8zM129 471
v-16h-8v16h8zM72 398q6 0 6 -8t-6 -8t-6 8t6 8zM88 261q4 -1 4 -5q0 -2 -4 -3.5t-4 3.5t4 5zM72 220q6 0 6 -8t-6 -8t-6 8t6 8zM96 155q4 -1 4 -4t-4 -4t-4 4t4 4zM167 539v-8h-8v8h8zM127 499v-8h-16v8h16zM192 483q1 0 2 0.5l1 0.5q1 0 3 -0.5l2 -0.5q6 -2 8 -8
q-6 -10 -16 -10v18zM106 394h5q7 -2 8 -9q-6 -9 -16 -9v18h3zM176 304q4 10 16 10v-19q-12 0 -16 9zM151 280q7 0 7 -8t-7 -8q-6 0 -6 8t6 8zM224 207q6 0 6 -8t-6 -8t-6 8t6 8zM111 207l8 -8l-8 -8l-8 8zM643 438q-1 -4 -5 -4q-2 0 -3.5 4t3.5 4q6 0 5 -4zM619 511
q6 0 6 -8t-6 -8q-7 0 -7 8t7 8zM675 511l8 -8h-8v8zM700 536l8 -8h-8v8zM669 51q6 0 6 -8t-6 -8t-6 8t6 8zM588 67q6 0 6 -8t-6 -8t-6 8t6 8zM645 75q6 0 6 -8t-6 -8q-7 0 -7 8t7 8zM564 83q6 0 6 -8t-6 -8q-7 0 -7 8t7 8zM159 65q1 0 2.5 0.5l1.5 0.5q1 0 2.5 -0.5
l1.5 -0.5q7 -1 9 -8h-17v8zM152 438v-17h-10q0 11 10 17zM71 534h16v-8h-16v8zM184 9v-16h-8v16h8zM127 -64q6 0 6 -8t-6 -8t-6 8t6 8zM161 -68h5q7 -2 8 -9q-6 -9 -16 -9v18h3zM207 -24v-17h-10q0 11 10 17zM86 19h-8v8zM86 -107h-8v8z" />
    <glyph glyph-name="FL004Bh" unicode="&#xb6;" horiz-adv-x="762" 
d="M486 576h261l-224 -288l224 -288h-261l-161 206h-56v-206h-239v576h239v-205h57z" />
    <glyph glyph-name="FL00B7h" unicode="&#xb7;" horiz-adv-x="293" 
d="M68 197h161q14 0 24 12t10 27v109q0 11 -11 20.5t-23 11.5h-162q-12 0 -24.5 -10t-12.5 -22v-111q0 -9 10 -23t28 -14zM142 253q7 0 7 -8t-7 -8q-6 0 -6 8t6 8zM215 308h2q2 0 2 -4t-3 -4q-5 0 -5 4q0 3 4 4zM181 293l-7 -19l-8 19h15zM190 332h2q3 0 3 -4t-3 -4
q-5 0 -5 4t3 4zM87 293h2q2 0 2.5 -4t0.5 -6q0 -4 -3 -4q-5 0 -5 4q0 2 0.5 6t2.5 4zM124 315h2q3 0 3 -4t-3 -4q-5 0 -5 4t3 4z" />
    <glyph glyph-name="FL00B8h" unicode="&#xb8;" horiz-adv-x="1084" 
d="M714 274l-115 -274h-236l63 142l-56 132l-114 -274h-241l251 576h208l69 -157l67 157h208l251 -576h-241zM534 287q0 -1 0.5 -2.5l0.5 -1.5q2 -6 8 -8q2 0 5 3t3 5t-3 8t-5 8q-6 -2 -8 -8zM535 177q6 0 6 9q0 8 -6 8q-7 0 -7 -8q0 -9 7 -9zM543 145h8l-8 8v-8zM510 72h8
v8h-8v-8zM573 48q7 0 7 8t-7 8q-6 0 -6 -8t6 -8zM218 210q6 0 6 8t-6 8t-6 -8t6 -8zM202 169q6 0 6 8q0 9 -6 9q-7 0 -7 -9q0 -8 7 -8zM242 129q-1 4 -4 4q-2 0 -4 -4t4 -4q5 0 4 4zM210 96q6 0 6 9q0 8 -6 8q-7 0 -7 -8q0 -9 7 -9zM226 72q4 1 4 5q0 2 -4.5 3.5t-4.5 -3.5
q0 -7 5 -5zM202 32q6 0 6 8t-6 8q-7 0 -7 -8t7 -8zM346 412q4 1 4 8t-4 8q-2 1 -3 -2t-1 -6t1 -6t3 -2zM281 387h8v9h-8v-9zM338 355q4 1 4 5q0 2 -4 3.5t-4 -3.5q0 -6 4 -5zM379 323h8v16h-8v-16zM395 290h8v8h-8v-8zM374 525q-2 5 -5 5q-2 0 -3.5 -4t3.5 -4q6 0 5 3z
M447 501q6 0 6 8t-6 8t-6 -8t6 -8zM333 477q6 0 13 4t7 12h-20v-16zM431 460q6 0 6 8q0 9 -6 9q-7 0 -7 -9q0 -8 7 -8zM455 358q6 0 6 8q0 9 -6 9q-7 0 -7 -9q0 -8 7 -8zM503 318l8 -8v16zM151 188h18q0 18 -18 18v-18zM127 123q-2 5 -4 5t-4 -4t4 -4q5 0 4 3zM151 66
q4 1 4 9q0 7 -4 8q-2 1 -3 -2t-1 -6t1 -6t3 -3zM225 304h8v8h-8v-8zM285 272q6 0 6 8t-6 8t-6 -8t6 -8zM269 231q6 0 6 8q0 9 -6 9q-7 0 -7 -9q0 -8 7 -8zM504 243q6 0 6 8t-6 8t-6 -8t6 -8zM488 202q6 0 6 8q0 9 -6 9q-7 0 -7 -9q0 -8 7 -8zM528 162q-1 4 -4 4q-2 0 -4 -4
t4 -4q5 0 4 4zM614 105q4 1 4 9q0 7 -4 8q-2 1 -3 -2t-1 -6t1 -6t3 -3zM273 423q4 1 4 9q0 7 -4 8q-2 1 -3 -2t-1 -6t1 -6t3 -3zM568 193q4 1 4 9q0 7 -4 8q-2 1 -3 -2t-1 -6t1 -6t3 -3zM75 38l8 -8v16zM856 279q0 -1 0.5 -2.5l0.5 -1.5q2 -6 8 -8q2 0 5 3t3 5t-3 8t-5 8
q-6 -2 -8 -8zM857 169q6 0 6 9q0 8 -6 8q-7 0 -7 -8q0 -9 7 -9zM865 137h8l-8 8v-8zM832 64h8v8h-8v-8zM905 40q7 0 7 8t-7 8q-6 0 -6 -8t6 -8zM769 493q6 0 6 8t-6 8t-6 -8t6 -8zM753 452q6 0 6 8q0 9 -6 9q-7 0 -7 -9q0 -8 7 -8zM777 350q6 0 6 8q0 9 -6 9q-7 0 -7 -9
q0 -8 7 -8zM825 310l8 -8v16zM826 235q6 0 6 8t-6 8t-6 -8t6 -8zM810 194q6 0 6 8q0 9 -6 9q-7 0 -7 -9q0 -8 7 -8zM850 154q-1 4 -4 4q-2 0 -4 -4t4 -4q5 0 4 4zM946 97q4 1 4 9q0 7 -4 8q-2 1 -3 -2t-1 -6t1 -6t3 -3zM890 185q4 1 4 9q0 7 -4 8q-2 1 -3 -2t-1 -6t1 -6
t3 -3zM441 38q6 0 6 8t-6 8t-6 -8t6 -8zM676 413q6 0 6 9q0 8 -6 8q-7 0 -7 -8q0 -9 7 -9zM692 389q4 1 4 5q0 2 -4.5 3.5t-4.5 -3.5q0 -7 5 -5zM668 349q6 0 6 8t-6 8q-7 0 -7 -8t7 -8zM617 383q4 1 4 9q0 7 -4 8q-2 1 -3 -2t-1 -6t1 -6t3 -3zM652 504q6 0 6 8t-6 8t-6 -8
t6 -8zM636 463q6 0 6 8q0 9 -6 9q-7 0 -7 -9q0 -8 7 -8zM839 381h8v8h-8v-8z" />
    <glyph glyph-name="FL00B9h" unicode="&#xb9;" horiz-adv-x="346" 
d="M30 428h54v84h-54v130h231v-214h55v-130h-286v130zM224 599q-6 0 -6 -8t6 -8t6 8t-6 8zM143 369q-6 0 -6 -8t6 -8q7 0 7 8t-7 8zM278 331q1 4 -5 4q-5 0 -3.5 -4t3.5 -4q4 0 5 4zM178 337q-6 0 -6 -8t6 -8t6 8t-6 8zM202 370q-4 1 -4 -5q0 -5 4 -3.5t4 3.5q0 4 -4 5z
M259 383q-5 2 -5 -5q0 -5 4 -3.5t4 3.5q0 3 -3 5zM69 368q-4 1 -4 -5q0 -5 4 -3.5t4 3.5q0 4 -4 5zM122 533q-4 1 -4 -5q0 -5 4 -3.5t4 3.5q0 4 -4 5zM75 581q-7 0 -7 -8t7 -8q6 0 6 8t-6 8zM188 589q-6 0 -6 -8t6 -8t6 8t-6 8zM115 613q-4 1 -4 -4t4 -4t4 4t-4 4zM156 412
v-18q11 0 17 10q-2 7 -9 8l-1.5 0.5t-2.5 0.5l-1.5 -0.5t-2.5 -0.5zM173 460v-16h18q0 7 -4 12t-11 5zM229 452q-6 0 -6 -8t6 -8q7 0 7 8t-7 8z" />
    <glyph glyph-name="FL00BCh" unicode="&#xba;" horiz-adv-x="495" 
d="M245 573l-8 -8v8h8zM247 344q6 0 6 -8q0 -9 -6 -9q-7 0 -7 9q0 8 7 8zM325 615q6 0 6 -8q0 -9 -6 -9q-7 0 -7 9q0 8 7 8zM377 562q6 0 6 -8q0 -9 -6 -9q-7 0 -7 9q0 8 7 8zM335 502v16q10 -4 10 -16h-10zM152 363q6 0 6 -8t-6 -8t-6 8t6 8zM79 387q4 -1 4 -4t-4 -4t-4 4
t4 4zM107 389q7 0 7 -8q0 -9 -7 -9q-6 0 -6 9q0 8 6 8zM75 405v-8l-8 8h8zM107 429q7 0 7 -8t-7 -8q-6 0 -6 8t6 8zM122 546h-8v8zM93 508h-14l3 12zM171 535l-8 -8v8h8zM139 586q0 14 13 14q6 0 7 -2t1 -7v-5q0 -8 -11 -8q-8 0 -9 2t-1 6zM419 374v16h8v-16h-8zM421 346v8
h16v-8h-16zM356 362q-1 0 -2 -0.5l-1 -0.5q-1 0 -3 0.5l-2 0.5q-6 2 -8 8q6 10 16 10v-18zM396 407v17h10q0 -11 -10 -17zM207 428v84h81v-84h-81zM30 597v-256q0 -17 13.5 -29t26.5 -14h352q13 0 21.5 5.5t13 13t6.5 15t2 11.5v245q0 26 -20.5 40t-42.5 14h-326
q-6 0 -14 -4.5t-15 -11.5t-12 -15t-5 -14z" />
    <glyph glyph-name="FL00BBh" unicode="&#xbb;" horiz-adv-x="459" 
d="M254 54v184l131 51l-131 46v185l175 -68v-328zM398 152l-8 8v-8h8zM398 192h-8l8 -8v8zM316 201h-8v-8h8v8zM357 209q0 -6 8 -6t8 6t-8 6t-8 -6zM293 223q0 -6 8 -6t8 6t-8 6t-8 -6zM294 358v-10h16q-6 10 -16 10zM344 365q1 -4 5 -4t4 5q0 3 -4 3q-5 0 -5 -4zM353 426
q0 -6 8 -6t8 6q0 7 -8 7t-8 -7zM286 404q0 6 -8 6t-8 -6t8 -6t8 6zM327 420q-1 4 -5 4q-2 0 -3.5 -4t3.5 -4t5 4zM393 337q1 -4 5 -4t4 5q0 3 -4 3q-5 0 -5 -4zM313 118q0 -6 8 -6t8 6q0 7 -8 7t-8 -7zM302 466q0 6 -8 6t-8 -6t8 -6t8 6zM288 112q-1 4 -5 4t-4 -5q0 -3 4 -3
q5 0 5 4zM30 54v184l131 51l-131 46v185l175 -68v-328zM174 152l-8 8v-8h8zM174 192h-8l8 -8v8zM92 201h-8v-8h8v8zM133 209q0 -6 8 -6t8 6t-8 6t-8 -6zM69 223q0 -6 8 -6t8 6t-8 6t-8 -6zM70 358v-10h16q-6 10 -16 10zM120 365q1 -4 5 -4t4 5q0 3 -4 3q-5 0 -5 -4zM129 426
q0 -6 8 -6t8 6q0 7 -8 7t-8 -7zM62 404q0 6 -8 6t-8 -6t8 -6t8 6zM103 420q-1 4 -5 4q-2 0 -3.5 -4t3.5 -4t5 4zM169 337q1 -4 5 -4t4 5q0 3 -4 3q-5 0 -5 -4zM89 118q0 -6 8 -6t8 6q0 7 -8 7t-8 -7zM78 466q0 6 -8 6t-8 -6t8 -6t8 6zM64 112q-1 4 -5 4t-4 -5q0 -3 4 -3
q5 0 5 4z" />
    <glyph glyph-name="FL05E0h" unicode="&#xbc;" horiz-adv-x="1070" 
d="M655 545q-6 0 -6 -8t6 -8q7 0 7 8t-7 8zM563 390q-2 0 -3 -3t-1 -6t1 -6t3 -2q4 1 4 8q0 8 -4 9zM621 478q-2 0 -3 -3t-1 -6t1 -6t3 -2q4 1 4 8q0 8 -4 9zM523 421q1 4 -4 4q-6 0 -4 -4t4 -4q3 0 4 4zM483 381q-7 0 -7 -8q0 -9 7 -9q6 0 6 9q0 8 -6 8zM499 340
q-6 0 -6 -8t6 -8t6 8t-6 8zM506 257v16l-8 -8zM471 225q-7 0 -7 -8q0 -9 7 -9q6 0 6 9q0 8 -6 8zM417 123q-7 0 -7 -8q0 -9 7 -9q6 0 6 9q0 8 -6 8zM349 90h20q0 8 -7 12t-13 4v-16zM433 82q-6 0 -6 -8t6 -8t6 8t-6 8zM390 58q1 3 -5 3q-5 0 -3.5 -4t3.5 -4q3 0 5 5z
M411 285h8v8h-8v-8zM395 244h8v16h-8v-16zM362 171q-2 1 -3 -2t-1 -6t1 -6t3 -2q4 1 4 8t-4 8zM599 535q-6 0 -6 -8t6 -8q7 0 7 8t-7 8zM526 503h8v8h-8v-8zM538 430l8 8h-8v-8zM530 406q-7 0 -7 -9q0 -8 7 -8q6 0 6 8q0 9 -6 9zM530 292q2 -6 8 -8q2 2 5 8t3 8t-3 5t-5 3
q-6 -2 -8 -8l-0.5 -1.5t-0.5 -2.5zM460 0h-226l272 576h226zM652 343h175v-108h38v108h175v-343h-175v105h-213v238zM30 361h54v84h-54v130h231v-214h55v-130h-286v130zM224 532q-6 0 -6 -8t6 -8t6 8t-6 8zM143 302q-6 0 -6 -8t6 -8q7 0 7 8t-7 8zM278 264q1 4 -5 4
q-5 0 -3.5 -4t3.5 -4q4 0 5 4zM178 270q-6 0 -6 -8t6 -8t6 8t-6 8zM202 303q-4 1 -4 -5q0 -5 4 -3.5t4 3.5q0 4 -4 5zM259 316q-5 2 -5 -5q0 -5 4 -3.5t4 3.5q0 3 -3 5zM69 301q-4 1 -4 -5q0 -5 4 -3.5t4 3.5q0 4 -4 5zM122 466q-4 1 -4 -5q0 -5 4 -3.5t4 3.5q0 4 -4 5z
M75 514q-7 0 -7 -8t7 -8q6 0 6 8t-6 8zM188 522q-6 0 -6 -8t6 -8t6 8t-6 8zM115 546q-4 1 -4 -4t4 -4t4 4t-4 4zM156 345v-18q11 0 17 10q-2 7 -9 8l-1.5 0.5t-2.5 0.5l-1.5 -0.5t-2.5 -0.5zM173 393v-16h18q0 7 -4 12t-11 5zM229 385q-6 0 -6 -8t6 -8q7 0 7 8t-7 8z
M709 279v-16h10q0 12 -10 16zM685 312q-7 0 -7 -8q0 -9 7 -9q6 0 6 9q0 8 -6 8zM987 298v-8h16q-2 6 -8 8l-1.5 0.5t-2.5 0.5l-1.5 -0.5t-2.5 -0.5zM963 314q-5 2 -5 -4q0 -5 4 -3.5t4 3.5t-3 4zM973 196q-6 0 -6 -8t6 -8t6 8t-6 8zM885 167q-4 1 -4 -5q0 -5 4 -3.5t4 3.5
q0 4 -4 5zM845 215q-6 0 -6 -8t6 -8t6 8t-6 8zM940 286v1q0 3 -4 3t-4 -4q0 -5 4 -5q2 0 4 5zM1000 55q-4 1 -4 -5q0 -5 4 -3.5t4 3.5q0 4 -4 5zM918 216v1q0 3 -4 3t-4 -4q0 -5 4 -5q2 0 4 5zM743 149q-4 1 -4 -5q0 -5 4 -3.5t4 3.5q0 4 -4 5zM696 197q-7 0 -7 -8t7 -8
q6 0 6 8t-6 8zM809 205q-6 0 -6 -8t6 -8t6 8t-6 8zM736 229q-4 1 -4 -4t4 -4t4 4t-4 4zM902 61v-18q11 0 17 10q-2 7 -9 8l-1.5 0.5t-2.5 0.5l-1.5 -0.5t-2.5 -0.5zM919 109v-16h18q0 7 -4 12t-11 5zM975 101q-6 0 -6 -8t6 -8q7 0 7 8t-7 8z" />
    <glyph glyph-name="FL00BEh" unicode="&#xbd;" horiz-adv-x="1071" 
d="M655 545q-6 0 -6 -8t6 -8q7 0 7 8t-7 8zM563 390q-2 0 -3 -3t-1 -6t1 -6t3 -2q4 1 4 8q0 8 -4 9zM621 478q-2 0 -3 -3t-1 -6t1 -6t3 -2q4 1 4 8q0 8 -4 9zM523 421q1 4 -4 4q-6 0 -4 -4t4 -4q3 0 4 4zM483 381q-7 0 -7 -8q0 -9 7 -9q6 0 6 9q0 8 -6 8zM499 340
q-6 0 -6 -8t6 -8t6 8t-6 8zM506 257v16l-8 -8zM471 225q-7 0 -7 -8q0 -9 7 -9q6 0 6 9q0 8 -6 8zM417 123q-7 0 -7 -8q0 -9 7 -9q6 0 6 9q0 8 -6 8zM349 90h20q0 8 -7 12t-13 4v-16zM433 82q-6 0 -6 -8t6 -8t6 8t-6 8zM390 58q1 3 -5 3q-5 0 -3.5 -4t3.5 -4q3 0 5 5z
M411 285h8v8h-8v-8zM395 244h8v16h-8v-16zM362 171q-2 1 -3 -2t-1 -6t1 -6t3 -2q4 1 4 8t-4 8zM599 535q-6 0 -6 -8t6 -8q7 0 7 8t-7 8zM526 503h8v8h-8v-8zM538 430l8 8h-8v-8zM530 406q-7 0 -7 -9q0 -8 7 -8q6 0 6 8q0 9 -6 9zM530 292q2 -6 8 -8q2 2 5 8t3 8t-3 5t-5 3
q-6 -2 -8 -8l-0.5 -1.5t-0.5 -2.5zM460 0h-226l272 576h226zM1040 0h-326q-22 0 -42.5 14t-20.5 40v99q0 4 2 13t6.5 18t13 16t21.5 7h170v20h-212v117h326q22 0 42.5 -14t20.5 -40v-99q0 -4 -2 -13t-6.5 -18t-13 -16t-21.5 -7h-170v-20h212v-117zM793 51v-16h10
q0 12 -10 16zM769 84q-7 0 -7 -8q0 -9 7 -9q6 0 6 9q0 8 -6 8zM910 45v-8h16q-2 6 -8 8l-1.5 0.5t-2.5 0.5l-1.5 -0.5t-2.5 -0.5zM886 61q-5 2 -5 -4q0 -5 4 -3.5t4 3.5t-3 4zM918 102q-6 0 -6 -8t6 -8t6 8t-6 8zM967 246l5 -11q8 0 14 2t6 11q0 11 -13 11q-1 0 -3 -0.5
t-4 -0.5zM1004 50v1q0 3 -4 3t-4 -4q0 -5 4 -5q2 0 4 5zM838 261q-6 0 -6 -8t6 -8t6 8t-6 8zM932 301v1q0 3 -4 3t-4 -4q0 -5 4 -5q2 0 4 5zM906 188v1q0 3 -4 3t-4 -4q0 -5 4 -5q2 0 4 5zM723 274q-7 0 -7 -8t7 -8q6 0 6 8t-6 8zM763 290q-4 1 -4 -5q0 -5 4 -3.5t4 3.5
q0 4 -4 5zM739 298q-5 2 -5 -4t4.5 -4t4.5 4q0 3 -4 4zM755 322v-8h8v8h-8zM691 93q-7 0 -7 -8t7 -8q6 0 6 8t-6 8zM731 109q-4 1 -4 -5q0 -5 4 -3.5t4 3.5q0 4 -4 5zM707 117q-5 2 -5 -4t4.5 -4t4.5 4q0 3 -4 4zM723 141v-8h8v8h-8zM30 361h54v84h-54v130h231v-214h55v-130
h-286v130zM224 532q-6 0 -6 -8t6 -8t6 8t-6 8zM143 302q-6 0 -6 -8t6 -8q7 0 7 8t-7 8zM278 264q1 4 -5 4q-5 0 -3.5 -4t3.5 -4q4 0 5 4zM178 270q-6 0 -6 -8t6 -8t6 8t-6 8zM202 303q-4 1 -4 -5q0 -5 4 -3.5t4 3.5q0 4 -4 5zM259 316q-5 2 -5 -5q0 -5 4 -3.5t4 3.5
q0 3 -3 5zM69 301q-4 1 -4 -5q0 -5 4 -3.5t4 3.5q0 4 -4 5zM122 466q-4 1 -4 -5q0 -5 4 -3.5t4 3.5q0 4 -4 5zM75 514q-7 0 -7 -8t7 -8q6 0 6 8t-6 8zM188 522q-6 0 -6 -8t6 -8t6 8t-6 8zM115 546q-4 1 -4 -4t4 -4t4 4t-4 4zM156 345v-18q11 0 17 10q-2 7 -9 8l-1.5 0.5
t-2.5 0.5l-1.5 -0.5t-2.5 -0.5zM173 393v-16h18q0 7 -4 12t-11 5zM229 385q-6 0 -6 -8t6 -8q7 0 7 8t-7 8z" />
    <glyph glyph-name="FL072Eh" unicode="&#xbe;" horiz-adv-x="1142" 
d="M727 545q-6 0 -6 -8t6 -8q7 0 7 8t-7 8zM635 390q-2 0 -3 -3t-1 -6t1 -6t3 -2q4 1 4 8q0 8 -4 9zM693 478q-2 0 -3 -3t-1 -6t1 -6t3 -2q4 1 4 8q0 8 -4 9zM595 421q1 4 -4 4q-6 0 -4 -4t4 -4q3 0 4 4zM555 381q-7 0 -7 -8q0 -9 7 -9q6 0 6 9q0 8 -6 8zM571 340
q-6 0 -6 -8t6 -8t6 8t-6 8zM578 257v16l-8 -8zM543 225q-7 0 -7 -8q0 -9 7 -9q6 0 6 9q0 8 -6 8zM489 123q-7 0 -7 -8q0 -9 7 -9q6 0 6 9q0 8 -6 8zM421 90h20q0 8 -7 12t-13 4v-16zM505 82q-6 0 -6 -8t6 -8t6 8t-6 8zM462 58q1 3 -5 3q-5 0 -3.5 -4t3.5 -4q3 0 5 5z
M483 285h8v8h-8v-8zM467 244h8v16h-8v-16zM434 171q-2 1 -3 -2t-1 -6t1 -6t3 -2q4 1 4 8t-4 8zM671 535q-6 0 -6 -8t6 -8q7 0 7 8t-7 8zM598 503h8v8h-8v-8zM610 430l8 8h-8v-8zM602 406q-7 0 -7 -9q0 -8 7 -8q6 0 6 8q0 9 -6 9zM602 292q2 -6 8 -8q2 2 5 8t3 8t-3 5t-5 3
q-6 -2 -8 -8l-0.5 -1.5t-0.5 -2.5zM532 0h-226l272 576h226zM61 343h169v25h-158v69h162v21h-169l-50 117h339q22 0 37.5 -11t15.5 -37v-248q0 -26 -15.5 -37t-37.5 -11h-339zM300 275v-16h10q0 12 -10 16zM276 308q-7 0 -7 -8q0 -9 7 -9q6 0 6 9q0 8 -6 8zM303 398v-8h16
q-2 6 -8 8l-1.5 0.5t-2.5 0.5l-1.5 -0.5t-2.5 -0.5zM279 414q-5 2 -5 -4q0 -5 4 -3.5t4 3.5t-3 4zM311 455q-6 0 -6 -8t6 -8t6 8t-6 8zM264 531q-6 0 -6 -8t6 -8t6 8t-6 8zM95 270q-7 0 -7 -8t7 -8q6 0 6 8t-6 8zM115 309v1q0 3 -4 3t-4 -4q0 -5 4 -5q2 0 4 5zM341 351
q-4 1 -4 -5q0 -5 4 -3.5t4 3.5q0 4 -4 5zM361 518v1q0 3 -4 3t-4 -4q0 -5 4 -5q2 0 4 5zM183 388v1q0 3 -4 3t-4 -4q0 -5 4 -5q2 0 4 5zM118 417q-4 1 -4 -5q0 -5 4 -3.5t4 3.5q0 4 -4 5zM115 513q-7 0 -7 -8t7 -8q6 0 6 8t-6 8zM228 521q-6 0 -6 -8t6 -8t6 8t-6 8zM155 545
q-4 1 -4 -4t4 -4t4 4t-4 4zM145 308v-16h18q0 7 -4 12t-11 5zM201 300q-6 0 -6 -8t6 -8q7 0 7 8t-7 8zM724 343h175v-108h38v108h175v-343h-175v105h-213v238zM781 279v-16h10q0 12 -10 16zM757 312q-7 0 -7 -8q0 -9 7 -9q6 0 6 9q0 8 -6 8zM1059 298v-8h16q-2 6 -8 8
l-1.5 0.5t-2.5 0.5l-1.5 -0.5t-2.5 -0.5zM1035 314q-5 2 -5 -4q0 -5 4 -3.5t4 3.5t-3 4zM1045 196q-6 0 -6 -8t6 -8t6 8t-6 8zM957 167q-4 1 -4 -5q0 -5 4 -3.5t4 3.5q0 4 -4 5zM917 215q-6 0 -6 -8t6 -8t6 8t-6 8zM1012 286v1q0 3 -4 3t-4 -4q0 -5 4 -5q2 0 4 5zM1072 55
q-4 1 -4 -5q0 -5 4 -3.5t4 3.5q0 4 -4 5zM990 216v1q0 3 -4 3t-4 -4q0 -5 4 -5q2 0 4 5zM815 149q-4 1 -4 -5q0 -5 4 -3.5t4 3.5q0 4 -4 5zM768 197q-7 0 -7 -8t7 -8q6 0 6 8t-6 8zM881 205q-6 0 -6 -8t6 -8t6 8t-6 8zM808 229q-4 1 -4 -4t4 -4t4 4t-4 4zM974 61v-18
q11 0 17 10q-2 7 -9 8l-1.5 0.5t-2.5 0.5l-1.5 -0.5t-2.5 -0.5zM991 109v-16h18q0 7 -4 12t-11 5zM1047 101q-6 0 -6 -8t6 -8q7 0 7 8t-7 8z" />
    <glyph glyph-name="FL00BFh" unicode="&#xbf;" horiz-adv-x="712" 
d="M584 576h-161q-14 0 -24 -12t-10 -27v-96q0 -11 11 -20.5t23 -11.5h161q12 0 25 10t13 22v98q0 9 -10 23t-28 14zM682 0v165h-413v113q16 -26 36.5 -40.5t44.5 -21.5t50.5 -9t53.5 -2h63q18 0 37 6t34 17.5t24.5 28.5t9.5 38v75h-487q-18 0 -37 -6t-34 -17.5t-24.5 -28.5
t-9.5 -38v-190q0 -21 9 -38t23 -28.5t32.5 -17.5t36.5 -6h551zM458 259h8v-8zM556 259q-7 0 -7 8t7 8q6 0 6 -8t-6 -8zM499 267q-6 0 -6 8t6 8t6 -8t-6 -8zM537 463q-4 -1 -4 5q0 5 4 3.5t4 -3.5q0 -4 -4 -5zM546 495q-5 0 -5 5t4 3.5t4 -3.5q0 -4 -3 -5zM529 520q-6 0 -6 8
t6 8q7 0 7 -8t-7 -8zM481 536h10q0 -12 -10 -16v16zM415 77q-5 -2 -5 5q0 5 4 3.5t4 -3.5q0 -4 -3 -5zM326 85q-3 0 -9 3t-8 5h25q0 -2 -3 -5t-5 -3zM277 102q-5 -2 -5 4q0 5 4.5 4t4.5 -4q0 -4 -4 -4zM116 63q1 -4 -4 -4t-3.5 4t3.5 4q3 0 4 -4zM173 87q1 -4 -4 -4
q-6 0 -4 4.5t4 4.5t4 -5zM157 128q-6 0 -6 8q0 7 6 7t6 -7q0 -8 -6 -8zM111 176h8v-8zM214 176q-7 0 -7 8t7 8q6 0 6 -8t-6 -8zM157 184q-6 0 -6 8t6 8t6 -8t-6 -8zM471 320q-7 0 -7 8t7 8q6 0 6 -8t-6 -8zM438 336v-8h-8zM536 338l8 -8h-8v8zM445 487q-3 0 -9 3t-8 5h25
q0 -2 -3 -5t-5 -3zM503 447q-5 -2 -5 4q0 5 4.5 4t4.5 -4q0 -4 -4 -4zM548 76v18q11 0 17 -10q-2 -7 -9 -8l-1.5 -0.5t-2.5 -0.5l-1.5 0.5t-2.5 0.5zM435 44q-6 0 -6 8t6 8t6 -8t-6 -8zM565 28v16h18q0 -7 -4 -12t-11 -5zM621 36q-6 0 -6 8t6 8q7 0 7 -8t-7 -8zM306 330l9 8
v-8h-9zM331 289q-7 0 -7 8t7 8q6 0 6 -8t-6 -8zM371 273q-4 -1 -4 5q0 5 4 3.5t4 -3.5q0 -4 -4 -5zM347 265q-5 -2 -5 4t4.5 4t4.5 -4q0 -3 -4 -4zM363 241v8h8v-8h-8zM133 224q-6 0 -6 8t6 8q7 0 7 -8t-7 -8zM128 184v8h8v-8h-8zM198 304q1 -3 -5 -3q-5 0 -3.5 4t3.5 4
q3 0 5 -5zM220 264q0 9 10 16v-16h-10zM84 297v8h8v-8h-8zM125 272q1 -3 -5 -3q-5 0 -3.5 4t3.5 4q3 0 5 -5zM495 126v-1q0 -2 -4 -2t-4 3q0 5 4 5q2 0 4 -5zM211 30v8h8v-8h-8z" />
    <glyph glyph-name="FL00C0h" unicode="&#xc0;" horiz-adv-x="859" 
d="M528 538q-7 0 -7 -8t7 -8q6 0 6 8t-6 8zM609 530q-7 0 -7 -8t7 -8q6 0 6 8t-6 8zM552 522q-6 0 -6 -8t6 -8t6 8t-6 8zM633 506q-6 0 -6 -8t6 -8t6 8t-6 8zM554 295q-7 0 -7 -8q0 -9 7 -9q6 0 6 9q0 8 -6 8zM570 254q-6 0 -6 -8t6 -8t6 8t-6 8zM497 230q1 3 -5 3
q-5 0 -3.5 -4t3.5 -4q3 0 5 5zM767 108h16v8h-16v-8zM702 221v-17q10 6 10 17h-10zM735 443l8 -8l8 8l-8 8zM630 435q6 0 6 8t-6 8t-6 -8t6 -8zM703 362q6 0 6 8t-6 8q-7 0 -7 -8t7 -8zM678 338q-5 9 -16 9v-19q12 0 16 10zM743 248h5h3v18q-10 0 -16 -9q1 -7 8 -9zM662 159
v18q-10 0 -16 -10q2 -6 8 -8l2 -0.5t3 -0.5l1 0.5t2 0.5zM727 151v-8h16v8h-16zM687 111v-8h8v8h-8zM758 487q4 -1 4 4t-4 4t-4 -4t4 -4zM782 422q6 0 6 8t-6 8t-6 -8t6 -8zM766 381q4 0 4 5t-4 3.5t-4 -3.5q0 -4 4 -5zM782 244q6 0 6 8t-6 8t-6 -8t6 -8zM725 187v-16h8v16
h-8zM726 498q6 0 6 8t-6 8q-7 0 -7 -8t7 -8zM669 482q-1 -4 5 -4q5 0 3.5 4t-3.5 4q-4 0 -5 -4zM378 391q-2 0 -3 -3t-1 -6t1 -6t3 -2q4 1 4 8q0 8 -4 9zM434 479q-2 0 -3 -3t-1 -6t1 -6t3 -2q4 1 4 8q0 8 -4 9zM338 422q1 4 -4 4q-6 0 -4 -4t4 -4q3 0 4 4zM298 382
q-7 0 -7 -8q0 -9 7 -9q6 0 6 9q0 8 -6 8zM314 341q-6 0 -6 -8t6 -8t6 8t-6 8zM321 274l-8 -8l8 -8v16zM265 226q-7 0 -7 -8q0 -9 7 -9q6 0 6 9q0 8 -6 8zM393 536q-6 0 -6 -8t6 -8q7 0 7 8t-7 8zM328 512h-8v-8h8v8zM361 439h-8v-8zM345 407q-7 0 -7 -9q0 -8 7 -8q6 0 6 8
q0 9 -6 9zM344 297l1 -4q2 -6 8 -8q2 2 5 8t3 8t-3 5t-5 3q-6 -2 -8 -8l-0.5 -1.5t-0.5 -2.5zM829 504v-504h-240v150h-183l85 166h98v94h-109l-211 -410h-254l292 576h439q12 0 26.5 -7t27 -17.5t21 -23t8.5 -24.5zM172 88q-3 -6 -3 -10q0 -5 3 -8l13 8q-1 10 -13 10z
M251 88q5 1 8 3.5t7 6.5v3q0 4 -4 5l-1 0.5t-2 0.5l-2 -0.5t-3 -0.5l-6 -13zM106 40l8 -8l8 8l-8 8zM154 121q-6 0 -6 -8t6 -8q7 0 7 8t-7 8zM204 251q-5 -3 -5 -7q0 -5 4 -9h10zM236 340l16 -16q4 4 4 9q0 -2 -0.5 0t-1.5 7h-18zM210 284q-4 0 -4 -2q0 -3 3 -6q3 -9 10 -9
q4 0 4 4t-1 5q-6 8 -12 8zM731 74q-6 0 -6 -8t6 -8q7 0 7 8t-7 8zM633 40q-6 0 -6 -8t6 -8t6 8t-6 8zM657 73q-4 1 -4 -5q0 -5 4 -3.5t4 3.5q0 4 -4 5zM538 192l8 -8l8 8l-8 8zM606 608h-10q-42 0 -76.5 20.5t-54.5 41.5l-47 51l-1 13q0 11 3 17.5t9 11.5l81 34q7 4 20 4
q9 0 17 -3.5t16 -7.5l75 -110q4 -7 4 -22q0 -9 -1.5 -18.5t-9.5 -14.5zM516 722q-6 0 -6 -8t6 -8q3 0 8 -0.5t5 3.5t-5 8.5t-8 4.5zM532 763q-4 0 -4 -5t4 -3.5t4 3.5q0 4 -4 5zM555 657q-4 1 -4 -4t4 -4t4 4t-4 4zM470 738q-4 1 -4 -4t4 -4t4 4t-4 4zM602 662q-4 1 -4 -4
t4 -4t4 4t-4 4z" />
    <glyph glyph-name="FL00C1h" unicode="&#xc1;" horiz-adv-x="859" 
d="M546 200l8 -8l-8 -8l-8 8zM657 73q4 -1 4 -5q0 -2 -4 -3.5t-4 3.5q0 6 4 5zM633 40q6 0 6 -8t-6 -8t-6 8t6 8zM731 74q7 0 7 -8t-7 -8q-6 0 -6 8t6 8zM210 284q6 0 12 -8q1 -1 1 -5t-4 -4q-7 0 -10 9q-3 3 -3 6q0 2 4 2zM254 340q1 -5 1.5 -7t0.5 0q0 -5 -4 -9l-16 16h18
zM213 235h-10q-4 4 -4 9q0 4 5 7zM154 121q7 0 7 -8t-7 -8q-6 0 -6 8t6 8zM114 48l8 -8l-8 -8l-8 8zM248 93l6 13q1 0 3 0.5l2 0.5q1 0 2 -0.5l1 -0.5q4 -1 4 -5v-3q-4 -4 -7 -6.5t-8 -3.5zM172 88q12 0 13 -10l-13 -8q-3 3 -3 8q0 4 3 10zM829 504q0 12 -8.5 24.5t-21 23
t-27 17.5t-26.5 7h-439l-292 -576h254l211 410h109v-94h-98l-85 -166h183v-150h240v504zM344 297q0 1 0.5 2.5l0.5 1.5q2 6 8 8q2 0 5 -3t3 -5t-3 -8t-5 -8q-6 2 -8 8zM345 407q6 0 6 -9q0 -8 -6 -8q-7 0 -7 8q0 9 7 9zM353 431v8h8zM328 504h-8v8h8v-8zM393 536q7 0 7 -8
t-7 -8q-6 0 -6 8t6 8zM265 226q6 0 6 -8q0 -9 -6 -9q-7 0 -7 9q0 8 7 8zM321 258l-8 8l8 8v-16zM314 341q6 0 6 -8t-6 -8t-6 8t6 8zM298 382q6 0 6 -8q0 -9 -6 -9q-7 0 -7 9q0 8 7 8zM338 422q-1 -4 -4 -4q-2 0 -4 4t4 4q5 0 4 -4zM434 479q4 -1 4 -9q0 -7 -4 -8q-2 -1 -3 2
t-1 6t1 6t3 3zM378 391q4 -1 4 -9q0 -7 -4 -8q-2 -1 -3 2t-1 6t1 6t3 3zM669 482q1 4 5 4q2 0 3.5 -4t-3.5 -4q-6 0 -5 4zM726 498q-7 0 -7 8t7 8q6 0 6 -8t-6 -8zM733 187v-16h-8v16h8zM782 244q-6 0 -6 8t6 8t6 -8t-6 -8zM766 381q-4 1 -4 5q0 2 4 3.5t4 -3.5t-4 -5z
M782 422q-6 0 -6 8t6 8t6 -8t-6 -8zM758 487q-4 1 -4 4t4 4t4 -4t-4 -4zM695 111v-8h-8v8h8zM743 151v-8h-16v8h16zM662 159q-1 0 -2 -0.5l-1 -0.5q-1 0 -3 0.5l-2 0.5q-6 2 -8 8q6 10 16 10v-18zM743 248q-7 2 -8 9q6 9 16 9v-18h-3h-5zM678 338q-4 -10 -16 -10v19
q11 0 16 -9zM703 362q-7 0 -7 8t7 8q6 0 6 -8t-6 -8zM630 435q-6 0 -6 8t6 8t6 -8t-6 -8zM743 451l8 -8l-8 -8l-8 8zM712 221q0 -11 -10 -17v17h10zM767 116h16v-8h-16v8zM497 230q-2 -5 -5 -5q-2 0 -3.5 4t3.5 4q6 0 5 -3zM570 254q6 0 6 -8t-6 -8t-6 8t6 8zM554 295
q6 0 6 -8q0 -9 -6 -9q-7 0 -7 9q0 8 7 8zM633 506q6 0 6 -8t-6 -8t-6 8t6 8zM552 522q6 0 6 -8t-6 -8t-6 8t6 8zM609 530q6 0 6 -8t-6 -8q-7 0 -7 8t7 8zM528 538q6 0 6 -8t-6 -8q-7 0 -7 8t7 8zM494 608h10q42 0 76.5 20.5t54.5 41.5l47 51l1 13q0 11 -3 17.5t-9 11.5
l-81 34q-7 4 -20 4q-9 0 -17 -3.5t-16 -7.5l-75 -110q-4 -7 -4 -22q0 -9 1.5 -18.5t9.5 -14.5zM584 722q6 0 6 -8t-6 -8q-3 0 -8 -0.5t-5 3.5t5 8.5t8 4.5zM568 763q4 0 4 -5t-4 -3.5t-4 3.5q0 4 4 5zM545 657q4 1 4 -4t-4 -4t-4 4t4 4zM630 738q4 1 4 -4t-4 -4t-4 4t4 4z
M498 662q4 1 4 -4t-4 -4t-4 4t4 4z" />
    <glyph glyph-name="FL00C2h" unicode="&#xc2;" horiz-adv-x="859" 
d="M528 538q-7 0 -7 -8t7 -8q6 0 6 8t-6 8zM609 530q-7 0 -7 -8t7 -8q6 0 6 8t-6 8zM552 522q-6 0 -6 -8t6 -8t6 8t-6 8zM633 506q-6 0 -6 -8t6 -8t6 8t-6 8zM554 295q-7 0 -7 -8q0 -9 7 -9q6 0 6 9q0 8 -6 8zM570 254q-6 0 -6 -8t6 -8t6 8t-6 8zM497 230q1 3 -5 3
q-5 0 -3.5 -4t3.5 -4q3 0 5 5zM767 108h16v8h-16v-8zM702 221v-17q10 6 10 17h-10zM735 443l8 -8l8 8l-8 8zM630 435q6 0 6 8t-6 8t-6 -8t6 -8zM703 362q6 0 6 8t-6 8q-7 0 -7 -8t7 -8zM678 338q-5 9 -16 9v-19q12 0 16 10zM743 248h5h3v18q-10 0 -16 -9q1 -7 8 -9zM662 159
v18q-10 0 -16 -10q2 -6 8 -8l2 -0.5t3 -0.5l1 0.5t2 0.5zM727 151v-8h16v8h-16zM687 111v-8h8v8h-8zM758 487q4 -1 4 4t-4 4t-4 -4t4 -4zM782 422q6 0 6 8t-6 8t-6 -8t6 -8zM766 381q4 0 4 5t-4 3.5t-4 -3.5q0 -4 4 -5zM782 244q6 0 6 8t-6 8t-6 -8t6 -8zM725 187v-16h8v16
h-8zM726 498q6 0 6 8t-6 8q-7 0 -7 -8t7 -8zM669 482q-1 -4 5 -4q5 0 3.5 4t-3.5 4q-4 0 -5 -4zM378 391q-2 0 -3 -3t-1 -6t1 -6t3 -2q4 1 4 8q0 8 -4 9zM434 479q-2 0 -3 -3t-1 -6t1 -6t3 -2q4 1 4 8q0 8 -4 9zM338 422q1 4 -4 4q-6 0 -4 -4t4 -4q3 0 4 4zM298 382
q-7 0 -7 -8q0 -9 7 -9q6 0 6 9q0 8 -6 8zM314 341q-6 0 -6 -8t6 -8t6 8t-6 8zM321 274l-8 -8l8 -8v16zM265 226q-7 0 -7 -8q0 -9 7 -9q6 0 6 9q0 8 -6 8zM393 536q-6 0 -6 -8t6 -8q7 0 7 8t-7 8zM328 512h-8v-8h8v8zM361 439h-8v-8zM345 407q-7 0 -7 -9q0 -8 7 -8q6 0 6 8
q0 9 -6 9zM344 297l1 -4q2 -6 8 -8q2 2 5 8t3 8t-3 5t-5 3q-6 -2 -8 -8l-0.5 -1.5t-0.5 -2.5zM829 504v-504h-240v150h-183l85 166h98v94h-109l-211 -410h-254l292 576h439q12 0 26.5 -7t27 -17.5t21 -23t8.5 -24.5zM172 88q-3 -6 -3 -10q0 -5 3 -8l13 8q-1 10 -13 10z
M251 88q5 1 8 3.5t7 6.5v3q0 4 -4 5l-1 0.5t-2 0.5l-2 -0.5t-3 -0.5l-6 -13zM106 40l8 -8l8 8l-8 8zM154 121q-6 0 -6 -8t6 -8q7 0 7 8t-7 8zM204 251q-5 -3 -5 -7q0 -5 4 -9h10zM236 340l16 -16q4 4 4 9q0 -2 -0.5 0t-1.5 7h-18zM210 284q-4 0 -4 -2q0 -3 3 -6q3 -9 10 -9
q4 0 4 4t-1 5q-6 8 -12 8zM731 74q-6 0 -6 -8t6 -8q7 0 7 8t-7 8zM633 40q-6 0 -6 -8t6 -8t6 8t-6 8zM657 73q-4 1 -4 -5q0 -5 4 -3.5t4 3.5q0 4 -4 5zM538 192l8 -8l8 8l-8 8zM785 608h-184l-51 131l-46 -131h-185l68 175h328zM687 752l-8 -8h8v8zM647 752v-8l8 8h-8z
M638 670v-8h8v8h-8zM630 711q6 0 6 8t-6 8t-6 -8t6 -8zM616 647q6 0 6 8t-6 8t-6 -8t6 -8zM481 648h10v16q-10 -6 -10 -16zM474 698q4 1 4 5t-5 4q-3 0 -3 -4q0 -5 4 -5zM413 707q6 0 6 8t-6 8q-7 0 -7 -8t7 -8zM435 640q-6 0 -6 -8t6 -8t6 8t-6 8zM419 681q-4 -1 -4 -5
q0 -2 4 -3.5t4 3.5t-4 5zM502 747q4 1 4 5t-5 4q-3 0 -3 -4q0 -5 4 -5zM721 667q6 0 6 8t-6 8q-7 0 -7 -8t7 -8zM373 656q-6 0 -6 -8t6 -8t6 8t-6 8zM727 642q-4 -1 -4 -5t5 -4q3 0 3 4q0 5 -4 5z" />
    <glyph glyph-name="FL00C3h" unicode="&#xc3;" horiz-adv-x="859" 
d="M546 200l8 -8l-8 -8l-8 8zM657 73q4 -1 4 -5q0 -2 -4 -3.5t-4 3.5q0 6 4 5zM633 40q6 0 6 -8t-6 -8t-6 8t6 8zM731 74q7 0 7 -8t-7 -8q-6 0 -6 8t6 8zM210 284q6 0 12 -8q1 -1 1 -5t-4 -4q-7 0 -10 9q-3 3 -3 6q0 2 4 2zM254 340q1 -5 1.5 -7t0.5 0q0 -5 -4 -9l-16 16h18
zM213 235h-10q-4 4 -4 9q0 4 5 7zM154 121q7 0 7 -8t-7 -8q-6 0 -6 8t6 8zM114 48l8 -8l-8 -8l-8 8zM248 93l6 13q1 0 3 0.5l2 0.5q1 0 2 -0.5l1 -0.5q4 -1 4 -5v-3q-4 -4 -7 -6.5t-8 -3.5zM172 88q12 0 13 -10l-13 -8q-3 3 -3 8q0 4 3 10zM829 504q0 12 -8.5 24.5t-21 23
t-27 17.5t-26.5 7h-439l-292 -576h254l211 410h109v-94h-98l-85 -166h183v-150h240v504zM344 297q0 1 0.5 2.5l0.5 1.5q2 6 8 8q2 0 5 -3t3 -5t-3 -8t-5 -8q-6 2 -8 8zM345 407q6 0 6 -9q0 -8 -6 -8q-7 0 -7 8q0 9 7 9zM353 431v8h8zM328 504h-8v8h8v-8zM393 536q7 0 7 -8
t-7 -8q-6 0 -6 8t6 8zM265 226q6 0 6 -8q0 -9 -6 -9q-7 0 -7 9q0 8 7 8zM321 258l-8 8l8 8v-16zM314 341q6 0 6 -8t-6 -8t-6 8t6 8zM298 382q6 0 6 -8q0 -9 -6 -9q-7 0 -7 9q0 8 7 8zM338 422q-1 -4 -4 -4q-2 0 -4 4t4 4q5 0 4 -4zM434 479q4 -1 4 -9q0 -7 -4 -8q-2 -1 -3 2
t-1 6t1 6t3 3zM378 391q4 -1 4 -9q0 -7 -4 -8q-2 -1 -3 2t-1 6t1 6t3 3zM669 482q1 4 5 4q2 0 3.5 -4t-3.5 -4q-6 0 -5 4zM726 498q-7 0 -7 8t7 8q6 0 6 -8t-6 -8zM733 187v-16h-8v16h8zM782 244q-6 0 -6 8t6 8t6 -8t-6 -8zM766 381q-4 1 -4 5q0 2 4 3.5t4 -3.5t-4 -5z
M782 422q-6 0 -6 8t6 8t6 -8t-6 -8zM758 487q-4 1 -4 4t4 4t4 -4t-4 -4zM695 111v-8h-8v8h8zM743 151v-8h-16v8h16zM662 159q-1 0 -2 -0.5l-1 -0.5q-1 0 -3 0.5l-2 0.5q-6 2 -8 8q6 10 16 10v-18zM743 248q-7 2 -8 9q6 9 16 9v-18h-3h-5zM678 338q-4 -10 -16 -10v19
q11 0 16 -9zM703 362q-7 0 -7 8t7 8q6 0 6 -8t-6 -8zM630 435q-6 0 -6 8t6 8t6 -8t-6 -8zM743 451l8 -8l-8 -8l-8 8zM712 221q0 -11 -10 -17v17h10zM767 116h16v-8h-16v8zM497 230q-2 -5 -5 -5q-2 0 -3.5 4t3.5 4q6 0 5 -3zM570 254q6 0 6 -8t-6 -8t-6 8t6 8zM554 295
q6 0 6 -8q0 -9 -6 -9q-7 0 -7 9q0 8 7 8zM633 506q6 0 6 -8t-6 -8t-6 8t6 8zM552 522q6 0 6 -8t-6 -8t-6 8t6 8zM609 530q6 0 6 -8t-6 -8q-7 0 -7 8t7 8zM528 538q6 0 6 -8t-6 -8q-7 0 -7 8t7 8zM658 783l-25 -111l-33 111h-238l-45 -175h128l24 111l34 -111h238l44 175
h-127zM552 670q-6 0 -6 8t6 8t6 -8t-6 -8zM560 727q-1 0 -2.5 -0.5l-1.5 -0.5q-1 0 -2.5 0.5l-1.5 0.5q-6 2 -8 8h16v-8zM584 711q-3 1 -3 4q0 2 4 3.5t4 -3.5q0 -6 -5 -4zM402 736q-6 0 -6 8t6 8t6 -8t-6 -8zM601 653q-1 0 -2.5 -0.5l-1.5 -0.5q-1 0 -2.5 0.5l-1.5 0.5
q-6 2 -8 8h16v-8zM384 693q-3 1 -3 4q0 2 4 3.5t4 -3.5q0 -6 -5 -4zM715 688q-6 0 -6 8t6 8t6 -8t-6 -8zM723 745q-1 0 -2.5 -0.5l-1.5 -0.5q-1 0 -2.5 0.5l-1.5 0.5q-6 2 -8 8h16v-8zM672 649q-3 1 -3 4q0 2 4 3.5t4 -3.5q0 -6 -5 -4zM396 645q-6 0 -6 8t6 8t6 -8t-6 -8z
" />
    </font>
</defs>
</svg>
